<svg xmlns="http://www.w3.org/2000/svg" xmlns:xlink="http://www.w3.org/1999/xlink" viewBox="0 0 3710 3710"><defs><style>.cls-1{isolation:isolate;}.cls-10,.cls-2,.cls-30,.cls-5,.cls-55{fill:#fff;}.cls-3{fill:url(#linear-gradient);}.cls-4{fill:#bdd0fb;}.cls-5{mix-blend-mode:soft-light;}.cls-6{fill:#91b3fa;}.cls-7{fill:url(#linear-gradient-2);}.cls-8{fill:url(#linear-gradient-3);}.cls-9{fill:#7d97f4;}.cls-10,.cls-11{opacity:0.6;}.cls-12{fill:url(#linear-gradient-4);}.cls-13{fill:url(#linear-gradient-5);}.cls-14{fill:url(#linear-gradient-6);}.cls-15{fill:url(#linear-gradient-7);}.cls-16{fill:url(#linear-gradient-8);}.cls-17{fill:url(#linear-gradient-9);}.cls-18{fill:url(#linear-gradient-10);}.cls-19{fill:url(#linear-gradient-11);}.cls-20{fill:url(#linear-gradient-12);}.cls-21{fill:url(#linear-gradient-13);}.cls-22{fill:url(#linear-gradient-14);}.cls-23{fill:url(#linear-gradient-15);}.cls-24{fill:url(#linear-gradient-16);}.cls-25{fill:url(#linear-gradient-17);}.cls-26{fill:url(#linear-gradient-18);}.cls-27{fill:url(#linear-gradient-19);}.cls-28{fill:url(#linear-gradient-20);}.cls-29{fill:url(#linear-gradient-21);}.cls-30{opacity:0.37;}.cls-31{fill:url(#linear-gradient-22);}.cls-32{fill:url(#linear-gradient-23);}.cls-33{fill:url(#linear-gradient-24);}.cls-34{fill:url(#linear-gradient-25);}.cls-35{fill:url(#linear-gradient-26);}.cls-36{fill:url(#linear-gradient-27);}.cls-37{fill:url(#linear-gradient-28);}.cls-38{fill:url(#linear-gradient-29);}.cls-39{fill:url(#linear-gradient-30);}.cls-40{fill:url(#linear-gradient-31);}.cls-41{fill:url(#linear-gradient-32);}.cls-42{fill:url(#linear-gradient-33);}.cls-43{fill:url(#linear-gradient-34);}.cls-44{fill:url(#linear-gradient-35);}.cls-45{fill:url(#linear-gradient-36);}.cls-46{fill:url(#linear-gradient-37);}.cls-47{fill:url(#linear-gradient-38);}.cls-48{fill:url(#linear-gradient-39);}.cls-49{fill:url(#linear-gradient-40);}.cls-50{fill:url(#linear-gradient-41);}.cls-51{fill:url(#linear-gradient-42);}.cls-52{fill:url(#linear-gradient-43);}.cls-53{fill:url(#linear-gradient-44);}.cls-54{fill:url(#linear-gradient-45);}.cls-55{opacity:0.27;}.cls-56{fill:url(#linear-gradient-46);}.cls-57{fill:url(#linear-gradient-47);}.cls-58{fill:url(#linear-gradient-48);}.cls-59{fill:url(#linear-gradient-49);}.cls-60{fill:url(#linear-gradient-50);}.cls-61{fill:url(#linear-gradient-51);}.cls-62{fill:url(#linear-gradient-52);}.cls-63{fill:url(#linear-gradient-53);}.cls-64{fill:url(#linear-gradient-54);}.cls-65{fill:url(#linear-gradient-55);}.cls-66{fill:url(#linear-gradient-56);}.cls-67{fill:url(#linear-gradient-57);}.cls-68{fill:url(#linear-gradient-58);}.cls-69{fill:url(#linear-gradient-59);}.cls-70{fill:url(#linear-gradient-60);}.cls-71{fill:url(#linear-gradient-61);}.cls-72{fill:url(#linear-gradient-62);}.cls-73{fill:url(#linear-gradient-63);}</style><linearGradient id="linear-gradient" x1="3586.14" y1="4026.65" x2="1141.55" y2="990.63" gradientUnits="userSpaceOnUse"><stop offset="0" stop-color="#dae3fe"/><stop offset="1" stop-color="#e9effd"/></linearGradient><linearGradient id="linear-gradient-2" x1="2156.68" y1="365.53" x2="1917.68" y2="3379.61" gradientUnits="userSpaceOnUse"><stop offset="0" stop-color="#4f52ff"/><stop offset="1" stop-color="#4042e2"/></linearGradient><linearGradient id="linear-gradient-3" x1="958.95" y1="2799.18" x2="1178.03" y2="1952.72" xlink:href="#linear-gradient-2"/><linearGradient id="linear-gradient-4" x1="1771.71" y1="944.19" x2="1054.21" y2="2168.79" gradientUnits="userSpaceOnUse"><stop offset="0" stop-color="#fe7062"/><stop offset="1" stop-color="#ff928e"/></linearGradient><linearGradient id="linear-gradient-5" x1="1903.06" y1="1021.15" x2="1185.56" y2="2245.75" xlink:href="#linear-gradient-4"/><linearGradient id="linear-gradient-6" x1="2013.51" y1="1323.03" x2="1069.43" y2="2639.34" xlink:href="#linear-gradient-4"/><linearGradient id="linear-gradient-7" x1="2165.77" y1="1175.07" x2="1448.27" y2="2399.67" xlink:href="#linear-gradient-4"/><linearGradient id="linear-gradient-8" x1="2182.6" y1="1475.45" x2="1465.1" y2="2700.06" xlink:href="#linear-gradient-4"/><linearGradient id="linear-gradient-9" x1="1878.95" y1="635.55" x2="1030.63" y2="1568.7" gradientTransform="translate(26.51 -2.77) rotate(-1.31)" gradientUnits="userSpaceOnUse"><stop offset="0" stop-color="#e1473d"/><stop offset="1" stop-color="#e9605a"/></linearGradient><linearGradient id="linear-gradient-10" x1="1930.51" y1="682.44" x2="1082.2" y2="1615.59" xlink:href="#linear-gradient-9"/><linearGradient id="linear-gradient-11" x1="2018.2" y1="762.16" x2="1169.88" y2="1695.31" xlink:href="#linear-gradient-9"/><linearGradient id="linear-gradient-12" x1="2134.56" y1="867.96" x2="1286.25" y2="1801.11" xlink:href="#linear-gradient-9"/><linearGradient id="linear-gradient-13" x1="2228.75" y1="953.59" x2="1380.44" y2="1886.74" xlink:href="#linear-gradient-9"/><linearGradient id="linear-gradient-14" x1="2310.14" y1="1027.59" x2="1461.82" y2="1960.75" xlink:href="#linear-gradient-9"/><linearGradient id="linear-gradient-15" x1="2422.69" y1="1129.92" x2="1574.38" y2="2063.07" xlink:href="#linear-gradient-9"/><linearGradient id="linear-gradient-16" x1="2502.57" y1="1202.54" x2="1654.26" y2="2135.69" xlink:href="#linear-gradient-9"/><linearGradient id="linear-gradient-17" x1="2598.88" y1="1290.11" x2="1750.55" y2="2223.28" xlink:href="#linear-gradient-9"/><linearGradient id="linear-gradient-18" x1="2271.69" y1="255.69" x2="1526.17" y2="1236.39" gradientUnits="userSpaceOnUse"><stop offset="0" stop-color="#09005d"/><stop offset="1" stop-color="#1a0f91"/></linearGradient><linearGradient id="linear-gradient-19" x1="2353.46" y1="317.85" x2="1607.95" y2="1298.55" xlink:href="#linear-gradient-18"/><linearGradient id="linear-gradient-20" x1="2259.52" y1="377.84" x2="1744.76" y2="1323.04" xlink:href="#linear-gradient-2"/><linearGradient id="linear-gradient-21" x1="2878.16" y1="2434.44" x2="2624.24" y2="2942.29" gradientUnits="userSpaceOnUse"><stop offset="0" stop-color="#ff928e"/><stop offset="1" stop-color="#fe7062"/></linearGradient><linearGradient id="linear-gradient-22" x1="-1428.6" y1="2648.44" x2="-1715.73" y2="3065.68" gradientTransform="matrix(-1, 0, 0, 1, 1563.55, 0)" xlink:href="#linear-gradient-18"/><linearGradient id="linear-gradient-23" x1="-1418.27" y1="2655.54" x2="-1705.41" y2="3072.79" gradientTransform="matrix(-1, 0, 0, 1, 1563.55, 0)" xlink:href="#linear-gradient-18"/><linearGradient id="linear-gradient-24" x1="-1405.81" y1="2664.11" x2="-1692.95" y2="3081.36" gradientTransform="matrix(-1, 0, 0, 1, 1563.55, 0)" xlink:href="#linear-gradient-18"/><linearGradient id="linear-gradient-25" x1="-1384.27" y1="2678.94" x2="-1671.4" y2="3096.19" gradientTransform="matrix(-1, 0, 0, 1, 1563.55, 0)" xlink:href="#linear-gradient-18"/><linearGradient id="linear-gradient-26" x1="-1370.06" y1="2688.72" x2="-1657.2" y2="3105.97" gradientTransform="matrix(-1, 0, 0, 1, 1563.55, 0)" xlink:href="#linear-gradient-18"/><linearGradient id="linear-gradient-27" x1="-1361.24" y1="2694.79" x2="-1648.37" y2="3112.04" gradientTransform="matrix(-1, 0, 0, 1, 1563.55, 0)" xlink:href="#linear-gradient-18"/><linearGradient id="linear-gradient-28" x1="-1443.37" y1="2638.27" x2="-1730.51" y2="3055.51" gradientTransform="matrix(-1, 0, 0, 1, 1563.55, 0)" xlink:href="#linear-gradient-18"/><linearGradient id="linear-gradient-29" x1="2831.84" y1="1918.88" x2="2717.32" y2="2366.98" xlink:href="#linear-gradient-21"/><linearGradient id="linear-gradient-30" x1="-1413.32" y1="2098.39" x2="-1614.97" y2="2391.41" gradientTransform="matrix(-1, 0, 0, 1, 1563.55, 0)" xlink:href="#linear-gradient-18"/><linearGradient id="linear-gradient-31" x1="-1406.07" y1="2103.38" x2="-1607.72" y2="2396.4" gradientTransform="matrix(-1, 0, 0, 1, 1563.55, 0)" xlink:href="#linear-gradient-18"/><linearGradient id="linear-gradient-32" x1="-1397.32" y1="2109.4" x2="-1598.97" y2="2402.42" gradientTransform="matrix(-1, 0, 0, 1, 1563.55, 0)" xlink:href="#linear-gradient-18"/><linearGradient id="linear-gradient-33" x1="-1382.19" y1="2119.81" x2="-1583.84" y2="2412.83" gradientTransform="matrix(-1, 0, 0, 1, 1563.55, 0)" xlink:href="#linear-gradient-18"/><linearGradient id="linear-gradient-34" x1="-1372.21" y1="2126.68" x2="-1573.86" y2="2419.7" gradientTransform="matrix(-1, 0, 0, 1, 1563.55, 0)" xlink:href="#linear-gradient-18"/><linearGradient id="linear-gradient-35" x1="-1366.02" y1="2130.94" x2="-1567.67" y2="2423.96" gradientTransform="matrix(-1, 0, 0, 1, 1563.55, 0)" xlink:href="#linear-gradient-18"/><linearGradient id="linear-gradient-36" x1="-1423.7" y1="2091.25" x2="-1625.35" y2="2384.27" gradientTransform="matrix(-1, 0, 0, 1, 1563.55, 0)" xlink:href="#linear-gradient-18"/><linearGradient id="linear-gradient-37" x1="2528.9" y1="2750.26" x2="1971.26" y2="3297.94" xlink:href="#linear-gradient-21"/><linearGradient id="linear-gradient-38" x1="-941.28" y1="2815.07" x2="-1143.26" y2="3108.58" gradientTransform="matrix(-1, 0, 0, 1, 1563.55, 0)" xlink:href="#linear-gradient-18"/><linearGradient id="linear-gradient-39" x1="-935.65" y1="2820.2" x2="-1137.09" y2="3112.92" gradientTransform="matrix(-1, 0, 0, 1, 1563.55, 0)" xlink:href="#linear-gradient-18"/><linearGradient id="linear-gradient-40" x1="-928.6" y1="2826.16" x2="-1130.31" y2="3119.27" gradientTransform="matrix(-1, 0, 0, 1, 1563.55, 0)" xlink:href="#linear-gradient-18"/><linearGradient id="linear-gradient-41" x1="-916.55" y1="2836.75" x2="-1117.22" y2="3128.35" gradientTransform="matrix(-1, 0, 0, 1, 1563.55, 0)" xlink:href="#linear-gradient-18"/><linearGradient id="linear-gradient-42" x1="-908.53" y1="2843.55" x2="-1109.42" y2="3135.47" gradientTransform="matrix(-1, 0, 0, 1, 1563.55, 0)" xlink:href="#linear-gradient-18"/><linearGradient id="linear-gradient-43" x1="-903.5" y1="2847.71" x2="-1105.21" y2="3140.81" gradientTransform="matrix(-1, 0, 0, 1, 1563.55, 0)" xlink:href="#linear-gradient-18"/><linearGradient id="linear-gradient-44" x1="-949.57" y1="2808.18" x2="-1150.71" y2="3100.46" gradientTransform="matrix(-1, 0, 0, 1, 1563.55, 0)" xlink:href="#linear-gradient-18"/><linearGradient id="linear-gradient-45" x1="1932.72" y1="2396.28" x2="1579.22" y2="2934" xlink:href="#linear-gradient-18"/><linearGradient id="linear-gradient-46" x1="2887.96" y1="1019.63" x2="2385.08" y2="1960.65" xlink:href="#linear-gradient-18"/><linearGradient id="linear-gradient-47" x1="2128.11" y1="2054.59" x2="1970.55" y2="2054.59" gradientTransform="matrix(-1, 0, 0, 1, 3116.78, 0)" gradientUnits="userSpaceOnUse"><stop offset="0" stop-color="#febbba"/><stop offset="1" stop-color="#ff928e"/></linearGradient><linearGradient id="linear-gradient-48" x1="283.43" y1="2815.47" x2="287.59" y2="3272.27" gradientTransform="translate(738.48)" xlink:href="#linear-gradient-18"/><linearGradient id="linear-gradient-49" x1="188.29" y1="3112.28" x2="240.02" y2="3112.28" gradientTransform="translate(738.48)" xlink:href="#linear-gradient-47"/><linearGradient id="linear-gradient-50" x1="129.84" y1="3309.11" x2="165.15" y2="2361.75" gradientTransform="translate(738.48)" xlink:href="#linear-gradient-18"/><linearGradient id="linear-gradient-51" x1="29.14" y1="2817.78" x2="33.3" y2="3274.59" gradientTransform="translate(738.48)" xlink:href="#linear-gradient-18"/><linearGradient id="linear-gradient-52" x1="1.86" y1="3109.63" x2="46.52" y2="3109.63" gradientTransform="translate(738.48)" xlink:href="#linear-gradient-47"/><linearGradient id="linear-gradient-53" x1="42.52" y1="3305.86" x2="77.83" y2="2358.5" gradientTransform="translate(738.48)" xlink:href="#linear-gradient-18"/><linearGradient id="linear-gradient-54" x1="2445.93" y1="3470.06" x2="2386.19" y2="3061.79" gradientTransform="matrix(-1, 0, 0, 1, 3116.78, 0)" xlink:href="#linear-gradient-21"/><linearGradient id="linear-gradient-55" x1="2659.71" y1="3438.77" x2="2599.96" y2="3030.5" gradientTransform="matrix(-1, 0, 0, 1, 3116.78, 0)" xlink:href="#linear-gradient-21"/><linearGradient id="linear-gradient-56" x1="-177.04" y1="2130.54" x2="168.41" y2="2130.54" gradientTransform="translate(738.48)" xlink:href="#linear-gradient-47"/><linearGradient id="linear-gradient-57" x1="1321.91" y1="1573.08" x2="1213.48" y2="1739.05" xlink:href="#linear-gradient-18"/><linearGradient id="linear-gradient-58" x1="143.58" y1="2101.92" x2="247.77" y2="2101.92" gradientTransform="translate(738.48)" xlink:href="#linear-gradient-47"/><linearGradient id="linear-gradient-59" x1="1600.69" y1="2414.95" x2="1704.89" y2="2414.95" gradientTransform="matrix(-0.85, -0.53, -0.53, 0.85, 3778.4, 848.1)" xlink:href="#linear-gradient-47"/><linearGradient id="linear-gradient-60" x1="85.72" y1="1796.49" x2="217.95" y2="1796.49" gradientTransform="translate(738.48)" xlink:href="#linear-gradient-47"/><linearGradient id="linear-gradient-61" x1="-4511.54" y1="-530.83" x2="-4560.95" y2="-693.8" gradientTransform="translate(5499.56 1862.1) rotate(-5.84)" xlink:href="#linear-gradient-47"/><linearGradient id="linear-gradient-62" x1="-4556.12" y1="-814.78" x2="-4514.79" y2="-579.03" gradientTransform="translate(5499.56 1862.1) rotate(-5.84)" xlink:href="#linear-gradient-18"/><linearGradient id="linear-gradient-63" x1="-4562.05" y1="-531.59" x2="-4606.51" y2="-678.21" gradientTransform="translate(5499.56 1862.1) rotate(-5.84)" xlink:href="#linear-gradient-47"/></defs><g class="cls-1"><g id="Background"><rect class="cls-2" width="3710" height="3710"/></g><g id="Illustration"><path class="cls-3" d="M2913.61,2829.36c-56.15,59.11-109.28,97.23-151.25,127.35-493.43,354-1077.29,250.84-1201.37,225.64-183.24-37.22-537.43-109.16-793.5-410.29C380.07,2316.46,440.4,1598.68,740.9,1124.87c55-86.67,345.33-567.71,935.47-644.85,357.15-46.68,773.47,47.48,1075,300.06C3384.18,1310.29,3339.13,2381.39,2913.61,2829.36Z"/><path class="cls-4" d="M762.4,479.26c-4.82-14.87,12.52-27.09,25.05-17.74C914.67,556.4,1227.62,848.27,1223,1421c-5.79,718.61,171.26,960.45,373,1097.32,0,0-260.83-45.5-449.46-289.88C683.39,1628.44,848.06,743.62,762.4,479.26Z"/><path class="cls-5" d="M875.05,690.7C898.4,768,920.21,845.66,939.16,924q29,117.4,50.8,236.31c14.19,79.28,26.88,158.81,36.18,238.77,9.65,79.91,15.86,160.14,21.82,240.72,6.4,80.5,12.39,161.63,26.71,242.39,14.21,80.61,38.27,160.81,76.28,234.24,9.49,18.3,19.36,36.5,30.19,53.93,10.52,17.64,21.83,34.83,33.43,51.8a878.82,878.82,0,0,0,77,96.46c56.07,60.45,121.31,112.31,191.47,154.5a15.6,15.6,0,0,0,16.48-26.5l0,0c-16.78-10.75-33.41-21.67-49.5-33.3-8.14-5.68-16-11.72-24-17.6-7.75-6.18-15.74-12.06-23.29-18.48a822,822,0,0,1-86.08-81.63c-53.54-58.16-98.67-124.63-135.1-194.72a785.67,785.67,0,0,1-45.35-109.33,890.77,890.77,0,0,1-29-115.27c-14.5-78.32-21.09-158.58-28.07-239s-14.76-161.26-25.75-241.62q-8.07-60.29-18.31-120.24c-3.29-20-7-39.92-10.62-59.86q-5.76-29.85-11.89-59.61-24.87-119-57-236.19c-21.82-78-45.71-155.34-72.54-231.65a4.18,4.18,0,0,0-8,2.6Z"/><path class="cls-6" d="M1158.83,2695.68c-6.79,28-40,39.93-63.27,23C967,2625.34,627.29,2328.52,597.43,1780.79c-25.22-462.54-82.85-710.95-116.82-821.9-7.19-23.46,19.76-42.46,39.47-27.85C737.58,1092.23,1405.15,1681.66,1158.83,2695.68Z"/><path class="cls-5" d="M1120.1,2700.16a10.74,10.74,0,0,1-1.8,1.22,11.25,11.25,0,0,1-15.27-4.44c-3.38-6.17-339.54-624.37-403.66-1265.91a11.25,11.25,0,0,1,22.38-2.23c63.65,636.87,397.63,1251.19,401,1257.31A11.25,11.25,0,0,1,1120.1,2700.16Z"/><path class="cls-7" d="M1179.93,818h1620.8a167.92,167.92,0,0,1,167.7,159.38l97.45,1994.85a123.82,123.82,0,0,1-121.41,130.1L1086.82,3136.1a117.53,117.53,0,0,1-119.67-117.51l22.19-2010C989.34,903.34,1074.67,818,1179.93,818Z"/><path class="cls-6" d="M1358.32,3095.88h0l-207.86-2.69c-69.35-.9-125.77-58.05-125.77-127.41V2652a4.16,4.16,0,1,1,8.31,0v313.83c0,64.83,52.74,118.25,117.57,119.09l207.86,2.69a4.16,4.16,0,0,1-.06,8.32Z"/><path class="cls-8" d="M1028.79,2558.9a4.15,4.15,0,0,1-4.15-4.16v-50.82a4.16,4.16,0,1,1,8.31,0v50.82A4.16,4.16,0,0,1,1028.79,2558.9Z"/><path class="cls-9" d="M1184.92,799c221.33,30,982.44,122.85,1611.72,74.54a51.2,51.2,0,0,1,55.13,48.29L2955,2927.11a58.91,58.91,0,0,1-55.34,62c-264.67,15.66-1354.63,76.21-1743.41,35.49a46.68,46.68,0,0,1-41.76-46.2l7.61-2124.18A55.36,55.36,0,0,1,1184.92,799Z"/><path class="cls-4" d="M1208.62,860.19c213,28.89,945.46,118.22,1551,71.74a49.26,49.26,0,0,1,53.05,46.46l98.54,1916.45a56.71,56.71,0,0,1-53.26,59.62c-254.7,15.07-1303.62,73.34-1677.76,34.15a44.93,44.93,0,0,1-40.19-44.45l8.16-2030.83A53.28,53.28,0,0,1,1208.62,860.19Z"/><path class="cls-2" d="M1501.53,1665.41h-.36l-140.52-1.35c-19.44-.19-35.49-13.52-37.32-31L1311,1515.15a24.4,24.4,0,0,1,5.77-18.35,29.64,29.64,0,0,1,20.64-10.17h0c11.83-.81,28.48-2.22,46.1-3.73,37.17-3.16,83.43-7.1,109.43-7.42h.56c17.91,0,33.32,10.88,37.57,26.61,7.28,26.91,6.64,78,5.25,132.52C1535.85,1651.66,1520.29,1665.41,1501.53,1665.41Zm-8.06-181.62H1493c-25.69.32-71.79,4.25-108.82,7.4-17.66,1.51-34.34,2.93-46.24,3.75h0a21.24,21.24,0,0,0-14.84,7.21,16.13,16.13,0,0,0-3.86,12.13l12.35,117.89c1.39,13.29,13.92,23.43,29.14,23.57l140.51,1.35h.28c14.29,0,26.12-10.13,26.44-22.7,1.37-53.84,2-104.3-5-130.14C1519.74,1492.16,1507.63,1483.79,1493.47,1483.79Z"/><path class="cls-10" d="M1353.15,1508.34c29.52-2,93.67-8.54,124.1-8.92,12.89-.16,24.2,7.63,27.22,18.81,5.88,21.72,5.1,65,4.08,104.94-.31,12-11.29,21.52-24.71,21.39l-112.29-1.08c-13.81-.13-25.27-9.55-26.56-21.81l-9.87-94.21C1334.1,1517.71,1342.21,1509.08,1353.15,1508.34Z"/><g class="cls-11"><path class="cls-2" d="M1619.73,1544.48c-3.51-.06-5.4,2.59-4.21,5.89l21,58.21a9.77,9.77,0,0,0,8.55,6h988.8a6.18,6.18,0,0,0,6.2-6.38l-1.19-39.65a6.79,6.79,0,0,0-6.58-6.49Z"/></g><path class="cls-12" d="M1359.13,1526.82h0a21.56,21.56,0,0,1,29.75,8.1l27.71,49.68a6.93,6.93,0,0,0,12.37-.54l68.74-153c3.43-7.63,14.8-5,14.67,3.32-.7,46.81-13.12,135.79-87.92,210.27,0,0-41.22-16-74.41-88.91A22.63,22.63,0,0,1,1359.13,1526.82Z"/><path class="cls-2" d="M1501.54,1966.56h-.37l-140.52-1.35c-19.44-.18-35.49-13.52-37.32-31L1311,1816.3a24.41,24.41,0,0,1,5.77-18.35,29.62,29.62,0,0,1,20.64-10.17h0c11.86-.8,28.55-2.23,46.22-3.73,37.13-3.16,83.34-7.1,109.31-7.42h.55c17.92,0,33.33,10.88,37.58,26.62,7.28,26.91,6.64,78,5.25,132.51C1535.85,1952.81,1520.3,1966.56,1501.54,1966.56ZM1338,1796.09a21.19,21.19,0,0,0-14.84,7.22,16.12,16.12,0,0,0-3.86,12.12l12.35,117.9c1.39,13.29,13.92,23.42,29.14,23.56l140.51,1.35h.29c14.28,0,26.11-10.13,26.43-22.7,1.37-53.84,2-104.3-5-130.13-3.3-12.23-15.52-20.82-30-20.47-25.67.33-71.71,4.25-108.7,7.4-17.71,1.5-34.44,2.93-46.36,3.75Z"/><path class="cls-10" d="M1353.15,1809.49c29.52-2,93.67-8.53,124.1-8.91,12.89-.16,24.2,7.62,27.22,18.8,5.88,21.72,5.1,65,4.08,104.95-.31,12-11.29,21.51-24.71,21.38l-112.29-1.08c-13.81-.13-25.27-9.55-26.56-21.81l-9.87-94.21C1334.1,1818.86,1342.21,1810.23,1353.15,1809.49Z"/><g class="cls-11"><path class="cls-2" d="M1619.73,1845.63c-3.51-.06-5.4,2.59-4.21,5.89l21,58.21a9.78,9.78,0,0,0,8.55,6h988.8a6.19,6.19,0,0,0,6.2-6.39l-1.19-39.65a6.79,6.79,0,0,0-6.58-6.49Z"/></g><path class="cls-13" d="M1359.13,1828h0a21.57,21.57,0,0,1,29.75,8.1l27.71,49.68a6.93,6.93,0,0,0,12.37-.54l68.74-153c3.43-7.64,14.8-5.06,14.67,3.31-.7,46.81-13.12,135.79-87.92,210.27,0,0-41.22-16-74.41-88.91A22.63,22.63,0,0,1,1359.13,1828Z"/><path class="cls-2" d="M1501.54,2267.71h-.37l-140.52-1.35c-19.44-.18-35.49-13.52-37.32-31L1311,2117.45a24.38,24.38,0,0,1,5.77-18.34,29.59,29.59,0,0,1,20.64-10.18h0c11.86-.8,28.55-2.23,46.22-3.73,37.13-3.16,83.34-7.1,109.31-7.42h.55c17.92,0,33.33,10.88,37.58,26.62,7.28,26.91,6.64,78,5.25,132.51C1535.85,2254,1520.3,2267.71,1501.54,2267.71ZM1338,2097.24a21.23,21.23,0,0,0-14.84,7.22,16.12,16.12,0,0,0-3.86,12.12l12.35,117.9c1.39,13.29,13.92,23.42,29.14,23.56l140.51,1.35h.29c14.28,0,26.11-10.13,26.43-22.7,1.37-53.84,2-104.3-5-130.13-3.3-12.23-15.52-20.74-30-20.46-25.67.32-71.71,4.24-108.7,7.39-17.71,1.5-34.44,2.93-46.36,3.75Z"/><path class="cls-10" d="M1353.15,2110.64c29.52-2,93.67-8.53,124.1-8.91,12.89-.16,24.2,7.63,27.22,18.81,5.88,21.71,5.1,65,4.08,104.94-.31,12-11.29,21.51-24.71,21.38l-112.29-1.08c-13.81-.13-25.27-9.54-26.56-21.81l-9.87-94.21C1334.1,2120,1342.21,2111.39,1353.15,2110.64Z"/><g class="cls-11"><path class="cls-2" d="M1619.73,2146.78c-3.51-.06-5.39,2.59-4.18,5.89l21.37,58.22a9.85,9.85,0,0,0,8.59,6h1004a6.18,6.18,0,0,0,6.19-6.39l-1.21-39.65a6.79,6.79,0,0,0-6.58-6.49Z"/></g><path class="cls-14" d="M1359.13,2129.13h0a21.56,21.56,0,0,1,29.75,8.09l27.71,49.68a6.93,6.93,0,0,0,12.37-.54l68.74-153c3.43-7.64,14.8-5.06,14.67,3.31-.7,46.81-13.12,135.79-87.92,210.27,0,0-41.22-16-74.41-88.91A22.61,22.61,0,0,1,1359.13,2129.13Z"/><path class="cls-2" d="M1501.54,2568.86h-.37l-140.52-1.35c-19.44-.18-35.49-13.52-37.32-31L1311,2418.6a24.38,24.38,0,0,1,5.77-18.34,29.6,29.6,0,0,1,20.64-10.17h0c11.83-.81,28.47-2.23,46.1-3.73,37.17-3.16,83.43-7.11,109.43-7.43h.56c17.91,0,33.32,10.88,37.57,26.61,7.28,26.91,6.64,78,5.25,132.51C1535.85,2555.11,1520.3,2568.86,1501.54,2568.86Zm-8.07-181.61H1493c-25.7.32-71.79,4.24-108.83,7.4-17.66,1.5-34.33,2.93-46.23,3.74h0a21.25,21.25,0,0,0-14.84,7.22,16.12,16.12,0,0,0-3.86,12.12l12.35,117.9c1.39,13.29,13.92,23.42,29.14,23.57l140.51,1.34h.29c14.28,0,26.11-10.13,26.43-22.7,1.37-53.84,2-104.3-5-130.13C1519.74,2395.61,1507.63,2387.25,1493.47,2387.25Z"/><path class="cls-10" d="M1353.15,2411.79c29.52-2,93.67-8.53,124.1-8.91,12.89-.16,24.2,7.63,27.22,18.81,5.88,21.71,5.1,65,4.08,104.94-.31,12-11.29,21.51-24.71,21.38l-112.29-1.08c-13.81-.13-25.27-9.54-26.56-21.81l-9.87-94.21C1334.1,2421.17,1342.21,2412.54,1353.15,2411.79Z"/><g class="cls-11"><path class="cls-2" d="M1619.73,2447.93c-3.51-.06-5.36,2.58-4.12,5.87l22,58.27a10,10,0,0,0,8.65,6H2680.08a6.16,6.16,0,0,0,6.19-6.38L2685,2472a6.8,6.8,0,0,0-6.59-6.49Z"/></g><path class="cls-15" d="M1359.13,2430.28h0a21.57,21.57,0,0,1,29.75,8.09l27.71,49.68a6.93,6.93,0,0,0,12.37-.53l68.74-153c3.43-7.64,14.8-5.05,14.67,3.31-.7,46.81-13.12,135.79-87.92,210.28,0,0-41.22-16-74.41-88.92A22.62,22.62,0,0,1,1359.13,2430.28Z"/><path class="cls-2" d="M1518.37,2869.25H1518l-140.52-1.35c-19.44-.19-35.49-13.52-37.33-31L1327.8,2719a24.41,24.41,0,0,1,5.77-18.35,29.64,29.64,0,0,1,20.64-10.17h0c11.83-.8,28.47-2.22,46.1-3.72,37.17-3.17,83.43-7.11,109.43-7.43h.55c17.92,0,33.33,10.88,37.58,26.62,7.28,26.91,6.64,78,5.24,132.5C1552.68,2855.49,1537.13,2869.25,1518.37,2869.25Zm-8.08-181.62h-.45c-25.7.31-71.79,4.24-108.83,7.4-17.66,1.5-34.34,2.92-46.23,3.74h0a21.19,21.19,0,0,0-14.83,7.22,16.12,16.12,0,0,0-3.87,12.12L1348.43,2836c1.39,13.29,13.92,23.42,29.13,23.57l140.52,1.35h.29c14.28,0,26.11-10.13,26.43-22.71,1.37-53.83,2-104.3-5-130.12C1536.57,2696,1524.46,2687.63,1510.29,2687.63Z"/><path class="cls-10" d="M1370,2712.17c29.51-2,93.67-8.53,124.1-8.91,12.89-.16,24.2,7.63,27.22,18.81,5.87,21.72,5.1,65,4.08,104.94-.31,12-11.3,21.52-24.71,21.39l-112.29-1.08c-13.81-.13-25.27-9.55-26.56-21.81L1352,2731.3C1350.93,2721.55,1359,2712.92,1370,2712.17Z"/><g class="cls-11"><path class="cls-2" d="M1643.16,2748.31c-3.52,0-5.38,2.59-4.14,5.87l22,58.27a10,10,0,0,0,8.64,6H2701.72a6.18,6.18,0,0,0,6.19-6.38l-1.25-39.65a6.79,6.79,0,0,0-6.58-6.49Z"/></g><path class="cls-16" d="M1376,2730.66h0a21.57,21.57,0,0,1,29.75,8.1l27.71,49.68a6.93,6.93,0,0,0,12.37-.54l68.74-153c3.43-7.63,14.79-5.05,14.67,3.32-.7,46.81-13.12,135.79-87.92,210.27,0,0-41.22-16-74.41-88.91A22.62,22.62,0,0,1,1376,2730.66Z"/><path class="cls-17" d="M1426.7,1313.18l-26.64.6a11.65,11.65,0,0,1-7.42-2.07,12.74,12.74,0,0,1-4.29-5.47l-14.7-37.47-76.72,1.75-13,38.1a12.08,12.08,0,0,1-3.91,5.47,11.31,11.31,0,0,1-7.31,2.6l-26.77.62,68.52-186.87,35.22-.81ZM1305.21,1246l59-1.35-24-61.09q-1.63-4.07-3.62-9.59t-3.92-12q-1.65,6.57-3.25,12.25t-3.17,9.94Z"/><path class="cls-18" d="M1479.89,1246.73l1.5,65.2-34.46.78-4.23-185.2,60.32-1.38q18.59-.44,32.25,3.62t22.7,11.65a47.8,47.8,0,0,1,13.49,18.4,69.69,69.69,0,0,1,.85,48.49,51.19,51.19,0,0,1-13,19.58,62.61,62.61,0,0,1-22.13,13.07q-13.34,4.79-31.4,5.2Zm-.61-26.9,25.87-.59a51.71,51.71,0,0,0,16.47-2.75,30.58,30.58,0,0,0,11.5-7,27.85,27.85,0,0,0,6.67-10.92,41.13,41.13,0,0,0,2-14.2,37.3,37.3,0,0,0-2.61-13.4,26.6,26.6,0,0,0-7.15-10.09,30.92,30.92,0,0,0-11.8-6.2,54.75,54.75,0,0,0-16.58-1.86l-25.87.59Z"/><path class="cls-19" d="M1640,1243.07l1.49,65.2-34.45.78-4.24-185.2,60.33-1.38q18.57-.43,32.25,3.62t22.69,11.65a47.7,47.7,0,0,1,13.49,18.4,69.69,69.69,0,0,1,.85,48.49,51.17,51.17,0,0,1-13,19.58,62.78,62.78,0,0,1-22.13,13.07q-13.35,4.79-31.41,5.2Zm-.62-26.9,25.88-.59a51.81,51.81,0,0,0,16.47-2.75,30.54,30.54,0,0,0,11.49-7,27.87,27.87,0,0,0,6.68-10.92,41.13,41.13,0,0,0,2-14.2,37.74,37.74,0,0,0-2.61-13.4,26.62,26.62,0,0,0-7.16-10.09,30.85,30.85,0,0,0-11.8-6.2,54.72,54.72,0,0,0-16.57-1.86l-25.88.59Z"/><path class="cls-20" d="M1799.94,1232.24l1.65,72.37-34.45.78-4.24-185.2,56.49-1.3q19-.42,32.56,3.17t22.41,10.44a42.36,42.36,0,0,1,13.06,16.56,59,59,0,0,1,2.18,39.22,51,51,0,0,1-7.6,15.3,53.5,53.5,0,0,1-12.53,12.2,67,67,0,0,1-17.17,8.6,34.11,34.11,0,0,1,11.51,10.37l47.93,67.34-31,.71a15.27,15.27,0,0,1-7.66-1.62,15.6,15.6,0,0,1-5.44-5l-40.29-58.41a13.73,13.73,0,0,0-4.91-4.63c-1.77-.9-4.37-1.31-7.78-1.23Zm-.57-24.72,21.52-.49a53.51,53.51,0,0,0,16.92-2.82,33.1,33.1,0,0,0,11.76-7,26.93,26.93,0,0,0,6.74-10.34,35.12,35.12,0,0,0,2-13q-.32-14.1-9.78-21.44t-28.54-6.9l-22,.5Z"/><path class="cls-21" d="M2103.16,1205.06a102.66,102.66,0,0,1-5.92,37.87,89.56,89.56,0,0,1-18.4,30.48,86.48,86.48,0,0,1-29.14,20.46,106.79,106.79,0,0,1-76.65,1.75,86.81,86.81,0,0,1-30.17-19.11,88.78,88.78,0,0,1-19.84-29.59,108.2,108.2,0,0,1-1.72-75.44,88.76,88.76,0,0,1,18.46-30.48,87.14,87.14,0,0,1,29.26-20.47,100.44,100.44,0,0,1,38.2-8,99,99,0,0,1,38.46,6.3,87.72,87.72,0,0,1,30,19.11,88.69,88.69,0,0,1,19.77,29.53A102.7,102.7,0,0,1,2103.16,1205.06Zm-35.35.81a86.38,86.38,0,0,0-4.66-27.26,57.8,57.8,0,0,0-12.06-20.29,49.86,49.86,0,0,0-18.68-12.51,63.06,63.06,0,0,0-24.5-3.93,63.88,63.88,0,0,0-24.36,5,50.45,50.45,0,0,0-18.21,13.36,58.17,58.17,0,0,0-11.25,20.83,93.37,93.37,0,0,0,1.25,54.69,57.43,57.43,0,0,0,12.19,20.22,50.65,50.65,0,0,0,18.8,12.45,68.71,68.71,0,0,0,48.86-1.12,50.19,50.19,0,0,0,18.09-13.29,57,57,0,0,0,11.12-20.75A86.21,86.21,0,0,0,2067.81,1205.87Z"/><path class="cls-22" d="M2102.84,1112.41l27.79-.63a11.58,11.58,0,0,1,7.35,2,13.37,13.37,0,0,1,4.36,5.54l46.13,112q2.3,5.46,4.44,12t4.1,13.81a158.63,158.63,0,0,1,6.7-26.17l40.84-114a13.39,13.39,0,0,1,4-5.47,11.12,11.12,0,0,1,7.25-2.6l27.79-.64L2213,1295.2l-31.13.71Z"/><path class="cls-23" d="M2419.71,1105.17l.63,27.41-82.1,1.88,1.17,51.36,64.68-1.48.61,26.51-64.68,1.48,1.2,52.39,82.1-1.88.63,27.54-116.81,2.67-4.24-185.21Z"/><path class="cls-24" d="M2616.13,1193.33a100.32,100.32,0,0,1-5.93,37.56,84.1,84.1,0,0,1-47.57,49.53,104,104,0,0,1-38.14,7.66l-70.7,1.62-4.23-185.21,70.7-1.62a103.22,103.22,0,0,1,38.45,6,86.51,86.51,0,0,1,30,18.41,85.3,85.3,0,0,1,19.76,28.83A100.26,100.26,0,0,1,2616.13,1193.33Zm-35.22.81a85.11,85.11,0,0,0-4.73-27.25,58.09,58.09,0,0,0-12.12-20.23,50.24,50.24,0,0,0-18.67-12.45,63.33,63.33,0,0,0-24.51-3.93l-36,.83,3,130.38,36-.82a63.41,63.41,0,0,0,24.3-5,50.19,50.19,0,0,0,18.09-13.29,58,58,0,0,0,11.18-20.76A85,85,0,0,0,2580.91,1194.14Z"/><path class="cls-25" d="M2638.56,1176.67a19.7,19.7,0,0,1,1.3-7.59,17.88,17.88,0,0,1,4-6.24,20.19,20.19,0,0,1,6.11-4.24,19.28,19.28,0,0,1,7.66-1.71,19,19,0,0,1,7.59,1.36,18.87,18.87,0,0,1,10.48,10,19.47,19.47,0,0,1,.34,15.18,19.49,19.49,0,0,1-4,6.18,18.36,18.36,0,0,1-6.05,4.17,19.65,19.65,0,0,1-7.52,1.65,20,20,0,0,1-7.72-1.3,19.08,19.08,0,0,1-6.31-3.89,18.08,18.08,0,0,1-4.23-6A19.4,19.4,0,0,1,2638.56,1176.67Zm2.09,91.33a19.45,19.45,0,0,1,1.3-7.59,18,18,0,0,1,4-6.25,20.41,20.41,0,0,1,6.12-4.24,19.27,19.27,0,0,1,7.65-1.71,19,19,0,0,1,7.59,1.37,19.53,19.53,0,0,1,6.25,4,19.33,19.33,0,0,1,4.23,6.06,19,19,0,0,1,1.71,7.52,18.71,18.71,0,0,1-1.36,7.65,19.38,19.38,0,0,1-4,6.18,18.64,18.64,0,0,1-6.05,4.18,19.84,19.84,0,0,1-7.53,1.64,20.06,20.06,0,0,1-7.72-1.29,19.33,19.33,0,0,1-6.3-3.9,18.15,18.15,0,0,1-4.24-6A19.56,19.56,0,0,1,2640.65,1268Z"/><path class="cls-26" d="M2090.86,497.62c-58.55-40.73-109.46-39.92-145.29-29.35a71.49,71.49,0,0,0-50.77,75.15l15.45,168.68,183.9,16.32S2205.67,577.5,2090.86,497.62ZM2010,633.71a45.86,45.86,0,1,1,45.86-45.86A45.86,45.86,0,0,1,2010,633.71Z"/><path class="cls-6" d="M1928.63,640.87a4.16,4.16,0,0,1-4.14-3.78L1922,610.23a4.16,4.16,0,1,1,8.28-.76l2.46,26.86a4.15,4.15,0,0,1-3.76,4.52Zm-4.83-52.64a4.17,4.17,0,0,1-4.14-3.78l-1.86-20.4A67.91,67.91,0,0,1,1966,492.76a137.08,137.08,0,0,1,67.08-2.76,4.16,4.16,0,1,1-1.67,8.15,129,129,0,0,0-63.06,2.58,59.62,59.62,0,0,0-42.24,62.56l1.87,20.4a4.17,4.17,0,0,1-3.76,4.52Z"/><path class="cls-27" d="M1659.26,821.12V736.31a51.75,51.75,0,0,1,53.53-51.72l584.72,20A50.34,50.34,0,0,1,2346,751.91l4.88,81.49Z"/><path class="cls-6" d="M1877.29,716.26h-25.14a4.16,4.16,0,0,1,0-8.32h25.14a4.16,4.16,0,1,1,0,8.32Z"/><path class="cls-6" d="M1690.91,794.21a4.17,4.17,0,0,1-4.16-4.16V755.74a47.86,47.86,0,0,1,47.8-47.8H1827a4.16,4.16,0,1,1,0,8.32h-92.45a39.52,39.52,0,0,0-39.48,39.48v34.31A4.16,4.16,0,0,1,1690.91,794.21Z"/><path class="cls-28" d="M1476.05,790.08l1022.49,0A75.58,75.58,0,0,1,2573,852.73l.87,5a64.92,64.92,0,0,1-64,76h-1049a42.2,42.2,0,0,1-42.15-44.23l2.26-47A55.09,55.09,0,0,1,1476.05,790.08Z"/><path class="cls-29" d="M3116.78,3213A111.11,111.11,0,0,0,3230,3101.92V2607.58a118.44,118.44,0,0,0-117.14-118.5c-194.91-2.12-596.91-2.23-925.84,25.49a89,89,0,0,0-81.42,85.58l-30.74,477.93a113.15,113.15,0,0,0,110.94,117.22Z"/><path class="cls-2" d="M3117.1,2661.07c.83,42.06-.42,108.8-1.44,151.92a38.08,38.08,0,0,1-42.52,36.91l-160.41-18.8a38.09,38.09,0,0,1-33.23-43.48l19.69-131.34a38.09,38.09,0,0,1,37.67-32.45H3079A38,38,0,0,1,3117.1,2661.07Z"/><path class="cls-30" d="M2697.9,2910l-133.81,14.44a30.17,30.17,0,0,1-33.32-32.21l29.25-398c56.1-1.78,111.42-3.07,164.81-4V2880A30.16,30.16,0,0,1,2697.9,2910Z"/><path class="cls-2" d="M2643.06,2841a13.46,13.46,0,0,1-13.43,12.68l-.79,0a13.45,13.45,0,0,1-12.65-14.22l20.18-347.39c9-.23,18-.43,27-.63Z"/><path class="cls-31" d="M3042.92,2786.45a4.48,4.48,0,0,0,4.47-4.2l6.94-109.42a4.48,4.48,0,0,0-4.19-4.76,4.39,4.39,0,0,0-4.76,4.2l-6.94,109.42a4.49,4.49,0,0,0,4.2,4.76Z"/><path class="cls-32" d="M3028.63,2786.45a4.49,4.49,0,0,0,4.49-4.33l3.64-111.52a4.5,4.5,0,0,0-4.34-4.63,4.25,4.25,0,0,0-4.64,4.33l-3.63,111.52a4.48,4.48,0,0,0,4.33,4.63Z"/><path class="cls-33" d="M3009.27,2786.45a4.48,4.48,0,0,1-4.27-4.69c1.78-37.46,5.17-108.91,5.22-111.35a4.49,4.49,0,0,1,9,0c0,1.85-4.37,93.4-5.24,111.73a4.48,4.48,0,0,1-4.48,4.27Zm.86-116h0Z"/><path class="cls-34" d="M2979.57,2790.94a9,9,0,0,0,9-8.66c3.79-108,3.12-110.48,2.69-112.09a9,9,0,0,0-17.56,3.55c.29,6.49-1.71,69.36-3.06,107.91a9,9,0,0,0,8.65,9.28Z"/><path class="cls-35" d="M2960.12,2786.45a4.47,4.47,0,0,0,4.49-4.48V2672.55a4.49,4.49,0,1,0-9,0V2782A4.47,4.47,0,0,0,2960.12,2786.45Z"/><path class="cls-36" d="M2944.42,2786.45a4.48,4.48,0,0,0,4.49-4.38c.86-38,2.86-100.12,4.66-107.59a4.49,4.49,0,0,0-6.38-5.94c-2.44,1.61-4.77,3.12-7.25,113.32a4.49,4.49,0,0,0,4.38,4.59Z"/><path class="cls-37" d="M3067.06,2796.42a9,9,0,0,0,9-8.51l6-114.9a9,9,0,0,0-8.5-9.43,9.08,9.08,0,0,0-9.43,8.5l-6,114.9a9,9,0,0,0,8.5,9.43Z"/><path class="cls-38" d="M3143.9,2416.85V2069.7a83.18,83.18,0,0,0-82.26-83.23c-136.89-1.49-419.2-1.56-650.2,17.91a62.52,62.52,0,0,0-57.18,60.1l-21.59,335.63a79.47,79.47,0,0,0,77.91,82.33l653.82,12.42A78,78,0,0,0,3143.9,2416.85Z"/><path class="cls-2" d="M3064.62,2107.26c.58,29.54-.29,76.41-1,106.69a26.74,26.74,0,0,1-29.86,25.92l-112.65-13.2a26.75,26.75,0,0,1-23.34-30.53l13.83-92.25a26.75,26.75,0,0,1,26.45-22.78h99.84A26.71,26.71,0,0,1,3064.62,2107.26Z"/><path class="cls-30" d="M2770.23,2282.07l-94,10.14a21.19,21.19,0,0,1-23.4-22.62l20.54-279.53c39.39-1.25,78.25-2.16,115.74-2.8V2261A21.18,21.18,0,0,1,2770.23,2282.07Z"/><path class="cls-2" d="M2731.71,2233.62a9.45,9.45,0,0,1-9.43,8.91l-.55,0a9.45,9.45,0,0,1-8.89-10l14.17-244c6.36-.16,12.66-.3,19-.44Z"/><path class="cls-39" d="M3012.52,2195.31a3.16,3.16,0,0,0,3.15-2.95l4.87-76.84a3.14,3.14,0,0,0-2.95-3.34,3.07,3.07,0,0,0-3.34,2.94l-4.87,76.85a3.15,3.15,0,0,0,2.95,3.34Z"/><path class="cls-40" d="M3002.49,2195.31a3.15,3.15,0,0,0,3.15-3l2.56-78.32a3.15,3.15,0,0,0-3-3.25,3,3,0,0,0-3.25,3l-2.56,78.32a3.15,3.15,0,0,0,3,3.25Z"/><path class="cls-41" d="M2988.89,2195.31a3.14,3.14,0,0,1-3-3.29c1.24-26.31,3.63-76.49,3.66-78.2a3.16,3.16,0,0,1,6.31,0c0,1.3-3.07,65.59-3.68,78.46a3.15,3.15,0,0,1-3.15,3Zm.61-81.46h0Z"/><path class="cls-42" d="M2968,2198.46a6.29,6.29,0,0,0,6.29-6.08c2.66-75.87,2.19-77.58,1.89-78.72a6.3,6.3,0,0,0-12.33,2.5c.2,4.56-1.21,48.7-2.15,75.78a6.29,6.29,0,0,0,6.07,6.52Z"/><path class="cls-43" d="M2954.38,2195.31a3.14,3.14,0,0,0,3.15-3.15v-76.84a3.15,3.15,0,1,0-6.3,0v76.84A3.14,3.14,0,0,0,2954.38,2195.31Z"/><path class="cls-44" d="M2943.35,2195.31a3.14,3.14,0,0,0,3.15-3.07c.61-26.7,2-70.32,3.28-75.56a3.15,3.15,0,0,0-4.48-4.17c-1.72,1.12-3.35,2.19-5.1,79.58a3.16,3.16,0,0,0,3.08,3.22Z"/><path class="cls-45" d="M3029.48,2202.31a6.31,6.31,0,0,0,6.29-6l4.2-80.69a6.31,6.31,0,0,0-6-6.63,6.38,6.38,0,0,0-6.62,6l-4.2,80.69a6.3,6.3,0,0,0,6,6.62Z"/><path class="cls-46" d="M2654.41,3133.63V2786.47c0-45.61-31.67-82.73-71.09-83.22-118.3-1.49-362.28-1.57-561.91,17.9-27.25,2.65-48.44,28.49-49.42,60.1l-18.66,335.63c-1.39,44.4,29,81.49,67.33,82.33l565,12.43C2623.44,3212.47,2654.41,3177.3,2654.41,3133.63Z"/><path class="cls-2" d="M2585.9,2824c.5,29.54-.26,76.41-.88,106.69-.32,15.75-12.27,27.76-25.8,25.92l-97.36-13.2c-13-1.76-22.1-15.59-20.17-30.53l11.95-92.25c1.7-13.09,11.42-22.78,22.86-22.78h86.28C2575.36,2797.88,2585.65,2809.48,2585.9,2824Z"/><path class="cls-30" d="M2331.48,2998.84,2250.26,3009c-11.36,1.42-21.06-9.42-20.22-22.61l17.75-279.54c34.05-1.25,67.63-2.16,100-2.8v273.75C2347.82,2988.6,2340.77,2997.68,2331.48,2998.84Z"/><path class="cls-2" d="M2298.19,2950.39c-.25,5-3.85,8.91-8.15,8.91l-.48,0c-4.5-.3-7.94-4.77-7.68-10l12.25-244c5.49-.16,10.94-.3,16.38-.44Z"/><path class="cls-47" d="M2540.87,2912.09a2.93,2.93,0,0,0,2.72-3l4.21-76.84a3,3,0,0,0-2.54-3.34,2.83,2.83,0,0,0-2.89,3l-4.21,76.84a3,3,0,0,0,2.54,3.34Z"/><path class="cls-48" d="M2532.21,2912.09a3,3,0,0,0,2.72-3.05l2.21-78.31a3,3,0,0,0-2.64-3.26c-1.73-.1-2.76,1.31-2.81,3.05l-2.21,78.31a3,3,0,0,0,2.63,3.26Z"/><path class="cls-49" d="M2520.45,2912.08a3,3,0,0,1-2.59-3.29c1.08-26.31,3.14-76.49,3.17-78.2a2.75,2.75,0,1,1,5.45,0c0,1.3-2.65,65.59-3.18,78.46a2.93,2.93,0,0,1-2.72,3Zm.53-81.46h0Z"/><path class="cls-50" d="M2502.43,2915.24c2.92,0,5.33-2.68,5.43-6.08,2.31-75.88,1.9-77.59,1.64-78.72-.79-3.37-3.81-5.34-6.69-4.43-2.66.85-4.33,3.84-4,6.92.18,4.56-1,48.71-1.86,75.78-.1,3.48,2.25,6.4,5.25,6.52Z"/><path class="cls-51" d="M2490.63,2912.09a3,3,0,0,0,2.72-3.15v-76.85a2.75,2.75,0,1,0-5.45,0v76.85A3,3,0,0,0,2490.63,2912.09Z"/><path class="cls-52" d="M2481.1,2912.09a3,3,0,0,0,2.72-3.08c.52-26.7,1.74-70.31,2.83-75.56a3.6,3.6,0,0,0-.1-3.27,2.51,2.51,0,0,0-3.77-.9c-1.49,1.13-2.9,2.19-4.41,79.58a3,3,0,0,0,2.66,3.23Z"/><path class="cls-53" d="M2555.53,2919.08c2.87,0,5.28-2.61,5.43-6l3.63-80.69c.16-3.48-2.15-6.44-5.16-6.62-2.85-.24-5.56,2.49-5.72,6l-3.63,80.69c-.15,3.47,2.15,6.43,5.16,6.62Z"/><path class="cls-54" d="M2014.22,2363.18l-669.9,729.13a71.23,71.23,0,0,0,8.48,104.24l5.36,4.21a66.23,66.23,0,0,0,93.25-11.55l609.42-787.08Z"/><ellipse class="cls-55" cx="2385.67" cy="1959.56" rx="542.04" ry="532.26" transform="translate(-634.44 1319.07) rotate(-27.43)"/><path class="cls-56" d="M2112.88,1433.86c-295.67,153.42-413.23,513.16-262.57,803.5s512.47,401.32,808.14,247.9,413.23-513.16,262.57-803.5S2408.55,1280.44,2112.88,1433.86ZM2618.38,2408c-252.24,130.88-560.91,36.2-689.43-211.49s-28.23-554.58,224-685.47,560.91-36.19,689.43,211.49S2870.62,2277.15,2618.38,2408Z"/><path class="cls-6" d="M1923.15,2279.29a1.52,1.52,0,0,1-1.48-.65c-8-11.57-15.68-23.61-22.79-35.8a1.55,1.55,0,0,1,2.67-1.56c7.07,12.12,14.69,24.1,22.66,35.6a1.55,1.55,0,0,1-.39,2.15A1.59,1.59,0,0,1,1923.15,2279.29Zm-72.61-148.9a1.54,1.54,0,0,1-1.68-1.07A542.94,542.94,0,0,1,1826.55,2016c-9.56-108.75,13.38-217.6,66.32-314.77,54.2-99.49,136.52-179.93,238.05-232.61,95.5-49.55,202.09-71.2,308.27-62.59a1.55,1.55,0,0,1-.25,3.09,565.86,565.86,0,0,0-306.59,62.24c-101,52.4-182.86,132.4-236.77,231.35-52.65,96.63-75.45,204.87-65.95,313a540.08,540.08,0,0,0,22.18,112.66,1.54,1.54,0,0,1-1,1.93A1,1,0,0,1,1850.54,2130.39Z"/><path class="cls-6" d="M1414.63,3190.81c-29.11,4.05-49.38-3.47-60.25-22.39-11.07-19.24-8.17-44,7.23-61.5l79.09-90.12a1.31,1.31,0,0,1,2,1.73l-79.1,90.12c-14.65,16.69-17.43,40.19-6.92,58.47,10.4,18.08,30,25.16,58.53,21h0a1.31,1.31,0,0,1,.37,2.59Z"/><path class="cls-6" d="M1466.24,2991.19a1.31,1.31,0,0,1-1.16-2.16l10.25-11.68a1.31,1.31,0,0,1,2,1.72l-10.25,11.69A1.35,1.35,0,0,1,1466.24,2991.19Z"/><path class="cls-57" d="M1146.24,2031s0,182.19-79.88,167.34c-48.8-9.08-77.69-205.34-77.69-205.34s50.49-112.47,56.13-75.65C1085.79,2185,1116.32,1980.16,1146.24,2031Z"/><path class="cls-58" d="M931.71,3112.42s-6,34.15-9,67.94A23.29,23.29,0,0,0,945,3205.59c45,1.88,141.29,5.52,175.84,4a7.57,7.57,0,0,0,6.66-10.38h0a17,17,0,0,0-8.67-9.14l-159-73.09Z"/><path class="cls-59" d="M926.77,3092.36l4.85,40.84s27.86,13,46.88-1.63L967,3086.05Z"/><path class="cls-60" d="M930.41,2324.54c-2.09,10.67-11.23,532.23,44.52,765.95a7.93,7.93,0,0,1-4.65,9.23,138.19,138.19,0,0,1-45.41,9.23,13.66,13.66,0,0,1-13.55-9.81c-15.94-54.23-92.3-325.93-102.26-585.47-11.14-290,0-9.88,0-9.88l6.52-179.27Z"/><path class="cls-61" d="M748.77,3130.23s-9.6,17.24-18.89,63a14.21,14.21,0,0,0,12.5,17c14.86,1.46,37.74,3.34,56.07,3.21a14.16,14.16,0,0,0,14-15.8c-2-16.72-8.35-44.15-27.89-65.53Z"/><path class="cls-62" d="M740.34,3077.7l11.32,61.77s11.2,8.32,33.34,2.29l-5.4-66.46Z"/><path class="cls-63" d="M709.75,2340.55c-45.6,275.18,9.89,680.12,28.61,759.38a12.36,12.36,0,0,0,10,9.39c8.35,1.38,22.1,2.51,35.66-1.43a11.32,11.32,0,0,0,8.14-10.43c2.51-64.07-2-457.45,40.48-612.91a35.37,35.37,0,0,1,13.62-19.49l82.46-58.62,6.33-94.76Z"/><path class="cls-64" d="M1005.32,1829.53C838.83,1812.88,712.88,1855,712.88,1855c-40.73,237.66-7.12,511.79-7.12,511.79,105.78,27.74,225.12-17,225.12-17,17.58-99.33,90.84-328.71,90.84-328.71,33.38-4.14,64.71,12.72,57.5-33.62S1026.29,1831.63,1005.32,1829.53Z"/><path class="cls-65" d="M765.29,1987.33,712.88,1855s-127.64,86.72-148.62,196.67c24.11,1.78,68,8,111,29.74C684.65,2029.51,765.29,1987.33,765.29,1987.33Z"/><path class="cls-66" d="M887.93,2111.83s-147.43,80.76-195.78,11.61c-10-14.36-19.07-33.42-16.6-47-43-21.69-87.18-22.94-111.29-24.72-6.33,33.15-3.09,61.3,21.11,106.6,64.73,121.16,321.52-11.13,321.52-11.13Z"/><path class="cls-67" d="M894.6,2164.88l62.64-218.72a6.36,6.36,0,0,1,5.39-4.6c11.35-1.32,44.23-5,82.19-8.25,45.73-3.87,98.84-7,130.57-4.33a6.4,6.4,0,0,1,5.23,9.21c-18,36.51-92.27,185-129.44,233.67a6.44,6.44,0,0,1-5.17,2.53L900.7,2173A6.41,6.41,0,0,1,894.6,2164.88Z"/><path class="cls-6" d="M1053.66,1914.6l44.59-7.43a3.2,3.2,0,0,1,3.57,4.16l-4.42,13.37a3.18,3.18,0,0,1-2.61,2.17l-42.91,5.73a3.2,3.2,0,0,1-3.54-3.9l2.73-11.68A3.21,3.21,0,0,1,1053.66,1914.6Z"/><path class="cls-9" d="M1020.28,1952.34l3.67-19.13a4.43,4.43,0,0,1,3.9-3.57l90.06-9.13a4.41,4.41,0,0,1,4.74,5.43l-5.72,23.84a4.43,4.43,0,0,1-4.08,3.39l-88,4.43A4.43,4.43,0,0,1,1020.28,1952.34Z"/><path class="cls-68" d="M900.68,2148.61a12.43,12.43,0,0,1-13.22-10c-2.92-14.08-7.47-39.8-4.36-51,4.4-15.89,12.91-36.33,41.29-31.79s61.86,16.5,61.86,16.5-1.69,20.7-23.26,14l13.38,10.35s-1.92,16.58-20.14,7.72l12.45,13.73s-7.83,13.61-21.23,4.88C935.47,2115.21,929.06,2145.87,900.68,2148.61Z"/><path class="cls-69" d="M1108.49,2079s33-32.17,37.75-48,8.36-37.64-18.1-48.87-61.17-18.88-61.17-18.88-9.57,18.44,12.25,24.24l-16.83,1.66s-7.18,15.06,13,17.24l-17.83,5s-.6,15.69,15.39,15.41S1073.42,2063.36,1108.49,2079Z"/><path class="cls-70" d="M867.93,1725.18l-43.47,125.73a4.53,4.53,0,0,0,2.06,5.46c11.85,6.55,54.55,25.49,106-7.13a21.32,21.32,0,0,0,9.82-15.24l14.08-108.82Z"/><path class="cls-71" d="M997.76,1694.06s-14,100.79-40.3,126.6-72.65-11-97.2-65.19l27.68-99.77Z"/><path class="cls-72" d="M890.07,1718.21a3.71,3.71,0,0,0,4.49-3.44c.32-7,1.51-20.84,5.78-30.63,0,0-3.73-9.49,25.19,2.46s72.29,29.41,95.21,14c22.34-15,39.81-80.76-21.44-62.65a3.7,3.7,0,0,1-4.78-3.4c-.3-10.49-3.78-34.32-28.81-39.53-23.42-4.87-34.79,6.64-39.28,13.35a3.68,3.68,0,0,1-5.74.49c-7.71-8.18-28.09-25.17-54-10.42-21.37,12.15-23.44,26.29-22.19,34.84a3.7,3.7,0,0,1-4.88,4c-7.18-2.46-18.37-3-27.58,11.34-12.73,19.79,9.76,33.52,16.44,37a3.67,3.67,0,0,1,2,2.87c1,9.5,6.76,50.85,30,72.13a3.74,3.74,0,0,0,6.07-1.7l12.11-39.79a3.73,3.73,0,0,1,4.34-2.56Z"/><path class="cls-73" d="M891.2,1725.92s-13.85-38.83-27.39-24.37,8.11,41,25.68,44.68Z"/></g></g></svg>