<?xml version="1.0" encoding="utf-8"?>
<!-- Generator: Adobe Illustrator 24.1.2, SVG Export Plug-In . SVG Version: 6.00 Build 0)  -->
<svg version="1.1" id="Layer_1" xmlns="http://www.w3.org/2000/svg" xmlns:xlink="http://www.w3.org/1999/xlink" x="0px" y="0px"
	 viewBox="0 0 500 400" style="enable-background:new 0 0 500 400;" xml:space="preserve">
<style type="text/css">
	.st0{display:none;fill:#FFFFFF;}
	.st1{fill:#FFF6EB;}
	.st2{fill:#B7DCFF;}
	.st3{fill:#FFDCD1;}
	.st4{fill:#FFFFFF;}
	.st5{fill:#522D34;}
	.st6{fill:#112633;}
	.st7{fill:#FFC6B5;}
	.st8{fill:#A8D8FF;}
	.st9{fill:#FAA88D;}
	.st10{fill:#EC8777;}
	.st11{fill:#719FD1;}
	.st12{fill:#D2EBFF;}
	.st13{fill:#9DC9EC;}
	.st14{fill:#2E6589;}
	.st15{fill:#6F3D47;}
	.st16{fill:#FF9100;}
	.st17{fill:#FF771D;}
	.st18{fill:#1B3C51;}
	.st19{fill:#FF5962;}
	.st20{fill:#81AC60;}
	.st21{fill:url(#SVGID_1_);}
	.st22{fill:url(#SVGID_2_);}
	.st23{fill:#E50027;}
	.st24{fill:#FFBC00;}
	.st25{fill:#63990E;}
	.st26{fill:url(#SVGID_3_);}
	.st27{fill:url(#SVGID_4_);}
</style>
<rect class="st0" width="500" height="400"/>
<path class="st1" d="M114.4,293c0,0-63.1-38.8-61.1-82.4s81,27,81,27S85,178.1,115.4,159s47.5,50.9,47.5,50.9s-1.4-69.4,34-66.3
	s58.4,137.1,58.4,137.1L114.4,293z"/>
<path class="st1" d="M384.5,303.2c0,0,69.3-26.1,75.6-69.3s-84.6,11.1-84.6,11.1s61.9-50.9,35.7-75.3s-58.5,42.8-58.5,42.8
	s14.5-67.9-20.7-71.6s-45.9,139.9-45.9,139.9L384.5,303.2z"/>
<path class="st1" d="M163.9,218c2.7-13.4-1-27-0.8-40.5c-0.1-6.1,1.2-12.1,3.7-17.7c2.4-5.3,6.6-9.5,11.9-11.8
	c6.5-2.7,13.8-2.5,20.7-2.3c0.2,0,0.3-0.2,0.3-0.4c0-0.2-0.2-0.3-0.3-0.3c-6.2-0.2-12.6-0.3-18.7,1.5c-5.5,1.7-10.2,5.4-13.1,10.3
	c-6.9,11.2-5.4,24.9-4.3,37.4c0.7,7.9,1.4,15.9-0.2,23.6C163,218.3,163.8,218.4,163.9,218L163.9,218z"/>
<path class="st1" d="M342.2,234.4c8.6-11.4,12.8-25.3,18.8-38.1c5.7-12.2,13.7-24.2,26.7-29.4c3.3-1.4,6.9-2.1,10.5-2.2
	c1.7-0.1,3.4,0.1,5.1,0.5c1.5,0.5,3,1.4,3.1,3.1c0,0.5,0.8,0.5,0.7,0c-0.1-2.8-3.1-3.9-5.5-4.2c-3.2-0.4-6.5-0.1-9.6,0.7
	c-6.5,1.7-12.4,5-17.2,9.7c-10.7,10.1-15.8,24.4-21.4,37.6c-3.3,7.7-6.8,15.3-11.9,22.1C341.3,234.4,341.9,234.8,342.2,234.4
	L342.2,234.4z"/>
<path class="st2" d="M132,121.5c0,21.6-19.5,39-43.6,39s-43.6-17.5-43.6-39s-3.6-68.5,43.6-39S132,100,132,121.5z"/>
<path class="st2" d="M273.8,71.9c-13.3,3.7-41.7-2.6-47.3-20.2s10.6-21.8,31.1-28.3s45.5-19.7,51.4,8.7S287,68.3,273.8,71.9z"/>
<path class="st2" d="M391.2,65.8c12.3,12.8,0.1,27.8-15,38.5c-15.2,10.7-36.2,7.1-46.9-8.1c-10.9-15.2-36.7-46.8,7.6-47
	S378.9,53,391.2,65.8z"/>
<path class="st2" d="M452.8,150.9c-11.1,14.1-32.4,15.7-47.7,3.7s-18.6-33.2-7.5-47.2s33-46.5,47.7-3.7S463.9,136.9,452.8,150.9z"/>
<path class="st2" d="M126.7,82.2c9.9-3.9,24.8-9.5,34.3-18.2s19.9-24.9,46.8-4.9s8.4,10.8-20.3,40.2S116.8,86.1,126.7,82.2z"/>
<rect x="201" y="7.8" transform="matrix(0.7899 -0.6132 0.6132 0.7899 28.1486 137.494)" class="st3" width="27.6" height="39.6"/>
<rect x="193.4" y="14.5" transform="matrix(0.7899 -0.6132 0.6132 0.7899 33.5659 129.0681)" class="st4" width="23.5" height="2.1"/>
<rect x="200.6" y="17.2" transform="matrix(0.7899 -0.6132 0.6132 0.7899 32.3427 130.9332)" class="st4" width="13.4" height="2.1"/>
<path class="st4" d="M201.7,30.5c-0.1,0-0.2,0-0.2-0.1c-0.1-0.1-0.1-0.3,0-0.4c0,0,0,0,0,0l15.6-12.1c0.1-0.1,0.3-0.1,0.4,0
	c0,0,0,0,0,0c0.1,0.1,0.1,0.3-0.1,0.4l-15.6,12.1C201.8,30.5,201.7,30.5,201.7,30.5z"/>
<path class="st4" d="M202.9,32c-0.1,0-0.2,0-0.2-0.1c-0.1-0.1-0.1-0.3,0-0.4l15.6-12.1c0.1-0.1,0.3-0.1,0.4,0c0.1,0.1,0.1,0.3,0,0.4
	c0,0,0,0-0.1,0.1L203,32C203,32,202.9,32,202.9,32z"/>
<path class="st4" d="M204,33.5c-0.1,0-0.2,0-0.2-0.1c-0.1-0.1-0.1-0.3,0-0.4l15.6-12.1c0.1-0.1,0.3-0.1,0.4,0c0.1,0.1,0.1,0.3,0,0.4
	c0,0,0,0,0,0l-15.5,12.1C204.2,33.5,204.1,33.6,204,33.5z"/>
<path class="st4" d="M205.2,35.1c-0.1,0-0.2,0-0.2-0.1c-0.1-0.1-0.1-0.3,0.1-0.4l10-7.8c0.1-0.1,0.3-0.1,0.4,0.1
	c0.1,0.1,0.1,0.3,0,0.4l-10,7.7C205.3,35,205.3,35.1,205.2,35.1z"/>
<path class="st4" d="M214.9,47.6c-0.1,0-0.2,0-0.2-0.1c-0.1-0.1-0.1-0.3,0.1-0.4l6.7-5.2c0.1-0.1,0.3-0.1,0.4,0c0,0,0,0,0,0
	c0.1,0.1,0.1,0.3-0.1,0.4l-6.7,5.2C215.1,47.5,215,47.6,214.9,47.6z"/>
<path class="st4" d="M216.1,49.1c-0.1,0-0.2,0-0.2-0.1c-0.1-0.1-0.1-0.3,0.1-0.4l4.3-3.3c0.1-0.1,0.3-0.1,0.4,0s0.1,0.3,0,0.4
	c0,0,0,0-0.1,0.1l-4.3,3.3C216.2,49.1,216.2,49.1,216.1,49.1z"/>
<path class="st1" d="M288.5,208.3c3.3-10.7,6.6-21.4,11.2-31.5c4-9.2,9.5-17.8,16.2-25.3c3.8-4.1,8-7.6,12.7-10.5
	c0.4-0.3,0-0.9-0.4-0.6c-8.2,5.3-15.3,12.4-20.6,20.6c-6,8.9-10.3,18.9-13.9,29c-2.1,6-4,12.1-5.9,18.2
	C287.7,208.6,288.4,208.8,288.5,208.3L288.5,208.3z"/>
<path class="st1" d="M404.5,291.4c23.5-11,44.5-26.9,61.4-46.6c2.8-3.3,5.9-6.8,6.1-11.3c0.2-4.1-2.4-7.1-5.8-9
	c-7.7-4.5-17.2-5.1-25.9-5.3l-3.5-0.1c-0.2,0-0.3,0.2-0.3,0.4c0,0.2,0.2,0.3,0.3,0.3c8.9,0.2,18.2,0.4,26.5,4
	c3.4,1.5,7.2,3.8,7.8,7.8c0.8,4.7-2.5,8.8-5.4,12.1c-17,19.9-38,35.9-61.7,47C403.7,291,404,291.7,404.5,291.4L404.5,291.4z"/>
<path class="st1" d="M117.4,291.5C106.3,286,96.1,279,87,270.7c-9.1-8.3-17-17.9-23.6-28.3c-3.2-5.2-6.1-10.6-8.6-16.1
	c-1.3-2.9-2.5-5.8-3.5-8.7c-1.4-3.5-2.4-7.2-2.9-11c-0.8-6.4,0.8-13.7,6.5-17.3c6.3-4,14.1-2.2,20.8-0.4c14.1,3.9,28.8,7.5,43.4,4.8
	c1.8-0.3,3.6-0.8,5.3-1.3c0.2-0.1,0.3-0.3,0.3-0.5c-0.1-0.2-0.3-0.3-0.5-0.3c-14.9,4.4-30.6,1.5-45.2-2.6c-6.8-1.9-14.1-4.3-21.1-2
	c-2.9,0.9-5.5,2.8-7.3,5.3c-1.7,2.5-2.8,5.4-3,8.5c-0.8,7.1,1.9,14.2,4.4,20.6c2.3,5.8,4.9,11.4,8,16.8
	c6.2,10.9,13.9,20.8,22.8,29.6c8.9,8.8,19,16.3,30,22.2c1.3,0.7,2.7,1.4,4.1,2.1C117.4,292.3,117.7,291.7,117.4,291.5L117.4,291.5z"
	/>
<rect x="165.6" y="64.6" transform="matrix(0.9987 -5.007000e-02 5.007000e-02 0.9987 -3.726 9.3877)" class="st3" width="39.8" height="29"/>
<path class="st5" d="M185.8,85.8L185.8,85.8c0.1,0,0.2,0,0.2-0.1L204.7,64v-0.4h-0.4l-18.5,21.6l-20.4-19.5h-0.4V66l20.7,19.8
	C185.7,85.8,185.7,85.9,185.8,85.8z"/>
<path class="st5" d="M181.4,81.4c0.1-0.1,0.1-0.3,0-0.4s-0.3-0.1-0.4,0l-14.6,13.1v0.4h0.5L181.4,81.4z"/>
<path class="st5" d="M206.1,92.2l-15.9-11.6c-0.1-0.1-0.3-0.1-0.4,0.1c-0.1,0.1-0.1,0.3,0.1,0.4c0,0,0,0,0,0l15.8,11.6h0.5
	L206.1,92.2z"/>
<circle class="st6" cx="267.6" cy="34.7" r="28.1"/>
<path class="st7" d="M350.5,101.7c-0.1,0-0.2-0.1-0.3-0.2c-0.7-2.1-1.1-3.3-1.1-3.4c-0.1-0.2,0-0.3,0.2-0.4c0.2-0.1,0.3,0,0.4,0.2
	c0,0,0,0,0,0c0,0,0.5,1.2,1.2,3.4c0,0.2,0,0.3-0.2,0.4C350.6,101.7,350.6,101.7,350.5,101.7L350.5,101.7z"/>
<path class="st7" d="M104.4,311.6h-2.7c-0.2,0-0.3-0.1-0.3-0.3c0-0.2,0.1-0.3,0.3-0.3l0,0c2.3,0,4.7,0,7.1,0c0.2,0,0.3,0.1,0.3,0.3
	c0,0.2-0.1,0.3-0.3,0.3c0,0,0,0,0,0C107.3,311.6,105.8,311.6,104.4,311.6z M94.6,311.3L94.6,311.3c-2.4-0.2-4.8-0.4-7.1-0.7
	c-0.2,0-0.3-0.2-0.2-0.4c0-0.1,0.1-0.2,0.3-0.2c2.3,0.3,4.7,0.5,7.1,0.7c0.2,0,0.3,0.1,0.3,0.3c0,0,0,0,0,0
	C94.9,311.1,94.7,311.3,94.6,311.3C94.6,311.3,94.6,311.3,94.6,311.3L94.6,311.3z M80.4,309.5L80.4,309.5c-2.4-0.4-4.7-0.9-7-1.5
	c-0.2,0-0.3-0.2-0.3-0.3c0-0.2,0.2-0.3,0.3-0.3c0,0,0,0,0.1,0c2.3,0.6,4.6,1.1,6.9,1.5c0.2,0,0.3,0.2,0.2,0.3c0,0,0,0,0,0
	C80.7,309.5,80.6,309.6,80.4,309.5z M66.6,306.1L66.6,306.1c-2.4-0.8-4.6-1.6-6.8-2.5c-0.1-0.1-0.2-0.2-0.2-0.4c0,0,0,0,0,0
	c0.1-0.2,0.2-0.2,0.4-0.2c2.1,0.9,4.4,1.7,6.7,2.5c0.2,0.1,0.2,0.2,0.2,0.4c0,0,0,0,0,0C66.8,306,66.7,306.1,66.6,306.1z
	 M53.4,300.6c0,0-0.1,0-0.1,0c-2.1-1.1-4.2-2.3-6.2-3.6c-0.1-0.1-0.1-0.3,0-0.4c0.1-0.1,0.2-0.1,0.3-0.1c2,1.3,4,2.5,6.1,3.6
	c0.1,0.1,0.2,0.3,0.1,0.4C53.6,300.6,53.5,300.6,53.4,300.6z M41.4,292.9c-0.1,0-0.1,0-0.2-0.1c-1.9-1.5-3.7-3.1-5.4-4.7
	c-0.1-0.1-0.2-0.3-0.1-0.4s0.3-0.2,0.4-0.1c0,0,0,0,0.1,0.1c1.7,1.6,3.5,3.2,5.3,4.7c0.1,0.1,0.1,0.3,0,0.4c0,0,0,0,0,0
	C41.6,292.8,41.5,292.9,41.4,292.9L41.4,292.9z M31.3,282.9c-0.1,0-0.2,0-0.2-0.1c-1.5-1.8-2.9-3.8-4.3-5.8c-0.1-0.1,0-0.3,0.1-0.4
	c0.1-0.1,0.3-0.1,0.4,0.1c0,0,0,0,0,0c1.3,2,2.7,3.9,4.2,5.7c0.1,0.1,0.1,0.3,0,0.4C31.4,282.9,31.4,282.9,31.3,282.9L31.3,282.9z
	 M23.4,271c-0.1,0-0.2-0.1-0.3-0.2c-1.1-2.1-2.1-4.3-2.9-6.5c-0.1-0.2,0-0.3,0.2-0.4c0.2-0.1,0.3,0,0.4,0.2c0.8,2.2,1.8,4.4,2.9,6.5
	c0.1,0.1,0,0.3-0.1,0.4c0,0,0,0,0,0C23.6,271,23.5,271,23.4,271L23.4,271z M18.4,257.7c-0.1,0-0.3-0.1-0.3-0.2
	c-0.6-2.3-1.1-4.6-1.5-7c0-0.2,0.1-0.3,0.2-0.3c0,0,0,0,0,0c0.2,0,0.3,0.1,0.3,0.3c0.4,2.3,0.9,4.7,1.5,7
	C18.7,257.5,18.6,257.7,18.4,257.7C18.4,257.7,18.4,257.7,18.4,257.7L18.4,257.7z M16.1,243.6c-0.2,0-0.3-0.1-0.3-0.3
	c-0.1-1.3-0.1-2.6-0.1-4c0-1,0-2.1,0.1-3.2c0-0.2,0.1-0.3,0.3-0.3c0.2,0,0.3,0.1,0.3,0.3c0,0,0,0,0,0c0,1-0.1,2.1-0.1,3.1
	c0,1.3,0,2.6,0.1,4C16.5,243.5,16.3,243.7,16.1,243.6C16.2,243.7,16.2,243.7,16.1,243.6L16.1,243.6z M254.3,232.8L254.3,232.8
	c-2.3-0.1-4.7-0.3-7.1-0.6c-0.2,0-0.3-0.2-0.3-0.3c0-0.2,0.2-0.3,0.3-0.3c0,0,0,0,0,0c2.4,0.3,4.8,0.5,7.1,0.6
	c0.2,0,0.3,0.1,0.3,0.3C254.6,232.6,254.5,232.8,254.3,232.8C254.3,232.8,254.3,232.8,254.3,232.8L254.3,232.8z M261.4,232.8
	c-0.2,0-0.3-0.1-0.3-0.3c0-0.2,0.1-0.3,0.3-0.3c2.4-0.1,4.8-0.3,7.1-0.6c0.2,0,0.3,0.1,0.3,0.2c0,0,0,0,0,0c0,0.2-0.1,0.3-0.2,0.3
	c0,0,0,0,0,0C266.2,232.4,263.8,232.6,261.4,232.8L261.4,232.8z M240.1,231.1L240.1,231.1c-2.3-0.4-4.6-0.9-7-1.5
	c-0.2,0-0.3-0.2-0.2-0.4c0-0.2,0.2-0.3,0.4-0.2c0,0,0,0,0,0c2.4,0.6,4.7,1.1,6.9,1.5c0.2,0,0.3,0.2,0.2,0.4
	C240.4,231,240.3,231.1,240.1,231.1L240.1,231.1z M275.5,230.8c-0.2,0-0.3-0.1-0.3-0.3c0-0.1,0.1-0.2,0.2-0.3
	c2.3-0.5,4.6-1.2,6.8-1.9c0.2-0.1,0.3,0,0.4,0.2c0,0,0,0,0,0c0.1,0.2,0,0.3-0.2,0.4c0,0,0,0,0,0
	C280.2,229.6,277.9,230.3,275.5,230.8L275.5,230.8z M16.8,229.5L16.8,229.5c-0.2,0-0.3-0.2-0.3-0.3c0.3-2.4,0.8-4.7,1.4-7
	c0-0.2,0.2-0.3,0.3-0.3s0.3,0.2,0.3,0.3c0,0,0,0,0,0.1c-0.6,2.3-1,4.6-1.4,7C17.1,229.4,16.9,229.5,16.8,229.5z M226.3,227.7
	L226.3,227.7c-2.3-0.7-4.6-1.4-6.9-2.2c-0.2-0.1-0.2-0.2-0.2-0.4c0,0,0,0,0,0c0.1-0.2,0.2-0.2,0.4-0.2c0,0,0,0,0,0
	c2.3,0.8,4.6,1.6,6.8,2.2c0.2,0.1,0.2,0.2,0.2,0.4C226.6,227.6,226.5,227.7,226.3,227.7z M289,226.3c-0.1,0-0.2-0.1-0.3-0.2
	c-0.1-0.2,0-0.3,0.1-0.4c0,0,0,0,0,0c1.7-0.7,3.3-1.5,5-2.4l1.5-0.6c0.2-0.1,0.3,0,0.4,0.2s0,0.3-0.2,0.4l-1.5,0.5
	c-1.6,0.9-3.3,1.7-5,2.4C289.1,226.3,289.1,226.3,289,226.3L289,226.3z M212.9,223c0,0-0.1,0-0.1,0c-2.1-0.8-4.4-1.8-6.6-2.7
	c-0.1-0.1-0.2-0.2-0.2-0.4c0.1-0.1,0.2-0.2,0.4-0.2c0,0,0,0,0,0c2.3,1,4.5,1.9,6.6,2.7c0.2,0.1,0.2,0.2,0.2,0.4c0,0,0,0,0,0
	C213.1,222.9,213,223,212.9,223z M302.2,220.8c-0.1,0-0.2-0.1-0.3-0.2c-0.1-0.2,0-0.3,0.2-0.4c2.2-0.9,4.4-1.9,6.5-3
	c0.1-0.1,0.3,0,0.4,0.1c0.1,0.1,0,0.3-0.1,0.4c-2.1,1-4.3,2.1-6.5,3L302.2,220.8z M199.8,217.4c0,0-0.1,0-0.1,0
	c-2.1-0.9-4.2-1.9-6.5-3c-0.1-0.1-0.2-0.3-0.1-0.4c0.1-0.1,0.2-0.2,0.4-0.1c0,0,0,0,0,0c2.2,1.1,4.4,2.1,6.5,3
	c0.1,0.1,0.2,0.2,0.2,0.4c0,0,0,0,0,0C200,217.3,199.9,217.4,199.8,217.4L199.8,217.4z M20.2,215.6h-0.1c-0.1-0.1-0.2-0.2-0.2-0.4
	c0.8-2.3,1.7-4.5,2.7-6.6c0.1-0.1,0.2-0.2,0.4-0.1c0.1,0.1,0.2,0.2,0.1,0.4c-1,2.1-1.9,4.3-2.7,6.6
	C20.4,215.6,20.3,215.6,20.2,215.6z M314.9,214.4c-0.1,0-0.2-0.1-0.3-0.1c-0.1-0.1,0-0.3,0.1-0.4c2.1-1.2,4.1-2.5,6-3.8
	c0.1-0.1,0.3,0,0.4,0.1c0.1,0.1,0,0.3-0.1,0.4c-1.9,1.3-4,2.6-6,3.8C315.1,214.4,315,214.4,314.9,214.4L314.9,214.4z M186.9,211.2
	c0,0-0.1,0-0.1,0c-2.1-1-4.3-2.1-6.4-3.2c-0.1-0.1-0.2-0.3-0.1-0.4c0.1-0.1,0.2-0.2,0.4-0.1c0,0,0,0,0,0c2.1,1.1,4.3,2.1,6.4,3.2
	c0.1,0.1,0.2,0.3,0.1,0.4C187.1,211.2,187,211.2,186.9,211.2L186.9,211.2z M326.6,206.3c-0.1,0-0.2,0-0.2-0.1
	c-0.1-0.1-0.1-0.3,0-0.4c1.9-1.5,3.6-3.1,5.3-4.7c0.1-0.1,0.3-0.2,0.4,0s0.2,0.3,0,0.4c0,0,0,0-0.1,0.1c-1.7,1.6-3.5,3.2-5.4,4.8
	C326.7,206.3,326.7,206.3,326.6,206.3L326.6,206.3z M174.1,204.9c0,0-0.1,0-0.1,0l-0.8-0.4l-5.6-2.8c-0.1-0.1-0.2-0.2-0.1-0.4
	c0,0,0,0,0,0c0.1-0.1,0.3-0.2,0.4-0.1l5.6,2.8l0.8,0.4c0.1,0.1,0.2,0.3,0.1,0.4C174.3,204.8,174.2,204.9,174.1,204.9L174.1,204.9z
	 M26.3,202.8c0,0-0.1,0-0.1,0c-0.1-0.1-0.2-0.3-0.1-0.4c0,0,0,0,0,0c1.2-2,2.6-4,4-5.9c0.1-0.1,0.3-0.1,0.4,0
	c0.1,0.1,0.2,0.3,0.1,0.4c-1.4,1.9-2.8,3.8-4,5.9C26.4,202.7,26.4,202.8,26.3,202.8L26.3,202.8z M161.3,198.5c0,0-0.1,0-0.1,0
	c-2.1-1-4.3-2.1-6.4-3.1c-0.1-0.1-0.2-0.2-0.1-0.4c0,0,0,0,0,0c0.1-0.2,0.2-0.2,0.4-0.2c0,0,0,0,0,0c2.1,1,4.3,2.1,6.4,3.1
	c0.1,0.1,0.2,0.3,0.1,0.4C161.5,198.5,161.4,198.5,161.3,198.5L161.3,198.5z M336.8,196.4c-0.1,0-0.1,0-0.2-0.1
	c-0.1-0.1-0.1-0.3,0-0.4c0,0,0,0,0,0c1.5-1.8,3-3.7,4.4-5.6c0.1-0.1,0.3-0.2,0.4-0.1c0.1,0.1,0.2,0.3,0.1,0.4
	c-1.4,1.9-2.9,3.8-4.4,5.6C337,196.3,337,196.4,336.8,196.4L336.8,196.4z M148.4,192.4c0,0-0.1,0-0.1,0c-2.2-1-4.4-2-6.5-2.9
	c-0.2-0.1-0.2-0.2-0.2-0.4c0,0,0,0,0,0c0.1-0.1,0.2-0.2,0.4-0.1c2.1,0.9,4.3,1.9,6.5,2.9c0.2,0.1,0.2,0.2,0.2,0.4c0,0,0,0,0,0
	C148.6,192.3,148.5,192.4,148.4,192.4L148.4,192.4z M35,191.5c-0.1,0-0.1,0-0.2-0.1c-0.1-0.1-0.1-0.3,0-0.4c0,0,0,0,0,0
	c1.6-1.7,3.4-3.3,5.2-4.8c0.1-0.1,0.3-0.1,0.4,0.1c0.1,0.1,0.1,0.3,0,0.4c-1.8,1.5-3.6,3.1-5.2,4.8C35.1,191.4,35.1,191.5,35,191.5z
	 M135.4,186.6c0,0-0.1,0-0.1,0c-2.3-0.9-4.5-1.8-6.6-2.6c-0.1-0.1-0.2-0.2-0.2-0.4c0.1-0.2,0.2-0.2,0.4-0.2c0,0,0,0,0,0
	c2.2,0.8,4.4,1.7,6.7,2.6c0.2,0.1,0.2,0.2,0.2,0.4C135.6,186.6,135.5,186.6,135.4,186.6L135.4,186.6z M345.2,184.8c0,0-0.1,0-0.1,0
	c-0.1-0.1-0.2-0.3-0.1-0.4c0,0,0,0,0,0c1.2-2,2.3-4.1,3.3-6.3c0.1-0.1,0.2-0.2,0.4-0.1c0.1,0.1,0.2,0.3,0.1,0.4
	c-1,2.2-2.1,4.3-3.3,6.4C345.4,184.8,345.2,184.8,345.2,184.8L345.2,184.8z M46,182.5c-0.1,0-0.2-0.1-0.3-0.1
	c-0.1-0.1,0-0.3,0.1-0.4c0,0,0,0,0,0c2-1.3,4.1-2.4,6.3-3.4c0.2-0.1,0.3,0,0.4,0.1c0,0,0,0,0,0c0.1,0.1,0,0.3-0.1,0.4c0,0,0,0,0,0
	c-2.1,1-4.2,2.1-6.2,3.4C46.1,182.5,46.1,182.5,46,182.5z M121.9,181.6L121.9,181.6c-2.4-0.8-4.7-1.5-6.9-2.2
	c-0.2-0.1-0.2-0.2-0.2-0.4c0-0.2,0.2-0.2,0.4-0.2c2.2,0.6,4.5,1.4,6.8,2.2c0.2,0.1,0.2,0.2,0.2,0.4
	C122.2,181.5,122,181.6,121.9,181.6L121.9,181.6z M108.2,177.5L108.2,177.5c-2.4-0.6-4.8-1.1-7.1-1.5c-0.2,0-0.3-0.2-0.2-0.3
	c0,0,0,0,0,0c0-0.2,0.2-0.3,0.3-0.2c0,0,0,0,0,0c2.3,0.4,4.6,1,7,1.6c0.2,0,0.3,0.2,0.2,0.4C108.5,177.4,108.4,177.5,108.2,177.5
	L108.2,177.5z M58.9,176.5c-0.1,0-0.2-0.1-0.3-0.2c-0.1-0.2,0-0.3,0.2-0.4c0,0,0,0,0,0c2.3-0.7,4.6-1.3,7-1.7c0.2,0,0.3,0.1,0.3,0.2
	c0,0,0,0,0,0c0,0.2-0.1,0.3-0.2,0.3c0,0,0,0,0,0C63.6,175.2,61.3,175.8,58.9,176.5L58.9,176.5z M94.2,174.8L94.2,174.8
	c-2.4-0.3-4.8-0.6-7.1-0.8c-0.2,0-0.3-0.2-0.3-0.3c0-0.2,0.1-0.3,0.3-0.3c0,0,0,0,0,0c2.3,0.2,4.7,0.4,7.1,0.8
	c0.2,0,0.3,0.2,0.3,0.3c0,0,0,0,0,0C94.6,174.7,94.4,174.8,94.2,174.8L94.2,174.8z M72.9,173.9c-0.2,0-0.3-0.1-0.3-0.3
	c0-0.2,0.1-0.3,0.3-0.3c0,0,0,0,0,0c0.7-0.1,1.4-0.1,2.1-0.1c1.7-0.1,3.4-0.1,5-0.1c0.2,0,0.3,0.1,0.3,0.3c0,0.2-0.1,0.3-0.3,0.3
	l0,0c-1.6,0-3.3,0-5,0.1C74.3,173.8,73.6,173.8,72.9,173.9z M351.1,171.8L351.1,171.8c-0.2-0.1-0.3-0.2-0.3-0.4c0,0,0,0,0,0
	c0.8-2.2,1.5-4.5,2.1-6.8c0-0.2,0.2-0.3,0.4-0.2c0.2,0,0.3,0.2,0.2,0.4c-0.6,2.3-1.3,4.6-2.1,6.8
	C351.3,171.8,351.2,171.8,351.1,171.8L351.1,171.8z M354.7,158L354.7,158c-0.2,0-0.3-0.2-0.2-0.3c0,0,0,0,0,0c0.4-2.3,0.8-4.7,1-7
	c0-0.2,0.1-0.3,0.3-0.3c0,0,0,0,0,0c0.2,0,0.3,0.2,0.3,0.3c0,0,0,0,0,0c-0.3,2.4-0.6,4.8-1,7.1C355.1,158,354.9,158.1,354.7,158
	L354.7,158z M356.3,143.9L356.3,143.9c-0.2,0-0.3-0.1-0.3-0.3c0,0,0,0,0,0c0-1.4,0.1-2.8,0.1-4.1c0-1,0-2,0-3c0-0.2,0.2-0.3,0.3-0.2
	c0.1,0,0.2,0.1,0.2,0.2c0,1,0,2,0,3c0,1.4,0,2.8-0.1,4.2C356.6,143.7,356.5,143.9,356.3,143.9C356.3,143.9,356.3,143.9,356.3,143.9
	L356.3,143.9z M355.9,129.6c-0.2,0-0.3-0.1-0.3-0.3c-0.2-2.3-0.5-4.7-0.8-7.1c0-0.2,0.1-0.3,0.2-0.3c0,0,0,0,0,0
	c0.2,0,0.3,0.1,0.3,0.3c0.3,2.4,0.6,4.8,0.8,7.1C356.2,129.5,356.1,129.6,355.9,129.6L355.9,129.6z M353.9,115.5
	c-0.1,0-0.3-0.1-0.3-0.2c-0.5-2.3-1-4.7-1.5-6.9c-0.1-0.2,0-0.3,0.2-0.4c0.2-0.1,0.3,0,0.4,0.2c0,0,0,0,0,0c0.6,2.3,1.1,4.6,1.6,7
	C354.2,115.3,354.1,115.5,353.9,115.5C354,115.5,354,115.5,353.9,115.5L353.9,115.5z"/>
<path class="st7" d="M116.1,311.2c-0.2,0-0.3-0.1-0.3-0.3c0-0.2,0.1-0.3,0.3-0.3c0,0,0,0,0,0c1.2-0.1,2.4-0.2,3.6-0.3
	c0.2,0,0.3,0.1,0.3,0.3c0,0.2-0.1,0.3-0.3,0.3l0,0C118.4,311,117.3,311.1,116.1,311.2L116.1,311.2z"/>
<rect x="53.9" y="388.1" class="st8" width="399.3" height="3.1"/>
<polygon class="st3" points="453.2,388.1 53.9,388.1 100.7,283.9 420.4,283.9 "/>
<path class="st7" d="M388.4,339.8c0,16.2-53.9,25.9-132,25.9s-129.9-6.9-129.9-25.9s61.5-49.3,130.6-49.3S388.4,323.5,388.4,339.8z"
	/>
<path class="st6" d="M296,346.4c-1.4,8.3-3.7,14.7-5.8,14.3s-3.2-7.3-1.9-15.6s4.6-14.5,6.7-14.1S297.3,338.2,296,346.4z"/>
<path class="st7" d="M332.1,352.2c5.1,16.9-2.1,29.8-9.5,36l-13.6-0.1l10-34.1L332.1,352.2z"/>
<path class="st9" d="M281.8,356.6l11.2,3l7.8,1.9c3.2,0.5,6.4-20,5.3-20.2c-8-1.7-18-4.8-18-4.8L281.8,356.6z"/>
<path class="st10" d="M291.4,337.5l-3.7,20.7l5.3,1.4l0.6,0.2c-1.8-2.3,1.5-18.1,7.5-19.6C297.6,339.3,293.8,338.2,291.4,337.5z"/>
<path class="st4" d="M330.2,351.9c-2.2-9.7-12.6-8.7-21-10c-1-0.2-2.1-0.4-3.2-0.6c-3.7,2.3-7.5,14.8-5.3,20.3
	c3.2,0.5,5.3,3.5,5.3,6.8c0,7.9-11,24.2-0.2,25.2S332.5,361.6,330.2,351.9z"/>
<path class="st3" d="M320.9,343.5c-3.6,5.7-1.8,13.3,3.9,16.9c1,0.6,2.1,1.1,3.2,1.4c0.4,0.1,0.7,0.2,1.1,0.2
	c1.2-4.2,1.7-7.8,1.2-10.1C329,346.6,325.3,344.5,320.9,343.5z"/>
<path class="st3" d="M301.8,383.9c-1.3,5-1.2,9.2,4,9.6c3.3,0.3,7.2-2.6,10.8-7.2C310.3,381.6,305.2,382.3,301.8,383.9z"/>
<path class="st3" d="M305.2,364.9c0.5-8.1,3.3-15.9,8.2-22.5l-0.9-0.1c-4.6,6.3-7.3,13.7-8,21.5C304.8,364.1,305,364.5,305.2,364.9z
	"/>
<path class="st7" d="M230.2,365.4c-12.7,1.3-2.9,16.1,0.4,22.7h-15.7l-2.1-29.9L230.2,365.4z"/>
<path class="st9" d="M249,148.1c0,0-6-5.7-8.3-1s5,13.5,8.9,11.8S249,148.1,249,148.1z"/>
<path class="st10" d="M248.4,149.8c0,0-4.4-4.1-6-0.7s3.6,9.8,6.5,8.6S248.4,149.8,248.4,149.8z"/>
<path class="st5" d="M247.8,147.9c0,0-7.4-6.9-5.7-19.1s11.9-8.3,11.9-8.3s3.7-9.3,12.6-8.7s16,9.7,23,11c3.9,0.9,8,0.2,11.6-1.7
	c0,0,0,20.1-16.1,27.7S247.8,147.9,247.8,147.9z"/>
<path class="st11" d="M120.2,234.3c-4.9,3.3-9.6,4.9-10.4,3.7s2.5-4.9,7.5-8.1s9.6-5.8,10.4-4.6C128,226.8,125.2,231,120.2,234.3z"
	/>
<path class="st11" d="M400.4,225.9c-4.4-3-7.4-6.4-6.5-7.6s5.1,0.2,9.5,3.2s8.1,6.5,7.3,7.8C409.3,230.2,404.8,228.9,400.4,225.9z"
	/>
<path class="st9" d="M391.5,225c0,0,7.5-14,6.5-22.3c-0.3-2.2-0.7-4.4-1.2-6.6c-1-4.1,12-13.5,13.3-10.9s-4.1,6.3-6,8.6
	c1,1.2,1.8,2.5,2.4,3.9c0,0,1.2,0.5,9.3-2.5c1.7-0.6,1.6-4.9,1.6-4.9s-8.1-3.4-6.9-5.5s12.1,1.7,13.2,5.6s-0.6,6.3-0.6,6.3
	s17.7-2.4,19.4-1.6s1.6,2,1.6,2c1,0.2,1.6,1.2,1.4,2.2c-0.1,3.1-16.7,6.9-16.7,6.9s14.9,0.5,15.2,3.2s-29.8,8.4-29.8,8.4l-9.4,20.5
	L391.5,225z"/>
<path class="st10" d="M409.9,227.1c-3.6,0.4-13.8-7.8-14.7-10.4c-1.1,2.8-2.3,5.6-3.7,8.3l12.1,12.2l1.4,0.5L409.9,227.1z"/>
<path class="st9" d="M128.7,236.6c0,0-5.8-16.9,0-30.4c1.7-5.6-7.6-15.6-11.1-14.1s4.3,10.1,4.3,10.1l-4,4.9l-10.5-9.1
	c0,0,11.1-2.9,9.4-6s-15.9-0.5-15.9,4c0.1,2.8,1.3,5.4,3.5,7.2c0,0-15.7-7.3-20.8-5c-1.5,0.8-0.5,1.8-0.5,1.8s-2.8-0.6-2.8,1.5
	s15.1,10.8,15.1,10.8s-14.5-3.1-15.2-0.5s27.8,13.6,27.8,13.6l7.8,22.1L128.7,236.6z"/>
<path class="st10" d="M112.6,239.6c2.6-0.8,13.7-4.3,14.8-7.7c-0.6-2.5-1.1-5-1.4-7.5c-4.3,5.4-12.8,9.3-15.7,8.5L112.6,239.6z"/>
<path class="st9" d="M286.5,148.1c0,0,6-5.7,8.3-1s-5,13.5-8.9,11.8S286.5,148.1,286.5,148.1z"/>
<path class="st10" d="M286.4,149.5c0,0,4.6-4.3,6.3-0.8s-3.8,10.3-6.8,8.9S286.4,149.5,286.4,149.5z"/>
<path class="st12" d="M190.6,276.3l4.6-19.2c0,0-24.3,35.5-53.9,24.7s-31.6-44-31.6-44c3.4,1.5,19-9.3,18-12.8c0,0,9,24.9,26.8,22.7
	s35.4-41.7,68.6-51.8s65-7.7,82.4,2.2s34.9,42.6,56.4,42.6s32-22.5,32-22.5c-0.7,3.5,11.9,12.4,16.8,11c0,0-5.5,34.4-33,47
	S324,256.1,324,256.1l3.9,15.6L190.6,276.3z"/>
<polygon class="st13" points="252.5,206.1 266.2,198.9 278.9,206.1 268.5,195.9 263.8,196.5 "/>
<path class="st2" d="M377.6,276.3c11.6-5.3,19.2-14.5,24.2-23.3c-3,4.2-15,19-39.4,17.5c-29-1.8-42.8-37.6-42.8-37.6l4.5,23.3
	c0.2,0.3,0.5,0.6,0.6,0.9C329.5,262.5,353.1,287.5,377.6,276.3z"/>
<path class="st2" d="M195.1,257.1l7.1-26.5c0,0-12.4,43.9-49.6,43.7c-22.4-0.1-33.3-8.9-37.5-16.8c4.4,9.2,12.2,19.2,26.1,24.3
	c9.5,3.5,18.5,2.2,26.3-1.2C183.8,273,195.1,257.1,195.1,257.1z"/>
<polygon class="st10" points="252,181.1 252,170.3 280.4,171.5 280.1,183.3 266.4,195.9 "/>
<path class="st14" d="M389.5,314.4c-0.2-38.5-60-40.9-60-40.9s-99.6-2.1-138.8,2.8c0,0-71.4,7.3-68.1,43.4
	c2.1,22.8,68,33.1,116.4,37.6c0,1.6-0.4,3.1-1.2,4.5c0,0,11.3-0.7,27.7-2.4c14.6,0.9,24.2,1.2,24.2,1.2c-0.6-1.3-0.8-2.8-0.5-4.1
	C333.4,350.3,389.7,337.8,389.5,314.4z M317.6,316l-53,7.6l-74-7.9L317.6,316z"/>
<polygon class="st15" points="192.2,269.3 327.2,269.3 329.4,273.5 190.6,276.3 "/>
<path class="st11" d="M264.9,269.6L264.9,269.6c-0.2,0-0.3-0.1-0.3-0.3c0,0,0,0,0,0l1.5-73.5c0-0.2,0.1-0.3,0.3-0.3
	c0.2,0,0.3,0.1,0.3,0.3l-1.5,73.4C265.2,269.5,265.1,269.6,264.9,269.6C264.9,269.6,264.9,269.6,264.9,269.6z"/>
<polygon class="st16" points="264.7,207.7 257.1,241.3 266.5,250.6 275.8,242.1 268.5,207.7 "/>
<polygon class="st12" points="240.3,191.8 252.4,206 266.7,194.1 279.1,205.9 293,193 280.1,183.3 266.7,194.1 252,181.1 "/>
<polygon class="st16" points="257.8,201.5 264.7,207.7 268.5,207.7 275.1,202.2 266.7,194.1 "/>
<polygon class="st17" points="266.7,194.4 273.3,203.7 275.1,202.2 266.7,194.1 257.8,201.5 260.1,203.6 "/>
<path class="st9" d="M255.5,130.8c-0.7,8.5-3.4,13-7.7,17.1l2.5,24.3c0,0,10.1,9.6,12.3,9.7s4.1-0.4,6-0.4s3.5,0.6,6.2,0.4
	s10.2-9.6,10.2-9.6l1.4-24.2l-2.5-9.8C283.9,138.4,262.5,142.5,255.5,130.8z"/>
<path class="st10" d="M269.8,158.5h-6.2c-0.2,0-0.3-0.1-0.3-0.3l-0.6-16.4c0-0.2,0.1-0.3,0.3-0.3c0,0,0,0,0,0c0.2,0,0.3,0.1,0.3,0.3
	l0.6,16.1h5.9c0.2,0,0.3,0.1,0.3,0.3c0,0,0,0,0,0C270.1,158.4,270,158.5,269.8,158.5z"/>
<path class="st5" d="M267.7,164.3c-0.6,0-1.3,0-1.9-0.1c-0.2,0-0.3-0.2-0.3-0.3c0-0.2,0.2-0.3,0.3-0.3c0.1,0,7.2,1,9.9-3.6
	c0.1-0.1,0.3-0.2,0.4-0.1c0.1,0.1,0.2,0.3,0.1,0.4C274.2,163.7,270.1,164.3,267.7,164.3z"/>
<path class="st11" d="M232.4,241.3c-3.9,0-7.7-1.3-10.7-3.8c-0.1-0.1-0.1-0.2-0.1-0.3l0.7-14.5c0-0.1,0-0.2,0.1-0.2
	c0.1,0,0.1-0.1,0.2-0.1c7.2,0.8,14.4,1,21.6,0.3c0.1,0,0.2,0,0.2,0.1c0.1,0.1,0.1,0.1,0.1,0.2l-1,14.8c0,0.1-0.1,0.2-0.2,0.2
	C240,240.1,236.2,241.2,232.4,241.3z M222.1,237.2c6.2,4.6,13,4.8,20.8,0.6l0.9-14.3c-7,0.6-14,0.5-21-0.3L222.1,237.2z"/>
<path class="st11" d="M194.6,261.8L194.6,261.8c-0.2,0-0.3-0.2-0.3-0.4l8.2-34.7c0.1-0.2,0.2-0.2,0.4-0.2c0.1,0,0.2,0.2,0.2,0.3
	l-8.2,34.7C194.8,261.7,194.7,261.8,194.6,261.8z"/>
<path class="st11" d="M324.8,261.7c-0.1,0-0.3-0.1-0.3-0.2l-7-36.2c0-0.2,0.1-0.3,0.2-0.4c0.2,0,0.3,0.1,0.4,0.2l7,36.2
	C325.1,261.5,325,261.6,324.8,261.7C324.9,261.7,324.9,261.7,324.8,261.7L324.8,261.7z"/>
<path class="st11" d="M112,249.4c6.8-0.6,16-7.9,21-14c-0.1-0.2-0.2-0.3-0.3-0.5c-4.9,6.1-14.1,13.4-20.9,13.9
	C111.9,249,112,249.2,112,249.4z"/>
<path class="st11" d="M395.8,240.5c-4-3.4-8.1-8.4-8.3-12.8c-0.2,0.2-0.4,0.4-0.5,0.6c0.5,4.4,4.5,9.3,8.5,12.6
	c2.8,2.5,6.1,4.4,9.6,5.6c0.1-0.2,0.2-0.4,0.3-0.6C401.8,244.8,398.6,242.9,395.8,240.5z"/>
<path class="st11" d="M240,192l12.1,14.2c0.1,0.1,0.1,0.1,0.2,0.1c0.1,0,0.1,0,0.2-0.1l14.1-11.7l12.2,11.7c0.1,0.1,0.3,0.1,0.4,0
	l14-12.9c0,0,0.1-0.1,0.1-0.1l-0.6-0.3L279,205.6l-12.2-11.7c-0.1-0.1-0.3-0.1-0.4,0l-14.1,11.7l-11.9-14l-0.5,0.3
	C240,191.9,240,192,240,192z"/>
<rect x="255.3" y="268.3" class="st16" width="17.3" height="7.4"/>
<rect x="257" y="269.8" class="st15" width="13.9" height="4.5"/>
<path class="st10" d="M251.8,145.4c0,0,0.3,5,5.3,5.3s4.3-5.6,3.8-7.3S251.8,145.4,251.8,145.4z"/>
<path class="st15" d="M261.4,142.6c0.5,2-4.1,2.6-7.4,3c-1.9,0.2-2.6,0.4-2.8,0.2s0.2-1.3,1.8-2.3
	C256,141.8,260.8,140.6,261.4,142.6z"/>
<path class="st5" d="M256.8,151L256.8,151c-1.7,0.1-3.3-0.8-4.1-2.3c-0.1-0.2,0-0.3,0.1-0.4c0,0,0,0,0,0c0.1-0.1,0.3,0,0.4,0.1
	c0.7,1.3,2.1,2.1,3.6,2l0,0c1.7,0.1,3.2-0.9,4-2.3c0.1-0.1,0.2-0.2,0.4-0.2c0,0,0,0,0,0c0.1,0.1,0.2,0.3,0.1,0.4
	C260.5,150,258.7,151.1,256.8,151z"/>
<path class="st10" d="M269.9,141.8c0,0-1.3,8.1,4.7,8.2s4.9-7.5,4.9-7.5L269.9,141.8z"/>
<path class="st5" d="M274.7,150.3L274.7,150.3c-1.7,0.1-3.3-0.8-4.1-2.3c-0.1-0.1,0-0.3,0.1-0.4c0.2-0.1,0.3,0,0.4,0.1c0,0,0,0,0,0
	c0.7,1.3,2.1,2,3.5,1.9l0,0c1.7,0.1,3.2-0.9,4-2.3c0.1-0.1,0.3-0.2,0.4-0.1c0.1,0.1,0.2,0.2,0.1,0.4c0,0,0,0,0,0
	C278.4,149.3,276.6,150.4,274.7,150.3z"/>
<path class="st15" d="M269.8,141.4c-0.3,2.1,4.3,1.4,7.6,1.5c1.9,0.1,2.3,0.4,2.4,0.2s0.1-1.4-1.7-2.2
	C275,139.5,270.1,139.4,269.8,141.4z"/>
<path class="st10" d="M272.4,175.4c0,0.7-1.8,0.4-4.1,0.4s-4.1,0.3-4.1-0.4s1.8-1.9,4.1-1.9S272.4,174.7,272.4,175.4z"/>
<path class="st5" d="M254.4,121.5c-1.2-5.4,5.2-9.2,9.8-9.5c4.7-0.3,9.2,2.2,11.5,6.4c0.2,0.4,0.9,0,0.6-0.4
	c-3.3-6.2-11-8.6-17.2-5.3c-1.2,0.6-2.3,1.5-3.3,2.5c-1.7,1.7-2.5,4.1-2.1,6.5C253.7,122.1,254.5,121.9,254.4,121.5z"/>
<path class="st5" d="M249.3,119.9c-4.2,0.7-6.9,4.9-8,8.7c-1.2,4.5-0.4,9.3,2.3,13.1c0.3,0.4,0.9,0,0.6-0.4c-2.5-3.5-3.4-8-2.3-12.3
	c1-3.7,3.5-7.8,7.6-8.5C250,120.5,249.8,119.8,249.3,119.9L249.3,119.9z"/>
<path class="st10" d="M117.5,219c-3.1-1.6-4.3-5.4-2.7-8.5c0.9-1.8,2.6-3,4.6-3.3c0.2,0,0.3-0.2,0.3-0.3c0,0,0,0,0,0l-0.3,0.3
	l-0.7-0.5c-3.8,1-6,4.9-5,8.6c0.5,1.9,1.8,3.5,3.5,4.4C117.5,219.9,117.9,219.2,117.5,219z"/>
<path class="st10" d="M103.6,219.8c2.9-2.7,6.5-4.5,10.4-5.3c0.5-0.1,0.3-0.8-0.2-0.7c-4,0.8-7.8,2.7-10.8,5.4
	C102.7,219.6,103.2,220.1,103.6,219.8L103.6,219.8z"/>
<path class="st10" d="M83.8,200.7c5.6,1.8,11.1,3.8,16.5,6.1c0.4,0.2,0.6-0.5,0.2-0.7c-5.4-2.2-10.9-4.2-16.6-6
	C83.5,199.9,83.3,200.6,83.8,200.7L83.8,200.7z"/>
<path class="st10" d="M96.9,217.2c2-6,5.7-11.4,10.6-15.4c0.4-0.3-0.2-0.8-0.5-0.5c-5,4.1-8.8,9.6-10.8,15.8
	C96,217.5,96.7,217.6,96.9,217.2L96.9,217.2z"/>
<path class="st10" d="M107.6,225.4c1.3,0.7,4,0.4,4,1.2s-3.3,0.9-3.3,0.9L107.6,225.4z"/>
<path class="st11" d="M392.7,226.9c0.4-0.1,0.8-0.1,1.2,0c0.5,0.2,0.8,0.6,1,1.1c0.2,0.5,0.2,1.1,0,1.6c-0.3,1-1.4,1.7-2.4,1.4
	c-1-0.3-1.7-1.4-1.4-2.4c0-0.2,0.1-0.3,0.2-0.4l0,0c0.2-0.5,0.6-0.9,1.1-1.2C392.5,227,392.6,226.9,392.7,226.9z M393.4,230.4
	c0.5-0.2,0.8-0.5,1-1c0.2-0.4,0.2-0.8,0-1.2c-0.2-0.6-0.9-1-1.5-0.8c-0.1,0-0.2,0.1-0.2,0.1c-0.4,0.2-0.6,0.5-0.8,0.9l0,0
	c-0.3,0.7-0.1,1.6,0.7,1.9C392.8,230.5,393.1,230.5,393.4,230.4L393.4,230.4z M391.6,228.3L391.6,228.3z"/>
<path class="st11" d="M125.2,235.5c-1,0-1.8-0.7-2-1.7c-0.1-0.5-0.1-1.1,0.2-1.6c0.2-0.5,0.7-0.8,1.2-0.9c0.5-0.1,1.1,0,1.5,0.3
	c0.4,0.3,0.8,0.8,0.9,1.3l0,0c0.3,1.1-0.3,2.2-1.4,2.5C125.5,235.5,125.4,235.5,125.2,235.5z M125.1,231.8c-0.5,0-0.9,0.3-1.1,0.7
	c-0.2,0.4-0.2,0.8-0.1,1.2c0.1,0.7,0.7,1.3,1.5,1.2s1.3-0.7,1.2-1.5c0-0.1,0-0.2-0.1-0.3c-0.1-0.4-0.3-0.8-0.7-1
	C125.6,231.9,125.3,231.8,125.1,231.8z"/>
<path class="st10" d="M405.7,197.4c0,0.1,0,0.2,0.1,0.2c2.9,3.3,4,7.8,2.9,12.1c-0.1,0.2,0.1,0.4,0.3,0.5c0.2,0.1,0.4-0.1,0.5-0.3
	l0,0c1.1-4.4,0.1-9-2.8-12.5l-0.6,0.3L405.7,197.4z"/>
<path class="st10" d="M409.7,205.4c3.8,0.4,7.2,2.5,9.3,5.7c0.3,0.4,0.9,0,0.6-0.4c-2.2-3.4-5.9-5.6-9.9-6.1
	C409.3,204.6,409.3,205.4,409.7,205.4L409.7,205.4z"/>
<path class="st10" d="M420.3,193.9c3,5.3,5.3,11,6.6,17c0.1,0.5,0.8,0.3,0.7-0.2c-1.4-6-3.6-11.8-6.7-17.2c-0.1-0.2-0.3-0.2-0.5-0.1
	C420.3,193.5,420.3,193.7,420.3,193.9L420.3,193.9z"/>
<path class="st10" d="M427.2,200.9c5-1.6,10.2-2.5,15.4-2.7c0.2,0,0.3-0.2,0.3-0.4c0-0.2-0.2-0.3-0.3-0.3
	c-5.3,0.2-10.6,1.1-15.6,2.7C426.5,200.3,426.7,201.1,427.2,200.9L427.2,200.9z"/>
<path class="st10" d="M414.1,217.8c-2.2,0.3-5.8-1-6.4-0.2s2.9,3.6,5.2,2.8L414.1,217.8z"/>
<path class="st10" d="M270.5,158.2c0,0.6-1.6,1-3.6,1s-3.5-0.4-3.5-0.9s1.5-0.3,3.4-0.3S270.5,157.7,270.5,158.2z"/>
<circle class="st5" cx="246.6" cy="272" r="1.1"/>
<path class="st5" d="M236.3,272c0,0.6-0.5,1.1-1.1,1.1s-1.1-0.5-1.1-1.1c0-0.6,0.5-1.1,1.1-1.1c0,0,0,0,0,0
	C235.9,270.9,236.3,271.4,236.3,272z"/>
<rect x="263" y="271.5" class="st16" width="8.1" height="1"/>
<path class="st4" d="M256.8,269.5c1.7-0.1,3.3-0.1,5,0c0.5,0,0.5-0.7,0-0.7c-1.7-0.1-3.3-0.1-5,0
	C256.3,268.7,256.3,269.5,256.8,269.5L256.8,269.5z"/>
<path class="st4" d="M263.6,269.5l3.9,0.1c0.2,0,0.3-0.2,0.3-0.4c0-0.2-0.2-0.3-0.3-0.3l-3.9-0.1c-0.2,0-0.3,0.2-0.3,0.4
	C263.3,269.4,263.5,269.5,263.6,269.5z"/>
<path class="st4" d="M258.8,275.2c2.1,0.1,4.3,0.1,6.4-0.1c0.5,0,0.5-0.8,0-0.7c-2.1,0.2-4.3,0.2-6.4,0.1
	C258.4,274.5,258.4,275.2,258.8,275.2z"/>
<path class="st11" d="M234.2,229.9c-4-0.1-8-0.5-11.9-1.3c-0.2,0-0.3-0.2-0.2-0.4c0-0.2,0.2-0.3,0.4-0.2c7.5,1.4,13.7,2,21.4,0.2
	c0.1,0,0.3,0,0.3,0.2c0,0,0,0,0,0c0,0.2-0.1,0.3-0.2,0.4C240.7,229.5,237.5,229.9,234.2,229.9z"/>
<path class="st11" d="M222.6,222.6c7.1,1.2,14.4,1.3,21.6,0.3C237,222.4,229.8,222.3,222.6,222.6z"/>
<path class="st17" d="M264.7,207.7c0,0,2.3,4.5,3.9,0C267.3,207.2,265.9,207.2,264.7,207.7z"/>
<path class="st11" d="M253.8,344.3c-0.2,0-0.3-0.1-0.3-0.3c0,0,0,0,0,0c0-0.2,0.1-0.3,0.3-0.3c0,0,0,0,0,0c1,0,98.1-4.5,115.5-26
	c2.1-2.3,3-5.5,2.5-8.6c-2.9-16.3-76.9-23.1-144.2-19.1c-52.5,3.1-85.4,11.6-86,22.3c-0.2,3.9,1.3,7.7,4.1,10.4
	c7,7.2,23.3,12.3,47,14.7c11.4,1.1,22.8,1.6,34.2,1.4c0.2,0,0.3,0.1,0.3,0.3c0,0.2-0.1,0.3-0.3,0.3c-11.5,0.2-22.9-0.3-34.3-1.4
	c-24.2-2.4-40.1-7.4-47.4-14.9c-2.9-2.8-4.5-6.8-4.3-10.8c0.3-5.9,9.2-11,26.3-15.1c15.2-3.6,36-6.3,60.3-7.8
	c32.8-1.9,68.4-1.3,95.3,1.8c39.1,4.5,48.5,12.1,49.5,17.8c0.5,3.2-0.4,6.5-2.6,9c-7.4,9.1-29.1,16.3-64.6,21.4
	C278.6,343.2,254,344.2,253.8,344.3L253.8,344.3z"/>
<path class="st6" d="M238.7,343.2c3.1,9,3.8,16.8,0.9,17.8s-8.5-5.1-11.6-14.2s-2.6-17.2,0.4-18.3S235.6,334.2,238.7,343.2z"/>
<path class="st9" d="M247.4,356.3c-0.4,0.6-8.9,5.3-8.9,5.3s-14.3,2.4-18.2,5.4s-4.1-22.4,1.8-23.2c7-0.9,14.7-6,19.1-8.4
	C249.3,331.2,247.4,356.3,247.4,356.3z"/>
<path class="st10" d="M229.6,341.6c5.4-1,10,16.5,8.9,20l0,0l2.3-1.3c3-1.9,4.9-5.2,5-8.7c0-4.9-4-11.5-6.4-15.1
	C236.4,338.2,229.6,341.6,229.6,341.6z"/>
<path class="st14" d="M232,328.4l-3.3,0.2c8.9,1.1,14.3,29.9,9,33.2l16.1-1.3l-2.9-34L232,328.4z"/>
<path class="st11" d="M264.2,324L264.2,324l-95.8-10.3c-0.2,0-0.3-0.2-0.3-0.3c0-0.2,0.2-0.3,0.3-0.3l95.8,10.3
	c0.2,0,0.3,0.2,0.3,0.3C264.5,323.9,264.3,324,264.2,324C264.2,324,264.2,324,264.2,324z"/>
<path class="st11" d="M253.9,360.5c1.8-4.6,1.2-10.5,0.4-14.2c-1.6-8.3-5.5-16.2-9.5-19.9l-0.7,0.2c3.9,3.5,7.9,11.6,9.5,19.8
	c0.7,3.6,1.4,9.6-0.5,14.1L253.9,360.5z"/>
<path class="st11" d="M228.6,328.6l0.1-0.1l108.9-15.7c0.2,0,0.3,0.1,0.3,0.3c0,0.2-0.1,0.3-0.3,0.3L230,329
	C229.6,328.8,229.1,328.7,228.6,328.6z"/>
<path class="st4" d="M222,343.9c-8.2,1.3-15.6-1.8-21.9,1.1c-13.9,6.4-1.5,51,13.6,51.5s2.6-26.3,6.6-29.4c1.5-1,3.2-1.8,4.9-2.3
	C229.4,359,224,344.7,222,343.9z"/>
<path class="st3" d="M200.2,345c-3.8,1.8-5.6,6.4-6,12.1c0.6,0.1,1.1,0.1,1.7,0.1c6.8,0,12.3-5.5,12.3-12.2c0,0,0,0,0,0
	c0-0.4,0-0.9-0.1-1.3C205.4,343.5,202.7,344,200.2,345z"/>
<path class="st3" d="M201.9,387c3.3,5.5,7.4,9.3,11.8,9.4c6.1,0.2,7.7-4.1,7.7-9.5C217.8,384.6,210.9,382,201.9,387z"/>
<path class="st3" d="M216.4,344.2h-0.9c4.4,6.7,4.8,15.1,4.6,23l0.1-0.1c0.2-0.1,0.4-0.3,0.6-0.4C221,358.9,220.6,350.8,216.4,344.2
	z"/>
<polygon class="st17" points="266.5,250.6 267.7,219.6 275.8,242.1 "/>
<rect x="143.7" y="58.5" transform="matrix(0.9243 -0.3817 0.3817 0.9243 -15.4584 67.9443)" class="st14" width="39.8" height="29"/>
<path class="st18" d="M166,79.3h0.1c0.1,0,0.1-0.1,0.2-0.2l10.3-26.7l-0.2-0.4l-0.4,0.2l-10.2,26.4L140,67l-0.4,0.2l0.2,0.4
	l26.1,11.7L166,79.3z"/>
<path class="st18" d="M150.7,93.9l0.4-0.2l9.4-17.2c0.1-0.2,0-0.3-0.2-0.4c-0.1,0-0.3,0-0.3,0.1l-9.4,17.3L150.7,93.9z"/>
<path class="st18" d="M168,73c0,0.2,0,0.3,0.2,0.4c0,0,0,0,0,0l18.8,5.6l0.4-0.2l-0.1-0.4l-18.9-5.6C168.2,72.7,168.1,72.8,168,73
	C168,73,168,73,168,73z"/>
<circle class="st16" cx="176.6" cy="51.9" r="9.7"/>
<polygon class="st14" points="350,80.8 363.1,73.1 336.8,53.9 328.2,92.6 340.9,86.3 352.9,91.7 "/>
<polygon class="st6" points="340.9,86.3 338.2,60 346.1,83.3 352.9,91.7 "/>
<path class="st14" d="M383.1,57.6l19.2,10.2c1.7,0.9,2.4,3.1,1.5,4.8l-21,39.4c-0.9,1.7-3.1,2.4-4.8,1.5l-19.2-10.2
	c-1.7-0.9-2.4-3.1-1.5-4.8l21-39.4C379.2,57.3,381.4,56.7,383.1,57.6z"/>
<path class="st3" d="M382.7,58.7l18.9,10.1c1.3,0.7,1.8,2.3,1.1,3.6c0,0,0,0,0,0l-20.4,38.3l0,0l-23.6-12.6l0,0l20.4-38.4
	C379.9,58.5,381.5,58,382.7,58.7L382.7,58.7z"/>
<path class="st14" d="M394.7,64.7c-0.6,1.1-2,1.6-3.2,1s-1.6-2-1-3.2c0.6-1.1,0.9,0.5,2.1,1.1S395.3,63.6,394.7,64.7z"/>
<path class="st19" d="M368.9,97c-0.8,1.4-2.6,1.9-4,1.2c-1.4-0.8-1.9-2.6-1.2-4c0.8-1.4,2.5-1.9,3.9-1.2
	C369.1,93.8,369.7,95.5,368.9,97C368.9,97,368.9,97,368.9,97z"/>
<path class="st20" d="M382.8,104.4c-0.8,1.4-2.6,1.9-4,1.2c-1.4-0.8-1.9-2.6-1.2-4c0.8-1.4,2.5-1.9,3.9-1.2
	C383,101.1,383.5,102.9,382.8,104.4C382.8,104.3,382.8,104.4,382.8,104.4z"/>
<path class="st4" d="M373.2,101.4c-0.3,0-0.7-0.1-1-0.2c-1-0.5-1.4-1.8-0.9-2.8c0.5-1,1.8-1.4,2.8-0.9c1,0.5,1.4,1.8,0.9,2.8l0,0
	C374.7,101,374,101.4,373.2,101.4z M373.2,97.8c-0.1,0-0.3,0-0.4,0.1c-0.4,0.1-0.7,0.4-0.9,0.7c-0.4,0.7-0.1,1.6,0.7,2
	c0.7,0.4,1.6,0.1,2-0.6c0.4-0.7,0.1-1.6-0.6-2C373.7,97.9,373.5,97.8,373.2,97.8z M374.8,100.1L374.8,100.1z"/>
<g>
	
		<linearGradient id="SVGID_1_" gradientUnits="userSpaceOnUse" x1="432.8097" y1="174.8485" x2="490.4697" y2="213.9585" gradientTransform="matrix(0.9993 -3.821341e-02 -3.821341e-02 -0.9993 -85.5768 302.6922)">
		<stop  offset="0" style="stop-color:#FFFFFF"/>
		<stop  offset="1" style="stop-color:#FFFFFF"/>
	</linearGradient>
	<path class="st21" d="M403.2,71.4c0.4-0.8,0.1-1.7-0.6-2.1l-6.1-3.2L367,82.7l-8.2,15.4l1.5,0.8l40.6-23L403.2,71.4z"/>
</g>
<g>
	
		<linearGradient id="SVGID_2_" gradientUnits="userSpaceOnUse" x1="437.4411" y1="168.0311" x2="495.1011" y2="207.1411" gradientTransform="matrix(0.9993 -3.821341e-02 -3.821341e-02 -0.9993 -85.5768 302.6922)">
		<stop  offset="0" style="stop-color:#FFFFFF"/>
		<stop  offset="1" style="stop-color:#FFFFFF"/>
	</linearGradient>
	<polygon class="st22" points="367.2,102.6 395,86.9 399.1,79.1 362.3,100 	"/>
</g>
<rect x="408.4" y="88.7" transform="matrix(0.3079 -0.9514 0.9514 0.3079 198.9871 485.4132)" class="st3" width="49.5" height="34.4"/>
<rect x="437.6" y="72.9" transform="matrix(0.3079 -0.9514 0.9514 0.3079 220.4921 478.1585)" class="st4" width="2.7" height="29.3"/>
<rect x="436.2" y="83.2" transform="matrix(0.3079 -0.9514 0.9514 0.3079 215.6919 479.7341)" class="st4" width="2.7" height="16.8"/>
<path class="st4" d="M444.7,102.1L444.7,102.1l-23.5-7.6c-0.2,0-0.3-0.2-0.2-0.4c0-0.2,0.2-0.3,0.4-0.2c0,0,0,0,0,0l23.4,7.6
	c0.2,0.1,0.2,0.2,0.2,0.4c0,0,0,0,0,0C444.9,102,444.8,102.1,444.7,102.1z"/>
<path class="st4" d="M444,104.4L444,104.4l-23.5-7.6c-0.2,0-0.3-0.2-0.2-0.4c0-0.2,0.2-0.3,0.4-0.2c0,0,0,0,0,0l23.4,7.6
	c0.2,0.1,0.2,0.2,0.2,0.4c0,0,0,0,0,0C444.2,104.3,444.1,104.4,444,104.4z"/>
<path class="st4" d="M443.2,106.7L443.2,106.7l-23.5-7.6c-0.2-0.1-0.2-0.2-0.2-0.4c0.1-0.2,0.2-0.2,0.4-0.2l0,0l23.4,7.6
	c0.2,0.1,0.2,0.2,0.2,0.4C443.5,106.6,443.3,106.7,443.2,106.7L443.2,106.7z"/>
<path class="st4" d="M434.1,106.3L434.1,106.3l-15.1-4.9c-0.2-0.1-0.2-0.2-0.2-0.4c0.1-0.2,0.2-0.2,0.4-0.2l15,4.9
	c0.2,0.1,0.2,0.2,0.2,0.4c0,0,0,0,0,0C434.4,106.2,434.2,106.3,434.1,106.3z"/>
<path class="st4" d="M423.1,123.5L423.1,123.5l-10.2-3.3c-0.2-0.1-0.2-0.2-0.2-0.4c0.1-0.1,0.2-0.2,0.3-0.2l10.1,3.3
	c0.2,0.1,0.2,0.2,0.2,0.4C423.3,123.4,423.2,123.5,423.1,123.5L423.1,123.5z"/>
<path class="st4" d="M418.7,124.6L418.7,124.6l-6.6-2.1c-0.2-0.1-0.2-0.2-0.2-0.4c0.1-0.1,0.2-0.2,0.3-0.2l6.5,2.1
	c0.2,0.1,0.2,0.2,0.2,0.4C419,124.5,418.9,124.6,418.7,124.6L418.7,124.6z"/>
<rect x="417.3" y="107.1" transform="matrix(0.6188 -0.7855 0.7855 0.6188 70.8472 394.6221)" class="st4" width="49.5" height="34.4"/>
<path class="st3" d="M440.3,154.7c-0.1,0-0.1,0-0.2-0.1L413,133.3c-0.1,0-0.1-0.1-0.1-0.2c0-0.1,0-0.2,0.1-0.2L443.6,94
	c0.1-0.1,0.3-0.1,0.4,0c0,0,0,0,0,0l27.1,21.3c0.1,0.1,0.1,0.1,0.1,0.2c0,0.1,0,0.2-0.1,0.2l-30.6,38.9
	C440.4,154.7,440.3,154.7,440.3,154.7z M413.6,133l26.6,21l30.3-38.4l-26.6-20.9L413.6,133z"/>
<rect x="454.4" y="95.3" transform="matrix(0.6174 -0.7867 0.7867 0.6174 87.7928 400.6304)" class="st3" width="2.7" height="29.5"/>
<rect x="449.8" y="104" transform="matrix(0.6188 -0.7855 0.7855 0.6188 83.6785 397.2629)" class="st3" width="2.7" height="16.8"/>
<path class="st3" d="M454.3,124.8c-0.1,0-0.1,0-0.2-0.1l-19.3-15.2c-0.1-0.1-0.2-0.3-0.1-0.4c0,0,0,0,0,0c0.1-0.1,0.3-0.1,0.4,0
	l19.3,15.2c0.1,0.1,0.2,0.3,0,0.4C454.5,124.7,454.4,124.8,454.3,124.8z"/>
<path class="st3" d="M452.8,126.6c-0.1,0-0.1,0-0.2-0.1l-19.3-15.2c-0.1-0.1-0.1-0.3,0-0.4c0.1-0.1,0.3-0.1,0.4,0l19.2,15.2
	c0.1,0.1,0.2,0.3,0,0.4C453,126.6,452.9,126.6,452.8,126.6z"/>
<path class="st3" d="M451.4,128.5c-0.1,0-0.1,0-0.2-0.1l-19.3-15.2c-0.1-0.1-0.2-0.3-0.1-0.4c0.1-0.1,0.3-0.2,0.4-0.1c0,0,0,0,0,0
	l19.3,15.2c0.1,0.1,0.1,0.3,0,0.4C451.5,128.5,451.4,128.5,451.4,128.5z"/>
<path class="st3" d="M443,125c-0.1,0-0.1,0-0.2-0.1l-12.4-9.8c-0.1-0.1-0.2-0.3-0.1-0.4c0.1-0.1,0.3-0.2,0.4-0.1c0,0,0,0,0,0
	l12.4,9.8c0.1,0.1,0.2,0.3,0,0.4C443.2,125,443.1,125,443,125z"/>
<path class="st3" d="M426.6,137.3c-0.1,0-0.1,0-0.2-0.1l-8.3-6.6c-0.1-0.1-0.2-0.3,0-0.4c0.1-0.1,0.3-0.1,0.4,0l8.3,6.6
	c0.1,0.1,0.2,0.3,0.1,0.4c0,0,0,0,0,0C426.8,137.3,426.7,137.3,426.6,137.3z"/>
<path class="st3" d="M422.2,136.9c-0.1,0-0.1,0-0.2-0.1l-5.4-4.2c-0.1-0.1-0.2-0.3-0.1-0.4s0.3-0.2,0.4-0.1c0,0,0.1,0,0.1,0.1
	l5.4,4.2c0.1,0.1,0.1,0.3,0,0.4C422.3,136.8,422.2,136.8,422.2,136.9z"/>
<rect x="215.9" y="14.9" transform="matrix(0.9536 -0.301 0.301 0.9536 -0.1554 71.0933)" class="st4" width="29.4" height="42.2"/>
<path class="st3" d="M223,60.9c0,0-0.1,0-0.1,0c-0.1,0-0.1-0.1-0.1-0.2L210,20.5c0-0.2,0-0.3,0.2-0.4l28-8.8c0.1,0,0.2,0,0.2,0
	c0.1,0,0.1,0.1,0.1,0.2l12.7,40.3c0,0.2,0,0.3-0.2,0.4L223,60.9L223,60.9z M210.6,20.6l12.5,39.7l27.4-8.7l-12.5-39.7L210.6,20.6z"
	/>
<rect x="213" y="19.3" transform="matrix(0.9536 -0.301 0.301 0.9536 4.3166 68.8334)" class="st3" width="25" height="2.3"/>
<rect x="219.5" y="22.8" transform="matrix(0.9536 -0.301 0.301 0.9536 3.3192 69.3289)" class="st3" width="14.3" height="2.3"/>
<path class="st3" d="M216.6,34.1c-0.2,0-0.3-0.2-0.3-0.3c0-0.1,0.1-0.2,0.2-0.3l20-6.3c0.2-0.1,0.3,0,0.4,0.2c0,0,0,0,0,0
	c0,0.2,0,0.3-0.2,0.4c0,0,0,0,0,0L216.6,34.1L216.6,34.1z"/>
<path class="st3" d="M217.2,36c-0.1,0-0.3-0.1-0.3-0.2c0-0.2,0-0.3,0.2-0.4c0,0,0,0,0,0l20-6.3c0.2,0,0.3,0,0.4,0.2
	c0.1,0.2,0,0.3-0.2,0.4c0,0,0,0,0,0L217.2,36L217.2,36z"/>
<path class="st3" d="M217.8,38c-0.2,0-0.3-0.2-0.3-0.3c0-0.1,0.1-0.2,0.2-0.3l20-6.3c0.2,0,0.3,0.1,0.4,0.2c0,0.1,0,0.3-0.2,0.3
	L217.8,38L217.8,38z"/>
<path class="st3" d="M218.5,40c-0.1,0-0.2-0.1-0.3-0.2c0-0.2,0-0.3,0.2-0.4l12.9-4c0.2-0.1,0.3,0,0.4,0.2c0,0,0,0,0,0
	c0.1,0.2,0,0.3-0.2,0.4c0,0,0,0,0,0L218.5,40L218.5,40z"/>
<path class="st3" d="M223.5,56c-0.1,0-0.2-0.1-0.3-0.2c0-0.2,0-0.3,0.2-0.4l8.6-2.7c0.2,0,0.3,0,0.4,0.2c0,0.2,0,0.3-0.2,0.4
	L223.5,56L223.5,56z"/>
<path class="st3" d="M224.2,58c-0.2,0-0.3-0.2-0.3-0.3c0-0.1,0.1-0.2,0.2-0.3l5.6-1.8c0.2-0.1,0.3,0,0.4,0.2c0,0,0,0,0,0
	c0,0.2,0,0.3-0.2,0.4L224.2,58L224.2,58z"/>
<circle class="st4" cx="265.9" cy="34.7" r="28.1"/>
<path class="st6" d="M265.9,63.1c-15.7,0-28.4-12.7-28.4-28.4s12.7-28.4,28.4-28.4s28.4,12.7,28.4,28.4
	C294.2,50.4,281.5,63.1,265.9,63.1z M265.9,7c-15.4,0-27.8,12.4-27.8,27.8c0,15.4,12.4,27.8,27.8,27.8s27.8-12.4,27.8-27.8
	c0,0,0,0,0,0C293.6,19.4,281.2,7,265.9,7L265.9,7z"/>
<path class="st6" d="M266.6,36.8c-0.1,0-0.3,0-0.4-0.1l-13.5-11.2c-0.3-0.2-0.3-0.6-0.1-0.8c0,0,0,0,0,0c0.2-0.3,0.6-0.3,0.8-0.1
	l13.2,11l10-6.6c0.3-0.2,0.6-0.1,0.8,0.2c0.2,0.3,0.1,0.6-0.2,0.8L267,36.7C266.9,36.7,266.8,36.8,266.6,36.8z"/>
<circle class="st14" cx="266.6" cy="36.1" r="2.1"/>
<path class="st6" d="M265.9,14.8c-0.2,0-0.3-0.1-0.3-0.3c0,0,0,0,0,0V9.4c0-0.2,0.1-0.3,0.2-0.3c0.2,0,0.3,0.1,0.3,0.2
	c0,0,0,0.1,0,0.1v5.1C266.2,14.6,266,14.8,265.9,14.8C265.9,14.8,265.9,14.8,265.9,14.8z"/>
<path class="st6" d="M265.9,60.4c-0.2,0-0.3-0.1-0.3-0.3V55c0-0.2,0.1-0.3,0.2-0.3s0.3,0.1,0.3,0.2c0,0,0,0.1,0,0.1v5.1
	C266.2,60.2,266,60.4,265.9,60.4C265.9,60.4,265.9,60.4,265.9,60.4z"/>
<path class="st6" d="M291.2,35h-5.1c-0.2,0-0.3-0.1-0.3-0.2c0-0.2,0.1-0.3,0.2-0.3c0,0,0.1,0,0.1,0h5.1c0.2,0,0.3,0.1,0.3,0.2
	c0,0.2-0.1,0.3-0.2,0.3C291.3,35,291.2,35,291.2,35z"/>
<path class="st6" d="M245.6,35h-5.1c-0.2,0-0.3-0.1-0.3-0.2c0-0.2,0.1-0.3,0.2-0.3c0,0,0.1,0,0.1,0h5.1c0.2,0,0.3,0.2,0.2,0.3
	C245.8,34.9,245.7,35,245.6,35z"/>
<path class="st6" d="M282,18.9c-0.1,0-0.2,0-0.2-0.1c-0.1-0.1-0.1-0.3,0-0.4c0,0,0,0,0,0l1.8-1.8c0.1-0.1,0.3-0.1,0.4,0c0,0,0,0,0,0
	c0.1,0.1,0.1,0.3,0,0.4l-1.8,1.8C282.2,18.9,282.1,18.9,282,18.9z"/>
<path class="st6" d="M248,53c-0.2,0-0.3-0.1-0.3-0.3c0-0.1,0-0.2,0.1-0.2l1.8-1.8c0.1-0.1,0.3-0.2,0.4-0.1s0.2,0.3,0.1,0.4
	c0,0,0,0-0.1,0.1l-1.8,1.8C248.2,53,248.1,53,248,53z"/>
<path class="st6" d="M283.8,53c-0.1,0-0.2,0-0.2-0.1l-1.8-1.8c-0.1-0.1-0.1-0.3,0.1-0.4c0.1-0.1,0.3-0.1,0.4,0l1.8,1.8
	c0.1,0.1,0.1,0.3,0,0.4C283.9,52.9,283.9,53,283.8,53z"/>
<path class="st6" d="M249.7,18.9c-0.1,0-0.2,0-0.2-0.1l-1.8-1.8c-0.1-0.1-0.2-0.3-0.1-0.4c0.1-0.1,0.3-0.2,0.4-0.1c0,0,0,0,0.1,0.1
	l1.8,1.8c0.1,0.1,0.1,0.3,0,0.4C249.9,18.9,249.9,18.9,249.7,18.9L249.7,18.9z"/>
<path class="st6" d="M276.2,58.2c-0.1,0-0.2-0.1-0.3-0.2l-1-2.3c0-0.2,0.1-0.3,0.2-0.4c0.1,0,0.3,0,0.3,0.1l1,2.3
	c0.1,0.1,0,0.3-0.1,0.4c0,0,0,0,0,0C276.3,58.2,276.2,58.2,276.2,58.2z"/>
<path class="st6" d="M256.6,14.2c-0.1,0-0.2-0.1-0.3-0.2l-1-2.3c-0.1-0.1,0-0.3,0.1-0.4c0.2-0.1,0.3,0,0.4,0.1c0,0,0,0,0,0l1,2.3
	c0.1,0.1,0,0.3-0.1,0.4c0,0,0,0,0,0C256.6,14.2,256.6,14.2,256.6,14.2z"/>
<path class="st6" d="M289.5,44.1c0,0-0.1,0-0.1,0l-2.4-0.9c-0.2,0-0.3-0.2-0.2-0.4c0-0.2,0.2-0.3,0.4-0.2c0,0,0,0,0,0l2.4,0.9
	c0.2,0,0.2,0.2,0.2,0.4c0,0,0,0,0,0C289.8,44,289.6,44.1,289.5,44.1z"/>
<path class="st6" d="M244.6,26.9c0,0-0.1,0-0.1,0l-2.4-0.9c-0.1-0.1-0.2-0.2-0.2-0.4c0.1-0.2,0.2-0.2,0.4-0.2c0,0,0,0,0,0l2.4,0.9
	c0.1,0.1,0.2,0.2,0.2,0.4C244.8,26.8,244.7,26.9,244.6,26.9z"/>
<path class="st6" d="M286.7,25.7c-0.1,0-0.2-0.1-0.3-0.2c-0.1-0.1,0-0.3,0.1-0.4c0,0,0,0,0,0l2.3-1c0.1-0.1,0.3,0,0.4,0.1
	c0,0,0,0,0,0c0.1,0.2,0,0.3-0.1,0.4c0,0,0,0,0,0l-2.3,1C286.8,25.7,286.7,25.7,286.7,25.7z"/>
<path class="st6" d="M242.7,45.4c-0.1,0-0.2-0.1-0.3-0.2c-0.1-0.2,0-0.3,0.1-0.4l2.3-1c0.1-0.1,0.3,0,0.4,0.1c0,0,0,0,0,0
	c0.1,0.1,0,0.3-0.1,0.4c0,0,0,0,0,0l-2.3,1L242.7,45.4z"/>
<path class="st6" d="M274,13.7c0,0-0.1,0-0.1,0c-0.2-0.1-0.2-0.2-0.2-0.4l0.9-2.4c0-0.2,0.2-0.3,0.4-0.2c0.2,0,0.3,0.2,0.2,0.4
	c0,0,0,0.1,0,0.1l-0.9,2.4C274.2,13.7,274.1,13.7,274,13.7z"/>
<path class="st6" d="M256.8,58.7h-0.1c-0.2-0.1-0.2-0.2-0.2-0.4c0,0,0,0,0,0l0.9-2.4c0.1-0.2,0.2-0.2,0.4-0.2c0,0,0,0,0,0
	c0.2,0.1,0.2,0.2,0.2,0.4c0,0,0,0,0,0l-0.9,2.4C257,58.6,256.9,58.7,256.8,58.7z"/>
<ellipse transform="matrix(0.2375 -0.9714 0.9714 0.2375 177.7156 373.5927)" class="st20" cx="326.8" cy="73.6" rx="9.7" ry="9.7"/>
<path class="st4" d="M327.7,78.1c-0.1,0-0.2,0-0.4,0l-6.1-1.5c-0.8-0.2-1.3-1-1.1-1.8c0.2-0.8,1-1.3,1.8-1.1l4.7,1.2l1.7-6.9
	c0.2-0.8,0.9-1.3,1.7-1.2s1.3,0.9,1.2,1.7c0,0.1,0,0.1,0,0.2l-2,8.3C329,77.7,328.4,78.1,327.7,78.1z"/>
<path class="st4" d="M178.8,56.5c0.1,0.9-0.5,1.6-1.3,1.8s-1.6-0.5-1.8-1.3s0.5-1.6,1.3-1.8c0,0,0,0,0,0
	C177.9,55,178.7,55.6,178.8,56.5C178.8,56.4,178.8,56.5,178.8,56.5z"/>
<polygon class="st4" points="178,53.5 175.7,53.8 174.1,45 177.2,44.6 "/>
<path class="st9" d="M28.9,175.8c-0.5,0-1-0.1-1.4-0.4l-15.2-8.3c-1.4-0.8-1.9-2.6-1.2-4l0.7-1.3c0.8-1.4,2.6-2,4-1.2l13.6,7.4
	c0.1,0.1,0.2,0.3,0,0.4c-0.1,0.1-0.2,0.1-0.3,0.1l-13.6-7.5c-0.6-0.3-1.2-0.4-1.8-0.2c-0.6,0.2-1.1,0.6-1.4,1.1l-0.7,1.3
	c-0.6,1.1-0.2,2.6,0.9,3.2c0,0,0,0,0,0l15.2,8.3c1.1,0.6,2.6,0.2,3.2-0.9c0,0,0,0,0,0l0.4-0.7c0.6-1.1,0.2-2.6-0.9-3.2c0,0,0,0,0,0
	l-7.8-4.3c-1.1-0.7-2.6-0.5-3.3,0.6c-0.7,1.1-0.5,2.6,0.6,3.3c0.1,0.1,0.3,0.2,0.4,0.2l6.2,3.4c0.2,0.1,0.2,0.2,0.2,0.4
	c-0.1,0.2-0.2,0.2-0.4,0.2c0,0,0,0-0.1,0l-6.2-3.4c-1.6-0.6-2.4-2.3-1.8-3.8c0.6-1.6,2.3-2.4,3.8-1.8c0.3,0.1,0.6,0.3,0.8,0.5
	l7.8,4.2c1.4,0.8,1.9,2.6,1.2,4l-0.4,0.7C30.9,175.2,29.9,175.8,28.9,175.8z"/>
<path class="st5" d="M45.9,161.9c-0.3,0-0.6,0-0.8-0.1c-1-0.2-1.9-0.8-2.4-1.7l-12.4-19.6c-1.1-1.8-0.6-4.2,1.2-5.3l1.6-1
	c1.8-1.1,4.2-0.6,5.3,1.2c0,0,0,0,0,0l11.1,17.5c0.1,0.1,0,0.3-0.1,0.4c-0.1,0.1-0.3,0-0.4-0.1l-11.1-17.6c-0.5-0.7-1.2-1.2-2-1.4
	c-0.8-0.2-1.7,0-2.5,0.4l-1.6,1c-1.5,1-2,3-1,4.5l12.4,19.6c0.5,0.7,1.2,1.2,2,1.4c0.8,0.2,1.7,0,2.5-0.4l0.9-0.5c1.5-1,2-3,1-4.5
	l-6.3-10c-0.9-1.6-2.9-2.1-4.5-1.2s-2.1,2.9-1.2,4.5c0,0.1,0.1,0.1,0.1,0.2l5.1,8c0.1,0.1,0,0.3-0.1,0.4c-0.1,0.1-0.3,0-0.4-0.1
	l-5-8c-0.5-0.9-0.7-1.9-0.5-2.9c0.2-1,0.8-1.9,1.7-2.4c1.8-1.1,4.2-0.6,5.3,1.2c0,0,0,0,0,0l6.3,10c1.1,1.8,0.6,4.2-1.2,5.3
	c0,0,0,0,0,0l-0.9,0.6C47.4,161.7,46.6,161.9,45.9,161.9z"/>
<path class="st5" d="M458.4,189.6c-0.2,0-0.5,0-0.7-0.1l-0.6-0.2c-1.3-0.4-2-1.7-1.6-3c0,0,0,0,0,0l4-13.1c0.4-1.3,1.7-2,3-1.6
	l1.1,0.3c1.3,0.4,2,1.7,1.6,3c0,0,0,0,0,0l-3.5,11.8c0,0.2-0.2,0.2-0.4,0.2c-0.1,0-0.2-0.1-0.2-0.2l-0.4,1.2
	C460.4,188.9,459.5,189.6,458.4,189.6L458.4,189.6z M461.8,172.1c-0.3,0-0.6,0.1-0.9,0.2c-0.4,0.2-0.7,0.6-0.9,1.1l-4,13.1
	c-0.3,1,0.2,2,1.2,2.3c0,0,0,0,0,0l0.6,0.2c1,0.3,2-0.3,2.3-1.2l2-6.7c0.3-1-0.3-2-1.2-2.3c-1-0.3-2,0.3-2.3,1.2l-1.6,5.3
	c-0.1,0.2-0.2,0.2-0.4,0.2c-0.1-0.1-0.2-0.2-0.2-0.3l1.6-5.3c0.2-0.6,0.6-1.1,1.2-1.4c1.2-0.6,2.6-0.2,3.3,1
	c0.2,0.4,0.3,0.9,0.3,1.3l1.8-5.9c0.3-1-0.2-2-1.2-2.3c0,0,0,0,0,0l-1.1-0.3C462.1,172.1,461.9,172.1,461.8,172.1z"/>
<path class="st9" d="M472.6,201.5L472.6,201.5c-0.8,0-1.6-0.3-2.2-0.9l-0.6-0.6c-0.6-0.6-0.9-1.4-0.9-2.2c0-0.8,0.3-1.6,0.9-2.2
	l13.1-12.8c0.6-0.6,1.4-0.9,2.2-0.9c0.8,0,1.6,0.3,2.2,0.9l1.1,1.1c0.6,0.6,0.9,1.4,0.9,2.2c0,0.8-0.3,1.6-0.9,2.2l-11.8,11.4
	c-0.1,0.1-0.3,0.1-0.4,0c0,0,0,0,0,0c-0.1-0.1-0.1-0.3,0-0.4l11.8-11.5c1-1,1-2.6,0-3.6l-1.1-1.1c-0.5-0.5-1.1-0.8-1.8-0.8
	c-0.7,0-1.3,0.3-1.8,0.7L470.2,196c-1,1-1,2.6,0,3.6l0.6,0.6c0.5,0.5,1.1,0.8,1.8,0.8c0.7,0,1.3-0.3,1.8-0.7l6.7-6.5
	c0.5-0.5,0.8-1.1,0.8-1.8c0-1.4-1.1-2.5-2.5-2.6c-0.7,0-1.3,0.2-1.8,0.7l-5.3,5.2c-0.1,0.1-0.3,0.1-0.4-0.1c-0.1-0.1-0.1-0.3,0-0.4
	l5.3-5.2c0.6-0.6,1.4-0.9,2.2-0.9c1.7,0,3.1,1.5,3.1,3.2c0,0.8-0.3,1.6-0.9,2.2l-6.7,6.5C474.2,201.2,473.4,201.5,472.6,201.5z"/>
<path class="st9" d="M286.8,100.6c-0.6,0-1.3-0.3-1.7-0.8l-8.3-9.4c-0.8-0.9-0.7-2.3,0.2-3.2l0.8-0.7c0.5-0.4,1-0.6,1.6-0.5
	c0.6,0,1.1,0.3,1.5,0.8l7.4,8.5c0.1,0.1,0.1,0.3,0,0.4c-0.1,0-0.1,0.1-0.2,0.1l0.7,0.8c0.8,0.9,0.7,2.3-0.2,3.2l-0.4,0.4
	C287.9,100.4,287.4,100.6,286.8,100.6z M284.8,98.6l0.8,0.9c0.6,0.7,1.6,0.8,2.3,0.2c0,0,0,0,0,0l0.4-0.4c0.7-0.6,0.8-1.6,0.2-2.3
	l-4.2-4.8c-0.6-0.7-1.6-0.7-2.3-0.2c-0.7,0.6-0.7,1.6-0.2,2.3l3.4,3.8c0.1,0.1,0.1,0.3,0,0.4c0,0,0,0,0,0
	C285.1,98.6,284.9,98.6,284.8,98.6L284.8,98.6z M279.3,86.6c-0.4,0-0.8,0.1-1.1,0.4l-0.8,0.7c-0.7,0.6-0.8,1.6-0.2,2.3c0,0,0,0,0,0
	l3.8,4.3c-0.6-1.1-0.2-2.4,0.8-3c0.7-0.4,1.6-0.4,2.3,0l-3.6-4.1c-0.3-0.3-0.7-0.5-1.1-0.6L279.3,86.6z"/>
<path class="st9" d="M178.4,121.4c-0.1,0-0.2,0-0.2-0.1l-5-5c-0.1-0.1-0.1-0.1-0.1-0.2c0-0.1,0-0.2,0.1-0.2l5-5
	c0.1-0.1,0.3-0.1,0.4,0l5,5c0.1,0.1,0.1,0.3,0,0.4c0,0,0,0,0,0l-5,5C178.5,121.4,178.4,121.4,178.4,121.4z M173.8,116.1l4.6,4.6
	l4.6-4.6l-4.6-4.6L173.8,116.1z"/>
<path class="st9" d="M401.9,118.3c-0.1,0-0.2,0-0.2-0.1l-2.3-2.2c-0.1-0.1-0.1-0.3,0-0.4c0,0,0,0,0,0l2.3-2.3c0.1-0.1,0.3-0.1,0.4,0
	l2.3,2.3c0.1,0.1,0.1,0.3,0,0.4c0,0,0,0,0,0l-2.3,2.3C402.1,118.3,402,118.3,401.9,118.3z M400.1,115.8l1.9,1.8l1.9-1.8l-1.9-1.9
	L400.1,115.8z"/>
<path class="st9" d="M329.6,127.2c-0.1,0-0.2,0-0.2-0.1l-4.4-4.4c-0.1-0.1-0.1-0.3,0-0.4c0,0,0,0,0,0l4.4-4.3c0.1-0.1,0.3-0.1,0.4,0
	c0,0,0,0,0,0l4.4,4.3c0.1,0.1,0.1,0.3,0,0.4l-4.4,4.3C329.7,127.1,329.6,127.2,329.6,127.2z M325.6,122.5l3.9,3.9l3.9-3.9l-3.9-3.9
	L325.6,122.5z"/>
<path class="st9" d="M34.1,61.8c-0.1,0-0.2,0-0.2-0.1l-4.5-4.5c-0.1-0.1-0.2-0.3-0.1-0.4s0.3-0.2,0.4-0.1c0,0,0,0,0.1,0.1l4.5,4.5
	c0.1,0.1,0.1,0.3,0,0.4c0,0,0,0,0,0C34.3,61.7,34.2,61.8,34.1,61.8z"/>
<path class="st9" d="M29.6,61.8c-0.2,0-0.3-0.1-0.3-0.3c0-0.1,0-0.2,0.1-0.2l4.5-4.5c0.1-0.1,0.3-0.1,0.4,0.1c0.1,0.1,0.1,0.3,0,0.4
	l-4.5,4.5C29.8,61.7,29.7,61.8,29.6,61.8z"/>
<path class="st9" d="M64,270.9c-0.1,0-0.2,0-0.2-0.1l-4.5-4.5c-0.1-0.1-0.1-0.3,0-0.4c0,0,0,0,0,0c0.1-0.1,0.3-0.1,0.4,0l4.5,4.5
	c0.1,0.1,0.1,0.3,0,0.4C64.2,270.8,64.1,270.8,64,270.9z"/>
<path class="st9" d="M59.5,270.9c-0.1,0-0.2,0-0.2-0.1c-0.1-0.1-0.1-0.3,0-0.4c0,0,0,0,0,0l4.5-4.5c0.1-0.1,0.3-0.2,0.4-0.1
	c0.1,0.1,0.2,0.3,0.1,0.4c0,0,0,0-0.1,0.1l-4.5,4.5C59.6,270.8,59.6,270.9,59.5,270.9z"/>
<path class="st9" d="M335.6,14.2c-0.1,0-0.2,0-0.2-0.1l-4.5-4.5c-0.1-0.1-0.1-0.3,0-0.4c0.1-0.1,0.3-0.1,0.4,0l4.5,4.5
	c0.1,0.1,0.1,0.3,0,0.4c0,0,0,0,0,0C335.7,14.1,335.7,14.2,335.6,14.2z"/>
<path class="st9" d="M331.1,14.2c-0.1,0-0.2,0-0.2-0.1c-0.1-0.1-0.1-0.3,0-0.4l4.5-4.5c0.1-0.1,0.3-0.1,0.4,0c0.1,0.1,0.1,0.3,0,0.4
	c0,0,0,0,0,0l-4.5,4.5C331.3,14.1,331.2,14.2,331.1,14.2z"/>
<path class="st9" d="M230.2,125.4c-0.1,0-0.2,0-0.2-0.1l-9-9c-0.1-0.1-0.2-0.3-0.1-0.4s0.3-0.2,0.4-0.1c0,0,0,0,0.1,0.1l9,9
	c0.1,0.1,0.1,0.3,0,0.4C230.4,125.4,230.3,125.4,230.2,125.4L230.2,125.4z"/>
<path class="st9" d="M221.2,125.4c-0.1,0-0.2,0-0.2-0.1c-0.1-0.1-0.1-0.3,0-0.4c0,0,0,0,0,0l9-9c0.1-0.1,0.3-0.1,0.4,0c0,0,0,0,0,0
	c0.1,0.1,0.1,0.3,0,0.4l-9,9C221.4,125.4,221.3,125.4,221.2,125.4z"/>
<path class="st9" d="M480.7,244.1c-0.1,0-0.2,0-0.2-0.1l-5-4.9c-0.1-0.1-0.1-0.3,0-0.4c0,0,0,0,0,0c0.1-0.1,0.3-0.1,0.4,0l5,5
	c0.1,0.1,0.1,0.3,0,0.4C480.9,244.1,480.8,244.1,480.7,244.1L480.7,244.1z"/>
<path class="st9" d="M475.7,244.1c-0.2,0-0.3-0.1-0.3-0.3c0-0.1,0-0.2,0.1-0.2l5-5c0.1-0.1,0.3-0.1,0.4,0s0.1,0.3,0,0.4l0,0l-5,4.9
	C475.8,244,475.8,244.1,475.7,244.1z"/>
<path class="st9" d="M405.7,166c-2.2,0-4-1.8-4-4s1.8-4,4-4s4,1.8,4,4S407.9,166,405.7,166z M405.7,158.6c-1.9,0-3.4,1.5-3.4,3.4
	c0,1.9,1.5,3.4,3.4,3.4c1.9,0,3.4-1.5,3.4-3.4c0,0,0,0,0,0C409.1,160.1,407.6,158.6,405.7,158.6L405.7,158.6z"/>
<path class="st9" d="M140.3,168.7c-4.5,0-8.2-3.7-8.2-8.2s3.7-8.2,8.2-8.2s8.2,3.7,8.2,8.2c0,0,0,0,0,0
	C148.5,165,144.8,168.7,140.3,168.7z M140.3,152.9c-4.2,0-7.6,3.4-7.6,7.6c0,4.2,3.4,7.6,7.6,7.6c4.2,0,7.6-3.4,7.6-7.6c0,0,0,0,0,0
	C147.9,156.3,144.5,152.9,140.3,152.9z"/>
<path class="st9" d="M442.3,274.3c-4.5,0-8.2-3.7-8.2-8.2c0-4.5,3.7-8.2,8.2-8.2c4.5,0,8.2,3.7,8.2,8.2c0,0,0,0,0,0
	C450.5,270.6,446.8,274.3,442.3,274.3z M442.3,258.4c-4.2,0-7.6,3.4-7.6,7.6s3.4,7.6,7.6,7.6s7.6-3.4,7.6-7.6c0,0,0,0,0,0
	C449.9,261.9,446.5,258.5,442.3,258.4L442.3,258.4z"/>
<path class="st18" d="M109,126.5l-57-26.3l-16.6,13.8c-1.6,1.5-1.8,3.9-0.5,5.7l24.1,36.3c0.3,0.5,0.8,0.8,1.3,0.8l37.1,1.3
	l51.4-42.9c0.9-0.8,1.4-1.9,1.5-3.1L109,126.5z"/>
<path class="st14" d="M111.4,112.6L86.8,75.5c-0.8-1.4-2.5-1.9-3.8-1.1c-0.1,0.1-0.2,0.1-0.4,0.2l-46.9,39.2
	c-1.3,1.3-1.5,3.3-0.5,4.8L59.5,155c0.2,0.4,0.6,0.6,1,0.6l37,0.7l52.8-44.1L111.4,112.6z"/>
<polygon class="st4" points="107.9,111.8 60.2,151.6 36.8,116.3 84.5,76.5 "/>
<path class="st18" d="M113.4,138.8L113.4,138.8l-9.1-0.2c-0.1,0-0.2-0.1-0.3-0.2c0-0.1,0-0.2,0.1-0.3l12.4-10.4
	c0.1,0,0.1-0.1,0.2-0.1l9.4-0.1c0.1,0,0.2,0.1,0.3,0.2c0,0.1,0,0.2-0.1,0.3l-12.7,10.6C113.5,138.8,113.5,138.8,113.4,138.8z
	 M105.1,138.1l8.2,0.2l12-10l-8.4,0.1L105.1,138.1z"/>
<path class="st18" d="M82.6,154L82.6,154l-18.5-0.2c-0.1,0-0.2-0.1-0.3-0.2c0-0.1,0-0.2,0.1-0.3l46.3-38.6c0.1,0,0.1-0.1,0.2-0.1
	l18.9-0.1l0,0c0.1,0,0.2,0.1,0.3,0.2c0,0.1,0,0.3-0.1,0.3L82.8,154C82.7,154,82.7,154,82.6,154z M64.9,153.2l17.6,0.2l46-38.4
	l-18,0.1L64.9,153.2z"/>
<path class="st18" d="M66.4,153.8c-0.1,0-0.2,0-0.2-0.1c-0.1-0.1-0.1-0.3,0-0.4c0,0,0,0,0,0l46.4-38.8c0.1-0.1,0.3-0.1,0.4,0
	s0.1,0.3,0,0.4c0,0,0,0,0,0l-46.4,38.8C66.6,153.8,66.5,153.8,66.4,153.8z"/>
<path class="st18" d="M69.9,153.9c-0.1,0-0.2,0-0.2-0.1c-0.1-0.1-0.1-0.3,0-0.4l46.4-38.8c0.1-0.1,0.3-0.1,0.4,0
	c0.1,0.1,0.1,0.3,0,0.4c0,0,0,0,0,0l-46.4,38.8C70,153.9,70,153.9,69.9,153.9z"/>
<path class="st18" d="M73.5,153.8c-0.1,0-0.2,0-0.2-0.1c-0.1-0.1-0.1-0.3,0-0.4l46.4-38.8c0.1-0.1,0.3-0.1,0.4,0s0.1,0.3,0,0.4
	c0,0,0,0,0,0l-46.4,38.8C73.6,153.8,73.5,153.8,73.5,153.8z"/>
<path class="st18" d="M76.7,153.8c-0.2,0-0.3-0.1-0.3-0.3c0-0.1,0-0.2,0.1-0.2l46.4-38.8c0.1-0.1,0.3-0.1,0.4,0
	c0.1,0.1,0.1,0.3,0,0.4l-46.4,38.8C76.8,153.8,76.8,153.8,76.7,153.8z"/>
<path class="st18" d="M79.9,153.8c-0.2,0-0.3-0.1-0.3-0.3c0-0.1,0-0.2,0.1-0.2l46.4-38.8c0.1-0.1,0.3-0.1,0.4,0c0,0,0,0,0,0
	c0.1,0.1,0.1,0.3,0,0.4l-46.4,38.8C80.1,153.8,80,153.8,79.9,153.8z"/>
<path class="st18" d="M85.2,151.8L85.2,151.8l-16-0.3c-0.2,0-0.3-0.1-0.3-0.3c0-0.2,0.1-0.3,0.3-0.3l16,0.4c0.2,0,0.3,0.1,0.3,0.3
	c0,0,0,0,0,0C85.5,151.7,85.4,151.8,85.2,151.8C85.2,151.8,85.2,151.8,85.2,151.8z"/>
<path class="st18" d="M88.4,149.2L88.4,149.2l-16-0.3c-0.2,0-0.3-0.1-0.3-0.3c0,0,0,0,0,0c0-0.2,0.1-0.3,0.3-0.3c0,0,0,0,0,0l16,0.3
	c0.2,0,0.3,0.1,0.3,0.3C88.7,149,88.6,149.2,88.4,149.2z"/>
<path class="st18" d="M91.6,146.5L91.6,146.5l-16-0.3c-0.2,0-0.3-0.1-0.3-0.3c0-0.2,0.1-0.3,0.3-0.3c0,0,0,0,0,0l16,0.3
	c0.2,0,0.3,0.1,0.3,0.3C91.9,146.4,91.8,146.5,91.6,146.5z"/>
<path class="st18" d="M94.8,143.9L94.8,143.9l-16-0.3c-0.2,0-0.3-0.1-0.3-0.3c0-0.2,0.1-0.3,0.3-0.3c0,0,0,0,0,0l16,0.3
	c0.2,0,0.3,0.1,0.3,0.3C95.1,143.7,94.9,143.9,94.8,143.9z"/>
<path class="st18" d="M98,141.2L98,141.2l-16-0.4c-0.2,0-0.3-0.1-0.3-0.3c0,0,0,0,0,0c0-0.1,0.1-0.3,0.2-0.3c0,0,0,0,0.1,0l16,0.3
	c0.2,0,0.3,0.1,0.3,0.3c0,0,0,0,0,0C98.3,141.1,98.2,141.2,98,141.2z"/>
<path class="st18" d="M101.2,138.5L101.2,138.5l-16-0.4c-0.2,0-0.3-0.1-0.3-0.3c0-0.2,0.1-0.3,0.3-0.3c0,0,0,0,0,0l16,0.3
	c0.2,0,0.3,0.1,0.3,0.3c0,0,0,0,0,0C101.5,138.4,101.4,138.5,101.2,138.5C101.2,138.5,101.2,138.5,101.2,138.5z"/>
<path class="st18" d="M104.3,135.9L104.3,135.9l-16-0.3c-0.2,0-0.3-0.1-0.3-0.3c0,0,0,0,0,0c0-0.2,0.1-0.3,0.3-0.3l16,0.3
	c0.2,0,0.3,0.1,0.3,0.3C104.6,135.7,104.5,135.9,104.3,135.9C104.3,135.9,104.3,135.9,104.3,135.9z"/>
<path class="st18" d="M107.5,133.2L107.5,133.2l-16-0.3c-0.2,0-0.3-0.1-0.3-0.3c0,0,0,0,0,0c0-0.2,0.2-0.3,0.3-0.3l16,0.4
	c0.2,0,0.3,0.1,0.3,0.3l0,0C107.8,133.1,107.7,133.2,107.5,133.2z"/>
<path class="st18" d="M110.7,130.5L110.7,130.5l-16-0.3c-0.2,0-0.3-0.1-0.3-0.3c0-0.2,0.1-0.3,0.3-0.3c0,0,0,0,0,0l16,0.4
	c0.2,0,0.3,0.1,0.3,0.2c0,0.2-0.1,0.3-0.2,0.3C110.8,130.5,110.8,130.5,110.7,130.5L110.7,130.5z"/>
<path class="st18" d="M113.9,127.9L113.9,127.9l-16-0.3c-0.2,0-0.3-0.1-0.3-0.3c0,0,0,0,0,0c0-0.2,0.1-0.3,0.3-0.3c0,0,0,0,0,0
	l16,0.3c0.2,0,0.3,0.1,0.3,0.3C114.2,127.7,114.1,127.9,113.9,127.9L113.9,127.9z"/>
<path class="st18" d="M117.1,125.2L117.1,125.2l-16-0.3c-0.2,0-0.3-0.1-0.3-0.3c0-0.2,0.1-0.3,0.3-0.3c0,0,0,0,0,0l16,0.3
	c0.2,0,0.3,0.1,0.3,0.3c0,0,0,0,0,0C117.4,125.1,117.3,125.2,117.1,125.2C117.1,125.2,117.1,125.2,117.1,125.2z"/>
<path class="st18" d="M120.3,122.6L120.3,122.6l-16-0.3c-0.2,0-0.3-0.2-0.2-0.3c0-0.1,0.1-0.2,0.2-0.2l16,0.3c0.2,0,0.3,0.1,0.3,0.3
	C120.6,122.4,120.4,122.6,120.3,122.6z"/>
<path class="st18" d="M123.5,119.9L123.5,119.9l-16-0.3c-0.2,0-0.3-0.1-0.3-0.3v0c0-0.2,0.1-0.3,0.3-0.3l16,0.3
	c0.2,0,0.3,0.1,0.3,0.3v0C123.8,119.8,123.6,119.9,123.5,119.9z"/>
<path class="st18" d="M126.6,117.2L126.6,117.2l-16-0.3c-0.2,0-0.3-0.1-0.3-0.2c0-0.2,0.1-0.3,0.2-0.3c0,0,0.1,0,0.1,0l16,0.3
	c0.2,0,0.3,0.1,0.3,0.2c0,0.2-0.1,0.3-0.2,0.3C126.7,117.2,126.7,117.2,126.6,117.2z"/>
<path class="st18" d="M61.5,153.9c-0.1,0-0.2,0-0.2-0.1c-0.1-0.1-0.1-0.3,0-0.4l48-40.1c0.1-0.1,0.3-0.1,0.4,0s0.1,0.3,0,0.4
	c0,0,0,0,0,0l-48,40.1C61.6,153.8,61.6,153.9,61.5,153.9z"/>
<path class="st3" d="M90.2,97.6l-9,7.5c-0.9,0.9-1,2.2-0.3,3.3l3.5,5.3c0.5,0.9,1.7,1.3,2.6,0.8c0.1,0,0.2-0.1,0.2-0.2l9-7.5
	c0.9-0.9,1-2.2,0.3-3.3l-3.5-5.3c-0.5-0.9-1.7-1.3-2.6-0.8C90.4,97.5,90.3,97.5,90.2,97.6z"/>
<path class="st5" d="M97.1,105.2l-6.6-0.3l1.8-7.5c-0.2-0.1-0.4-0.2-0.6-0.2l-2.3,9.7l-8.9-0.5c0,0.2,0,0.4,0,0.6l6.9,0.3l-1.6,7.2
	c0.2,0,0.4,0,0.6,0l1.6-7.2l1.6,0.1l0,0c0.1,0,0.3-0.1,0.3-0.2l0.4-1.8l6.6,0.3C97,105.6,97,105.4,97.1,105.2z"/>
<path class="st3" d="M88.6,120.9l-12.5,10.4c-0.7,0.6-0.8,1.7-0.2,2.4c0.4,0.7,1.2,1,1.9,0.6c0.1,0,0.1-0.1,0.2-0.1l12.5-10.4
	c0.7-0.6,0.8-1.7,0.2-2.4c-0.4-0.7-1.2-1-1.9-0.6C88.8,120.8,88.7,120.9,88.6,120.9z"/>
<path class="st3" d="M83.5,79.1L39,116.3c-0.3,0.3-0.4,0.9-0.1,1.3c0.2,0.4,0.7,0.5,1,0.3c0,0,0.1,0,0.1-0.1l44.5-37.2
	c0.3-0.3,0.4-0.9,0.1-1.3C84.4,79,84,78.9,83.5,79.1C83.6,79.1,83.6,79.1,83.5,79.1z"/>
<polygon class="st9" points="78.3,123.1 57.9,140.2 46.9,123.6 67.3,106.5 "/>
<path class="st3" d="M65.9,106.1l-19.1,16c-0.3,0.3-0.4,0.8-0.1,1.2l0.2,0.3l20.4-17l-0.1-0.1c-0.2-0.5-0.7-0.7-1.2-0.5
	C66,106,65.9,106.1,65.9,106.1z"/>
<path class="st23" d="M47.2,122.5c0.1,0.1,0.1,0.2,0,0.3c-0.1,0.1-0.2,0.1-0.3,0c0,0,0,0,0,0c-0.1-0.1-0.1-0.3,0-0.4
	C47,122.4,47.2,122.4,47.2,122.5C47.2,122.5,47.2,122.5,47.2,122.5z"/>
<path class="st24" d="M47.9,122c0.1,0.1,0.1,0.2,0,0.3c-0.1,0.1-0.2,0.1-0.3,0c0,0,0,0,0,0c-0.1-0.1-0.1-0.3,0-0.4
	C47.6,121.9,47.8,121.9,47.9,122C47.8,122,47.9,122,47.9,122z"/>
<path class="st25" d="M48.5,121.5c0.1,0.1,0.1,0.2,0,0.3c-0.1,0.1-0.2,0.1-0.3,0c0,0,0,0,0,0c-0.1-0.1-0.1-0.3,0-0.4
	C48.3,121.3,48.4,121.3,48.5,121.5C48.5,121.4,48.5,121.4,48.5,121.5z"/>
<path class="st3" d="M62.9,136.3c-0.1,0-0.2,0-0.3-0.1l-11.2-16.9c-0.1-0.1,0-0.3,0.1-0.4c0.1-0.1,0.3,0,0.4,0.1l11.2,16.9
	c0.1,0.1,0,0.3-0.1,0.4C63,136.3,62.9,136.3,62.9,136.3z"/>
<g>
	
		<linearGradient id="SVGID_3_" gradientUnits="userSpaceOnUse" x1="1498.0662" y1="-1599.7844" x2="1555.8861" y2="-1521.3245" gradientTransform="matrix(0.8035 -0.5952 -0.5952 -0.8035 -2087.5046 -222.9419)">
		<stop  offset="0" style="stop-color:#FFFFFF"/>
		<stop  offset="1" style="stop-color:#FFFFFF"/>
	</linearGradient>
	<polygon class="st26" points="77.6,82.3 64.2,93.5 59.2,150 60.2,151.6 72.4,141.5 	"/>
</g>
<g>
	
		<linearGradient id="SVGID_4_" gradientUnits="userSpaceOnUse" x1="1506.9423" y1="-1607.0416" x2="1564.9822" y2="-1528.2816" gradientTransform="matrix(0.8035 -0.5952 -0.5952 -0.8035 -2087.5046 -222.9419)">
		<stop  offset="0" style="stop-color:#FFFFFF"/>
		<stop  offset="1" style="stop-color:#FFFFFF"/>
	</linearGradient>
	<polygon class="st27" points="79.5,135.5 84.6,76.7 84.5,76.5 80.2,80.1 75,139.3 	"/>
</g>
<rect x="420.9" y="137.2" transform="matrix(0.244 -0.9698 0.9698 0.244 178.2073 536.1873)" class="st14" width="24.2" height="33.3"/>
<path class="st18" d="M431.8,158.6l-11.5-20.6l-0.4-0.1l-0.1,0.4l8.9,15.9l-14.7,6.8l-0.1,0.4l0.5,0.1l14.6-6.8l2.5,4.4
	c0,0.1,0.1,0.1,0.2,0.1h0.1c0.1,0,0.1,0,0.2-0.1l4.3-2.7l9.6,12.9l0.5,0.1l0.1-0.4l-9.7-12.9l15.4-9.8l0.1-0.4l-0.4-0.1L431.8,158.6
	z"/>
</svg>
