<svg id="Layer_1" data-name="Layer 1" xmlns="http://www.w3.org/2000/svg" xmlns:xlink="http://www.w3.org/1999/xlink" viewBox="0 0 500 400"><defs><style>.cls-1{mask:url(#mask);filter:url(#luminosity-noclip-5);}.cls-2,.cls-4,.cls-6,.cls-8{mix-blend-mode:multiply;}.cls-2{fill:url(#linear-gradient);}.cls-3{mask:url(#mask-2);filter:url(#luminosity-noclip-6);}.cls-4{fill:url(#linear-gradient-2);}.cls-5{mask:url(#mask-3);filter:url(#luminosity-noclip-7);}.cls-6{fill:url(#linear-gradient-3);}.cls-7{mask:url(#mask-4);filter:url(#luminosity-noclip-8);}.cls-8{fill:url(#linear-gradient-4);}.cls-9{fill:#fff;}.cls-10{fill:#fff6eb;}.cls-11{fill:#b7dcff;}.cls-12{fill:#ffdcd1;}.cls-13{fill:#522d34;}.cls-14{fill:#112633;}.cls-15{fill:#ffc6b5;}.cls-16{fill:#a8d8ff;}.cls-17{fill:#faa88d;}.cls-18{fill:#ec8777;}.cls-19{fill:#719fd1;}.cls-20{fill:#d2ebff;}.cls-21{fill:#9dc9ec;}.cls-22{fill:#2e6589;}.cls-23{fill:#6f3d47;}.cls-24{fill:#ff9100;}.cls-25{fill:#ff771d;}.cls-26{fill:#1b3c51;}.cls-27{fill:#ff5962;}.cls-28{fill:#81ac60;}.cls-29{mask:url(#mask-5);}.cls-30{fill:url(#linear-gradient-5);}.cls-31{mask:url(#mask-6);}.cls-32{fill:url(#linear-gradient-6);}.cls-33{fill:#e50027;}.cls-34{fill:#ffbc00;}.cls-35{fill:#63990e;}.cls-36{mask:url(#mask-7);}.cls-37{fill:url(#linear-gradient-7);}.cls-38{mask:url(#mask-8);}.cls-39{fill:url(#linear-gradient-8);}.cls-40{filter:url(#luminosity-noclip-4);}.cls-41{filter:url(#luminosity-noclip-3);}.cls-42{filter:url(#luminosity-noclip-2);}.cls-43{filter:url(#luminosity-noclip);}</style><filter id="luminosity-noclip" x="358.75" y="-8392" width="44.68" height="32766" filterUnits="userSpaceOnUse" color-interpolation-filters="sRGB"><feFlood flood-color="#fff" result="bg"/><feBlend in="SourceGraphic" in2="bg"/></filter><mask id="mask" x="358.75" y="-8392" width="44.68" height="32766" maskUnits="userSpaceOnUse"><g class="cls-43"/></mask><linearGradient id="linear-gradient" x1="440.3" y1="225.19" x2="497.96" y2="186.08" gradientTransform="translate(-108.35 -96.77) rotate(-2.19)" gradientUnits="userSpaceOnUse"><stop offset="0"/><stop offset="1" stop-color="#fff"/></linearGradient><filter id="luminosity-noclip-2" x="362.26" y="-8392" width="36.84" height="32766" filterUnits="userSpaceOnUse" color-interpolation-filters="sRGB"><feFlood flood-color="#fff" result="bg"/><feBlend in="SourceGraphic" in2="bg"/></filter><mask id="mask-2" x="362.26" y="-8392" width="36.84" height="32766" maskUnits="userSpaceOnUse"><g class="cls-42"/></mask><linearGradient id="linear-gradient-2" x1="444.94" y1="232.02" x2="502.6" y2="192.91" xlink:href="#linear-gradient"/><filter id="luminosity-noclip-3" x="59.19" y="-8392" width="18.39" height="32766" filterUnits="userSpaceOnUse" color-interpolation-filters="sRGB"><feFlood flood-color="#fff" result="bg"/><feBlend in="SourceGraphic" in2="bg"/></filter><mask id="mask-3" x="59.19" y="-8392" width="18.39" height="32766" maskUnits="userSpaceOnUse"><g class="cls-41"/></mask><linearGradient id="linear-gradient-3" x1="1624.91" y1="2007.33" x2="1682.73" y2="1928.87" gradientTransform="translate(-2432.06 -474.92) rotate(-36.53)" xlink:href="#linear-gradient"/><filter id="luminosity-noclip-4" x="74.99" y="-8392" width="9.65" height="32766" filterUnits="userSpaceOnUse" color-interpolation-filters="sRGB"><feFlood flood-color="#fff" result="bg"/><feBlend in="SourceGraphic" in2="bg"/></filter><mask id="mask-4" x="74.99" y="-8392" width="9.65" height="32766" maskUnits="userSpaceOnUse"><g class="cls-40"/></mask><linearGradient id="linear-gradient-4" x1="1633.79" y1="2014.59" x2="1691.83" y2="1935.83" gradientTransform="translate(-2432.06 -474.92) rotate(-36.53)" xlink:href="#linear-gradient"/><filter id="luminosity-noclip-5" x="358.75" y="65.98" width="44.68" height="32.91" filterUnits="userSpaceOnUse" color-interpolation-filters="sRGB"><feFlood flood-color="#fff" result="bg"/><feBlend in="SourceGraphic" in2="bg"/></filter><mask id="mask-5" x="358.75" y="65.98" width="44.68" height="32.91" maskUnits="userSpaceOnUse"><g class="cls-1"><path class="cls-2" d="M403.24,71.36a1.58,1.58,0,0,0-.65-2.13L396.48,66,367,82.69l-8.2,15.41,1.49.79,40.57-23Z"/></g></mask><linearGradient id="linear-gradient-5" x1="440.3" y1="225.19" x2="497.96" y2="186.08" gradientTransform="translate(-108.35 -96.77) rotate(-2.19)" gradientUnits="userSpaceOnUse"><stop offset="0" stop-color="#fff"/><stop offset="1" stop-color="#fff"/></linearGradient><filter id="luminosity-noclip-6" x="362.26" y="79.11" width="36.84" height="23.49" filterUnits="userSpaceOnUse" color-interpolation-filters="sRGB"><feFlood flood-color="#fff" result="bg"/><feBlend in="SourceGraphic" in2="bg"/></filter><mask id="mask-6" x="362.26" y="79.11" width="36.84" height="23.49" maskUnits="userSpaceOnUse"><g class="cls-3"><polygon class="cls-4" points="367.21 102.61 394.96 86.9 399.11 79.11 362.26 99.97 367.21 102.61"/></g></mask><linearGradient id="linear-gradient-6" x1="444.94" y1="232.02" x2="502.6" y2="192.91" xlink:href="#linear-gradient-5"/><filter id="luminosity-noclip-7" x="59.19" y="82.28" width="18.39" height="69.31" filterUnits="userSpaceOnUse" color-interpolation-filters="sRGB"><feFlood flood-color="#fff" result="bg"/><feBlend in="SourceGraphic" in2="bg"/></filter><mask id="mask-7" x="59.19" y="82.28" width="18.39" height="69.31" maskUnits="userSpaceOnUse"><g class="cls-5"><polygon class="cls-6" points="77.58 82.28 64.17 93.47 59.19 150 60.24 151.59 72.36 141.47 77.58 82.28"/></g></mask><linearGradient id="linear-gradient-7" x1="1624.91" y1="2007.33" x2="1682.73" y2="1928.87" gradientTransform="translate(-2432.06 -474.92) rotate(-36.53)" xlink:href="#linear-gradient-5"/><filter id="luminosity-noclip-8" x="74.99" y="76.5" width="9.65" height="62.77" filterUnits="userSpaceOnUse" color-interpolation-filters="sRGB"><feFlood flood-color="#fff" result="bg"/><feBlend in="SourceGraphic" in2="bg"/></filter><mask id="mask-8" x="74.99" y="76.5" width="9.65" height="62.77" maskUnits="userSpaceOnUse"><g class="cls-7"><polygon class="cls-8" points="79.46 135.54 84.64 76.74 84.49 76.5 80.21 80.08 74.99 139.27 79.46 135.54"/></g></mask><linearGradient id="linear-gradient-8" x1="1633.79" y1="2014.59" x2="1691.83" y2="1935.83" gradientTransform="translate(-2432.06 -474.92) rotate(-36.53)" xlink:href="#linear-gradient-5"/></defs><rect class="cls-9" width="500" height="400"/><path class="cls-10" d="M114.39,293s-63.07-38.81-61.08-82.45,81,27,81,27S85,178.05,115.39,159s47.47,50.89,47.47,50.89-1.36-69.45,34-66.34,58.44,137.1,58.44,137.1Z"/><path class="cls-10" d="M384.51,303.16s69.31-26.11,75.65-69.33-84.62,11.09-84.62,11.09,61.92-50.91,35.74-75.33-58.55,42.77-58.55,42.77,14.54-67.92-20.72-71.59-45.85,139.86-45.85,139.86Z"/><path class="cls-10" d="M163.86,218c2.73-13.44-1-27-.75-40.5a41.91,41.91,0,0,1,3.71-17.66A23.63,23.63,0,0,1,178.72,148c6.5-2.74,13.8-2.54,20.71-2.32a.38.38,0,0,0,0-.75c-6.22-.19-12.65-.34-18.66,1.53a23.62,23.62,0,0,0-13.13,10.32c-6.91,11.19-5.44,24.88-4.28,37.35.73,7.86,1.37,15.85-.21,23.65-.1.47.62.67.71.2Z"/><path class="cls-10" d="M342.21,234.37c8.61-11.45,12.8-25.32,18.83-38.14,5.72-12.17,13.74-24.17,26.7-29.37a30,30,0,0,1,10.49-2.23,15.44,15.44,0,0,1,5.11.54c1.45.47,3,1.42,3.09,3.1,0,.47.77.48.74,0-.15-2.75-3.12-3.92-5.47-4.23a27,27,0,0,0-9.64.66,38.57,38.57,0,0,0-17.22,9.7c-10.68,10.07-15.77,24.36-21.38,37.55-3.27,7.7-6.84,15.33-11.89,22.05-.29.38.36.75.64.37Z"/><path class="cls-11" d="M132,121.5c0,21.55-19.53,39-43.61,39s-43.61-17.46-43.61-39S41.19,53,88.38,82.49,132,100,132,121.5Z"/><path class="cls-11" d="M273.78,71.94c-13.26,3.67-41.72-2.57-47.29-20.22s10.59-21.81,31.14-28.3S303.15,3.7,309,32.09,287,68.26,273.78,71.94Z"/><path class="cls-11" d="M391.18,65.8c12.31,12.77.06,27.76-15,38.5a33.66,33.66,0,0,1-46.91-8.08c-10.85-15.21-36.74-46.79,7.64-47S378.87,53,391.18,65.8Z"/><path class="cls-11" d="M452.77,150.94c-11.09,14.07-32.43,15.74-47.67,3.73s-18.61-33.15-7.53-47.22,33-46.55,47.67-3.73S463.85,136.87,452.77,150.94Z"/><path class="cls-11" d="M126.7,82.18C136.6,78.29,151.45,72.72,161,64s19.94-24.9,46.75-4.94,8.42,10.82-20.26,40.23S116.79,86.08,126.7,82.18Z"/><rect class="cls-12" x="200.96" y="7.85" width="27.58" height="39.63" transform="translate(28.15 137.49) rotate(-37.82)"/><rect class="cls-9" x="193.42" y="14.48" width="23.5" height="2.13" transform="translate(33.56 129.07) rotate(-37.82)"/><rect class="cls-9" x="200.56" y="17.2" width="13.43" height="2.13" transform="translate(32.34 130.93) rotate(-37.82)"/><path class="cls-9" d="M201.67,30.51a.27.27,0,0,1-.23-.12.29.29,0,0,1,.05-.42L217.05,17.9a.29.29,0,0,1,.42.05.3.3,0,0,1-.06.42L201.85,30.44A.29.29,0,0,1,201.67,30.51Z"/><path class="cls-9" d="M202.85,32a.28.28,0,0,1-.23-.12.3.3,0,0,1,0-.42l15.56-12.07a.3.3,0,1,1,.36.47L203,32A.28.28,0,0,1,202.85,32Z"/><path class="cls-9" d="M204,33.55a.32.32,0,0,1-.24-.11.3.3,0,0,1,0-.42l15.56-12.08a.3.3,0,1,1,.37.47L204.22,33.49A.32.32,0,0,1,204,33.55Z"/><path class="cls-9" d="M205.22,35.07A.32.32,0,0,1,205,35a.3.3,0,0,1,.05-.42l10-7.76a.3.3,0,0,1,.37.47L205.4,35A.3.3,0,0,1,205.22,35.07Z"/><path class="cls-9" d="M214.93,47.59a.31.31,0,0,1-.23-.11.3.3,0,0,1,.05-.42l6.72-5.21a.29.29,0,0,1,.42,0,.3.3,0,0,1-.06.42l-6.71,5.21A.33.33,0,0,1,214.93,47.59Z"/><path class="cls-9" d="M216.12,49.11a.29.29,0,0,1-.24-.11.3.3,0,0,1,.05-.42l4.32-3.35a.3.3,0,1,1,.36.47l-4.31,3.35A.32.32,0,0,1,216.12,49.11Z"/><path class="cls-10" d="M288.53,208.33c3.3-10.66,6.61-21.36,11.21-31.54a93.41,93.41,0,0,1,16.19-25.25A63.05,63.05,0,0,1,328.62,141c.41-.26,0-.9-.37-.65a70.05,70.05,0,0,0-20.63,20.59c-6,8.94-10.31,18.88-13.89,29-2.14,6-4,12.12-5.92,18.23-.14.46.58.65.72.2Z"/><path class="cls-10" d="M404.47,291.41a184.14,184.14,0,0,0,61.43-46.62c2.8-3.26,5.86-6.83,6.09-11.33.21-4.07-2.43-7.1-5.77-9-7.72-4.47-17.23-5.05-25.93-5.29l-3.47-.08a.38.38,0,0,0,0,.75c8.91.18,18.19.37,26.5,4,3.42,1.5,7.17,3.84,7.84,7.84.78,4.72-2.53,8.8-5.38,12.14a183.75,183.75,0,0,1-61.68,47c-.44.2-.06.84.37.64Z"/><path class="cls-10" d="M117.4,291.51A132.24,132.24,0,0,1,87,270.68a135.38,135.38,0,0,1-23.57-28.33,131.06,131.06,0,0,1-8.58-16.13q-1.92-4.31-3.51-8.72a51.56,51.56,0,0,1-2.92-11c-.79-6.35.78-13.68,6.54-17.31,6.28-4,14.1-2.24,20.76-.37,14.05,3.95,28.77,7.46,43.4,4.76a51.82,51.82,0,0,0,5.34-1.28.37.37,0,0,0-.2-.72C109.41,196,93.65,193.1,79.06,189c-6.8-1.9-14.11-4.32-21.13-2a14.32,14.32,0,0,0-7.26,5.31,18.3,18.3,0,0,0-3.05,8.47c-.8,7.07,1.88,14.17,4.44,20.63a131.74,131.74,0,0,0,8,16.77,136.16,136.16,0,0,0,22.81,29.61,133.81,133.81,0,0,0,30,22.23q2,1.08,4.06,2.1c.43.21.81-.43.38-.64Z"/><rect class="cls-12" x="165.64" y="64.58" width="39.75" height="28.96" transform="translate(-3.73 9.39) rotate(-2.87)"/><path class="cls-13" d="M185.81,85.85h0a.28.28,0,0,0,.21-.1L204.66,64l0-.43-.41,0L185.79,85.12,165.35,65.58l-.41,0,0,.43L185.6,85.77A.28.28,0,0,0,185.81,85.85Z"/><path class="cls-13" d="M181.44,81.41A.3.3,0,1,0,181,81L166.37,94.14l0,.39.47,0Z"/><path class="cls-13" d="M206.07,92.15,190.15,80.51a.31.31,0,0,0-.42.07.29.29,0,0,0,.06.41l15.82,11.57.47,0Z"/><circle class="cls-14" cx="267.57" cy="34.74" r="28.09" transform="translate(212.31 298.84) rotate(-85.58)"/><path class="cls-15" d="M350.46,101.69a.3.3,0,0,1-.28-.21c-.68-2.14-1.14-3.35-1.15-3.37a.3.3,0,0,1,.17-.38.3.3,0,0,1,.39.17s.47,1.24,1.16,3.4a.29.29,0,0,1-.2.37Z"/><path class="cls-15" d="M104.38,311.58l-2.71,0a.31.31,0,0,1-.29-.31.3.3,0,0,1,.3-.29h0c2.32,0,4.71,0,7.12,0a.3.3,0,0,1,.3.29.29.29,0,0,1-.29.31C107.33,311.56,105.84,311.58,104.38,311.58Zm-9.82-.32h0c-2.41-.16-4.8-.38-7.12-.66a.3.3,0,0,1,.07-.59c2.31.28,4.69.5,7.09.66a.29.29,0,0,1,.27.31A.29.29,0,0,1,94.56,311.26Zm-14.15-1.71h0c-2.38-.43-4.73-.93-7-1.49a.3.3,0,1,1,.14-.58c2.25.56,4.59,1.06,6.95,1.49a.29.29,0,0,1,.24.34A.29.29,0,0,1,80.41,309.55Zm-13.82-3.46h-.1c-2.28-.75-4.54-1.58-6.7-2.48a.29.29,0,0,1-.16-.39.3.3,0,0,1,.39-.16c2.14.89,4.38,1.72,6.66,2.46a.3.3,0,0,1,.19.38A.29.29,0,0,1,66.59,306.09Zm-13.15-5.48a.31.31,0,0,1-.13,0c-2.14-1.11-4.22-2.32-6.19-3.59a.3.3,0,0,1,.32-.5c2,1.26,4,2.46,6.14,3.56a.3.3,0,0,1,.13.4A.32.32,0,0,1,53.44,300.61Zm-12-7.71a.31.31,0,0,1-.18-.07,67.62,67.62,0,0,1-5.38-4.73.3.3,0,1,1,.42-.42,70.21,70.21,0,0,0,5.33,4.68.29.29,0,0,1,0,.42A.27.27,0,0,1,41.48,292.9Zm-10.17-10a.29.29,0,0,1-.23-.1,67.91,67.91,0,0,1-4.26-5.76.31.31,0,0,1,.09-.42.29.29,0,0,1,.41.09,65.17,65.17,0,0,0,4.22,5.71.31.31,0,0,1,0,.42A.35.35,0,0,1,31.31,282.94Zm-7.82-11.89a.32.32,0,0,1-.27-.16,68.15,68.15,0,0,1-2.91-6.54.3.3,0,0,1,.56-.22,66,66,0,0,0,2.88,6.49.29.29,0,0,1-.13.4A.31.31,0,0,1,23.49,271.05Zm-5.09-13.3a.31.31,0,0,1-.29-.22,71.45,71.45,0,0,1-1.47-7,.29.29,0,0,1,.25-.34.31.31,0,0,1,.34.25,70.24,70.24,0,0,0,1.46,6.95.29.29,0,0,1-.21.36Zm-2.22-14.06a.31.31,0,0,1-.3-.29c-.07-1.31-.11-2.65-.11-4,0-1,0-2.12.07-3.17a.32.32,0,0,1,.31-.29.3.3,0,0,1,.29.31c-.05,1-.07,2.11-.07,3.15,0,1.32,0,2.64.11,4a.3.3,0,0,1-.28.32Zm238.13-10.9h0c-2.33-.1-4.73-.29-7.13-.57a.3.3,0,0,1-.26-.33.29.29,0,0,1,.33-.26c2.38.28,4.77.47,7.08.56a.3.3,0,0,1,.28.31A.29.29,0,0,1,254.31,232.79Zm7.12,0a.31.31,0,0,1-.3-.29.3.3,0,0,1,.28-.31c2.38-.11,4.76-.32,7.08-.64a.29.29,0,0,1,.33.25.29.29,0,0,1-.25.34c-2.33.32-4.73.54-7.13.65Zm-21.27-1.63h0c-2.28-.42-4.62-.94-7-1.53a.31.31,0,0,1-.22-.37.29.29,0,0,1,.36-.21c2.35.59,4.69,1.1,6.95,1.53a.3.3,0,0,1-.06.59Zm35.38-.32a.3.3,0,0,1-.07-.59c2.29-.54,4.59-1.19,6.83-1.95a.3.3,0,0,1,.38.19.3.3,0,0,1-.19.38c-2.26.76-4.57,1.42-6.88,2ZM16.8,229.46h0a.31.31,0,0,1-.25-.34c.34-2.36.79-4.72,1.36-7a.3.3,0,1,1,.58.14c-.56,2.29-1,4.64-1.35,7A.3.3,0,0,1,16.8,229.46Zm209.53-1.77-.09,0c-2.19-.67-4.48-1.42-6.78-2.24a.29.29,0,0,1-.18-.38.29.29,0,0,1,.38-.18c2.29.81,4.57,1.56,6.76,2.23a.31.31,0,0,1,.19.38A.29.29,0,0,1,226.33,227.69Zm62.72-1.4a.28.28,0,0,1-.27-.18.3.3,0,0,1,.15-.4c1.66-.73,3.34-1.53,5-2.39l1.52-.55a.3.3,0,0,1,.2.57l-1.48.52c-1.62.85-3.32,1.66-5,2.4A.27.27,0,0,1,289.05,226.29ZM212.87,223a.19.19,0,0,1-.1,0c-2.13-.83-4.35-1.75-6.61-2.71a.31.31,0,0,1-.16-.39.29.29,0,0,1,.39-.16c2.26,1,4.47,1.87,6.59,2.71a.29.29,0,0,1,.17.39A.31.31,0,0,1,212.87,223Zm89.31-2.2a.31.31,0,0,1-.28-.18.3.3,0,0,1,.16-.39c2.21-.94,4.38-1.94,6.46-3a.3.3,0,0,1,.4.13.3.3,0,0,1-.14.4c-2.08,1-4.27,2.05-6.48,3Zm-102.43-3.4a.28.28,0,0,1-.13,0c-2.06-.93-4.23-1.95-6.47-3a.3.3,0,0,1-.14-.4.29.29,0,0,1,.39-.14c2.24,1.06,4.41,2.08,6.47,3a.29.29,0,0,1,.15.39A.3.3,0,0,1,199.75,217.35ZM20.19,215.63l-.1,0a.31.31,0,0,1-.18-.38c.8-2.25,1.72-4.48,2.73-6.62a.3.3,0,0,1,.39-.15.31.31,0,0,1,.15.4,67.63,67.63,0,0,0-2.71,6.57A.29.29,0,0,1,20.19,215.63Zm294.73-1.26a.31.31,0,0,1-.26-.14.31.31,0,0,1,.11-.41c2.07-1.21,4.09-2.49,6-3.81a.3.3,0,0,1,.34.49c-1.93,1.33-4,2.62-6,3.83A.28.28,0,0,1,314.92,214.37Zm-128.07-3.14a.28.28,0,0,1-.13,0c-2.13-1-4.27-2.1-6.4-3.16a.3.3,0,0,1-.14-.4.29.29,0,0,1,.4-.13c2.14,1.06,4.27,2.12,6.4,3.16a.3.3,0,0,1,.14.4A.32.32,0,0,1,186.85,211.23Zm139.79-4.95a.28.28,0,0,1-.23-.11.3.3,0,0,1,0-.41c1.85-1.51,3.64-3.09,5.32-4.72a.3.3,0,1,1,.41.43c-1.69,1.64-3.49,3.23-5.35,4.75A.31.31,0,0,1,326.64,206.28Zm-152.56-1.4a.35.35,0,0,1-.14,0l-.76-.38-5.61-2.82a.29.29,0,0,1-.13-.4.3.3,0,0,1,.4-.13l5.61,2.81.76.39a.3.3,0,0,1-.13.56Zm-147.8-2.13a.28.28,0,0,1-.15,0,.29.29,0,0,1-.1-.41,63.58,63.58,0,0,1,4-5.91.29.29,0,0,1,.41,0,.3.3,0,0,1,.06.42,62.91,62.91,0,0,0-4,5.85A.31.31,0,0,1,26.28,202.75Zm135-4.24a.31.31,0,0,1-.13,0q-3.19-1.57-6.42-3.12a.29.29,0,0,1-.14-.39.3.3,0,0,1,.4-.15c2.15,1,4.29,2.08,6.42,3.13a.3.3,0,0,1,.14.4A.3.3,0,0,1,161.31,198.51Zm175.56-2.13a.32.32,0,0,1-.19-.07.29.29,0,0,1,0-.42c1.54-1.8,3-3.68,4.38-5.59a.3.3,0,1,1,.49.35c-1.38,1.93-2.86,3.82-4.42,5.63A.33.33,0,0,1,336.87,196.38Zm-188.44-4a.31.31,0,0,1-.13,0c-2.23-1-4.42-2-6.5-2.93a.3.3,0,0,1-.16-.4.3.3,0,0,1,.39-.15c2.1.92,4.29,1.91,6.52,2.94a.3.3,0,0,1,.15.4A.31.31,0,0,1,148.43,192.35ZM35,191.48a.3.3,0,0,1-.2-.08.29.29,0,0,1,0-.42A60.18,60.18,0,0,1,40,186.14a.3.3,0,0,1,.38.46,60.56,60.56,0,0,0-5.23,4.79A.31.31,0,0,1,35,191.48Zm100.37-4.86a.27.27,0,0,1-.12,0c-2.25-.92-4.48-1.8-6.64-2.62a.3.3,0,0,1-.17-.38.29.29,0,0,1,.38-.17c2.16.81,4.4,1.7,6.66,2.62a.3.3,0,0,1,.16.39A.3.3,0,0,1,135.34,186.62Zm209.8-1.84a.24.24,0,0,1-.15,0,.3.3,0,0,1-.11-.41c1.18-2,2.28-4.15,3.27-6.3a.31.31,0,0,1,.4-.15.3.3,0,0,1,.14.4c-1,2.17-2.11,4.3-3.3,6.35A.27.27,0,0,1,345.14,184.78ZM46,182.53a.3.3,0,0,1-.25-.14.29.29,0,0,1,.1-.41,56.31,56.31,0,0,1,6.3-3.41.3.3,0,0,1,.4.15.29.29,0,0,1-.15.39,56.83,56.83,0,0,0-6.24,3.37A.3.3,0,0,1,46,182.53Zm75.93-.95-.1,0c-2.3-.78-4.58-1.51-6.8-2.16a.31.31,0,0,1-.2-.37.3.3,0,0,1,.37-.2c2.22.65,4.52,1.39,6.82,2.17a.3.3,0,0,1-.09.58Zm-13.7-4.05h-.08c-2.33-.58-4.67-1.09-7-1.54a.29.29,0,0,1-.23-.35.29.29,0,0,1,.35-.23c2.28.44,4.63,1,7,1.55a.3.3,0,0,1,.22.36A.31.31,0,0,1,108.26,177.53Zm-49.31-1a.29.29,0,0,1-.28-.2.3.3,0,0,1,.19-.38,59.84,59.84,0,0,1,7-1.74.29.29,0,0,1,.34.23.29.29,0,0,1-.23.35A58.66,58.66,0,0,0,59,176.55Zm35.31-1.75h0c-2.37-.33-4.75-.58-7.07-.76a.3.3,0,0,1-.27-.32.29.29,0,0,1,.32-.27c2.33.17,4.72.43,7.1.76a.29.29,0,0,1,.25.33A.3.3,0,0,1,94.26,174.81Zm-21.33-.89a.3.3,0,0,1-.3-.28.29.29,0,0,1,.28-.31q1.05-.08,2.13-.12c1.68-.06,3.36-.08,5-.07a.31.31,0,0,1,.3.31.31.31,0,0,1-.3.29h0c-1.64,0-3.32,0-5,.07-.71,0-1.41.06-2.11.11Zm278.19-2.07H351a.3.3,0,0,1-.18-.39c.78-2.2,1.49-4.48,2.1-6.78a.3.3,0,0,1,.36-.22.31.31,0,0,1,.22.37c-.62,2.32-1.33,4.62-2.12,6.83A.3.3,0,0,1,351.12,171.85Zm3.65-13.77h0a.29.29,0,0,1-.24-.34c.41-2.3.75-4.66,1-7a.29.29,0,0,1,.32-.27.3.3,0,0,1,.27.33c-.26,2.39-.6,4.78-1,7.08A.31.31,0,0,1,354.77,158.08Zm1.52-14.18h0a.3.3,0,0,1-.29-.31c.05-1.37.08-2.76.08-4.15,0-1,0-2,0-3a.3.3,0,0,1,.59,0c0,1,0,2,0,3,0,1.39,0,2.8-.08,4.17A.29.29,0,0,1,356.29,143.9Zm-.36-14.26a.29.29,0,0,1-.29-.27c-.2-2.33-.47-4.71-.8-7.08a.29.29,0,0,1,.25-.33.3.3,0,0,1,.34.25c.33,2.37.6,4.76.8,7.11a.3.3,0,0,1-.27.32Zm-2-14.13a.29.29,0,0,1-.29-.24c-.46-2.33-1-4.67-1.55-6.94a.3.3,0,1,1,.58-.15c.57,2.28,1.1,4.63,1.56,7a.3.3,0,0,1-.24.35Z"/><path class="cls-15" d="M116.11,311.17a.3.3,0,0,1-.3-.28.3.3,0,0,1,.28-.32c1.17-.08,2.36-.17,3.56-.28a.3.3,0,0,1,0,.6c-1.2.1-2.39.2-3.57.28Z"/><rect class="cls-16" x="53.93" y="388.11" width="399.28" height="3.12"/><polygon class="cls-12" points="453.21 388.11 53.93 388.11 100.72 283.89 420.4 283.89 453.21 388.11"/><path class="cls-15" d="M388.4,339.77c0,16.24-53.86,25.94-132,25.94s-129.93-6.9-129.93-25.94,61.5-49.29,130.63-49.29S388.4,323.53,388.4,339.77Z"/><path class="cls-14" d="M296,346.44c-1.35,8.28-3.68,14.66-5.8,14.31s-3.23-7.28-1.88-15.56,4.57-14.5,6.69-14.15S297.32,338.16,296,346.44Z"/><path class="cls-15" d="M332.09,352.17c5.13,16.85-2.07,29.82-9.45,36L309,388.11,319,354Z"/><path class="cls-17" d="M281.83,356.58l11.18,3,7.79,1.94c3.19.47,6.37-20,5.25-20.24C298,339.61,288,336.47,288,336.47Z"/><path class="cls-18" d="M291.39,337.49l-3.7,20.67,5.25,1.42.64.16c-1.84-2.26,1.5-18.12,7.51-19.58C297.63,339.29,293.75,338.19,291.39,337.49Z"/><path class="cls-9" d="M330.22,351.91c-2.24-9.69-12.64-8.69-21-10-1-.16-2.09-.36-3.21-.59-3.7,2.3-7.52,14.78-5.25,20.25,3.19.47,5.25,3.5,5.25,6.82,0,7.94-11,24.18-.19,25.17S332.46,361.6,330.22,351.91Z"/><path class="cls-12" d="M320.86,343.47A12.24,12.24,0,0,0,328,361.76c.36.09.71.17,1.07.24,1.2-4.17,1.69-7.79,1.16-10.09C329,346.6,325.31,344.5,320.86,343.47Z"/><path class="cls-12" d="M301.82,383.88c-1.31,5-1.24,9.17,4,9.65,3.34.31,7.17-2.65,10.8-7.17C310.29,381.56,305.2,382.25,301.82,383.88Z"/><path class="cls-12" d="M305.24,364.89a42.34,42.34,0,0,1,8.16-22.49l-.85-.09a43.2,43.2,0,0,0-8,21.5A6.53,6.53,0,0,1,305.24,364.89Z"/><path class="cls-15" d="M230.17,365.42c-12.69,1.31-2.93,16.07.4,22.69H214.82l-2.11-29.88Z"/><path class="cls-17" d="M249,148.13s-6-5.68-8.26-1,5,13.49,8.9,11.77S249,148.13,249,148.13Z"/><path class="cls-18" d="M248.45,149.81s-4.39-4.14-6-.73,3.64,9.83,6.49,8.58S248.45,149.81,248.45,149.81Z"/><path class="cls-13" d="M247.77,147.89s-7.38-6.86-5.7-19.12S254,120.48,254,120.48s3.66-9.29,12.65-8.73,16,9.73,23,11a16.72,16.72,0,0,0,11.58-1.69s0,20.15-16.09,27.66S247.77,147.89,247.77,147.89Z"/><path class="cls-19" d="M120.24,234.3c-4.93,3.26-9.58,4.91-10.39,3.69s2.53-4.86,7.46-8.12,9.56-5.84,10.37-4.62C128,226.82,125.16,231,120.24,234.3Z"/><path class="cls-19" d="M400.37,225.93c-4.43-3-7.36-6.37-6.55-7.59s5.07.21,9.51,3.18,8.09,6.54,7.27,7.75C409.32,230.22,404.8,228.9,400.37,225.93Z"/><path class="cls-17" d="M391.46,225S398.93,211,398,202.67a53.14,53.14,0,0,0-1.23-6.58c-1-4.12,12-13.54,13.34-10.93s-4.09,6.33-6,8.63a12.84,12.84,0,0,1,2.38,3.92s1.23.47,9.28-2.52c1.67-.62,1.56-4.93,1.56-4.93s-8.13-3.37-6.9-5.5,12.06,1.67,13.19,5.63-.56,6.26-.56,6.26,17.66-2.36,19.4-1.57,1.59,2,1.59,2a1.94,1.94,0,0,1,1.44,2.22c-.13,3.08-16.69,6.86-16.69,6.86s14.9.46,15.17,3.22-29.75,8.38-29.75,8.38l-9.44,20.53Z"/><path class="cls-18" d="M409.87,227.12c-3.64.44-13.84-7.75-14.72-10.38a82.07,82.07,0,0,1-3.69,8.26l12.13,12.21,1.41.49Z"/><path class="cls-17" d="M128.66,236.57s-5.81-16.89,0-30.42c1.7-5.55-7.62-15.59-11.1-14.09s4.27,10.11,4.27,10.11l-4,4.94L107.3,198s11.06-2.88,9.4-6-15.89-.5-15.89,4a9.63,9.63,0,0,0,3.46,7.16s-15.69-7.34-20.85-5c-1.48.8-.53,1.82-.53,1.82s-2.84-.64-2.84,1.54,15.06,10.77,15.06,10.77-14.46-3.15-15.23-.48,27.75,13.61,27.75,13.61l7.78,22.07Z"/><path class="cls-18" d="M112.63,239.6c2.61-.77,13.65-4.25,14.77-7.68a73.22,73.22,0,0,1-1.41-7.47c-4.29,5.38-12.79,9.28-15.7,8.51Z"/><path class="cls-17" d="M286.47,148.13s6-5.68,8.26-1-5,13.49-8.9,11.77S286.47,148.13,286.47,148.13Z"/><path class="cls-18" d="M286.37,149.52s4.58-4.32,6.29-.75-3.8,10.25-6.77,8.94S286.37,149.52,286.37,149.52Z"/><path class="cls-20" d="M190.65,276.3l4.56-19.16s-24.31,35.53-53.93,24.69-31.55-44-31.55-44c3.45,1.52,19-9.34,18-12.82,0,0,9,24.9,26.83,22.74s35.4-41.68,68.63-51.79,65-7.7,82.35,2.17,34.93,42.6,56.36,42.6,32-22.52,32-22.52c-.69,3.52,11.93,12.44,16.76,11,0,0-5.51,34.43-33,47S324,256.08,324,256.08l3.85,15.64Z"/><polygon class="cls-21" points="252.54 206.1 266.19 198.95 278.86 206.06 268.47 195.85 263.83 196.47 252.54 206.1"/><path class="cls-11" d="M377.64,276.27C389.21,271,396.88,261.8,401.88,253c-3,4.23-15,19-39.44,17.46-29-1.82-42.76-37.55-42.76-37.55l4.54,23.31a4.46,4.46,0,0,1,.63.9C329.52,262.45,353.07,287.53,377.64,276.27Z"/><path class="cls-11" d="M195.12,257.11l7.1-26.47s-12.4,43.91-49.56,43.74c-22.44-.11-33.33-8.93-37.46-16.83,4.37,9.18,12.17,19.19,26.08,24.28,9.53,3.49,18.5,2.17,26.3-1.21C183.79,273,195.12,257.11,195.12,257.11Z"/><polygon class="cls-18" points="251.97 181.07 251.97 170.32 280.41 171.53 280.07 183.33 266.42 195.85 251.97 181.07"/><path class="cls-22" d="M389.54,314.36c-.24-38.51-60-40.86-60-40.86s-99.64-2.08-138.81,2.77c0,0-71.42,7.28-68.05,43.38,2.12,22.77,68,33.11,116.41,37.65a9.63,9.63,0,0,1-1.21,4.49s11.3-.66,27.71-2.4c14.63.94,24.24,1.23,24.24,1.23a6.4,6.4,0,0,1-.47-4.15C333.38,350.3,389.69,337.82,389.54,314.36ZM317.63,316l-53,7.63-74-7.92Z"/><polygon class="cls-23" points="192.22 269.3 327.18 269.3 329.37 273.5 190.56 276.27 192.22 269.3"/><path class="cls-19" d="M264.88,269.6h0a.29.29,0,0,1-.29-.3l1.53-73.46a.33.33,0,0,1,.31-.29.31.31,0,0,1,.29.31l-1.54,73.45A.29.29,0,0,1,264.88,269.6Z"/><polygon class="cls-24" points="264.68 207.66 257.12 241.31 266.45 250.63 275.78 242.1 268.53 207.66 264.68 207.66"/><polygon class="cls-20" points="240.26 191.77 252.37 205.97 266.66 194.12 279.11 205.91 293.05 193.04 280.07 183.33 266.66 194.12 251.97 181.07 240.26 191.77"/><polygon class="cls-24" points="257.81 201.52 264.68 207.66 268.53 207.66 275.1 202.17 266.66 194.12 257.81 201.52"/><polygon class="cls-25" points="266.66 194.42 273.29 203.69 275.1 202.17 266.66 194.12 257.81 201.52 260.08 203.55 266.66 194.42"/><path class="cls-17" d="M255.46,130.82c-.71,8.52-3.39,13-7.69,17.07l2.5,24.29s10.13,9.61,12.32,9.73,4.08-.38,6-.38,3.52.61,6.17.38S285,172.3,285,172.3l1.43-24.17-2.5-9.77S262.48,142.49,255.46,130.82Z"/><path class="cls-18" d="M269.81,158.54h-6.19a.31.31,0,0,1-.3-.29l-.58-16.44a.29.29,0,0,1,.29-.3.3.3,0,0,1,.31.28l.57,16.15h5.9a.29.29,0,0,1,.29.3A.3.3,0,0,1,269.81,158.54Z"/><path class="cls-13" d="M267.68,164.26a14.85,14.85,0,0,1-1.92-.12.31.31,0,0,1-.25-.34.3.3,0,0,1,.34-.25c.07,0,7.19,1,9.85-3.62a.3.3,0,0,1,.52.3C274.23,163.7,270.11,164.26,267.68,164.26Z"/><path class="cls-19" d="M232.39,241.31a17.61,17.61,0,0,1-10.74-3.75.28.28,0,0,1-.12-.25l.72-14.49a.35.35,0,0,1,.1-.21.39.39,0,0,1,.23-.07,105.1,105.1,0,0,0,21.57.32.32.32,0,0,1,.23.08.27.27,0,0,1,.09.24l-1,14.77a.31.31,0,0,1-.16.24A23,23,0,0,1,232.39,241.31Zm-10.26-4.13c6.2,4.57,13,4.76,20.79.57l.94-14.26a106.36,106.36,0,0,1-21-.32Z"/><path class="cls-19" d="M194.55,261.8h-.07a.31.31,0,0,1-.23-.36l8.23-34.74a.3.3,0,0,1,.58.14l-8.23,34.74A.3.3,0,0,1,194.55,261.8Z"/><path class="cls-19" d="M324.79,261.69a.3.3,0,0,1-.29-.24l-7-36.19a.3.3,0,0,1,.59-.11l7,36.18a.3.3,0,0,1-.24.35Z"/><path class="cls-19" d="M112,249.35c6.85-.61,16-7.89,21-14-.12-.16-.23-.33-.34-.5-4.89,6.08-14.1,13.43-20.88,13.92C111.92,249,112,249.16,112,249.35Z"/><path class="cls-19" d="M395.82,240.48c-4.05-3.43-8.13-8.43-8.32-12.8-.18.21-.35.42-.54.63.53,4.41,4.51,9.26,8.48,12.63a29.23,29.23,0,0,0,9.65,5.64c.08-.19.17-.37.25-.56A27.63,27.63,0,0,1,395.82,240.48Z"/><path class="cls-19" d="M240,192l12.11,14.21a.32.32,0,0,0,.22.1.26.26,0,0,0,.19-.07l14.08-11.68,12.22,11.66a.3.3,0,0,0,.41,0l14-12.92a.92.92,0,0,0,.07-.13l-.56-.3-13.7,12.72L266.86,193.9a.29.29,0,0,0-.39,0l-14.06,11.67-11.93-14-.49.31A.19.19,0,0,0,240,192Z"/><rect class="cls-24" x="255.26" y="268.31" width="17.28" height="7.44"/><rect class="cls-23" x="256.98" y="269.75" width="13.94" height="4.52"/><path class="cls-18" d="M251.78,145.44s.31,5,5.26,5.25,4.28-5.65,3.77-7.33S251.78,145.44,251.78,145.44Z"/><path class="cls-23" d="M261.35,142.63c.51,2-4.06,2.59-7.35,3-1.91.23-2.57.45-2.77.22s.16-1.28,1.82-2.26C256,141.82,260.84,140.56,261.35,142.63Z"/><path class="cls-13" d="M256.82,151h0a4.4,4.4,0,0,1-4.1-2.3.3.3,0,0,1,.15-.4.3.3,0,0,1,.39.14,3.79,3.79,0,0,0,3.56,2h0a4.35,4.35,0,0,0,4-2.34.29.29,0,0,1,.39-.15.3.3,0,0,1,.14.4A4.89,4.89,0,0,1,256.82,151Z"/><path class="cls-18" d="M269.93,141.8s-1.26,8.09,4.7,8.22,4.92-7.54,4.92-7.54Z"/><path class="cls-13" d="M274.74,150.32h0a4.37,4.37,0,0,1-4.09-2.3.31.31,0,0,1,.14-.4.3.3,0,0,1,.4.15,3.77,3.77,0,0,0,3.55,1.95h0a4.34,4.34,0,0,0,4-2.34.3.3,0,0,1,.4-.14.29.29,0,0,1,.14.39A4.91,4.91,0,0,1,274.74,150.32Z"/><path class="cls-23" d="M269.77,141.45c-.32,2.07,4.29,1.42,7.6,1.51,1.93.06,2.25.43,2.44.18s.06-1.35-1.68-2.18C275,139.49,270.09,139.35,269.77,141.45Z"/><path class="cls-18" d="M272.38,175.39c0,.69-1.83.39-4.09.39s-4.1.3-4.1-.39,1.84-1.88,4.1-1.88S272.38,174.71,272.38,175.39Z"/><path class="cls-13" d="M254.35,121.47c-1.19-5.37,5.21-9.15,9.75-9.48a12.14,12.14,0,0,1,11.46,6.38c.22.42.87,0,.64-.38a12.73,12.73,0,0,0-20.47-2.84,7.29,7.29,0,0,0-2.1,6.52c.1.47.82.27.72-.2Z"/><path class="cls-13" d="M249.28,119.87c-4.2.74-6.94,4.89-8,8.74a15.56,15.56,0,0,0,2.32,13.08c.27.39.92,0,.64-.38a14.85,14.85,0,0,1-2.31-12.26c1-3.7,3.52-7.75,7.56-8.47.47-.08.27-.8-.2-.71Z"/><path class="cls-18" d="M117.5,219a6.32,6.32,0,0,1,1.91-11.84.3.3,0,0,0,.26-.34l-.34.3-.72-.54a7.06,7.06,0,0,0-1.49,13.06C117.54,219.86,117.92,219.22,117.5,219Z"/><path class="cls-18" d="M103.57,219.76A22.08,22.08,0,0,1,114,214.5c.47-.1.27-.82-.19-.72A22.89,22.89,0,0,0,103,219.23c-.35.33.17.85.53.53Z"/><path class="cls-18" d="M83.84,200.67q8.39,2.72,16.52,6.07c.45.18.64-.54.2-.72Q92.43,202.66,84,200c-.46-.14-.65.57-.2.72Z"/><path class="cls-18" d="M96.86,217.22a33.79,33.79,0,0,1,10.61-15.44c.37-.31-.16-.83-.52-.53A34.55,34.55,0,0,0,96.14,217c-.15.46.57.65.72.2Z"/><path class="cls-18" d="M107.63,225.41c1.31.68,4,.43,4,1.22s-3.26.92-3.26.92Z"/><path class="cls-19" d="M392.74,226.91a1.76,1.76,0,0,1,1.22,0,1.85,1.85,0,0,1,1,1.11,2.29,2.29,0,0,1-.05,1.61,1.95,1.95,0,1,1-3.59-1.45h0a2.25,2.25,0,0,1,1.08-1.19A1.88,1.88,0,0,1,392.74,226.91Zm.65,3.51a1.67,1.67,0,0,0,1-1,1.69,1.69,0,0,0,.05-1.19,1.21,1.21,0,0,0-1.74-.7,1.69,1.69,0,0,0-.79.89h0a1.46,1.46,0,0,0,.66,1.94A1.22,1.22,0,0,0,393.39,230.42Zm-1.75-2.09h0Z"/><path class="cls-19" d="M125.23,235.49a2.12,2.12,0,0,1-2-1.7,2.26,2.26,0,0,1,.2-1.6,1.85,1.85,0,0,1,1.2-.94,1.79,1.79,0,0,1,1.49.32,2.26,2.26,0,0,1,.88,1.34h0a2.06,2.06,0,0,1-1.39,2.54A1.87,1.87,0,0,1,125.23,235.49Zm-.18-3.69a1.19,1.19,0,0,0-1.08.68,1.73,1.73,0,0,0-.14,1.17,1.35,1.35,0,1,0,2.61-.6,1.7,1.7,0,0,0-.65-1A1.32,1.32,0,0,0,125.05,231.8Z"/><path class="cls-18" d="M405.7,197.39a.35.35,0,0,0,.09.22,13.36,13.36,0,0,1,2.89,12.08.37.37,0,0,0,.72.2,14.15,14.15,0,0,0-2.83-12.5l-.62.32Z"/><path class="cls-18" d="M409.72,205.44a12.91,12.91,0,0,1,9.27,5.68c.26.4.91,0,.64-.38a13.71,13.71,0,0,0-9.91-6.05c-.47-.05-.47.7,0,.75Z"/><path class="cls-18" d="M420.31,193.85a61.08,61.08,0,0,1,6.63,17c.11.47.82.27.72-.2A62,62,0,0,0,421,193.48a.37.37,0,0,0-.64.37Z"/><path class="cls-18" d="M427.2,200.92a55.17,55.17,0,0,1,15.44-2.67.38.38,0,0,0,0-.75A56.46,56.46,0,0,0,427,200.2c-.46.15-.26.87.19.72Z"/><path class="cls-18" d="M414.15,217.81c-2.24.3-5.84-1-6.39-.24s2.86,3.61,5.21,2.81Z"/><path class="cls-18" d="M270.47,158.24c0,.57-1.6,1-3.58,1s-3.48-.35-3.48-.92,1.45-.28,3.43-.28S270.47,157.67,270.47,158.24Z"/><circle class="cls-13" cx="246.62" cy="272.03" r="1.06"/><path class="cls-13" d="M236.33,272a1.07,1.07,0,1,1-1.06-1.07A1.07,1.07,0,0,1,236.33,272Z"/><rect class="cls-24" x="263.05" y="271.55" width="8.14" height="1.02"/><path class="cls-9" d="M256.78,269.46a45.77,45.77,0,0,1,5,0c.48,0,.48-.72,0-.74a45.77,45.77,0,0,0-5,0c-.48,0-.48.77,0,.75Z"/><path class="cls-9" d="M263.63,269.55l3.89.1a.38.38,0,0,0,0-.75l-3.89-.1a.38.38,0,0,0,0,.75Z"/><path class="cls-9" d="M258.84,275.24a41.69,41.69,0,0,0,6.42-.07c.48,0,.48-.79,0-.74a44.37,44.37,0,0,1-6.42.07c-.48,0-.48.71,0,.74Z"/><path class="cls-19" d="M234.2,229.89a62.81,62.81,0,0,1-11.95-1.33.3.3,0,0,1,.11-.59c7.53,1.44,13.74,2,21.41.22a.28.28,0,0,1,.35.22.3.3,0,0,1-.22.36A42.65,42.65,0,0,1,234.2,229.89Z"/><path class="cls-19" d="M222.56,222.63a73.91,73.91,0,0,0,21.61.31A177.45,177.45,0,0,0,222.56,222.63Z"/><path class="cls-25" d="M264.68,207.66s2.25,4.51,3.85,0A5.22,5.22,0,0,0,264.68,207.66Z"/><path class="cls-19" d="M253.75,344.26a.28.28,0,0,1-.29-.28.29.29,0,0,1,.28-.31c1,0,98.14-4.45,115.46-26a10.43,10.43,0,0,0,2.48-8.57C368.82,292.76,294.82,286,227.5,290c-52.49,3.1-85.45,11.64-86,22.28a13.46,13.46,0,0,0,4.14,10.38c7,7.24,23.27,12.32,47,14.71a312.13,312.13,0,0,0,34.18,1.44.31.31,0,0,1,.31.29.3.3,0,0,1-.29.3A307.63,307.63,0,0,1,192.53,338c-24.2-2.43-40.14-7.44-47.35-14.88a14,14,0,0,1-4.32-10.83c.33-5.88,9.19-10.95,26.34-15.07,15.16-3.65,36-6.34,60.26-7.77,32.83-1.94,68.44-1.28,95.28,1.78,39.14,4.46,48.53,12.14,49.52,17.81a11,11,0,0,1-2.59,9c-7.35,9.14-29.1,16.33-64.64,21.37-26.43,3.75-51,4.83-51.26,4.84Z"/><path class="cls-14" d="M238.74,343.23c3.11,9,3.84,16.82.89,17.83s-8.46-5.12-11.56-14.16-2.59-17.24.36-18.26S235.63,334.18,238.74,343.23Z"/><path class="cls-17" d="M247.36,356.34c-.36.63-8.9,5.3-8.9,5.3S224.17,364,220.27,367s-4.07-22.39,1.75-23.17c7-.94,14.67-6,19.11-8.35C249.29,331.16,247.36,356.34,247.36,356.34Z"/><path class="cls-18" d="M229.56,341.59c5.45-1,10,16.55,8.9,20.05h0l2.34-1.29a10.51,10.51,0,0,0,5-8.74c0-4.89-4-11.49-6.4-15.14C236.39,338.17,229.56,341.59,229.56,341.59Z"/><path class="cls-22" d="M232,328.36l-3.26.21c8.85,1.1,14.33,29.89,9,33.22l16.1-1.3-2.92-34Z"/><path class="cls-19" d="M264.17,324h0l-95.83-10.29a.32.32,0,0,1-.27-.33.3.3,0,0,1,.33-.26l95.83,10.29a.3.3,0,0,1,.26.33A.29.29,0,0,1,264.17,324Z"/><path class="cls-19" d="M253.94,360.53c1.84-4.62,1.17-10.54.44-14.19-1.64-8.25-5.54-16.21-9.46-19.87l-.66.21c3.88,3.45,7.91,11.58,9.54,19.78.72,3.65,1.39,9.62-.54,14.13Z"/><path class="cls-19" d="M228.62,328.59l.12-.06L337.66,312.8a.3.3,0,0,1,.34.25.3.3,0,0,1-.25.34L230,329A4.56,4.56,0,0,0,228.62,328.59Z"/><path class="cls-9" d="M222,343.86c-8.17,1.25-15.55-1.8-21.86,1.12-13.86,6.43-1.5,51,13.56,51.46s2.65-26.33,6.55-29.41a17.47,17.47,0,0,1,4.92-2.29C229.44,359,224,344.68,222,343.86Z"/><path class="cls-12" d="M200.16,345c-3.79,1.76-5.61,6.37-6,12.15a13.29,13.29,0,0,0,1.68.11A12.26,12.26,0,0,0,208.13,345c0-.44,0-.87-.07-1.3A17.25,17.25,0,0,0,200.16,345Z"/><path class="cls-12" d="M201.93,387c3.33,5.49,7.45,9.3,11.79,9.42,6.11.17,7.7-4.12,7.69-9.49C217.78,384.61,210.89,382,201.93,387Z"/><path class="cls-12" d="M216.44,344.16l-.91,0c4.45,6.74,4.78,15.1,4.62,23l.12-.11c.19-.15.4-.29.63-.44C221,358.88,220.62,350.78,216.44,344.16Z"/><polygon class="cls-25" points="266.45 250.63 267.71 219.56 275.78 242.1 266.45 250.63"/><rect class="cls-22" x="143.65" y="58.47" width="39.75" height="28.96" transform="translate(-15.46 67.93) rotate(-22.44)"/><path class="cls-26" d="M166,79.26l.12,0a.3.3,0,0,0,.16-.17l10.28-26.69-.17-.4-.38.15L165.81,78.56,140,67l-.38.16.17.4,26.06,11.69Z"/><path class="cls-26" d="M150.68,93.92l.43-.18,9.36-17.22a.3.3,0,0,0-.52-.28l-9.42,17.32Z"/><path class="cls-26" d="M168,73a.29.29,0,0,0,.2.37L187,78.93l.44-.18-.15-.36-18.9-5.63A.29.29,0,0,0,168,73Z"/><circle class="cls-24" cx="176.55" cy="51.9" r="9.68"/><polygon class="cls-22" points="350.05 80.78 363.08 73.09 336.81 53.91 328.18 92.61 340.89 86.27 352.94 91.65 350.05 80.78"/><polygon class="cls-14" points="340.89 86.27 338.22 60.02 346.08 83.27 352.94 91.65 340.89 86.27"/><rect class="cls-22" x="366.12" y="59.68" width="28.87" height="51.75" rx="3.56" transform="translate(84.89 -168.86) rotate(28.04)"/><path class="cls-12" d="M370.65,61h21.42a2.64,2.64,0,0,1,2.64,2.64v43.45a0,0,0,0,1,0,0H368a0,0,0,0,1,0,0V63.63A2.64,2.64,0,0,1,370.65,61Z" transform="translate(84.27 -169.41) rotate(28.04)"/><path class="cls-22" d="M394.69,64.7a2.33,2.33,0,1,1-4.12-2.19c.61-1.14.92.49,2.06,1.1S395.3,63.57,394.69,64.7Z"/><path class="cls-27" d="M368.91,97a2.93,2.93,0,1,1-1.21-4A2.94,2.94,0,0,1,368.91,97Z"/><path class="cls-28" d="M382.75,104.36a2.93,2.93,0,1,1-1.21-4A2.94,2.94,0,0,1,382.75,104.36Z"/><path class="cls-9" d="M373.24,101.38a2.15,2.15,0,0,1-1-.24,2.08,2.08,0,1,1,2.82-.86h0A2.07,2.07,0,0,1,373.24,101.38Zm0-3.57a1.59,1.59,0,0,0-.43.06,1.52,1.52,0,0,0-.88.73,1.49,1.49,0,0,0,2.63,1.4,1.5,1.5,0,0,0-.62-2A1.54,1.54,0,0,0,373.24,97.81Zm1.58,2.33h0Z"/><g class="cls-29"><path class="cls-30" d="M403.24,71.36a1.58,1.58,0,0,0-.65-2.13L396.48,66,367,82.69l-8.2,15.41,1.49.79,40.57-23Z"/></g><g class="cls-31"><polygon class="cls-32" points="367.21 102.61 394.96 86.9 399.11 79.11 362.26 99.97 367.21 102.61"/></g><rect class="cls-12" x="415.91" y="81.19" width="34.44" height="49.49" transform="translate(53.64 -128.19) rotate(17.93)"/><rect class="cls-9" x="424.22" y="86.2" width="29.34" height="2.66" transform="translate(48.26 -130.86) rotate(17.93)"/><rect class="cls-9" x="429.19" y="90.28" width="16.77" height="2.66" transform="translate(49.45 -130.25) rotate(17.93)"/><path class="cls-9" d="M444.71,102.09h-.09l-23.4-7.57a.3.3,0,1,1,.18-.57l23.4,7.57a.3.3,0,0,1,.19.38A.29.29,0,0,1,444.71,102.09Z"/><path class="cls-9" d="M444,104.38h-.09l-23.4-7.57a.3.3,0,1,1,.18-.57l23.4,7.57a.3.3,0,0,1,.19.38A.29.29,0,0,1,444,104.38Z"/><path class="cls-9" d="M443.23,106.67h-.09l-23.41-7.57a.3.3,0,1,1,.19-.57l23.4,7.57a.3.3,0,0,1-.09.58Z"/><path class="cls-9" d="M434.12,106.26l-.09,0-15-4.86a.3.3,0,0,1,.19-.57l15,4.86a.3.3,0,0,1,.19.38A.29.29,0,0,1,434.12,106.26Z"/><path class="cls-9" d="M423.09,123.49H423l-10.1-3.27a.3.3,0,0,1,.18-.57l10.11,3.27a.3.3,0,0,1-.1.58Z"/><path class="cls-9" d="M418.74,124.61h-.09l-6.49-2.1a.3.3,0,0,1,.18-.57l6.49,2.1a.3.3,0,0,1-.09.58Z"/><rect class="cls-9" x="424.81" y="99.57" width="34.44" height="49.49" transform="translate(171.74 -246.88) rotate(38.23)"/><path class="cls-12" d="M440.25,154.71a.34.34,0,0,1-.19-.07L413,133.33a.24.24,0,0,1-.11-.2.29.29,0,0,1,.06-.22L443.58,94A.29.29,0,0,1,444,94l27.06,21.31a.31.31,0,0,1,.11.2.33.33,0,0,1-.06.22l-30.63,38.87A.29.29,0,0,1,440.25,154.71ZM413.61,133l26.59,21,30.25-38.41L443.87,94.64Z"/><rect class="cls-12" x="439.16" y="107.72" width="29.34" height="2.66" transform="matrix(0.79, 0.62, -0.62, 0.79, 164.83, -257.46)"/><rect class="cls-12" x="442.78" y="111.09" width="16.77" height="2.66" transform="translate(166.34 -255.09) rotate(38.23)"/><path class="cls-12" d="M454.33,124.75a.3.3,0,0,1-.18-.06l-19.32-15.23a.29.29,0,0,1-.05-.42.3.3,0,0,1,.42,0l19.32,15.22a.3.3,0,0,1,.05.42A.32.32,0,0,1,454.33,124.75Z"/><path class="cls-12" d="M452.84,126.64a.3.3,0,0,1-.18-.06l-19.32-15.23a.29.29,0,0,1,0-.41.3.3,0,0,1,.42,0L453,126.11a.3.3,0,0,1,.05.42A.32.32,0,0,1,452.84,126.64Z"/><path class="cls-12" d="M451.35,128.53a.3.3,0,0,1-.18-.06l-19.32-15.22a.3.3,0,1,1,.37-.47L451.54,128a.3.3,0,0,1,0,.42A.32.32,0,0,1,451.35,128.53Z"/><path class="cls-12" d="M443,125a.32.32,0,0,1-.18-.06l-12.41-9.78a.3.3,0,1,1,.37-.47l12.41,9.78a.3.3,0,0,1,.05.42A.32.32,0,0,1,443,125Z"/><path class="cls-12" d="M426.63,137.32a.26.26,0,0,1-.18-.07l-8.34-6.57a.3.3,0,0,1-.05-.42.31.31,0,0,1,.42,0l8.34,6.58a.29.29,0,0,1,.05.41A.3.3,0,0,1,426.63,137.32Z"/><path class="cls-12" d="M422.16,136.86a.26.26,0,0,1-.18-.07l-5.36-4.22a.3.3,0,1,1,.37-.46l5.36,4.22a.3.3,0,0,1,0,.42A.32.32,0,0,1,422.16,136.86Z"/><rect class="cls-9" x="215.92" y="14.96" width="29.37" height="42.21" transform="translate(-0.16 71.08) rotate(-17.52)"/><path class="cls-12" d="M223,60.91a.23.23,0,0,1-.14,0,.28.28,0,0,1-.15-.17L210,20.45a.3.3,0,0,1,.19-.37l28-8.84a.25.25,0,0,1,.22,0,.28.28,0,0,1,.15.17l12.7,40.25a.3.3,0,0,1-.19.37l-28,8.84ZM210.63,20.56l12.52,39.68,27.44-8.66L238.07,11.89Z"/><rect class="cls-12" x="213" y="19.29" width="25.02" height="2.27" transform="translate(4.31 68.82) rotate(-17.52)"/><rect class="cls-12" x="219.47" y="22.78" width="14.3" height="2.27" transform="translate(3.31 69.31) rotate(-17.52)"/><path class="cls-12" d="M216.61,34.07a.3.3,0,0,1-.09-.58l20-6.31a.3.3,0,0,1,.38.19.29.29,0,0,1-.2.37l-20,6.32Z"/><path class="cls-12" d="M217.23,36a.3.3,0,0,1-.29-.21.29.29,0,0,1,.2-.37l20-6.32a.3.3,0,0,1,.37.2.29.29,0,0,1-.19.37l-20,6.32Z"/><path class="cls-12" d="M217.84,38a.3.3,0,0,1-.09-.58l20-6.32a.3.3,0,0,1,.18.57l-20,6.31Z"/><path class="cls-12" d="M218.46,40a.31.31,0,0,1-.28-.21.31.31,0,0,1,.19-.38l12.85-4a.3.3,0,0,1,.38.19.3.3,0,0,1-.2.38l-12.85,4Z"/><path class="cls-12" d="M223.54,56a.29.29,0,0,1-.28-.21.3.3,0,0,1,.19-.37l8.64-2.73a.31.31,0,0,1,.37.2.3.3,0,0,1-.19.37L223.63,56Z"/><path class="cls-12" d="M224.16,58a.3.3,0,0,1-.09-.58l5.55-1.75a.29.29,0,0,1,.37.19.3.3,0,0,1-.19.37L224.25,58Z"/><circle class="cls-9" cx="265.86" cy="34.74" r="28.09" transform="translate(152.82 277.87) rotate(-72.51)"/><path class="cls-14" d="M265.86,63.13a28.39,28.39,0,1,1,28.39-28.39A28.41,28.41,0,0,1,265.86,63.13Zm0-56.18a27.8,27.8,0,1,0,27.8,27.79A27.83,27.83,0,0,0,265.86,7Z"/><path class="cls-14" d="M266.62,36.77a.59.59,0,0,1-.38-.14L252.74,25.4a.59.59,0,0,1-.08-.84.6.6,0,0,1,.84-.08l13.16,11,10-6.65a.59.59,0,0,1,.66,1L267,36.67A.58.58,0,0,1,266.62,36.77Z"/><circle class="cls-22" cx="266.62" cy="36.07" r="2.06"/><path class="cls-14" d="M265.86,14.77a.29.29,0,0,1-.29-.29V9.41a.3.3,0,1,1,.59,0v5.07A.29.29,0,0,1,265.86,14.77Z"/><path class="cls-14" d="M265.86,60.38a.3.3,0,0,1-.29-.3V55a.3.3,0,1,1,.59,0v5.07A.3.3,0,0,1,265.86,60.38Z"/><path class="cls-14" d="M291.2,35h-5.07a.3.3,0,1,1,0-.59h5.07a.3.3,0,1,1,0,.59Z"/><path class="cls-14" d="M245.6,35h-5.07a.3.3,0,1,1,0-.59h5.07a.3.3,0,0,1,0,.59Z"/><path class="cls-14" d="M282,18.92a.27.27,0,0,1-.21-.09.29.29,0,0,1,0-.42l1.79-1.79a.29.29,0,0,1,.42,0,.31.31,0,0,1,0,.42l-1.79,1.79A.3.3,0,0,1,282,18.92Z"/><path class="cls-14" d="M248,53a.3.3,0,0,1-.21-.51l1.79-1.79a.3.3,0,1,1,.42.42l-1.79,1.79A.29.29,0,0,1,248,53Z"/><path class="cls-14" d="M283.78,53a.27.27,0,0,1-.21-.09l-1.79-1.79a.3.3,0,0,1,.42-.42L284,52.45a.31.31,0,0,1,0,.42A.3.3,0,0,1,283.78,53Z"/><path class="cls-14" d="M249.74,18.92a.29.29,0,0,1-.21-.09L247.74,17a.3.3,0,1,1,.42-.42L250,18.41a.3.3,0,0,1-.21.51Z"/><path class="cls-14" d="M276.2,58.17a.3.3,0,0,1-.27-.18l-1-2.31a.3.3,0,0,1,.54-.24l1,2.31a.29.29,0,0,1-.15.39A.27.27,0,0,1,276.2,58.17Z"/><path class="cls-14" d="M256.56,14.23a.29.29,0,0,1-.27-.18l-1-2.31a.3.3,0,0,1,.15-.39.3.3,0,0,1,.4.15l1,2.31a.29.29,0,0,1-.15.39A.27.27,0,0,1,256.56,14.23Z"/><path class="cls-14" d="M289.53,44.08a.22.22,0,0,1-.11,0l-2.36-.9a.3.3,0,1,1,.21-.56l2.36.91a.29.29,0,0,1,.18.38A.3.3,0,0,1,289.53,44.08Z"/><path class="cls-14" d="M244.56,26.9a.18.18,0,0,1-.1,0l-2.37-.9a.3.3,0,0,1-.17-.38.3.3,0,0,1,.39-.18l2.36.91a.3.3,0,0,1,.17.38A.29.29,0,0,1,244.56,26.9Z"/><path class="cls-14" d="M286.68,25.74a.3.3,0,0,1-.27-.18.29.29,0,0,1,.15-.39l2.31-1a.29.29,0,0,1,.39.15.3.3,0,0,1-.15.4l-2.31,1A.27.27,0,0,1,286.68,25.74Z"/><path class="cls-14" d="M242.74,45.38a.3.3,0,0,1-.28-.17.31.31,0,0,1,.15-.4l2.32-1a.29.29,0,0,1,.39.15.29.29,0,0,1-.15.39l-2.31,1Z"/><path class="cls-14" d="M274,13.74a.18.18,0,0,1-.1,0,.3.3,0,0,1-.18-.38l.91-2.37a.3.3,0,1,1,.55.22l-.9,2.36A.29.29,0,0,1,274,13.74Z"/><path class="cls-14" d="M256.82,58.71l-.11,0a.3.3,0,0,1-.17-.39l.91-2.36a.29.29,0,0,1,.38-.17.29.29,0,0,1,.17.38l-.9,2.37A.32.32,0,0,1,256.82,58.71Z"/><circle class="cls-28" cx="326.83" cy="73.6" r="9.68" transform="translate(177.71 373.59) rotate(-76.26)"/><path class="cls-9" d="M327.72,78.09a1.49,1.49,0,0,1-.36,0l-6.14-1.5a1.49,1.49,0,0,1,.71-2.9l4.7,1.16,1.69-6.88a1.49,1.49,0,1,1,2.89.71l-2,8.32A1.5,1.5,0,0,1,327.72,78.09Z"/><path class="cls-9" d="M178.83,56.46a1.57,1.57,0,1,1-1.76-1.35A1.56,1.56,0,0,1,178.83,56.46Z"/><polygon class="cls-9" points="178.01 53.52 175.72 53.83 174.12 45.04 177.24 44.62 178.01 53.52"/><path class="cls-17" d="M28.85,175.83a3,3,0,0,1-1.41-.36l-15.22-8.32a3,3,0,0,1-1.18-4l.7-1.27a2.95,2.95,0,0,1,4-1.18l13.62,7.44a.3.3,0,0,1-.28.52L15.48,161.2a2.38,2.38,0,0,0-1.81-.19,2.34,2.34,0,0,0-1.41,1.13l-.69,1.28a2.36,2.36,0,0,0,.94,3.21l15.21,8.31a2.37,2.37,0,0,0,3.22-.94l.36-.67a2.36,2.36,0,0,0-.94-3.21l-7.77-4.25A2.37,2.37,0,1,0,20.31,170l6.19,3.38a.3.3,0,1,1-.29.52L20,170.55a3,3,0,1,1,2.84-5.2l7.78,4.24a3,3,0,0,1,1.18,4l-.37.67A3,3,0,0,1,28.85,175.83Z"/><path class="cls-13" d="M45.87,161.94a4.09,4.09,0,0,1-.85-.09,3.9,3.9,0,0,1-2.42-1.7L30.17,140.58a3.87,3.87,0,0,1,1.19-5.33l1.64-1a3.86,3.86,0,0,1,5.33,1.19l11.13,17.51a.3.3,0,0,1-.09.41.31.31,0,0,1-.42-.09L37.83,135.72a3.25,3.25,0,0,0-2-1.44,3.3,3.3,0,0,0-2.47.43l-1.63,1a3.28,3.28,0,0,0-1,4.51l12.44,19.57a3.25,3.25,0,0,0,2,1.44,3.31,3.31,0,0,0,2.47-.44l.86-.54a3.27,3.27,0,0,0,1-4.51l-6.35-10a3.27,3.27,0,1,0-5.52,3.5l5.06,8a.3.3,0,0,1-.51.32l-5-8a3.86,3.86,0,0,1-.51-2.91,3.81,3.81,0,0,1,1.7-2.42,3.86,3.86,0,0,1,5.33,1.19l6.35,10a3.86,3.86,0,0,1-1.18,5.33l-.86.55A3.92,3.92,0,0,1,45.87,161.94Z"/><path class="cls-13" d="M458.37,189.61a2.42,2.42,0,0,1-.7-.1l-.58-.18a2.4,2.4,0,0,1-1.6-3l4-13.13a2.41,2.41,0,0,1,3-1.6l1.09.33a2.4,2.4,0,0,1,1.61,3l-3.55,11.75a.3.3,0,0,1-.37.2.29.29,0,0,1-.2-.2l-.37,1.22a2.39,2.39,0,0,1-2.3,1.71Zm3.39-17.52a1.85,1.85,0,0,0-.86.21,1.82,1.82,0,0,0-.88,1.08l-4,13.12a1.81,1.81,0,0,0,1.21,2.26l.57.18a1.82,1.82,0,0,0,2.26-1.21l2-6.71a1.81,1.81,0,0,0-3.47-1.05l-1.61,5.34a.3.3,0,0,1-.57-.17l1.61-5.34a2.41,2.41,0,0,1,1.17-1.43,2.41,2.41,0,0,1,3.53,2.33l1.8-5.94a1.81,1.81,0,0,0-1.21-2.26l-1.1-.33A1.57,1.57,0,0,0,461.76,172.09Z"/><path class="cls-17" d="M472.56,201.49h0a3.07,3.07,0,0,1-2.19-.94l-.56-.58a3.09,3.09,0,0,1-.89-2.21,3.12,3.12,0,0,1,.94-2.2L483,182.76a3.21,3.21,0,0,1,2.22-.88,3.07,3.07,0,0,1,2.19.94l1.07,1.1a3,3,0,0,1,.89,2.21,3.12,3.12,0,0,1-.94,2.2l-11.76,11.45a.29.29,0,0,1-.42,0,.3.3,0,0,1,0-.42L488,187.9a2.54,2.54,0,0,0,.05-3.57l-1.07-1.1a2.52,2.52,0,0,0-1.78-.76,2.56,2.56,0,0,0-1.79.72L470.24,196a2.54,2.54,0,0,0-.05,3.57l.57.57a2.49,2.49,0,0,0,1.77.77,2.63,2.63,0,0,0,1.79-.72l6.71-6.54a2.49,2.49,0,0,0,.77-1.78,2.53,2.53,0,0,0-2.5-2.55,2.48,2.48,0,0,0-1.79.72l-5.34,5.2a.3.3,0,0,1-.41-.43l5.34-5.2a3.19,3.19,0,0,1,2.21-.89,3.13,3.13,0,0,1,2.14,5.36l-6.71,6.54A3.11,3.11,0,0,1,472.56,201.49Z"/><path class="cls-17" d="M286.83,100.56a2.2,2.2,0,0,1-1.68-.76l-8.27-9.45a2.24,2.24,0,0,1,.21-3.15l.79-.69A2.24,2.24,0,0,1,279.5,86a2.2,2.2,0,0,1,1.53.76l7.4,8.46a.3.3,0,0,1,0,.42.54.54,0,0,1-.21.08l.73.82a2.24,2.24,0,0,1-.21,3.15l-.42.36A2.22,2.22,0,0,1,286.83,100.56Zm-2-2,.76.87a1.63,1.63,0,0,0,2.31.15l.41-.36a1.64,1.64,0,0,0,.16-2.31l-4.23-4.83a1.63,1.63,0,0,0-2.46,2.15l3.36,3.85a.29.29,0,0,1,0,.42A.29.29,0,0,1,284.84,98.54Zm-5.49-12a1.57,1.57,0,0,0-1.07.41l-.79.69a1.63,1.63,0,0,0-.16,2.3l3.76,4.3a2.23,2.23,0,0,1,3.11-3l-3.62-4.13a1.59,1.59,0,0,0-1.12-.55Z"/><path class="cls-17" d="M178.36,121.42a.3.3,0,0,1-.21-.09l-5-5a.3.3,0,0,1-.08-.21.34.34,0,0,1,.08-.21l5-5a.31.31,0,0,1,.42,0l5,5a.29.29,0,0,1,0,.42l-5,5A.27.27,0,0,1,178.36,121.42Zm-4.58-5.3,4.58,4.58,4.58-4.58-4.58-4.57Z"/><path class="cls-17" d="M401.92,118.32a.27.27,0,0,1-.21-.09L399.43,116a.29.29,0,0,1,0-.42l2.28-2.28a.31.31,0,0,1,.42,0l2.27,2.28a.29.29,0,0,1,0,.42l-2.27,2.27A.3.3,0,0,1,401.92,118.32Zm-1.86-2.57,1.86,1.85,1.85-1.85-1.85-1.86Z"/><path class="cls-17" d="M329.57,127.18a.3.3,0,0,1-.21-.09L325,122.74a.29.29,0,0,1,0-.42l4.35-4.35a.29.29,0,0,1,.42,0l4.36,4.35a.31.31,0,0,1,0,.42l-4.36,4.35A.27.27,0,0,1,329.57,127.18Zm-3.93-4.65,3.93,3.93,3.93-3.93-3.93-3.93Z"/><path class="cls-17" d="M34.13,61.77a.3.3,0,0,1-.21-.09L29.44,57.2a.3.3,0,1,1,.42-.42l4.48,4.48a.29.29,0,0,1,0,.42A.27.27,0,0,1,34.13,61.77Z"/><path class="cls-17" d="M29.65,61.77a.3.3,0,0,1-.21-.51l4.48-4.48a.3.3,0,0,1,.42.42l-4.48,4.48A.29.29,0,0,1,29.65,61.77Z"/><path class="cls-17" d="M64,270.85a.27.27,0,0,1-.21-.09l-4.49-4.49a.29.29,0,0,1,0-.42.31.31,0,0,1,.42,0l4.49,4.49a.31.31,0,0,1,0,.42A.3.3,0,0,1,64,270.85Z"/><path class="cls-17" d="M59.49,270.85a.3.3,0,0,1-.21-.09.29.29,0,0,1,0-.42l4.49-4.49a.3.3,0,1,1,.42.42l-4.49,4.49A.29.29,0,0,1,59.49,270.85Z"/><path class="cls-17" d="M335.59,14.16a.29.29,0,0,1-.21-.09l-4.49-4.48a.32.32,0,0,1,0-.43.31.31,0,0,1,.42,0l4.49,4.49a.29.29,0,0,1,0,.42A.3.3,0,0,1,335.59,14.16Z"/><path class="cls-17" d="M331.1,14.16a.3.3,0,0,1-.21-.09.31.31,0,0,1,0-.42l4.49-4.49a.31.31,0,0,1,.42,0,.3.3,0,0,1,0,.43l-4.49,4.48A.27.27,0,0,1,331.1,14.16Z"/><path class="cls-17" d="M230.21,125.42a.3.3,0,0,1-.21-.09l-9-9a.3.3,0,1,1,.42-.42l9,9a.3.3,0,0,1-.22.51Z"/><path class="cls-17" d="M221.22,125.42a.3.3,0,0,1-.21-.09.29.29,0,0,1,0-.42l9-9a.3.3,0,0,1,.43,0,.31.31,0,0,1,0,.42l-9,9A.29.29,0,0,1,221.22,125.42Z"/><path class="cls-17" d="M480.66,244.09a.3.3,0,0,1-.21-.09l-4.95-4.95a.3.3,0,0,1,0-.43.31.31,0,0,1,.42,0l5,5a.3.3,0,0,1-.22.51Z"/><path class="cls-17" d="M475.71,244.09a.3.3,0,0,1-.21-.51l4.95-5a.3.3,0,0,1,.43.43l-5,4.95A.29.29,0,0,1,475.71,244.09Z"/><path class="cls-17" d="M405.7,166a4,4,0,1,1,4-4A4,4,0,0,1,405.7,166Zm0-7.44a3.43,3.43,0,1,0,3.42,3.42A3.43,3.43,0,0,0,405.7,158.6Z"/><path class="cls-17" d="M140.26,168.72a8.21,8.21,0,1,1,8.2-8.21A8.22,8.22,0,0,1,140.26,168.72Zm0-15.82a7.62,7.62,0,1,0,7.61,7.61A7.63,7.63,0,0,0,140.26,152.9Z"/><path class="cls-17" d="M442.27,274.27a8.21,8.21,0,1,1,8.21-8.21A8.21,8.21,0,0,1,442.27,274.27Zm0-15.82a7.62,7.62,0,1,0,7.62,7.61A7.63,7.63,0,0,0,442.27,258.45Z"/><path class="cls-26" d="M109,126.54l-57-26.28L35.4,114.07a4.42,4.42,0,0,0-.54,5.72l24.07,36.3a1.66,1.66,0,0,0,1.34.81l37.14,1.33,51.39-42.92a4.53,4.53,0,0,0,1.53-3.07Z"/><path class="cls-22" d="M111.4,112.58,86.82,75.5a2.83,2.83,0,0,0-4.2-.88L35.72,113.8a3.69,3.69,0,0,0-.45,4.76L59.45,155a1.31,1.31,0,0,0,1,.62l37,.72,52.83-44.13Z"/><polygon class="cls-9" points="107.89 111.79 60.24 151.59 36.84 116.3 84.49 76.5 107.89 111.79"/><path class="cls-26" d="M113.4,138.83h0l-9.07-.18a.29.29,0,0,1-.28-.2.3.3,0,0,1,.09-.32l12.42-10.38a.34.34,0,0,1,.19-.07l9.38-.08a.28.28,0,0,1,.28.2.3.3,0,0,1-.08.33l-12.73,10.63A.37.37,0,0,1,113.4,138.83Zm-8.27-.76,8.16.16,12-10-8.44.08Z"/><path class="cls-26" d="M82.59,154h0l-18.52-.22a.29.29,0,0,1-.28-.2.32.32,0,0,1,.09-.33l46.26-38.64a.34.34,0,0,1,.19-.07l18.93-.12h0a.29.29,0,0,1,.28.2.28.28,0,0,1-.09.33L82.78,154A.26.26,0,0,1,82.59,154Zm-17.71-.81,17.61.21,46-38.38-18,.12Z"/><path class="cls-26" d="M66.45,153.84a.3.3,0,0,1-.23-.11.29.29,0,0,1,0-.42l46.41-38.77a.3.3,0,1,1,.38.46L66.64,153.77A.3.3,0,0,1,66.45,153.84Z"/><path class="cls-26" d="M69.89,153.91a.3.3,0,0,1-.23-.1.3.3,0,0,1,0-.42l46.41-38.77a.3.3,0,0,1,.42,0,.29.29,0,0,1,0,.42L70.08,153.85A.31.31,0,0,1,69.89,153.91Z"/><path class="cls-26" d="M73.46,153.81a.3.3,0,0,1-.23-.1.31.31,0,0,1,0-.42l46.41-38.77a.3.3,0,1,1,.38.46L73.65,153.74A.26.26,0,0,1,73.46,153.81Z"/><path class="cls-26" d="M76.71,153.81a.3.3,0,0,1-.2-.53l46.42-38.76a.3.3,0,0,1,.42,0,.31.31,0,0,1,0,.42L76.9,153.74A.3.3,0,0,1,76.71,153.81Z"/><path class="cls-26" d="M79.92,153.83a.29.29,0,0,1-.19-.52l46.41-38.77a.29.29,0,0,1,.42,0,.3.3,0,0,1,0,.42L80.11,153.76A.3.3,0,0,1,79.92,153.83Z"/><path class="cls-26" d="M85.23,151.83h0l-16-.34a.3.3,0,0,1-.29-.3c0-.17.14-.33.31-.3l16,.35a.29.29,0,0,1,.29.3A.29.29,0,0,1,85.23,151.83Z"/><path class="cls-26" d="M88.41,149.17h0l-16-.34a.29.29,0,0,1-.29-.31.28.28,0,0,1,.3-.29l16,.34a.31.31,0,0,1,.29.31A.3.3,0,0,1,88.41,149.17Z"/><path class="cls-26" d="M91.6,146.51h0l-16-.34a.31.31,0,0,1-.3-.31.29.29,0,0,1,.31-.29l16,.34a.31.31,0,0,1,.3.31A.31.31,0,0,1,91.6,146.51Z"/><path class="cls-26" d="M94.78,143.85h0l-16-.34a.31.31,0,0,1-.29-.31.28.28,0,0,1,.3-.29l16,.34a.31.31,0,0,1,.29.31A.3.3,0,0,1,94.78,143.85Z"/><path class="cls-26" d="M98,141.19h0l-16-.35a.29.29,0,0,1-.29-.3.27.27,0,0,1,.3-.29l16,.34a.3.3,0,0,1,.29.31A.31.31,0,0,1,98,141.19Z"/><path class="cls-26" d="M101.16,138.53h0l-16-.35a.3.3,0,0,1-.29-.3.28.28,0,0,1,.31-.29l16,.34a.29.29,0,0,1,.29.3A.29.29,0,0,1,101.16,138.53Z"/><path class="cls-26" d="M104.34,135.86h0l-16-.34a.29.29,0,0,1-.29-.3c0-.17.13-.33.3-.29l16,.34a.3.3,0,0,1,.29.3A.29.29,0,0,1,104.34,135.86Z"/><path class="cls-26" d="M107.53,133.2h0l-16-.34a.3.3,0,0,1-.3-.31c0-.16.15-.32.31-.29l16,.35a.3.3,0,0,1,.3.3A.31.31,0,0,1,107.53,133.2Z"/><path class="cls-26" d="M110.71,130.54h0l-16-.34a.31.31,0,0,1-.29-.31.28.28,0,0,1,.3-.29l16,.35a.3.3,0,1,1,0,.59Z"/><path class="cls-26" d="M113.9,127.88h0l-16-.34a.29.29,0,0,1-.29-.31.28.28,0,0,1,.3-.29l16,.34a.3.3,0,0,1,0,.6Z"/><path class="cls-26" d="M117.09,125.22h0l-16-.34a.31.31,0,0,1-.29-.31.29.29,0,0,1,.31-.29l16,.34a.29.29,0,0,1,.29.31A.29.29,0,0,1,117.09,125.22Z"/><path class="cls-26" d="M120.27,122.56h0l-16-.35a.3.3,0,0,1,0-.59l16,.34a.3.3,0,0,1,0,.6Z"/><path class="cls-26" d="M123.46,119.9h0l-16-.35a.3.3,0,0,1-.3-.3.31.31,0,0,1,.31-.29l16,.34a.3.3,0,0,1,.3.3A.31.31,0,0,1,123.46,119.9Z"/><path class="cls-26" d="M126.64,117.23h0l-16-.34a.3.3,0,1,1,0-.59l16,.34a.3.3,0,1,1,0,.59Z"/><path class="cls-26" d="M61.52,153.87a.29.29,0,0,1-.23-.1.3.3,0,0,1,0-.42l48-40.09a.3.3,0,1,1,.38.46l-48,40.09A.31.31,0,0,1,61.52,153.87Z"/><path class="cls-12" d="M90.24,97.59l-9,7.51a2.5,2.5,0,0,0-.31,3.25l3.52,5.31a1.93,1.93,0,0,0,2.86.6l9-7.51a2.5,2.5,0,0,0,.31-3.25L93.1,98.19A1.93,1.93,0,0,0,90.24,97.59Z"/><path class="cls-13" d="M97.06,105.23l-6.57-.31,1.77-7.5a2.38,2.38,0,0,0-.56-.21l-2.3,9.73-8.88-.46a2.41,2.41,0,0,0,0,.6l6.87.35-1.63,7.18a2,2,0,0,0,.6,0l1.63-7.2,1.64.08h0a.29.29,0,0,0,.29-.23l.43-1.8,6.58.31A3,3,0,0,0,97.06,105.23Z"/><path class="cls-12" d="M88.62,120.92,76.1,131.37a1.88,1.88,0,0,0-.23,2.44,1.43,1.43,0,0,0,2.14.45l12.52-10.45a1.88,1.88,0,0,0,.23-2.44A1.43,1.43,0,0,0,88.62,120.92Z"/><path class="cls-12" d="M83.53,79.13,39,116.33a1,1,0,0,0-.12,1.27.75.75,0,0,0,1.12.23L84.53,80.64a1,1,0,0,0,.12-1.27A.76.76,0,0,0,83.53,79.13Z"/><polygon class="cls-17" points="78.33 123.11 57.92 140.16 46.92 123.56 67.33 106.52 78.33 123.11"/><path class="cls-12" d="M65.89,106.11l-19.08,16a.88.88,0,0,0-.11,1.16l.22.34,20.41-17-.08-.12A.91.91,0,0,0,65.89,106.11Z"/><path class="cls-33" d="M47.24,122.5a.27.27,0,0,1,0,.35.21.21,0,0,1-.31-.06.28.28,0,0,1,0-.36A.22.22,0,0,1,47.24,122.5Z"/><path class="cls-34" d="M47.86,122a.27.27,0,0,1,0,.35.22.22,0,0,1-.32-.06.28.28,0,0,1,0-.36A.21.21,0,0,1,47.86,122Z"/><path class="cls-35" d="M48.48,121.46a.27.27,0,0,1,0,.35.21.21,0,0,1-.31-.06.28.28,0,0,1,0-.36A.2.2,0,0,1,48.48,121.46Z"/><path class="cls-12" d="M62.89,136.31a.31.31,0,0,1-.25-.13l-11.21-16.9a.31.31,0,0,1,.09-.42.3.3,0,0,1,.41.09l11.21,16.9a.3.3,0,0,1-.09.41A.33.33,0,0,1,62.89,136.31Z"/><g class="cls-36"><polygon class="cls-37" points="77.58 82.28 64.17 93.47 59.19 150 60.24 151.59 72.36 141.47 77.58 82.28"/></g><g class="cls-38"><polygon class="cls-39" points="79.46 135.54 84.64 76.74 84.49 76.5 80.21 80.08 74.99 139.27 79.46 135.54"/></g><rect class="cls-22" x="416.38" y="141.65" width="33.27" height="24.24" transform="translate(50.57 -100.96) rotate(14.12)"/><path class="cls-26" d="M431.77,158.62l-11.54-20.56-.4-.1-.1.42,8.93,15.92L414,161.1l-.1.37.46.12L429,154.82l2.45,4.37a.3.3,0,0,0,.19.14h.07a.3.3,0,0,0,.16-.05l4.26-2.7,9.65,12.88.45.12.1-.38-9.7-12.94L452,146.5l.11-.42-.4-.1Z"/></svg>