<svg xmlns="http://www.w3.org/2000/svg" xmlns:xlink="http://www.w3.org/1999/xlink" viewBox="0 0 750 500"><defs><style>.cls-1,.cls-22,.cls-5,.cls-8{fill:none;}.cls-2{fill:#1c1556;}.cls-3{isolation:isolate;}.cls-4{fill:#fff;}.cls-5{stroke:#100e3a;}.cls-22,.cls-5{stroke-linecap:round;stroke-linejoin:round;}.cls-13,.cls-6{fill:#100e3a;}.cls-6{opacity:0.1;mix-blend-mode:multiply;}.cls-7{font-size:21.94px;}.cls-19,.cls-7{fill:#a7a5d8;}.cls-12,.cls-7{font-family:QuicksandBold-Regular, QuicksandBold Regular;}.cls-8{stroke:#d9d9fc;stroke-miterlimit:10;}.cls-12,.cls-9{fill:#d9d9fc;}.cls-10{fill:#ff9cbd;}.cls-11{fill:#ffc727;}.cls-12{font-size:33.13px;}.cls-14{fill:url(#Nueva_muestra_de_motivo_17);}.cls-15{fill:url(#Nueva_muestra_de_motivo_17-5);}.cls-16{fill:#eb9481;}.cls-17{fill:#67c6b4;}.cls-18{fill:#f3f8fe;}.cls-20{fill:#474799;}.cls-21{fill:#dd6a57;}.cls-22{stroke:#f7a9a0;stroke-width:0;}</style><pattern id="Nueva_muestra_de_motivo_17" data-name="Nueva muestra de motivo 17" width="300" height="300" patternTransform="translate(38.78 -62.57) scale(0.02)" patternUnits="userSpaceOnUse" viewBox="0 0 300 300"><rect class="cls-1" width="300" height="300"/><circle class="cls-2" cx="150" cy="150" r="49.95"/><path class="cls-2" d="M50,0H0V50A50,50,0,0,0,50,0Z"/><path class="cls-2" d="M0,250.05V300H50A50,50,0,0,0,0,250.05Z"/><path class="cls-2" d="M300,50V0H250.05A50,50,0,0,0,300,50Z"/><path class="cls-2" d="M300,250.05A50,50,0,0,0,250.05,300H300Z"/></pattern><pattern id="Nueva_muestra_de_motivo_17-5" data-name="Nueva muestra de motivo 17" width="300" height="300" patternTransform="translate(29.09 -64.73) scale(0.03)" patternUnits="userSpaceOnUse" viewBox="0 0 300 300"><rect class="cls-1" width="300" height="300"/><circle class="cls-2" cx="150" cy="150" r="49.95"/><path class="cls-2" d="M50,0H0V50A50,50,0,0,0,50,0Z"/><path class="cls-2" d="M0,250.05V300H50A50,50,0,0,0,0,250.05Z"/><path class="cls-2" d="M300,50V0H250.05A50,50,0,0,0,300,50Z"/><path class="cls-2" d="M300,250.05A50,50,0,0,0,250.05,300H300Z"/></pattern></defs><g class="cls-3"><g id="BACKGROUND"><rect class="cls-4" width="750" height="500"/></g><g id="OBJECTS"><line class="cls-5" x1="126.63" y1="407.5" x2="679.15" y2="407.5"/><path class="cls-6" d="M637.68,425.23c0,4-15.51,7.3-34.63,7.3s-34.61-3.26-34.61-7.3,15.5-7.29,34.61-7.29S637.68,421.21,637.68,425.23Z"/><text class="cls-7" transform="translate(474.68 56.8)">011100010<tspan x="0" y="26.33">101000101</tspan><tspan x="0" y="52.66">001001101</tspan></text><rect class="cls-8" x="181.96" y="51.64" width="98.62" height="62.91"/><rect class="cls-8" x="181.96" y="51.64" width="98.62" height="11.9"/><path class="cls-9" d="M216.18,102.44,201.73,90.21a1.59,1.59,0,0,1,0-2.44l14.45-12.23a1.41,1.41,0,0,1,2,.17h0a1.41,1.41,0,0,1-.16,2L206.13,87.77a1.59,1.59,0,0,0,0,2.44L218,100.27a1.41,1.41,0,0,1,.16,2h0A1.41,1.41,0,0,1,216.18,102.44Z"/><path class="cls-9" d="M244.36,102.27h0a1.41,1.41,0,0,1,.16-2l11.89-10.06a1.59,1.59,0,0,0,0-2.44L244.52,77.71a1.41,1.41,0,0,1-.16-2h0a1.41,1.41,0,0,1,2-.17l14.45,12.23a1.59,1.59,0,0,1,0,2.44l-14.45,12.23A1.41,1.41,0,0,1,244.36,102.27Z"/><path class="cls-9" d="M222.61,108.84h0a1.43,1.43,0,0,1-.79-1.85L237,69.13a1.41,1.41,0,0,1,1.84-.79h0a1.41,1.41,0,0,1,.79,1.85L224.46,108A1.43,1.43,0,0,1,222.61,108.84Z"/><path class="cls-10" d="M193.13,57.68a3,3,0,1,1-3-3A3,3,0,0,1,193.13,57.68Z"/><path class="cls-9" d="M205.36,57.68a3,3,0,1,1-3-3A3,3,0,0,1,205.36,57.68Z"/><path class="cls-11" d="M217.58,57.68a3,3,0,1,1-3-3A3,3,0,0,1,217.58,57.68Z"/><rect class="cls-8" x="84.04" y="245.75" width="98.62" height="62.91"/><rect class="cls-8" x="84.04" y="245.75" width="98.62" height="11.9"/><path class="cls-10" d="M95.21,251.78a3,3,0,1,1-3-3A3,3,0,0,1,95.21,251.78Z"/><path class="cls-9" d="M107.43,251.78a3,3,0,1,1-3-3A3,3,0,0,1,107.43,251.78Z"/><path class="cls-11" d="M119.66,251.78a3,3,0,1,1-3-3A3,3,0,0,1,119.66,251.78Z"/><text class="cls-12" transform="translate(345.64 293.1)">C++</text><rect class="cls-8" x="589.98" y="153.8" width="98.62" height="62.91"/><rect class="cls-8" x="589.98" y="153.8" width="98.62" height="11.9"/><path class="cls-10" d="M601.15,159.83a3,3,0,1,1-3-3A3,3,0,0,1,601.15,159.83Z"/><path class="cls-9" d="M613.37,159.83a3,3,0,1,1-3-3A3,3,0,0,1,613.37,159.83Z"/><path class="cls-11" d="M625.6,159.83a3,3,0,1,1-3-3A3,3,0,0,1,625.6,159.83Z"/><text class="cls-12" transform="translate(349.06 201.15)">CSS</text><path class="cls-9" d="M172.3,148.89a2.3,2.3,0,0,1,0-2.41l.35-.61c.11-.21.22-.43.32-.64a2.29,2.29,0,0,1,2-1.34l3-.09-.3-9.63-2.95.09a2.28,2.28,0,0,1-2.08-1.21c-.23-.42-.48-.82-.75-1.22a2.27,2.27,0,0,1-.16-2.39l1.4-2.6-8.49-4.55-1.4,2.6a2.28,2.28,0,0,1-2.07,1.19,13.86,13.86,0,0,0-1.44,0,2.26,2.26,0,0,1-2.15-1.06L156,122.56l-8.19,5.08,1.57,2.52a2.28,2.28,0,0,1,0,2.39c-.12.2-.24.41-.35.62s-.22.42-.32.63a2.27,2.27,0,0,1-2,1.34l-3,.09.3,9.63,2.95-.09A2.27,2.27,0,0,1,149,146c.23.42.49.83.76,1.23a2.31,2.31,0,0,1,.16,2.39l-1.4,2.6,8.49,4.55,1.4-2.6a2.27,2.27,0,0,1,2.07-1.19,13.67,13.67,0,0,0,1.44,0,2.3,2.3,0,0,1,2.16,1.07l1.55,2.5,8.18-5.08Zm-15.2-2.42a7.89,7.89,0,1,1,10.68-3.23A7.89,7.89,0,0,1,157.1,146.47Z"/><path class="cls-9" d="M661.54,272.76a2.84,2.84,0,0,1-1.38-2.62c0-.29,0-.58,0-.87s0-.59,0-.88a2.85,2.85,0,0,1,1.38-2.62L664.7,264l-5.94-10.28-3.15,1.82a2.84,2.84,0,0,1-3-.1,16.88,16.88,0,0,0-1.53-.89,2.82,2.82,0,0,1-1.56-2.51v-3.64H637.68V252a2.82,2.82,0,0,1-1.56,2.51,14.52,14.52,0,0,0-1.53.89,2.84,2.84,0,0,1-3,.1l-3.16-1.82L622.54,264l3.17,1.83a2.82,2.82,0,0,1,1.37,2.61c0,.29,0,.58,0,.88s0,.58,0,.87a2.8,2.8,0,0,1-1.38,2.62l-3.16,1.82,5.93,10.29,3.15-1.82a2.8,2.8,0,0,1,3,.1,16.67,16.67,0,0,0,1.54.89,2.81,2.81,0,0,1,1.56,2.51v3.63h11.88v-3.63a2.81,2.81,0,0,1,1.56-2.51c.53-.27,1-.57,1.54-.89a2.8,2.8,0,0,1,3-.1l3.14,1.82,5.94-10.29ZM643.62,279a9.73,9.73,0,1,1,9.72-9.73A9.73,9.73,0,0,1,643.62,279Z"/><path class="cls-9" d="M334.65,81.61a2,2,0,0,1-1-1.89c0-.2,0-.41,0-.62s0-.43,0-.64a2,2,0,0,1,1-1.87l2.26-1.31-4.26-7.39-2.27,1.31a2,2,0,0,1-2.12-.07,10.14,10.14,0,0,0-1.1-.64,2,2,0,0,1-1.12-1.8V64.08h-8.53v2.61a2,2,0,0,1-1.12,1.8,9.27,9.27,0,0,0-1.1.64,2,2,0,0,1-2.13.07l-2.26-1.31-4.27,7.39,2.28,1.32a2,2,0,0,1,1,1.87c0,.21,0,.42,0,.63s0,.42,0,.62a2,2,0,0,1-1,1.89l-2.27,1.3,4.27,7.39L313.16,89a2,2,0,0,1,2.12.08,12.17,12.17,0,0,0,1.11.63,2,2,0,0,1,1.12,1.81v2.61H326V91.51a2,2,0,0,1,1.12-1.81,12.17,12.17,0,0,0,1.11-.63,2,2,0,0,1,2.12-.08l2.26,1.31,4.26-7.39Zm-12.87,4.48a7,7,0,1,1,7-7A7,7,0,0,1,321.78,86.09Z"/><path class="cls-9" d="M146,107.65a2,2,0,0,1-1-1.88c0-.21,0-.42,0-.63s0-.42,0-.63a2,2,0,0,1,1-1.88l2.27-1.31L144,93.94l-2.27,1.3a2,2,0,0,1-2.13-.07c-.35-.23-.72-.44-1.1-.64a2,2,0,0,1-1.12-1.8V90.12h-8.53v2.61a2,2,0,0,1-1.12,1.8c-.38.2-.74.41-1.1.64a2,2,0,0,1-2.12.07l-2.27-1.3L118,101.32l2.28,1.32a2,2,0,0,1,1,1.87c0,.21,0,.42,0,.63s0,.42,0,.63a2,2,0,0,1-1,1.88L118,109l4.26,7.39,2.26-1.31a2,2,0,0,1,2.13.07,10.88,10.88,0,0,0,1.1.64,2,2,0,0,1,1.12,1.8v2.61h8.53v-2.61a2,2,0,0,1,1.13-1.8,10.88,10.88,0,0,0,1.1-.64,2,2,0,0,1,2.13-.07l2.26,1.31,4.26-7.39Zm-12.87,4.48a7,7,0,1,1,7-7A7,7,0,0,1,133.13,112.13Z"/><path class="cls-10" d="M592.29,267A66,66,0,0,1,568,231.79c-6.24-23.2-9.65-72.64-9.65-72.64s34.85,42.12,38.92,67.59S592.29,267,592.29,267Z"/><path class="cls-10" d="M615.8,283.52s-2.94-26.08,9.14-47.43,52.81-35.66,52.81-35.66-24.4,46.32-35.68,59.55S615.8,283.52,615.8,283.52Z"/><path class="cls-10" d="M614.48,345.77s2.19-22.1,9.41-35.93,33.15-33.35,46.2-38.57C670.09,271.27,653.82,334,614.48,345.77Z"/><path class="cls-10" d="M589.13,326.79s-18.77-11.53-28.92-32.18-12.27-49.85-12.27-49.85S593.5,281.6,589.13,326.79Z"/><path class="cls-13" d="M607.23,412.48a224.18,224.18,0,0,1-6-51.32,221.68,221.68,0,0,1,1.28-25.89,211.05,211.05,0,0,1,4.24-25.59,194.6,194.6,0,0,1,7.62-24.8l2.33-6.05c.8-2,1.67-4,2.5-6l1.26-3c.44-1,.9-2,1.36-2.95.93-1.95,1.81-3.92,2.78-5.85a200,200,0,0,1,12.9-22.47c1.21-1.79,2.48-3.54,3.74-5.29s2.61-3.44,4-5.09a70.42,70.42,0,0,1,9-9.29,51.66,51.66,0,0,0-4.49,4.63c-.72.79-1.41,1.62-2.09,2.45s-1.36,1.67-2,2.53c-1.34,1.68-2.56,3.45-3.81,5.19s-2.41,3.57-3.55,5.38a202.79,202.79,0,0,0-12.36,22.6c-.93,1.93-1.76,3.91-2.65,5.87L622,270.52l-1.23,3c-.82,2-1.67,4-2.45,6l-2.27,6a192.62,192.62,0,0,0-7.39,24.63,231.78,231.78,0,0,0-5.92,51.05,257.68,257.68,0,0,0,1,25.76A218.18,218.18,0,0,0,607.23,412.48Z"/><path class="cls-13" d="M574.79,202.15c2.69,7.75,5.11,15.59,7.49,23.44s4.54,15.77,6.6,23.72c1,4,2,7.94,3,11.95l1.38,6,1.28,6c1.63,8,3.19,16.12,4.22,24.29s1.77,16.33,2.44,24.51,1.26,16.37,1.64,24.56.76,16.39,1,24.59.43,16.39.43,24.6c-.43-8.19-.84-16.38-1.36-24.56s-1-16.37-1.57-24.54c-1.18-16.34-2.41-32.69-4.5-48.92s-5.59-32.23-9.36-48.16c-1.88-8-3.94-15.9-6.07-23.81S577.07,210,574.79,202.15Z"/><path class="cls-13" d="M643.37,299.7q-6,9.29-11.75,18.61c-3.86,6.23-7.67,12.49-11.31,18.84s-7.13,12.78-10.25,19.38a108.49,108.49,0,0,0-4.17,10.11,35.93,35.93,0,0,0-2.27,10.66,23.76,23.76,0,0,1,.23-5.52l.21-1.37.29-1.35.29-1.36.36-1.34a87.44,87.44,0,0,1,3.7-10.44c1.43-3.4,3-6.72,4.69-10s3.46-6.51,5.27-9.71,3.74-6.34,5.69-9.46,3.95-6.2,6-9.23Q636.54,308.36,643.37,299.7Z"/><path class="cls-13" d="M567.33,279.1c4.61,8,8.86,16.31,12.82,24.7s7.66,16.93,11,25.6a234.31,234.31,0,0,1,8.57,26.53,130.6,130.6,0,0,1,2.71,13.7,63,63,0,0,1,.47,13.92,70.61,70.61,0,0,0-1.4-13.77c-.85-4.54-2-9-3.22-13.46s-2.66-8.85-4.17-13.21-3.08-8.72-4.74-13-3.38-8.61-5.15-12.89-3.59-8.52-5.43-12.77C575.08,295.94,571.29,287.49,567.33,279.1Z"/><polygon class="cls-11" points="625.64 357.88 625.31 363.06 625.29 363.26 625.21 364.59 625.21 364.69 625.2 364.79 625.11 366.12 625.1 366.33 625.02 367.64 625.01 367.84 624.3 379 624.28 379.31 624.21 380.52 624.19 380.84 624.16 381.29 624.1 382.05 624.08 382.36 624 383.57 623.99 383.89 621.44 424.12 584.68 424.12 582.17 384.49 582.13 383.99 582.08 382.97 582.04 382.46 581.98 381.45 581.96 381.29 581.94 380.93 581.87 379.92 581.85 379.41 581.06 367.07 581.04 366.72 580.97 365.54 580.94 365.17 580.91 364.69 580.87 364.03 580.84 363.67 580.78 362.48 580.75 362.13 580.48 357.88 625.64 357.88"/><polygon class="cls-13" points="625.21 364.69 625.2 364.79 625.11 366.12 625.1 366.33 625.02 367.64 625.01 367.84 624.3 379 624.28 379.31 624.21 380.52 624.19 380.84 624.16 381.29 581.96 381.29 581.94 380.93 581.87 379.92 581.85 379.41 581.06 367.07 581.04 366.72 580.97 365.54 580.94 365.17 580.91 364.69 625.21 364.69"/><rect class="cls-11" x="577.03" y="355.52" width="52.07" height="12.83"/><polygon class="cls-14" points="109.88 198.02 109.88 152.41 156.38 198.02 109.88 198.02"/><circle class="cls-14" cx="607.38" cy="100.76" r="10.18"/><path class="cls-15" d="M667.7,140a28.31,28.31,0,0,1-3.56,13.8H614.43A28.42,28.42,0,1,1,667.7,140Z"/><path class="cls-6" d="M559.94,440.62c0,9.49-71.82,17.19-160.4,17.19-26.67,0-51.83-.7-74-1.93a2.1,2.1,0,0,1,.05.43c0,8.07-53.8,14.62-120.16,14.62S85.31,464.38,85.31,456.31s53.81-14.63,120.17-14.63c12,0,23.52.22,34.42.61a2.53,2.53,0,0,1-.75-1.67c0-9.49,71.81-17.17,160.39-17.17S559.94,431.13,559.94,440.62Z"/><path class="cls-13" d="M436,107.86a40.27,40.27,0,0,1-7.63,5.06c4-7.24,2.89-23.29,2.45-21-2.14,11-8.68,23.23-11.29,23.9h0a30.29,30.29,0,0,1-18.89-3.41.08.08,0,0,1,0,0c5.2-8.2,4.49-24.54,4.15-23.53-3.67,10.78-11.73,17.25-13.16,17.27h0c-5.44-4.9-8.39-9.87-7.65-10.4,5.37-3.89,9.76-13.65,13.68-23.94h0C401.51,61.65,404.92,51,408.36,45c0,0,0,0,0,0l0-.05.3-.5c7.06-11.71,17.6-9.68,24.17-6.34C455.19,49.41,439.33,105.1,436,107.86Z"/><path class="cls-13" d="M417.36,37.58c-4.38,1.17-7.89,5.32-10.09,9.13-2.93,5-4.79,10.74-7.17,16.07a110.61,110.61,0,0,1-18.38,28.83.19.19,0,0,0,.27.28c8.36-6.71,14-16.14,18.49-25.8,2.31-4.93,4.09-10.08,6.27-15.08a33.11,33.11,0,0,1,4.48-7.7,20.21,20.21,0,0,1,6.44-5A.41.41,0,0,0,417.36,37.58Z"/><path class="cls-16" d="M436.71,74.9c-7.49,3.74-12.72,40.21-17,42.23-7.27,3.44-25.21.13-31.53.9-3.91.47-14,14.27-11.69,17s44.45,7.9,54.93,3.26c5.92-2.63,11.21-27.94,12-39.05S440.12,73.21,436.71,74.9Z"/><path class="cls-17" d="M435.19,138.61a8.21,8.21,0,0,1-1,1.14c-6.94,6.35-50,4.65-52.14,2.79s-.87-4.76-.87-4.76L392,119a5.68,5.68,0,0,1,5.24-2.75c3.71.18,19,2.08,22.3.44s7.05-31.55,15.93-41.52c1.22-1.37,2.38-1.44,3.45-.62,3.12,2.4,5.38,12.41,5.61,20C444.86,104.16,441.48,130.53,435.19,138.61Z"/><path class="cls-17" d="M394.37,116.58,382,140.05s-6-3.77-6-3.87,10.39-19.76,10.89-20S394.37,116.58,394.37,116.58Z"/><path class="cls-13" d="M382.34,139.59c2-3.5,10.62-18.33,12-22.52.05-.15-.15-.28-.25-.14-2.33,3.48-10.28,18.38-12.05,22.51C382,139.74,382.18,139.88,382.34,139.59Z"/><path class="cls-13" d="M435.19,138.61l-4.27-43.29,8-20.82c3.12,2.4,5.38,12.41,5.61,20C444.86,104.16,441.48,130.53,435.19,138.61Z"/><path class="cls-17" d="M437.63,72.52c-2.45,5.12-8.42,27.42-6.23,33.36s8.85,8.06,8.85,8.06,4.94,24.37,7.95,26.92,35.56,3.38,47.59-18.28c2.32-4.17-15-35.64-27.69-46.06C458.64,68.79,443.5,60.22,437.63,72.52Z"/><path class="cls-13" d="M461.81,105c-2.17,2.11-4.08,4.26-7.06,5.21s-6.27.89-9.38,1.25c-.09,0-.1.15,0,.15,3.56,0,7.31.49,10.72-.83a13.41,13.41,0,0,0,6.1-5.49C462.34,105,462,104.76,461.81,105Z"/><path class="cls-13" d="M449,112.21a37.28,37.28,0,0,0-6.94,1.24c-.1,0-.08.19,0,.18a37,37,0,0,0,7-1.08A.17.17,0,0,0,449,112.21Z"/><path class="cls-13" d="M440.69,113.74s0,0,0,0a.35.35,0,0,0-.22-.27c-5.11-1.94-9-5.9-9.2-11.57s.55-9.08,2.09-14.62a.09.09,0,0,0-.18,0c-2.64,6.27-3.19,14.24-2.49,17.4,1,4.69,5,8,9.4,9.43.32,1.45.55,3,1,4.37a.16.16,0,0,0,.31,0A22.54,22.54,0,0,0,440.69,113.74Z"/><polygon class="cls-13" points="459.34 88.3 482.19 122.16 489.27 104.88 459.34 88.3"/><path class="cls-16" d="M435.1,74.28s-2,4-2.23,5c0,0,2.6,4.59,9.12,2.51s7.63-15.19,7.63-15.19-4.69-1-8.05.57S435.1,74.28,435.1,74.28Z"/><path class="cls-16" d="M440.55,80.18c-2.12.84-4.59-4.05-5.45-5.9l-.29-.68-.13-.13-.37-.4-6.18-6.48,5.46-11,.82-1.53s1.75,2.09,3.82,4.63l.33.39.89,1.08q.33.4.66.84l.69.89a57,57,0,0,1,4.41,6.63C445.55,69.51,445,78.41,440.55,80.18Z"/><path class="cls-13" d="M435.1,74.28l-.29-.68-.13-.13-.37-.4-6.18-6.48,5.46-11,.82-1.53s1.75,2.09,3.82,4.63C439.09,62.06,440.5,70.37,435.1,74.28Z"/><path class="cls-16" d="M411,58.43c3.85,15.38,14.09,14.2,16.81,14,3.1-.25,13.17-3.72,10.92-19.42s-10.61-18.77-17.59-17.4S407.12,43.05,411,58.43Z"/><path class="cls-13" d="M413.23,55.38c.34-.16.62-.36.94-.55s.68-.34.87-.74a.56.56,0,0,0-.22-.65,1.38,1.38,0,0,0-1.41.11,2,2,0,0,0-1,1.09A.6.6,0,0,0,413.23,55.38Z"/><path class="cls-13" d="M423.76,52.3a9.63,9.63,0,0,1-1.08.11,1.78,1.78,0,0,1-1.14-.09.55.55,0,0,1-.21-.65,1.39,1.39,0,0,1,1.21-.74,2,2,0,0,1,1.45.29A.6.6,0,0,1,423.76,52.3Z"/><path class="cls-13" d="M423,56.76s.09,0,.1.06c.28,1,.78,2.2,1.82,2.26a0,0,0,0,1,0,.06C423.73,59.32,423.09,57.79,423,56.76Z"/><path class="cls-13" d="M423.6,55.4c1.62-.63,2.75,2.67,1.25,3.25S422.23,55.92,423.6,55.4Z"/><path class="cls-13" d="M424.3,55.35c.35.09.75.32,1.11.23s.6-.54.75-1c0,0,0,0,.07,0a1.15,1.15,0,1,1-2,1C424.12,55.52,424.16,55.31,424.3,55.35Z"/><path class="cls-13" d="M416.44,58.49s-.06.07-.05.12c.39,1,.67,2.22-.13,2.89,0,0,0,.07,0,0C417.36,61,417,59.38,416.44,58.49Z"/><path class="cls-13" d="M415.16,57.75c-1.69.45-.66,3.78.9,3.36S416.57,57.37,415.16,57.75Z"/><path class="cls-13" d="M414.53,58.18c-.21.26-.37.66-.68.78s-.74-.14-1.08-.42c0,0,0,0,0,.05.18.65.6,1.24,1.25,1.18s.83-.74.79-1.42C414.76,58.23,414.61,58.08,414.53,58.18Z"/><path class="cls-13" d="M425.19,64.76c-.15.33-.26.75-.61.93a2.94,2.94,0,0,1-1.18.17s-.06,0,0,.07a1.47,1.47,0,0,0,1.49,0,1.13,1.13,0,0,0,.44-1.2A.06.06,0,0,0,425.19,64.76Z"/><path class="cls-13" d="M419.68,62.47s.29,1.6.53,2.33c0,.06.21,0,.46,0h0a3.6,3.6,0,0,0,2.91-2.38.08.08,0,0,0-.14-.07,5.47,5.47,0,0,1-2.84,1.94c-.12-.18-.42-2.76-.53-2.73a6.64,6.64,0,0,0-1.52.91c-.71-3.31-.88-6.72-1.64-10,0-.12-.21-.1-.21,0A55.5,55.5,0,0,0,418,63.3C418.12,63.73,419.43,62.69,419.68,62.47Z"/><path class="cls-13" d="M420.54,64.2a4.47,4.47,0,0,0,2,1,2,2,0,0,0,1.2-.17c.8-.4.66-1.19.37-1.83a5,5,0,0,0-.6-1A5.74,5.74,0,0,1,420.54,64.2Z"/><path class="cls-10" d="M422.56,65.18a2,2,0,0,0,1.2-.17c.8-.4.66-1.19.37-1.83A2,2,0,0,0,422.56,65.18Z"/><path class="cls-13" d="M437.22,54.83c-1.59,0-3.26-4.15-3.26-4.15a23.11,23.11,0,0,1-11.21-3.26,16.28,16.28,0,0,1-5.35-5.09c-.91,9.11-7.6,12.38-7.6,12.38s-2.36-6.67.09-11.17,8-10.16,17.29-8c0,0,6.77,1.34,9.42,6.23S439.37,54.89,437.22,54.83Z"/><path class="cls-13" d="M417,41.36c0-.06.07-.07.09,0,1,4.09,4.84,6.54,8.57,7.9a23.88,23.88,0,0,0,10.48,1.07.08.08,0,0,1,0,.16,19.67,19.67,0,0,1-11.43-1.29C421.28,47.75,417.65,45.32,417,41.36Z"/><path class="cls-16" d="M436.68,55.43s1.66-5.81,4.19-5.37,2.4,8.06.23,9.85a2.68,2.68,0,0,1-3.87-.19Z"/><path class="cls-13" d="M440.78,52.24s.06,0,0,.07c-1.5,1.31-1.86,3.25-1.93,5.15a1.49,1.49,0,0,1,2-1.11.06.06,0,0,1,0,.11,1.67,1.67,0,0,0-1.53,1.14,7.86,7.86,0,0,0-.34,1.67c0,.19-.34.2-.34,0v-.05C437.81,57,438.46,53.29,440.78,52.24Z"/><path class="cls-18" d="M439.9,59.21a1.29,1.29,0,0,1,.83,2.44A1.29,1.29,0,0,1,439.9,59.21Z"/><ellipse class="cls-11" cx="380.35" cy="84.63" rx="23.97" ry="17.71"/><polygon class="cls-11" points="393.42 72.7 405.15 69.71 400.82 79.4 393.42 72.7"/><path class="cls-13" d="M371.73,84.63a2.49,2.49,0,1,0-2.49,2.48A2.49,2.49,0,0,0,371.73,84.63Z"/><path class="cls-13" d="M382.84,84.63a2.49,2.49,0,1,0-2.49,2.48A2.49,2.49,0,0,0,382.84,84.63Z"/><path class="cls-13" d="M394,84.63a2.49,2.49,0,1,0-2.49,2.48A2.48,2.48,0,0,0,394,84.63Z"/><rect class="cls-13" x="228.58" y="122.09" width="348.06" height="259.02" rx="16.21"/><rect class="cls-4" x="246.16" y="138.93" width="312.9" height="186"/><path class="cls-9" d="M576.64,342.9v22a16.19,16.19,0,0,1-16.21,16.2H244.79a16.19,16.19,0,0,1-16.21-16.2v-22Z"/><path class="cls-19" d="M338.33,427.8H466.89a9.94,9.94,0,0,1,9.94,9.94v2.46a0,0,0,0,1,0,0H328.38a0,0,0,0,1,0,0v-2.46a9.94,9.94,0,0,1,9.94-9.94Z"/><polygon class="cls-9" points="459.16 427.81 346.06 427.81 348.93 406.28 349.07 405.26 349.34 403.24 349.47 402.23 349.75 400.21 349.79 399.89 349.88 399.19 350.16 397.17 350.29 396.16 352.3 381.11 452.92 381.11 454.81 395.3 454.91 395.99 455.22 398.34 455.31 399.02 455.43 399.89 455.63 401.37 455.71 402.06 456.03 404.42 456.12 405.09 459.16 427.81"/><rect class="cls-20" x="246.16" y="138.93" width="312.9" height="10.06"/><rect class="cls-9" x="265.38" y="178.85" width="84.54" height="60.72"/><path class="cls-4" d="M342.62,210.56a17.19,17.19,0,0,1-31,10.28h7.48V208.68H308.35a17.19,17.19,0,0,1,34.27,1.88Z"/><path class="cls-4" d="M311.66,220.84H275V208.68h33.37c-.06.61-.1,1.24-.1,1.88A17.23,17.23,0,0,0,311.66,220.84Z"/><rect class="cls-8" x="361.13" y="249.9" width="177.56" height="57.84"/><line class="cls-8" x1="361.13" y1="249.9" x2="538.69" y2="307.74"/><line class="cls-8" x1="538.69" y1="249.9" x2="361.13" y2="307.74"/><rect class="cls-19" x="361.13" y="178.85" width="81.81" height="2.97"/><rect class="cls-19" x="361.13" y="185.88" width="81.81" height="2.97"/><rect class="cls-19" x="361.13" y="192.91" width="81.81" height="2.97"/><rect class="cls-19" x="361.13" y="199.94" width="81.81" height="2.97"/><rect class="cls-19" x="361.13" y="206.97" width="47.5" height="2.97"/><rect class="cls-19" x="361.13" y="214" width="81.81" height="2.97"/><rect class="cls-19" x="361.13" y="221.03" width="81.81" height="2.97"/><rect class="cls-19" x="361.13" y="228.07" width="81.81" height="2.97"/><rect class="cls-19" x="361.13" y="235.1" width="61.83" height="2.97"/><rect class="cls-17" x="265.48" y="249.9" width="84.45" height="57.84"/><rect class="cls-4" x="272.69" y="302.63" width="5.11" height="5.11"/><rect class="cls-10" x="283.51" y="288.01" width="5.11" height="19.74"/><rect class="cls-20" x="294.33" y="278.82" width="5.11" height="28.92"/><rect class="cls-11" x="305.15" y="265.55" width="5.11" height="42.19"/><rect class="cls-21" x="315.96" y="255.15" width="5.11" height="52.59"/><rect class="cls-4" x="326.78" y="294.37" width="5.11" height="13.37"/><rect class="cls-10" x="337.6" y="277.25" width="5.11" height="30.5"/><polygon class="cls-11" points="537.7 244.16 454.16 232.82 463.82 172.75 547.36 184.1 537.7 244.16"/><polygon class="cls-10" points="531.08 236.23 501.71 232.24 522.6 191.77 531.08 236.23"/><polygon class="cls-10" points="497.15 223.09 467.77 219.1 486.17 196.8 497.15 223.09"/><path class="cls-10" d="M254.15,144a2.5,2.5,0,1,1-2.49-2.5A2.48,2.48,0,0,1,254.15,144Z"/><path class="cls-4" d="M264.34,144a2.5,2.5,0,1,1-2.49-2.5A2.48,2.48,0,0,1,264.34,144Z"/><path class="cls-11" d="M274.53,144a2.5,2.5,0,1,1-2.49-2.5A2.49,2.49,0,0,1,274.53,144Z"/><rect class="cls-9" x="426.23" y="159.14" width="112.47" height="10.04"/><rect class="cls-17" x="265.38" y="159.14" width="10.04" height="10.04"/><rect class="cls-11" x="279.14" y="159.14" width="10.04" height="10.04"/><rect class="cls-10" x="292.89" y="159.14" width="10.04" height="10.04"/><rect class="cls-9" x="320.8" y="159.14" width="49.08" height="10.04"/><path class="cls-19" d="M408.81,359.43a6.31,6.31,0,1,1-6.31-6.31A6.31,6.31,0,0,1,408.81,359.43Z"/><polygon class="cls-13" points="455.43 399.89 349.79 399.89 349.88 399.19 350.16 397.17 350.29 396.16 352.3 381.11 452.92 381.11 454.81 395.3 454.91 395.99 455.22 398.34 455.31 399.02 455.43 399.89"/><path class="cls-16" d="M392.63,119.63c-3.53-.91-8.28-4-11-3.8a3.1,3.1,0,0,0-2.89,2.31s-1.82-2.37-4.24-1.79c-1.24.29-1.86,2.54-1.86,2.54A3.69,3.69,0,0,0,369,117.7c-1.69.51-2.05,2.69-2.05,2.69s-2.3-1.08-3.85,0c-3.15,2.18-.28,17,5.65,18.29,2.76.58,1.86-3,1.86-3s2.54,4.85,5.62,4.34,1.63-5.11,1.63-5.11,2.5,4.68,5.64,3.83,1-5.25,1-5.25,2.88,2.88,5.13,1.67c3.73-2-3.14-9.18-3-12.59h6Z"/><path class="cls-16" d="M387.36,117.55c3.41.57,6.58-4.13,9.92-4,4.51.1,1.09,7.72-5.14,9.06h-4.78Z"/><path class="cls-13" d="M366.85,120.72s-.08,0-.08,0a26.26,26.26,0,0,0,3.87,15.15c.09.14.37,0,.29-.12A54,54,0,0,1,366.85,120.72Z"/><path class="cls-13" d="M372.63,118.83a.06.06,0,0,0-.11,0,24.59,24.59,0,0,0,5.25,16.26c.13.16.41.17.27,0C375.72,131.82,373.14,123.69,372.63,118.83Z"/><path class="cls-13" d="M384.93,133.73c-3.51-4.55-5.21-9.76-6.18-15.37,0-.07-.12,0-.12,0-.27,2.88.72,6.39,1.73,9a15.07,15.07,0,0,0,4.41,6.43C384.85,133.92,385,133.83,384.93,133.73Z"/><path class="cls-16" d="M452.92,68.66c8.1-.39,37.31,13.92,51.89,30.47C515.08,110.77,499.37,162,496,163s-19.15-2.66-21.65-5.44,12.57-45.05,11.41-47.59S468.12,96.08,458,85.2C452.18,78.93,447.21,68.93,452.92,68.66Z"/><path class="cls-16" d="M475.84,146.82c-.57,2.32-5.59,17.87-5.7,22s1.8,15.5,5,15.91,3.3-3.13,3.3-3.13,1,5,4.28,5.15,3.24-5.38,3.24-5.38,1.44,5.09,4.68,5,2.32-5.64,2.32-5.64,2.31,4.52,4.93,3.31c3.17-1.47-1-12.54-1.11-13.58s4.83-8,2.82-14.4l2.41-7.25Z"/><path class="cls-13" d="M492.94,180.5c-2.62-6.07-2.72-9.18-1.72-15.6,0-.13-.16-.19-.19-.06-1.56,6.21-2,10.12,1.62,15.8C492.83,180.92,493.06,180.79,492.94,180.5Z"/><path class="cls-13" d="M486.11,181.64c-2.17-6.54-2.31-9.91-1.75-16.72,0-.09-.15-.12-.17,0-1.1,6.64-1.45,10.55,1.57,16.8C485.9,182,486.21,181.94,486.11,181.64Z"/><path class="cls-13" d="M478.45,181.56c-1.65-6.49-2-10.17-.57-16.72a.12.12,0,0,0-.23-.06c-2.07,6.53-1.72,11.14.59,16.81C478.4,182,478.55,182,478.45,181.56Z"/><path class="cls-17" d="M451.84,77.34c7.52,14,32.3,30.31,32.77,32.28s-9.95,24.62-10.3,29.18,2,6.29,2,6.29l25.83,3s3.88.69,6.89-6.43,3.13-33.17-2-40.69-22-24-49.78-32.28C450.33,66.57,447.16,68.64,451.84,77.34Z"/><path class="cls-17" d="M476.3,145.09l26.36,3s-1.93,6.89-2,7-26.15-3-26.53-3.39S476.3,145.09,476.3,145.09Z"/><path class="cls-13" d="M502.1,147.92c-4-.6-20.93-3.22-25.35-3-.16,0-.21.25,0,.28,4.09.91,20.86,2.9,25.35,3C502.39,148.23,502.43,148,502.1,147.92Z"/><path class="cls-13" d="M451.73,69.46c-1.08,4.74-2.19,10.61-6.25,13.44-4.22,2.93-9.61,2.18-13.35-1.31,0,0-.1,0-.06.07,3.33,4,8.47,5.21,12.94,2.66,4.8-2.75,6.35-9.38,7-14.82C452.05,69.32,451.77,69.29,451.73,69.46Z"/><path class="cls-21" d="M298.43,455.86c-2.28.76-67.64.57-70.13-1-1-.59-1.47-10.11-1.78-21.63-.07-2.49-.13-5.06-.17-7.67-.28-17-.19-34.93-.19-34.93h43.73l-1,34.93-.21,7.67s25,11.26,27.53,13.29S300.72,455.1,298.43,455.86Z"/><path class="cls-4" d="M298.43,455.86c-2.28.76-67.64.57-70.13-1-1.15-.73-1.69-14.63-2-29.3h42.52l-.21,7.67s25,11.26,27.53,13.29S300.72,455.1,298.43,455.86Z"/><path class="cls-10" d="M298.43,455.86c-2.28.76-67.64.57-70.13-1-1-.59-1.47-10.11-1.78-21.63h42.14s25,11.26,27.53,13.29S300.72,455.1,298.43,455.86Z"/><path class="cls-13" d="M297.5,453.24c-10.95-.3-55.17-.48-66,.06-.09,0-.09.06,0,.07,10.85.53,55.07.35,66,.05C297.74,453.41,297.74,453.25,297.5,453.24Z"/><path class="cls-13" d="M292,444.14a8.77,8.77,0,0,0-6.56,2.65,8.53,8.53,0,0,0-2.47,5.85c0,.06.13.06.14,0a10.19,10.19,0,0,1,8.89-8.37A.07.07,0,1,0,292,444.14Z"/><path class="cls-13" d="M272.9,434.31c-4.38-.08-9.47,1.46-12.21,5-.1.14.1.28.23.22A59.8,59.8,0,0,1,273,434.85.28.28,0,0,0,272.9,434.31Z"/><path class="cls-13" d="M276.28,435.64c-4.38-.08-9.47,1.46-12.21,5-.1.13.1.28.23.22a59.8,59.8,0,0,1,12.06-4.72A.28.28,0,0,0,276.28,435.64Z"/><path class="cls-13" d="M279.66,437c-4.38-.08-9.47,1.46-12.2,5-.11.13.09.28.22.22a59.8,59.8,0,0,1,12.06-4.72A.28.28,0,0,0,279.66,437Z"/><path class="cls-13" d="M283.05,438.3c-4.39-.08-9.48,1.46-12.21,5-.11.13.09.28.22.22a59.8,59.8,0,0,1,12.06-4.72A.28.28,0,0,0,283.05,438.3Z"/><path class="cls-13" d="M234.3,442.9c-4.92,0-4.93,7.64,0,7.64S239.23,442.9,234.3,442.9Z"/><path class="cls-13" d="M277.67,422.62c-2.21-1.85-5-.06-6.39,1.85a23,23,0,0,0-4,11.2c0,.1.06.13.13.13a.55.55,0,0,0,.79.36c3.13-2.16,6.74-4.07,9.12-7.11C278.69,427.27,279.77,424.37,277.67,422.62Zm-5.4,9.31c-1.52,1.09-3.07,2.1-4.54,3.26a66.4,66.4,0,0,1,2.49-6.5,24.1,24.1,0,0,1,1.61-2.95c.95-1.44,5.27-5.1,5.69-.32C277.75,428.05,274.07,430.62,272.27,431.93Z"/><path class="cls-13" d="M256.37,437.27c3.81.6,7.76-.48,11.51-1a.54.54,0,0,0,.33-.8.12.12,0,0,0,0-.19,23,23,0,0,0-10.59-5.42c-2.31-.45-5.58.16-5.93,3S254.14,436.92,256.37,437.27Zm-2.64-2.51c-3-3.77,2.69-4.05,4.37-3.65a23.94,23.94,0,0,1,3.2,1.05,69.36,69.36,0,0,1,6.26,3c-1.87.17-3.7.49-5.55.73C259.8,436.2,255.36,436.84,253.73,434.76Z"/><path class="cls-21" d="M122.86,435.56c-2-1.4-40.4-54.26-40.6-57.2-.07-1.12,7.3-7.16,16.41-14.22,2-1.52,4-3.08,6.1-4.66,13.5-10.23,28.07-20.78,28.07-20.78L158.66,374,129.87,393.8l-6.31,4.35s5.66,26.82,5.53,30.07S124.82,437,122.86,435.56Z"/><path class="cls-4" d="M122.86,435.56c-2-1.4-40.4-54.26-40.6-57.2-.08-1.36,10.82-10,22.51-18.88l25.1,34.32-6.31,4.35s5.66,26.82,5.53,30.07S124.82,437,122.86,435.56Z"/><path class="cls-10" d="M122.86,435.56c-2-1.4-40.4-54.26-40.6-57.2-.07-1.12,7.3-7.16,16.41-14.22l24.89,34s5.66,26.82,5.53,30.07S124.82,437,122.86,435.56Z"/><path class="cls-13" d="M124.42,433.26c-6.22-9-32.19-44.81-39-53.25,0-.07-.1,0,0,0,6,9.08,32.23,44.65,38.94,53.32C124.42,433.55,124.55,433.45,124.42,433.26Z"/><path class="cls-13" d="M128.52,423.44a8.83,8.83,0,0,0-6-3.73,8.49,8.49,0,0,0-6.17,1.46c-.06,0,0,.14.07.11a10.16,10.16,0,0,1,12,2.24C128.46,423.59,128.57,423.51,128.52,423.44Z"/><path class="cls-13" d="M125.17,402.23c-2.53-3.58-6.77-6.79-11.27-6.88-.18,0-.18.24-.05.31a60.33,60.33,0,0,1,10.93,6.95A.28.28,0,0,0,125.17,402.23Z"/><path class="cls-13" d="M126.1,405.74c-2.53-3.58-6.77-6.78-11.28-6.88-.17,0-.17.25,0,.31a61.24,61.24,0,0,1,10.93,6.95A.28.28,0,0,0,126.1,405.74Z"/><path class="cls-13" d="M127,409.26c-2.53-3.59-6.77-6.79-11.27-6.88-.18,0-.18.24,0,.31a60.63,60.63,0,0,1,10.93,6.94A.27.27,0,0,0,127,409.26Z"/><path class="cls-13" d="M128,412.77c-2.53-3.58-6.78-6.78-11.28-6.88-.17,0-.18.25,0,.31a60.53,60.53,0,0,1,10.93,6.95A.28.28,0,0,0,128,412.77Z"/><path class="cls-13" d="M95.45,376.15c-2.91-4-9.08.54-6.17,4.51S98.36,380.13,95.45,376.15Z"/><path class="cls-13" d="M137.43,399.18c.18-2.88-2.92-4.08-5.27-4.07a23,23,0,0,0-11.41,3.38.12.12,0,0,0,0,.18.55.55,0,0,0,.18.85c3.59,1.25,7.26,3,11.12,3.16C134.28,402.74,137.25,401.9,137.43,399.18Zm-10.71,1.13c-1.77-.58-3.51-1.23-5.31-1.74,2.23-.65,4.42-1.4,6.71-1.83a24.88,24.88,0,0,1,3.33-.44c1.73-.08,7.23,1.24,3.63,4.4C133.09,402.44,128.84,401,126.72,400.31Z"/><path class="cls-13" d="M113,390.63c1.77,3.43,5,6,7.65,8.67a.54.54,0,0,0,.84-.2.11.11,0,0,0,.15-.1,23,23,0,0,0-1.87-11.75c-1-2.13-3.42-4.41-5.94-3S112,388.63,113,390.63Zm.46-3.61c1.3-4.61,4.87-.22,5.54,1.38a24.91,24.91,0,0,1,1,3.2,68.85,68.85,0,0,1,1.24,6.83c-1.23-1.4-2.57-2.68-3.86-4C115.91,392.77,112.77,389.56,113.48,387Z"/><path class="cls-20" d="M270.68,420.67H224.6s.46-33.76,0-61.15c0-.95,0-1.9-.05-2.84,0-1.9-.07-3.78-.11-5.62h0c0-.95,0-1.87-.05-2.79,0-1.92-.08-3.79-.13-5.6,0-.26,0-.54,0-.81,0-.69,0-1.36,0-2,0-1.95-.1-3.8-.16-5.53,0-1,0-1.87-.07-2.75-.13-4.12-.26-7.38-.4-9.39-.59-8.56-7.56-46.93-13.33-77.8a.58.58,0,0,1,0-.14c-.1-.46-.18-.94-.27-1.41l0-.13c-.08-.46-.17-.92-.24-1.37a.06.06,0,0,1,0,0l0-.14c-.09-.47-.17-.94-.27-1.4a.51.51,0,0,0,0-.13c-3.81-20.34-6.91-36.32-6.91-36.32h48.63s15,101.56,17.07,118.41S270.68,420.67,270.68,420.67Z"/><path class="cls-13" d="M268.45,412.39c-7.19-.15-5.12-.21-12.31-.28-3.52,0-26.65-.24-29.94.31a.07.07,0,0,0,0,.14c3.29.55,26.42.35,29.94.31,7.19-.07,5.12-.12,12.31-.27A.11.11,0,1,0,268.45,412.39Z"/><path class="cls-13" d="M242.72,242.85l-18.49,99c0-.69,0-1.36,0-2,0-1.95-.1-3.8-.16-5.53,0-1,0-1.87-.07-2.75-.13-4.12-.26-7.38-.4-9.39-.59-8.56-7.56-46.93-13.33-77.8a.58.58,0,0,1,0-.14c-.1-.46-.18-.94-.27-1.41l0-.13c-.08-.46-.17-.92-.24-1.37Z"/><path class="cls-20" d="M251.51,203.28c.79,24.06-8.83,32.53-8.83,32.53s-20.21,68.63-31.44,89.39S134.84,394,134.84,394l-29.61-38.62s59.06-35.89,64.17-44.57c2.83-4.82,24.87-61.06,24-66.33-4.22-25.11,4.07-41.24,4.07-41.24Z"/><path class="cls-13" d="M239.54,242.88A255,255,0,0,1,232,269.33c-3.72,10.91-8,21.67-11.3,32.71,0,.09.11.16.15.07,4.47-10.49,8.24-21.33,12-32.1a198.68,198.68,0,0,0,7.55-26.92C240.42,242.6,239.66,242.38,239.54,242.88Z"/><path class="cls-13" d="M247.82,238.12a87.32,87.32,0,0,0-13,7.82.15.15,0,0,0,.16.26c4.4-2.46,8.91-4.85,13.17-7.56A.3.3,0,0,0,247.82,238.12Z"/><path class="cls-13" d="M244.83,204.71c0-.16-.31-.16-.29,0a153.64,153.64,0,0,1,.84,15.5c0,2.39-.49,15.73-4.71,15.2-.71-.08-1.13-.73-1.35-1.76a16.94,16.94,0,0,1,.12-4.08c.17-2.8.25-5.59.19-8.4a74.91,74.91,0,0,0-1.8-15.51.13.13,0,0,0-.26,0,144.09,144.09,0,0,1,1,21.58c-.16,3.47-1.34,8.79,2.29,8.94s5.14-8.71,5.34-11.11A79,79,0,0,0,244.83,204.71Z"/><path class="cls-13" d="M240.81,235.77a22.82,22.82,0,0,0-.64,2.81,6.28,6.28,0,0,0-.15,2.28.16.16,0,0,0,.29,0,7.73,7.73,0,0,0,.73-2.27c.23-.88.47-1.75.67-2.63A.46.46,0,0,0,240.81,235.77Z"/><path class="cls-13" d="M141.31,387.71c-4.05-5.95-2.81-4.3-6.92-10.2-2-2.88-15.26-21.84-17.61-24.2,0-.06-.15,0-.12.08,1.47,3,15,21.72,17.11,24.57,4.22,5.81,3.07,4.1,7.36,9.87A.11.11,0,0,0,141.31,387.71Z"/><path class="cls-21" d="M231.28,144.89c.41,8.1,12.63,51.14,26.54,60.18,13,8.45,49.21,2.57,56.84.25,3.35-1-2.76-21.32-5.77-23.54s-34.72,2.12-37.36,1.22-17.59-19.67-25-31C241.8,144.85,231,139.18,231.28,144.89Z"/><path class="cls-11" d="M231.1,143.34c-1.52,6.57,6.75,38.4,7.53,38.44s22.25-10.91,22.29-11.94-10.1-14.67-14.88-20.11S232.2,138.59,231.1,143.34Z"/><path class="cls-13" d="M257.79,165.73c-3.48,1.65-17,9.26-20.27,11.28-.23.14,0,.47.21.36,3.48-1.68,17.08-9.13,20.29-11.26A.22.22,0,0,0,257.79,165.73Z"/><path class="cls-4" d="M222.49,143.36c-8.54,5.43-14.11,15-16.59,23.76s-9,37.17-7.55,38,18.75,13.29,34,10.43,21.45-6.83,23.4-9.06-6.19-42-8-49.11-7.37-15.07-9.06-15.29S225.74,141.29,222.49,143.36Z"/><path class="cls-9" d="M242,146.05a.16.16,0,1,0-.32,0c-.12,2.65.1,5.62-2,7.64-2.29,2.24-5.93,1-8.4-.26-3.87-1.91-6.77-5.18-9.11-8.73a.13.13,0,0,0-.22.13c2.68,4.73,7,9.09,12.41,10.41C240.5,156.72,242.59,151.28,242,146.05Z"/><path class="cls-11" d="M227.73,221.53c-.32.16-6.59-.69-13.9-3.35l-.49-.17a5.37,5.37,0,0,0-.56-.21l-.39-.16-.47-.18-.15-.05-.82-.35a4.84,4.84,0,0,1-.47-.21c-.33-.12-.64-.26-1-.4l-.46-.22a39.49,39.49,0,0,1-13.46-9.48C194,204.88,200,184,204.3,170.17c0-.13.1-.28.14-.42.18-.59.37-1.16.54-1.72.05-.16.1-.3.15-.44a1.19,1.19,0,0,1,.05-.22c.17-.53.33-1,.48-1.52a4,4,0,0,0,.13-.42l0-.12c.19-.57.35-1.1.53-1.62h0a3.38,3.38,0,0,1,.13-.42c.51-1.62.93-2.92,1.23-3.81,2.47-7.51,16-17.81,16-17.81S228.32,221.23,227.73,221.53Z"/><path class="cls-11" d="M239.93,142.55s10.81,72.8,11.83,73.44,6-6.21,6.35-9.78S249.06,157.05,247,153,239.93,142.55,239.93,142.55Z"/><path class="cls-13" d="M250.33,165.06c-.12-1.3-.24-2.59-.29-3.89a.06.06,0,0,0-.12,0c0,.74,0,1.49,0,2.23q-.73-3-1.48-6c0-.11-.19-.06-.17.05q3.66,18.53,8.22,36.89a.18.18,0,0,0,.34-.09Q253.88,179.61,250.33,165.06Z"/><path class="cls-13" d="M218.79,156.8l-6,61-.39-.16-.47-.18-.15-.05-.82-.35a4.84,4.84,0,0,1-.47-.21c-.33-.12-.64-.26-1-.4l-.46-.22a39.49,39.49,0,0,1-13.46-9.48C194,204.88,200,184,204.3,170.17c0-.13.1-.28.14-.42.18-.59.37-1.16.54-1.72.05-.16.1-.3.15-.44a1.19,1.19,0,0,1,.05-.22c.17-.53.33-1,.48-1.52a4,4,0,0,0,.13-.42l0-.12Z"/><path class="cls-21" d="M237.41,151.47c-3.58,1.18-10.32-3.86-13.18-8.16-.19-.3,0-3.6.05-7.63,0-2.44,0-5.17-.23-7.65-.05-.51,1.77.28,1.77.28l3.27.5,10.84,1.67a39.67,39.67,0,0,0-.68,9.65,5.17,5.17,0,0,0,.19,1c0,.05,0,.1,0,.17C240,143.22,240.86,150.33,237.41,151.47Z"/><path class="cls-13" d="M239.44,141.14c0,.05,0,.1,0,.17a10.34,10.34,0,0,1-1.59.22c-10.5.67-12.95-12.54-12.95-12.54l4.15-.18,10.84,1.67a39.67,39.67,0,0,0-.68,9.65A5.17,5.17,0,0,0,239.44,141.14Z"/><path class="cls-13" d="M241.54,101.51s5.17,2.6,5.75,8.09-1.07,11.07-1.56,11.31S241.54,101.51,241.54,101.51Z"/><path class="cls-21" d="M220.59,108.44c-1.92,5.46.33,21.56,4.12,25.29,5.49,5.41,14.81,6.29,19.48-.38,4.54-6.47,1.23-27.41-3-30.83C234.89,97.48,223.43,100.37,220.59,108.44Z"/><path class="cls-13" d="M221,124.63c2,.28,3.23-5.66,3.5-7.91.23-2-.09-8.12-.06-8.54s9,4.06,13.45,1.95,7-6.82,6.73-8.8-6.86-6.06-12-5.53-10.93,8-10.93,8a24,24,0,0,0,1.78-3.35c-.11-.21-3.17,1.6-3.41,4,0,0,.19-3-.07-3s-2.4,2.88-1.53,4.69c0,0-2.54,3-2.37,5.83S218.7,124.3,221,124.63Z"/><path class="cls-13" d="M241.08,108.63a16,16,0,0,1-4.19,2.28,10.64,10.64,0,0,1-5.2,0,16.36,16.36,0,0,1-4.86-1.93c-1.33-.79-2.55-1.79-3.94-2.46-.35-.17-.64.34-.41.6a17.09,17.09,0,0,0,9.52,5,9.81,9.81,0,0,0,9.1-3.39S241.1,108.62,241.08,108.63Z"/><path class="cls-21" d="M223.32,123.6s-3.5-5.25-5.88-4,.18,8.79,2.92,9.88a2.8,2.8,0,0,0,3.78-1.43Z"/><path class="cls-13" d="M218.23,121.73s0,.06,0,.08c1.92.82,2.9,2.64,3.57,4.51a1.55,1.55,0,0,0-2.31-.47c-.05,0,0,.11.05.1a1.74,1.74,0,0,1,1.89.64,8.78,8.78,0,0,1,.87,1.56c.09.17.4.09.34-.11v0C222.71,125.53,220.87,122,218.23,121.73Z"/><path class="cls-22" d="M224.32,133.56h0"/><path class="cls-13" d="M234.45,119.58s-.08.06-.07.1c.18,1.08.21,2.35-.73,2.84,0,0,0,.07,0,.06C234.84,122.25,234.79,120.57,234.45,119.58Z"/><path class="cls-13" d="M233.33,118.57c-1.77.11-1.43,3.63.2,3.53S234.81,118.49,233.33,118.57Z"/><path class="cls-13" d="M241.12,118.79s.09,0,.1.09c.07,1.09.33,2.33,1.35,2.6,0,0,0,.07,0,.06C241.35,121.49,241,119.84,241.12,118.79Z"/><path class="cls-13" d="M242,117.56c1.74-.3,2.21,3.2.6,3.48S240.53,117.81,242,117.56Z"/><path class="cls-13" d="M231.79,117.1c.46-.17.87-.4,1.31-.61a2.35,2.35,0,0,0,1.23-.88.74.74,0,0,0-.21-.89,1.86,1.86,0,0,0-1.88,0,2.73,2.73,0,0,0-1.45,1.33A.81.81,0,0,0,231.79,117.1Z"/><path class="cls-13" d="M243.18,115.66a13.73,13.73,0,0,1-1.43-.23,2.39,2.39,0,0,1-1.42-.51.75.75,0,0,1,0-.92,1.85,1.85,0,0,1,1.8-.52,2.72,2.72,0,0,1,1.76.88A.8.8,0,0,1,243.18,115.66Z"/><path class="cls-13" d="M235.71,129.1c.29.24.58.56,1,.56a3,3,0,0,0,1.15-.39s.07,0,0,0a1.47,1.47,0,0,1-1.33.73,1.19,1.19,0,0,1-.95-.89C235.59,129.1,235.67,129.07,235.71,129.1Z"/><path class="cls-13" d="M235.29,126.05a3.75,3.75,0,0,0,2.63,1.42,4.72,4.72,0,0,0,1.35-.07l.25-.05.23-.06a.27.27,0,0,0,.2-.27h0s0-.07,0-.11h0v-.1c-.06-.84-.27-2.11-.27-2.11.33.13,2,.68,1.89.24A56,56,0,0,0,239,113.84a.1.1,0,0,0-.2,0c.41,3.49,1.42,6.89,1.88,10.39a6.53,6.53,0,0,0-1.8-.36c-.12,0,.44,2.44.43,2.82v0a5.17,5.17,0,0,1-4-.82C235.29,125.89,235.22,126,235.29,126.05Z"/><rect class="cls-19" x="147.38" y="191.11" width="178.75" height="58.23" transform="matrix(0.89, -0.46, 0.46, 0.89, -75.1, 134.81)"/><path class="cls-9" d="M199.91,235.52A18.47,18.47,0,1,1,175,227.7,18.45,18.45,0,0,1,199.91,235.52Z"/><path class="cls-4" d="M187.27,236.46a6.83,6.83,0,1,1-9.22-2.89A6.83,6.83,0,0,1,187.27,236.46Z"/><path class="cls-4" d="M200.09,250.6a8,8,0,0,1,.38.84,18.43,18.43,0,0,1-20.53,10.74,9.12,9.12,0,0,1-.47-.79,11.64,11.64,0,1,1,20.62-10.79Z"/><rect class="cls-20" x="202.77" y="202.75" width="100.15" height="1.66" transform="translate(-65.56 140.37) rotate(-27.61)"/><rect class="cls-4" x="208.96" y="222.59" width="35.01" height="1.66" transform="translate(-77.75 130.4) rotate(-27.61)"/><rect class="cls-4" x="207.73" y="212.23" width="100.15" height="1.66" transform="translate(-69.39 143.75) rotate(-27.61)"/><rect class="cls-4" x="210.21" y="216.97" width="100.15" height="1.66" transform="translate(-71.3 145.44) rotate(-27.61)"/><rect class="cls-4" x="214.91" y="230.73" width="61.22" height="1.66" transform="translate(-79.36 140.16) rotate(-27.61)"/><polygon class="cls-11" points="205.6 211.68 208.12 213.52 211.05 212.49 210.08 215.44 211.97 217.91 208.86 217.91 207.09 220.47 206.14 217.51 203.16 216.62 205.68 214.79 205.6 211.68"/><polygon class="cls-11" points="216.73 205.86 219.24 207.7 222.18 206.67 221.21 209.62 223.1 212.09 219.99 212.09 218.22 214.65 217.26 211.69 214.28 210.79 216.81 208.97 216.73 205.86"/><polygon class="cls-11" points="227.86 200.04 230.37 201.88 233.31 200.85 232.34 203.8 234.22 206.27 231.12 206.27 229.35 208.82 228.39 205.87 225.41 204.97 227.93 203.15 227.86 200.04"/><polygon class="cls-11" points="238.99 194.22 241.5 196.06 244.43 195.03 243.47 197.98 245.35 200.45 242.24 200.45 240.47 203 239.52 200.04 236.54 199.15 239.06 197.33 238.99 194.22"/><polygon class="cls-11" points="250.12 188.4 252.63 190.24 255.56 189.21 254.59 192.16 256.48 194.63 253.37 194.63 251.6 197.18 250.65 194.22 247.67 193.33 250.19 191.51 250.12 188.4"/><path class="cls-21" d="M316,172.69c2.46,2.67,7.42,5.41,8.52,7.88a3.09,3.09,0,0,1-.68,3.63s3,.49,3.59,2.89c.32,1.24-1.37,2.85-1.37,2.85a3.7,3.7,0,0,1,2.78,2.66c.34,1.73-1.41,3.08-1.41,3.08s2,1.52,1.82,3.4c-.44,3.8-14.91,8.28-18.8,3.64-1.81-2.16,1.79-3.06,1.79-3.06s-5.49.05-6.49-2.91,3.74-3.85,3.74-3.85-5.31,0-6-3.17,4.14-3.38,4.14-3.38-3.89-1.19-3.89-3.75c0-4.22,9.57-1.55,12.52-3.29L313.38,174Z"/><path class="cls-21" d="M320.3,176.35c-2.11-2.74.54-7.75-1.1-10.66-2.22-3.93-7.33,2.68-5.57,8.8l2.26,4.22Z"/><path class="cls-13" d="M327.18,195.93s.08,0,0,.07A26.28,26.28,0,0,1,312,199.73c-.16,0-.21-.29,0-.31A53.89,53.89,0,0,0,327.18,195.93Z"/><path class="cls-13" d="M326.13,189.94c.05,0,.09.07,0,.1a24.6,24.6,0,0,1-16.82,3c-.2,0-.34-.28-.1-.25C313.21,193.35,321.59,191.79,326.13,189.94Z"/><path class="cls-13" d="M307.18,186.12c5.67.95,11.07,0,16.47-1.8.07,0,.1.08,0,.12-2.4,1.59-6,2.37-8.79,2.74a15,15,0,0,1-7.75-.86C307.05,186.28,307.06,186.1,307.18,186.12Z"/><path class="cls-21" d="M216.72,145.45c-6.87,4.32-39.51,33.35-40.62,49.9-1,15.49,15.71,36.17,20.28,42.77,2,2.88,21.89-9.21,22.36-12.92s-16.19-25.88-16.7-28.63,9.61-22.34,15.88-34.36C221.88,154.62,221.56,142.42,216.72,145.45Z"/><path class="cls-21" d="M228.94,244.27c2.67,3.46,9.05,5.81,7.17,8.47-1.68,2.36-5.94.31-5.94.31s4.05,3.87,1.53,5.9-6.73-1.18-6.73-1.18,3.51,3.07.85,4.92-6.74-.23-6.74-.23.41,1.57-2.06,2c-3.53.66-9.37-4.47-11.78-7.87s-8.72-17.62-9.65-19.82l21.69-15.66s7.07,4.07,10.41,6.57,12,13.79,9.38,16.14-8.66-5.73-10.57-7.39-2.61-1.49-2.33-.08C224.35,237.31,227.76,242.73,228.94,244.27Z"/><path class="cls-13" d="M230,252.85c-5.73-3.29-7.67-5.72-10.71-11.47-.06-.11-.24,0-.19.07,2.47,5.9,4.46,9.3,10.76,11.68C230.19,253.25,230.3,253,230,252.85Z"/><path class="cls-13" d="M225.24,257.85c-5.65-3.93-7.78-6.55-11.41-12.34-.05-.08-.19,0-.15.08,3.09,6,5.15,9.33,11.32,12.52C225.28,258.25,225.5,258,225.24,257.85Z"/><path class="cls-13" d="M219.05,262.38c-5.2-4.21-7.65-7-10.46-13a.12.12,0,0,0-.23.09c2.26,6.47,5.3,10,10.55,13.1C219.27,262.74,219.38,262.64,219.05,262.38Z"/><path class="cls-11" d="M218,144.55c-6.49,1.87-30.25,24.6-29.91,25.3S208.45,184,209.37,183.5s7.89-16,10.31-22.79S222.67,143.2,218,144.55Z"/><path class="cls-13" d="M211.44,178.77c-3.14-2.24-16.37-10.32-19.73-12.21a.21.21,0,0,0-.21.36c3.16,2.22,16.29,10.47,19.71,12.23A.22.22,0,0,0,211.44,178.77Z"/></g></g></svg>