<?xml version="1.0" encoding="utf-8"?>
<!-- Generator: Adobe Illustrator 24.1.2, SVG Export Plug-In . SVG Version: 6.00 Build 0)  -->
<svg version="1.1" id="Layer_1" xmlns="http://www.w3.org/2000/svg" xmlns:xlink="http://www.w3.org/1999/xlink" x="0px" y="0px"
	 viewBox="0 0 2475 1650" style="enable-background:new 0 0 2475 1650;" xml:space="preserve">
<style type="text/css">
	.st0{display:none;}
	.st1{display:inline;fill:#FFFFFF;}
	.st2{fill:url(#SVGID_1_);}
	.st3{fill:#BDD0FB;}
	.st4{fill:url(#SVGID_2_);}
	.st5{fill:url(#SVGID_3_);}
	.st6{fill:#91B3FA;}
	.st7{fill:url(#SVGID_4_);}
	.st8{fill:url(#SVGID_5_);}
	.st9{fill:url(#SVGID_6_);}
	.st10{fill:url(#SVGID_7_);}
	.st11{opacity:0.22;}
	.st12{fill:url(#SVGID_8_);}
	.st13{fill:url(#SVGID_9_);}
	.st14{fill:url(#SVGID_10_);}
	.st15{fill:url(#SVGID_11_);}
	.st16{fill:url(#SVGID_12_);}
	.st17{fill:url(#SVGID_13_);}
	.st18{fill:url(#SVGID_14_);}
	.st19{fill:url(#SVGID_15_);}
	.st20{fill:url(#SVGID_16_);}
	.st21{fill:url(#SVGID_17_);}
	.st22{fill:url(#SVGID_18_);}
	.st23{fill:url(#SVGID_19_);}
	.st24{fill:url(#SVGID_20_);}
	.st25{fill:url(#SVGID_21_);}
	.st26{fill:url(#SVGID_22_);}
	.st27{fill:url(#SVGID_23_);}
	.st28{fill:url(#SVGID_24_);}
	.st29{fill:url(#SVGID_25_);}
	.st30{fill:url(#SVGID_26_);}
	.st31{fill:url(#SVGID_27_);}
	.st32{fill:url(#SVGID_28_);}
	.st33{fill:url(#SVGID_29_);}
	.st34{fill:url(#SVGID_30_);}
	.st35{fill:url(#SVGID_31_);}
	.st36{fill:url(#SVGID_32_);}
	.st37{fill:url(#SVGID_33_);}
	.st38{fill:url(#SVGID_34_);}
	.st39{fill:url(#SVGID_35_);}
	.st40{fill:url(#SVGID_36_);}
	.st41{fill:url(#SVGID_37_);}
	.st42{fill:url(#SVGID_38_);}
	.st43{fill:url(#SVGID_39_);}
	.st44{fill:url(#SVGID_40_);}
	.st45{fill:url(#SVGID_41_);}
	.st46{fill:url(#SVGID_42_);}
	.st47{fill:url(#SVGID_43_);}
	.st48{fill:url(#SVGID_44_);}
	.st49{fill:url(#SVGID_45_);}
	.st50{fill:url(#SVGID_46_);}
	.st51{fill:#7D97F4;}
	.st52{fill:url(#SVGID_47_);}
	.st53{fill:url(#SVGID_48_);}
	.st54{fill:url(#SVGID_49_);}
	.st55{fill:url(#SVGID_50_);}
	.st56{fill:url(#SVGID_51_);}
	.st57{fill:url(#SVGID_52_);}
	.st58{fill:url(#SVGID_53_);}
	.st59{fill:url(#SVGID_54_);}
	.st60{fill:url(#SVGID_55_);}
	.st61{fill:url(#SVGID_56_);}
	.st62{fill:url(#SVGID_57_);}
	.st63{fill:url(#SVGID_58_);}
	.st64{fill:url(#SVGID_59_);}
	.st65{fill:url(#SVGID_60_);}
	.st66{fill:url(#SVGID_61_);}
	.st67{fill:url(#SVGID_62_);}
	.st68{fill:url(#SVGID_63_);}
	.st69{fill:url(#SVGID_64_);}
	.st70{fill:url(#SVGID_65_);}
	.st71{fill:url(#SVGID_66_);}
</style>
<g id="Background" class="st0">
	<rect class="st1" width="2475" height="1650"/>
</g>
<g id="Illustration">
	
		<linearGradient id="SVGID_1_" gradientUnits="userSpaceOnUse" x1="234.2513" y1="814.405" x2="2353.9988" y2="814.405" gradientTransform="matrix(1 0 0 -1 0 1650)">
		<stop  offset="0" style="stop-color:#DAE3FE"/>
		<stop  offset="1" style="stop-color:#E9EFFD"/>
	</linearGradient>
	<path class="st2" d="M2294,906.8c-36.8-40.3-80.2-79.6-91.5-134.3c-19.6-94.7,64.2-175.4,91.7-267.8c19-63.9,9.2-136.7-25.9-192.5
		s-94.8-93.4-157.8-99.5c-108.4-10.5-214.6,66.8-321.4,44.4c-85.6-17.9-153.2-97.1-240-105.6c-102.2-10-187,79.3-284.6,112.9
		c-116.7,40.2-243.3-1.8-358.1-47.9S670.7,119,549.7,141.1C415,165.6,302.1,289.8,284.1,433.2C266.2,575.3,416,689.4,288.5,860
		c-39.8,53.3-66.3,127.5-48.7,192.9c17.1,63.5,89.9,103.7,90.4,169.7c0.4,52.1-46,93.6-49.8,145.6c-3.2,44.6,27.1,85.9,64.4,107
		s80.5,26.3,122.5,31.1l-12.4,14.1c211.7,20.1,424.8,15.6,637.3,11.1l1005.5-21.3c34.4-0.7,69.7-1.6,101.8-14.9s60.9-41.6,65.8-77.7
		c8.3-61.4-52.3-114.7-46.7-176.5c7.2-78.9,112.1-109.3,132.1-185.7C2364.9,1001.5,2330.8,947.1,2294,906.8z"/>
	<path class="st3" d="M1965.7,160.7c30.9,92.4,188.6,637.7-296.5,877.7c0,0-196.3-332.3,282.4-880.5c3-3.4,8.2-3.8,11.6-0.8
		C1964.4,158,1965.3,159.3,1965.7,160.7z"/>
	
		<linearGradient id="SVGID_2_" gradientUnits="userSpaceOnUse" x1="1773.6537" y1="1031.6122" x2="1935.6403" y2="1031.6122" gradientTransform="matrix(1 0 0 -1 0 1650)">
		<stop  offset="0" style="stop-color:#DAE3FE"/>
		<stop  offset="1" style="stop-color:#E9EFFD"/>
	</linearGradient>
	<path class="st4" d="M1935.6,253.8c-2.4,31.1-5.5,62-8.8,93s-7,61.9-11.1,92.8c-8.1,61.8-17.6,123.3-29,184.6
		s-24.7,122.2-41.3,182.4c-8.2,30.1-17.5,59.9-27.9,89.4c-10.4,29.4-22.1,58.5-36,86.6c-1,2.1-3.5,2.9-5.6,1.9s-2.9-3.5-1.9-5.6l0,0
		l0,0l0,0c13.9-27.6,25.6-56.3,36.2-85.5s19.9-58.8,28.3-88.7c16.9-59.8,30.5-120.5,42.3-181.5s21.7-122.5,30.2-184.2
		c4.3-30.8,8.2-61.7,11.7-92.6c3.5-30.9,6.8-61.9,9.4-92.8l0,0c0.1-1,1.1-1.6,2-1.5C1935,252.1,1935.7,252.9,1935.6,253.8
		L1935.6,253.8z"/>
	<path class="st3" d="M2251.2,264.7c-0.2-9.6-13.2-12.6-17.5-4.1c-42.1,83.1-159.3,297.5-294,396.9
		c-219.4,161.9-402.8,458.9-320.3,647.9C1619.3,1305.4,2268.8,1314.2,2251.2,264.7z"/>
	
		<linearGradient id="SVGID_3_" gradientUnits="userSpaceOnUse" x1="1680.0487" y1="851.076" x2="2208.5146" y2="851.076" gradientTransform="matrix(1 0 0 -1 0 1650)">
		<stop  offset="0" style="stop-color:#DAE3FE"/>
		<stop  offset="1" style="stop-color:#E9EFFD"/>
	</linearGradient>
	<path class="st5" d="M2208.4,386.7c-0.8,2.7-1.7,5-2.5,7.5l-2.7,7.3l-5.5,14.4c-3.7,9.6-7.6,19.1-11.4,28.7
		c-7.8,19.1-15.8,38-24,56.9c-16.4,37.8-33.8,75.1-51.8,112.1s-36.9,73.7-56.5,109.9l-7.3,13.5l-7.5,13.5c-5,9-9.9,18-15.2,26.9
		l-15.4,26.8l-15.8,26.5c-42.6,70.5-88.9,138.9-139.9,203.6c-3.1,4.1-6.4,8.1-9.7,12l-9.8,11.9l-9.8,11.9
		c-3.3,3.9-6.8,7.8-10.1,11.7c-6.8,7.7-13.4,15.6-20.4,23.2l-21,22.7c-28.6,29.7-58.4,58.2-90.2,84.5c-0.4,0.4-1.1,0.3-1.5-0.1
		c-0.4-0.4-0.3-1.1,0.1-1.5l0,0c30.9-27.1,60.4-55.7,88.3-85.9l20.7-22.8c6.8-7.7,13.4-15.6,20.1-23.4c3.3-3.9,6.7-7.8,10-11.8
		l9.7-12l9.7-12c3.2-4,6.4-8,9.5-12.1l18.7-24.5c6.2-8.2,12.2-16.5,18.3-24.8c3-4.2,6.1-8.3,9.1-12.5l8.8-12.6l8.8-12.6
		c3-4.2,5.9-8.4,8.7-12.7c23.2-33.9,45-68.8,66.5-103.8c42.7-70.3,81.8-142.7,118.5-216.2c18.3-36.8,35.9-74,52.8-111.5
		c8.5-18.7,16.7-37.6,24.8-56.5c4-9.5,8-19,11.9-28.5l5.7-14.3l2.8-7.2c0.9-2.4,1.9-4.9,2.6-7.1l0.1-0.2c0.2-0.6,0.7-0.9,1.3-0.7
		C2208.3,385.4,2208.6,386,2208.4,386.7L2208.4,386.7z"/>
	<path class="st6" d="M1676,1517.2c0,0,6.3-133.4,144.2-264.9c128-122,442-403.9,516.9-562.6c3.3-7,13.8-4.7,13.7,3.1
		c-1.3,83.3-21.1,291.9-170.6,495.7C1987.5,1451.5,1676,1517.2,1676,1517.2z"/>
	<path class="st3" d="M2284.6,837.6c-2.8,18.2-7.9,36-14,53.5c-0.7,2.2-1.4,4.4-2.2,6.5l-2.5,6.5l-5,12.9l-5.5,12.7
		c-1.9,4.2-3.6,8.5-5.7,12.6c-15.9,33.4-34.5,65.4-55.8,95.6c-5,7.8-10.8,15-16.4,22.4s-11,14.9-17.1,21.8l-17.8,21.3
		c-2.9,3.6-6.1,6.9-9.3,10.3l-9.4,10.2l-9.4,10.2l-4.7,5.1l-5,4.8l-19.9,19.3c-3.3,3.2-6.6,6.5-10,9.6l-10.2,9.3l-20.4,18.6
		l-20.7,18.4c-6.9,6.1-13.8,12.3-20.7,18.3c-13.9,12.1-27.9,24.1-42,36c-14,11.9-28.2,23.7-42.4,35.4l-42.8,34.9
		c-28.6,23.2-57.2,46.4-84.9,70.4c-7,5.9-13.7,12.2-20.6,18.3c-3.4,3-6.7,6.3-10,9.4s-6.6,6.3-9.8,9.6c-6.3,6.7-12.8,13.2-18.5,20.3
		l-4.5,5.2c-0.7,0.9-1.5,1.7-2.2,2.6l-2,2.8l-8.2,11l0,0c-0.3,0.5-1,0.6-1.5,0.3s-0.6-1-0.3-1.5c10.3-15.4,21.8-29.9,34.6-43.3
		c3.2-3.4,6.5-6.6,9.7-9.9s6.4-6.6,9.8-9.8c6.7-6.3,13.3-12.8,20.2-18.9c27.4-24.8,55.8-48.2,84-71.8s56.5-47.2,84.4-71.1
		s55.6-48.2,83-72.7l20.4-18.6l10.2-9.3c3.4-3.1,6.6-6.3,9.9-9.5l19.8-19.1l4.9-4.8l4.7-5l9.4-10c25.5-26.4,48.7-54.9,70.3-84.4
		c21.8-29.5,41-60.9,57.5-93.7c2.2-4,4-8.3,6-12.4l5.9-12.4l5.4-12.7l2.7-6.3c0.9-2.1,1.6-4.3,2.4-6.4c1.6-4.3,3.3-8.6,4.8-12.9
		l4.3-13.1c2.6-8.8,5.3-17.6,6.9-26.7c0-0.1,0.1-0.1,0.1-0.1C2284.6,837.5,2284.6,837.5,2284.6,837.6L2284.6,837.6z"/>
	<path class="st6" d="M642.6,1099.1c0,0-133.7-564.5-410.7-872.4c-18.6-20.7-52.8-12.7-60.1,14.1
		C122.6,420.4,28.2,965.2,642.6,1099.1z"/>
	<path class="st3" d="M586.4,1062.7c0.6,0.6,0.6,1.6,0,2.2c-0.5,0.5-1.4,0.6-2,0.2c-57-42.4-277.4-250.7-358.8-665.9
		c-0.1-0.6,0.3-1.1,0.8-1.3c0.5-0.1,1.1,0.2,1.2,0.7C255.4,494.9,368.5,849.7,586.4,1062.7z"/>
	<path class="st3" d="M709.3,836.3c0,0,53.3-406.2-52.4-679c-7.1-18.3-31.6-21.6-43.2-5.7C536.1,257.8,337.2,593.8,709.3,836.3z"/>
	
		<linearGradient id="SVGID_4_" gradientUnits="userSpaceOnUse" x1="594.8278" y1="1115.6805" x2="681.3654" y2="1115.6805" gradientTransform="matrix(1 0 0 -1 0 1650)">
		<stop  offset="0" style="stop-color:#DAE3FE"/>
		<stop  offset="1" style="stop-color:#E9EFFD"/>
	</linearGradient>
	<path class="st7" d="M681.3,798.2c0.2,0.6-0.1,1.2-0.6,1.4c-0.5,0.2-1,0-1.3-0.4c-27-42.3-120.3-235.1-69.9-529.6
		c0.1-0.4,0.5-0.7,0.9-0.6c0.3,0.1,0.6,0.4,0.6,0.7C605.2,340.2,590.8,602.9,681.3,798.2z"/>
	<path class="st3" d="M123.1,927.8c-1.4-0.8-1.8-2.6-1-4c0.6-1,1.7-1.5,2.8-1.4c49.7,5.4,230.3,36,365.9,202.8
		c124,152.6,186,280,207.2,328.3c3,6.9-0.2,14.9-7.1,17.9c-2.1,0.9-4.4,1.3-6.7,1.1c-61.5-6.1-232.9-32.3-304.5-136.9
		C294,1210.6,250.2,1006.3,123.1,927.8z"/>
	
		<linearGradient id="SVGID_5_" gradientUnits="userSpaceOnUse" x1="269" y1="415.52" x2="685" y2="415.52" gradientTransform="matrix(1 0 0 -1 0 1650)">
		<stop  offset="0" style="stop-color:#DAE3FE"/>
		<stop  offset="1" style="stop-color:#E9EFFD"/>
	</linearGradient>
	<path class="st8" d="M269,1014.1c0,0,161.8,61,416,440.8C685,1454.9,409.3,1086.8,269,1014.1z"/>
	
		<linearGradient id="SVGID_6_" gradientUnits="userSpaceOnUse" x1="1113.3843" y1="224.4019" x2="1463.4841" y2="1274.7119" gradientTransform="matrix(1 0 0 -1 0 1650)">
		<stop  offset="0" style="stop-color:#09005D"/>
		<stop  offset="1" style="stop-color:#1A0F91"/>
	</linearGradient>
	<path class="st9" d="M2017.4,1463.7c0,15.1-12.3,27.3-27.4,27.4H507.6c-15.1,0-27.4-12.3-27.4-27.4l-12.3-851.9
		c0-15.1,17.7-44.5,50.3-42.3l1448.7-37.5c38.1-1,69.9,29.1,70.9,67.2c0,1.1,0,2.3,0,3.4L2017.4,1463.7z"/>
	
		<linearGradient id="SVGID_7_" gradientUnits="userSpaceOnUse" x1="911.9824" y1="360.8666" x2="2115.1025" y2="1245.9565" gradientTransform="matrix(1 0 0 -1 0 1650)">
		<stop  offset="0" style="stop-color:#4042E2"/>
		<stop  offset="1" style="stop-color:#4F52FF"/>
	</linearGradient>
	<path class="st10" d="M1990.3,1437.4c0,14.3-11.6,25.9-25.9,25.9h-1421c-14.3,0-25.9-11.6-25.9-25.9l-11.7-773.3
		c1.4-46.5,42.2-63.3,66.9-62.3l1388.5-37.3c26.8-0.7,49.1,20.4,49.8,47.2c0,0.8,0,1.6,0,2.5L1990.3,1437.4z"/>
	<path class="st6" d="M532.8,1068.3c-1.1,0-2.1-0.9-2.1-2.1l-0.9-62.7c0-1.2,0.9-2.1,2.1-2.1l0,0c1.1,0,2.1,0.9,2.1,2.1l0.9,62.7
		C534.8,1067.4,533.9,1068.3,532.8,1068.3L532.8,1068.3z"/>
	<path class="st6" d="M530.5,914.6c-1.1,0-2.1-0.9-2.1-2.1l-3.5-240.2c0.1-16,5-28.9,14.7-38.1c17.6-16.9,45.1-16,46.3-16
		l443.4-11.9c1.2-0.1,2.2,0.7,2.3,1.9s-0.7,2.2-1.9,2.3c-0.1,0-0.2,0-0.3,0l-443.5,11.9c-1.2,0-27.1-0.8-43.4,14.8
		c-8.8,8.5-13.3,20.3-13.4,35.1l3.5,240.2C532.6,913.6,531.7,914.6,530.5,914.6C530.6,914.6,530.6,914.6,530.5,914.6L530.5,914.6z"
		/>
	<g class="st11">
		<path class="st6" d="M580,1394.5c1.5-63.9,0.9-629.9-2.7-678.8s72.5-58,189.3-63.5s1103.1-27.3,1128.5-29.3
			c57.1-4.6,68.9,80.7,63.2,265.9c-4.3,139.1-11.4,368.4-14.7,473.8c-1,31.4-26.6,56.3-58,56.4c-237.3,0.7-1146.9,3.3-1207.4,5.1
			C608.5,1426,579.4,1419.9,580,1394.5z"/>
	</g>
	
		<linearGradient id="SVGID_8_" gradientUnits="userSpaceOnUse" x1="1268.7618" y1="538.75" x2="1265.7618" y2="304.7299" gradientTransform="matrix(1 0 0 -1 0 1650)">
		<stop  offset="0" style="stop-color:#09005D"/>
		<stop  offset="1" style="stop-color:#1A0F91"/>
	</linearGradient>
	<path class="st12" d="M397.5,1459.7h1732.6c4.1,0,7.5,3.4,7.5,7.5v59.8c0,4.1-3.4,7.5-7.5,7.5H397.5c-4.1,0-7.5-3.4-7.5-7.5v-59.8
		C390,1463.1,393.4,1459.7,397.5,1459.7z"/>
	<path class="st6" d="M1964.3,313.3l-341.3-1.9c-9.9-0.1-18,7.9-18,17.8c0,3.3,0.9,6.5,2.6,9.3l1.7,2.9c3.2,5.4,9.1,8.7,15.4,8.7
		h339.6c9.9,0,17.9-8,17.9-17.9c0,0,0,0,0,0v-1C1982.2,321.4,1974.2,313.4,1964.3,313.3z"/>
	<path class="st6" d="M2012,331.6v0.5c0,9.9,8,17.9,17.9,17.9c0,0,0,0,0,0h75.8c8.1,0,15.2-5.4,17.3-13.3l0,0
		c2.6-9.6-3.1-19.4-12.7-21.9c-1.5-0.4-3-0.6-4.5-0.6l-75.8-0.6c-9.9-0.1-18,7.9-18,17.8C2012,331.5,2012,331.6,2012,331.6z"/>
	<path class="st6" d="M1882.2,377.6l-259.2-1.9c-9.9-0.1-18,7.9-18,17.8c0,3.3,0.9,6.5,2.6,9.3l1.7,2.9c3.2,5.4,9.1,8.7,15.4,8.7
		h257.5c9.9,0,17.9-8,17.9-17.9c0,0,0,0,0,0v-1C1900.1,385.7,1892.1,377.7,1882.2,377.6z"/>
	<path class="st6" d="M1929.9,395.9v0.5c0,9.9,8,17.9,17.9,17.9c0,0,0,0,0,0h75.8c8.1,0,15.2-5.5,17.3-13.3l0,0
		c2.6-9.6-3.1-19.4-12.7-21.9c-1.5-0.4-3-0.6-4.5-0.6L1948,378c-9.9-0.1-18,7.9-18.1,17.8C1929.9,395.8,1929.9,395.9,1929.9,395.9z"
		/>
	
		<linearGradient id="SVGID_9_" gradientUnits="userSpaceOnUse" x1="1178.2211" y1="1372.22" x2="869.191" y2="838.1699" gradientTransform="matrix(1 0 0 -1 0 1650)">
		<stop  offset="0" style="stop-color:#FE7062"/>
		<stop  offset="1" style="stop-color:#FF928E"/>
	</linearGradient>
	<path class="st13" d="M1453.3,321.7h-364.6c-21.4-83.7-106.6-134.2-190.4-112.8S764.2,315.5,785.6,399.2
		C807,482.9,892.2,533.4,975.9,512c58.8-15,103.6-62.7,115-122.4h180.5V429c0,14.7,11.9,26.7,26.7,26.7c0,0,0,0,0,0h1
		c14.7,0,26.7-12,26.7-26.7c0,0,0,0,0,0v-39.3h68v60.7c0,14.8,12,26.7,26.7,26.7h1c14.8,0,26.7-12,26.7-26.7v-60.7h5.2
		c18.6,0,33.6-15.1,33.6-33.7v-0.6C1487,336.8,1471.9,321.7,1453.3,321.7C1453.3,321.7,1453.3,321.7,1453.3,321.7z M937.3,457
		c-53.3,0-96.5-43.2-96.5-96.5c0-53.3,43.2-96.5,96.5-96.5c53.3,0,96.5,43.2,96.5,96.5c0,0,0,0,0,0
		C1033.7,413.8,990.5,457,937.3,457z"/>
	
		<linearGradient id="SVGID_10_" gradientUnits="userSpaceOnUse" x1="899.3871" y1="1841.1487" x2="881.387" y2="1328.0986" gradientTransform="matrix(1 0 0 -1 0 1650)">
		<stop  offset="0" style="stop-color:#FF928E"/>
		<stop  offset="1" style="stop-color:#FEB3B1"/>
	</linearGradient>
	<path class="st14" d="M970.3,1118c-2.3,0.1-4.6-0.8-6.2-2.4c-1.7-1.6-2.6-3.8-2.6-6.1v-30.2c0-15.1-12.2-27.3-27.2-27.4v-90.2
		c0-15.1-12.3-27.4-27.4-27.4h-88.9v18.8h88.9c4.7,0,8.5,3.8,8.5,8.5v90.4l-242.8,3.4c-2.3,0-4.5-0.9-6.1-2.5
		c-1.6-1.6-2.6-3.8-2.5-6.1V757.3h-18.9V1047c0,15.1,12.3,27.4,27.4,27.4c0.1,0,0.3,0,0.4,0l261.1-3.7c2.3,0,4.5,0.9,6.1,2.4
		c1.6,1.6,2.6,3.8,2.5,6.1v30.2c0,15.1,12.2,27.4,27.3,27.4c0,0,0,0,0.1,0h1l102.9-3.6l-0.7-18.8L970.3,1118z"/>
	
		<linearGradient id="SVGID_11_" gradientUnits="userSpaceOnUse" x1="926.9422" y1="1840.1888" x2="908.9323" y2="1327.1389" gradientTransform="matrix(1 0 0 -1 0 1650)">
		<stop  offset="0" style="stop-color:#FF928E"/>
		<stop  offset="1" style="stop-color:#FEB3B1"/>
	</linearGradient>
	<path class="st15" d="M835.4,1156.1c-14.9,0.3-26.9,12.5-26.9,27.4c0,4.7-3.8,8.5-8.5,8.5H694.3v18.8H800
		c15.1,0,27.4-12.3,27.4-27.4c0-4.6,3.7-8.4,8.4-8.5l227.5-3.9l-0.3-18.9L835.4,1156.1z"/>
	
		<linearGradient id="SVGID_12_" gradientUnits="userSpaceOnUse" x1="965.9699" y1="1838.8193" x2="947.9599" y2="1325.7693" gradientTransform="matrix(1 0 0 -1 0 1650)">
		<stop  offset="0" style="stop-color:#FF928E"/>
		<stop  offset="1" style="stop-color:#FEB3B1"/>
	</linearGradient>
	<path class="st16" d="M967.7,1219.4v10.2c0,4.7-3.8,8.5-8.5,8.5H796.1c-15.1,0-27.4,12.3-27.4,27.4v36.7
		c0,15.1,12.2,27.4,27.4,27.4h1l94.5-3.5l-0.7-18.8l-94.5,3.5c-4.7,0.2-8.7-3.5-8.8-8.2c0-0.1,0-0.2,0-0.3v-36.7
		c0-4.7,3.8-8.5,8.5-8.5h163.1c15.1,0,27.4-12.3,27.4-27.4v-10.2c0-4.7,3.8-8.5,8.5-8.5h67.9V1192h-67.9
		C980,1192,967.7,1204.3,967.7,1219.4z"/>
	
		<linearGradient id="SVGID_13_" gradientUnits="userSpaceOnUse" x1="975.1936" y1="1838.4895" x2="957.1836" y2="1325.4395" gradientTransform="matrix(1 0 0 -1 0 1650)">
		<stop  offset="0" style="stop-color:#FF928E"/>
		<stop  offset="1" style="stop-color:#FEB3B1"/>
	</linearGradient>
	<path class="st17" d="M844.4,867.1h0.2c34.6-0.2,97.1-0.4,127.3-0.1c4.7,0.1,8.4,3.9,8.4,8.5v192.6c0,15.1,12.3,27.4,27.4,27.4
		h55.4v-18.8h-55.4c-4.7,0-8.5-3.8-8.5-8.5V875.6c0-15-12.1-27.2-27.1-27.4c-30.4-0.3-93-0.1-127.7,0.1h-0.1
		c-9.5,0-17.3-7.7-17.4-17.2c-0.1-14.5-0.3-34.8,0-48.8c0.1-4.5,3.6-8.1,8-8.4l105.1-7.3l-1.3-18.8l-105.1,7.3
		c-14.2,0.9-25.4,12.6-25.5,26.9c-0.3,14.3-0.2,34.7,0,49.3C808.4,851.1,824.5,867.1,844.4,867.1z"/>
	
		<linearGradient id="SVGID_14_" gradientUnits="userSpaceOnUse" x1="1588.1132" y1="1816.9902" x2="1570.1132" y2="1303.9403" gradientTransform="matrix(1 0 0 -1 0 1650)">
		<stop  offset="0" style="stop-color:#FF928E"/>
		<stop  offset="1" style="stop-color:#FEB3B1"/>
	</linearGradient>
	<path class="st18" d="M1540.4,1086.8c13.9-1.5,24.5-13.2,24.4-27.2V911.1c0-4.2,3.1-7.8,7.3-8.4l42.5-6.1
		c13.5-2,23.5-13.5,23.5-27.1V709.1h-18.8v160.4c0,4.2-3.1,7.8-7.3,8.5l-42.5,6.1c-13.5,2-23.5,13.5-23.5,27.1v148.5
		c0,4.4-3.3,8-7.6,8.5l-80.3,8.7l2,18.8L1540.4,1086.8z"/>
	
		<linearGradient id="SVGID_15_" gradientUnits="userSpaceOnUse" x1="1704.9167" y1="1812.8915" x2="1686.9167" y2="1299.8416" gradientTransform="matrix(1 0 0 -1 0 1650)">
		<stop  offset="0" style="stop-color:#FF928E"/>
		<stop  offset="1" style="stop-color:#FEB3B1"/>
	</linearGradient>
	<path class="st19" d="M1747.1,1175.9V1104c0-4.7,3.8-8.5,8.4-8.5l34.4-0.3c14.7-0.1,26.7-11.8,27.1-26.5l7.5-223.1l-18.8-0.6
		l-7.5,223.1c-0.1,4.6-3.9,8.2-8.4,8.3l-34.4,0.3c-15,0.2-27.1,12.4-27.2,27.4v71.7l-14.2-0.2c-15.1-0.2-27.5,11.9-27.7,27
		c0,0.1,0,0.2,0,0.4v139.6c0,2.3-0.9,4.5-2.5,6.1c-1.6,1.6-3.8,2.5-6.1,2.5l-127.5-1.6c-4.7-0.1-8.4-3.9-8.4-8.5v-100.5
		c0-15.1-12.3-27.4-27.4-27.4H1459v18.9h55.4c4.7,0,8.5,3.8,8.5,8.5v100.5c0.1,15,12.1,27.1,27,27.4l127.5,1.6h0.4
		c15.1,0,27.4-12.3,27.4-27.4v-139.6c0-4.7,3.8-8.5,8.5-8.5c0,0,0.1,0,0.1,0l141,1.9l0.3-18.9L1747.1,1175.9z"/>
	
		<linearGradient id="SVGID_16_" gradientUnits="userSpaceOnUse" x1="1620.2382" y1="1815.8594" x2="1602.2382" y2="1302.8093" gradientTransform="matrix(1 0 0 -1 0 1650)">
		<stop  offset="0" style="stop-color:#FF928E"/>
		<stop  offset="1" style="stop-color:#FEB3B1"/>
	</linearGradient>
	<path class="st20" d="M1594.4,1157.1l1.8,134.5l18.8-0.3l-1.8-135.3l51.4-2.9c14.5-0.8,25.8-12.8,25.8-27.3v-79.4h-18.9v79.4
		c0,4.5-3.5,8.2-8,8.5l-205.1,11.6l1.1,18.8L1594.4,1157.1z"/>
	
		<linearGradient id="SVGID_17_" gradientUnits="userSpaceOnUse" x1="1851.2649" y1="1807.7501" x2="1833.2649" y2="1294.7002" gradientTransform="matrix(1 0 0 -1 0 1650)">
		<stop  offset="0" style="stop-color:#FF928E"/>
		<stop  offset="1" style="stop-color:#FEB3B1"/>
	</linearGradient>
	<path class="st21" d="M1833.9,787l-42.7,8.2c-9.2,1.8-15.8,9.8-15.8,19.2v51.3c0,10.8,8.7,19.5,19.5,19.5l0,0h42.7
		c10.8,0,19.5-8.7,19.5-19.5c0,0,0,0,0,0v-59.5c0-10.8-8.8-19.5-19.6-19.5C1836.3,786.7,1835.1,786.8,1833.9,787z"/>
	
		<linearGradient id="SVGID_18_" gradientUnits="userSpaceOnUse" x1="1660.5979" y1="1814.4484" x2="1642.5979" y2="1301.3883" gradientTransform="matrix(1 0 0 -1 0 1650)">
		<stop  offset="0" style="stop-color:#FF928E"/>
		<stop  offset="1" style="stop-color:#FEB3B1"/>
	</linearGradient>
	<path class="st22" d="M1647.5,659.2l-42.7,8.2c-9.2,1.8-15.8,9.8-15.8,19.2v51.3c0,10.8,8.7,19.5,19.5,19.5h42.7
		c10.8,0,19.5-8.7,19.5-19.5l0,0v-59.5c0-10.8-8.7-19.5-19.5-19.5C1649.9,658.8,1648.7,658.9,1647.5,659.2z"/>
	
		<linearGradient id="SVGID_19_" gradientUnits="userSpaceOnUse" x1="1909.5684" y1="1805.7101" x2="1891.5585" y2="1292.6602" gradientTransform="matrix(1 0 0 -1 0 1650)">
		<stop  offset="0" style="stop-color:#FF928E"/>
		<stop  offset="1" style="stop-color:#FEB3B1"/>
	</linearGradient>
	<path class="st23" d="M1880,1136.8l-42.7,8.2c-9.2,1.8-15.8,9.8-15.8,19.2v51.3c0,10.8,8.7,19.5,19.5,19.5c0,0,0,0,0,0h42.7
		c10.8,0,19.5-8.7,19.5-19.5l0,0V1156c0-10.8-8.7-19.5-19.5-19.5C1882.4,1136.5,1881.2,1136.6,1880,1136.8z"/>
	
		<linearGradient id="SVGID_20_" gradientUnits="userSpaceOnUse" x1="687.1758" y1="1848.6001" x2="669.1758" y2="1335.55" gradientTransform="matrix(1 0 0 -1 0 1650)">
		<stop  offset="0" style="stop-color:#FF928E"/>
		<stop  offset="1" style="stop-color:#FEB3B1"/>
	</linearGradient>
	<path class="st24" d="M671.1,709.4l-42.7,8.2c-9.2,1.8-15.8,9.8-15.8,19.2V788c0,10.8,8.7,19.5,19.5,19.5l0,0h42.7
		c10.8,0,19.5-8.7,19.5-19.5c0,0,0,0,0,0v-59.4c0-10.8-8.7-19.5-19.5-19.5C673.6,709.1,672.3,709.2,671.1,709.4z"/>
	
		<linearGradient id="SVGID_21_" gradientUnits="userSpaceOnUse" x1="859.0363" y1="1842.5698" x2="841.0362" y2="1329.5198" gradientTransform="matrix(1 0 0 -1 0 1650)">
		<stop  offset="0" style="stop-color:#FF928E"/>
		<stop  offset="1" style="stop-color:#FEB3B1"/>
	</linearGradient>
	<path class="st25" d="M836.7,895.9l-42.7,8.2c-9.2,1.8-15.8,9.8-15.8,19.2v51.3c0,10.8,8.7,19.5,19.5,19.5h42.7
		c10.8,0,19.5-8.7,19.5-19.5v-59.4c0-10.8-8.7-19.5-19.5-19.5C839.1,895.6,837.9,895.7,836.7,895.9z"/>
	
		<linearGradient id="SVGID_22_" gradientUnits="userSpaceOnUse" x1="729.9271" y1="1847.1008" x2="711.9271" y2="1334.0508" gradientTransform="matrix(1 0 0 -1 0 1650)">
		<stop  offset="0" style="stop-color:#FF928E"/>
		<stop  offset="1" style="stop-color:#FEB3B1"/>
	</linearGradient>
	<path class="st26" d="M698.4,1153.6l-42.7,8.2c-9.2,1.8-15.8,9.8-15.8,19.2v51.3c0,10.8,8.7,19.5,19.5,19.5c0,0,0,0,0,0H702
		c10.8,0,19.5-8.7,19.5-19.5l0,0v-59.4c0-10.8-8.7-19.5-19.5-19.5C700.8,1153.3,699.6,1153.4,698.4,1153.6z"/>
	
		<linearGradient id="SVGID_23_" gradientUnits="userSpaceOnUse" x1="1657.9694" y1="1814.5393" x2="1639.9592" y2="1301.4792" gradientTransform="matrix(1 0 0 -1 0 1650)">
		<stop  offset="0" style="stop-color:#FF928E"/>
		<stop  offset="1" style="stop-color:#FEB3B1"/>
	</linearGradient>
	<path class="st27" d="M1624.4,1241.6l-42.7,8.2c-9.2,1.8-15.8,9.8-15.8,19.2v51.3c0,10.8,8.7,19.5,19.5,19.5l0,0h42.7
		c10.8,0,19.5-8.7,19.5-19.5v-59.4c0-10.8-8.7-19.5-19.5-19.5C1626.9,1241.3,1625.6,1241.4,1624.4,1241.6z"/>
	
		<linearGradient id="SVGID_24_" gradientUnits="userSpaceOnUse" x1="953.3906" y1="1839.2507" x2="935.3906" y2="1326.2007" gradientTransform="matrix(1 0 0 -1 0 1650)">
		<stop  offset="0" style="stop-color:#FF928E"/>
		<stop  offset="1" style="stop-color:#FEB3B1"/>
	</linearGradient>
	<path class="st28" d="M918.4,1260.4l-42.7,8.2c-9.2,1.8-15.8,9.8-15.8,19.2v51.3c0,10.8,8.7,19.5,19.5,19.5c0,0,0,0,0,0H922
		c10.8,0,19.5-8.7,19.5-19.5c0,0,0,0,0,0v-59.4c0-10.8-8.7-19.5-19.5-19.5C920.8,1260.1,919.6,1260.2,918.4,1260.4z"/>
	
		<linearGradient id="SVGID_25_" gradientUnits="userSpaceOnUse" x1="973.8577" y1="1838.54" x2="955.8576" y2="1325.4901" gradientTransform="matrix(1 0 0 -1 0 1650)">
		<stop  offset="0" style="stop-color:#FF928E"/>
		<stop  offset="1" style="stop-color:#FEB3B1"/>
	</linearGradient>
	<path class="st29" d="M958.2,709.4l-42.7,8.2c-9.2,1.8-15.8,9.8-15.8,19.2V788c0,10.8,8.7,19.5,19.5,19.5c0,0,0,0,0,0h42.7
		c10.8,0,19.5-8.7,19.5-19.5c0,0,0,0,0,0v-59.4c0-10.8-8.7-19.5-19.5-19.5C960.6,709.1,959.4,709.2,958.2,709.4z"/>
	
		<linearGradient id="SVGID_26_" gradientUnits="userSpaceOnUse" x1="1721.8577" y1="1812.29" x2="1703.8577" y2="1299.2401" gradientTransform="matrix(1 0 0 -1 0 1650)">
		<stop  offset="0" style="stop-color:#FF928E"/>
		<stop  offset="1" style="stop-color:#FEB3B1"/>
	</linearGradient>
	<path class="st30" d="M1697.8,975.5l-42.7,8.2c-9.2,1.8-15.8,9.8-15.8,19.2v51.3c0,10.8,8.7,19.5,19.5,19.5c0,0,0,0,0,0h42.7
		c10.8,0,19.5-8.7,19.5-19.5v-59.5c0-10.8-8.7-19.5-19.5-19.5C1700.2,975.2,1699,975.3,1697.8,975.5z"/>
	
		<linearGradient id="SVGID_27_" gradientUnits="userSpaceOnUse" x1="1220.9552" y1="597.338" x2="914.9252" y2="-242.7519" gradientTransform="matrix(1 0 0 -1 0 1650)">
		<stop  offset="0" style="stop-color:#FE7062"/>
		<stop  offset="1" style="stop-color:#FF928E"/>
	</linearGradient>
	<path class="st31" d="M1118.8,1062.6h-45.6V880.7c0.1-71.5,53.4-131.7,124.4-140.4l93.3-11.3c77.6-9.4,148.1,45.8,157.5,123.4
		c0.7,5.7,1,11.3,1,17v158.8h-45.6V869.4c0-52.9-42.9-95.8-95.8-95.8c-3.9,0-7.7,0.2-11.6,0.7l-93.3,11.3
		c-48.1,5.9-84.2,46.7-84.3,95.1V1062.6z"/>
	
		<linearGradient id="SVGID_28_" gradientUnits="userSpaceOnUse" x1="1303.1342" y1="567.3985" x2="997.1041" y2="-272.6815" gradientTransform="matrix(1 0 0 -1 0 1650)">
		<stop  offset="0" style="stop-color:#FE7062"/>
		<stop  offset="1" style="stop-color:#FF928E"/>
	</linearGradient>
	<path class="st32" d="M1059.7,1021.8l400.1-22.2c15.6-0.9,29,11.1,29.9,26.7c0,0.5,0,1,0,1.6v317c0,15.7-12.7,28.3-28.3,28.3
		h-390.5c-15.3,0-27.8-12.1-28.3-27.4l-9.6-294.8C1032.4,1035.6,1044.3,1022.6,1059.7,1021.8z"/>
	
		<linearGradient id="SVGID_29_" gradientUnits="userSpaceOnUse" x1="1227.2948" y1="358.288" x2="1374.3048" y2="703.318" gradientTransform="matrix(1 0 0 -1 0 1650)">
		<stop  offset="0" style="stop-color:#E1473D"/>
		<stop  offset="1" style="stop-color:#E9605A"/>
	</linearGradient>
	<path class="st33" d="M1326.5,1282.4l-24.2-69.6c-2.9-8.4-0.9-17.7,5.3-24c25.6-25.9,25.3-67.7-0.6-93.2s-67.7-25.3-93.2,0.6
		s-25.3,67.7,0.6,93.2c1.5,1.5,3.1,2.9,4.8,4.3c7.8,6.2,10.8,16.6,7.6,26l-21.8,62.7c-4.3,12.3,2.2,25.6,14.5,29.9
		c2.5,0.9,5.1,1.3,7.7,1.3h77.2c13,0,23.5-10.6,23.4-23.5C1327.8,1287.5,1327.4,1284.9,1326.5,1282.4z"/>
	
		<linearGradient id="SVGID_30_" gradientUnits="userSpaceOnUse" x1="7015.4063" y1="-1986.4021" x2="7087.4063" y2="-1780.4021" gradientTransform="matrix(1 0 0 -1 -7366.6201 1650)">
		<stop  offset="0" style="stop-color:#09005D"/>
		<stop  offset="1" style="stop-color:#1A0F91"/>
	</linearGradient>
	<path class="st34" d="M483.6,1310.8c0-0.3,0-0.6-0.1-0.9c-4.3-17.1-25.7-27.8-25.7-27.8l-8.5,0.7c-4.9,15.1-4.3,24.3-3.5,28.4
		c0,0.1,0.1,0.2,0.1,0.3C458.5,1312.6,471.1,1312.3,483.6,1310.8z"/>
	
		<linearGradient id="SVGID_31_" gradientUnits="userSpaceOnUse" x1="7907.8438" y1="397.9425" x2="7768.5137" y2="288.5526" gradientTransform="matrix(1 0 0 -1 -7366.6201 1650)">
		<stop  offset="0" style="stop-color:#53D8FF"/>
		<stop  offset="1" style="stop-color:#3840F7"/>
	</linearGradient>
	<path class="st35" d="M446,1311.7c0.3,1.3,1.4,2.4,2.7,2.7c10,2.1,25.8,0.4,32.4-0.5c1.5-0.3,2.6-1.6,2.6-3.1
		C471.2,1312.3,458.6,1312.6,446,1311.7z"/>
	
		<linearGradient id="SVGID_32_" gradientUnits="userSpaceOnUse" x1="490.8835" y1="719.0046" x2="446.8835" y2="656.0046" gradientTransform="matrix(1 0 0 -1 0 1650)">
		<stop  offset="0" style="stop-color:#FF928E"/>
		<stop  offset="1" style="stop-color:#FEB3B1"/>
	</linearGradient>
	<path class="st36" d="M412.4,1008.1c-5.2,5.6-13,10.4-18.4,13.4c8.1,10,19.1,20.1,33.6,29.9l4.2,9.3l13.3-16
		C445.1,1044.8,421.2,1032.9,412.4,1008.1z"/>
	
		<linearGradient id="SVGID_33_" gradientUnits="userSpaceOnUse" x1="7822.6157" y1="396.3782" x2="7815.3057" y2="332.5383" gradientTransform="matrix(1 0 0 -1 -7366.6201 1650)">
		<stop  offset="0" style="stop-color:#FF928E"/>
		<stop  offset="1" style="stop-color:#FEB3B1"/>
	</linearGradient>
	<path class="st37" d="M445.9,1270.3l3.6,17.3c0.2,1.2,1.2,2.2,2.4,2.3c1.9,0.2,3.7,0.2,5.6-0.1c1.9-0.4,3.2-2.2,2.8-4.1
		c0,0,0,0,0,0l-2.5-15.4H445.9z"/>
	
		<linearGradient id="SVGID_34_" gradientUnits="userSpaceOnUse" x1="7932.5645" y1="366.4597" x2="7793.2344" y2="257.0699" gradientTransform="matrix(1 0 0 -1 -7366.6201 1650)">
		<stop  offset="0" style="stop-color:#53D8FF"/>
		<stop  offset="1" style="stop-color:#3840F7"/>
	</linearGradient>
	<path class="st38" d="M520.4,1311.5c-9.4-0.3-14.2-1.4-16.7-2.4c0,0.9,0,1.9,0,2.9c0,1,0.8,1.8,1.8,1.9l51.4-0.3
		c1.3-0.1,2.3-1.2,2.1-2.5c0-0.3-0.1-0.6-0.3-0.9C552,1310.7,534.8,1311.9,520.4,1311.5z"/>
	
		<linearGradient id="SVGID_35_" gradientUnits="userSpaceOnUse" x1="7075.3271" y1="-2007.3422" x2="7147.3271" y2="-1801.3422" gradientTransform="matrix(1 0 0 -1 -7366.6201 1650)">
		<stop  offset="0" style="stop-color:#09005D"/>
		<stop  offset="1" style="stop-color:#1A0F91"/>
	</linearGradient>
	<path class="st39" d="M558.8,1310.1c-0.1-0.1-0.1-0.3-0.2-0.4c-4.5-6.3-16.1-19-39-24.5l-11-0.3c0,0-4.9,8.5-5,24.2
		c2.5,1,7.4,2.1,16.7,2.4C534.8,1311.9,552,1310.7,558.8,1310.1z"/>
	
		<linearGradient id="SVGID_36_" gradientUnits="userSpaceOnUse" x1="7882.1934" y1="389.5597" x2="7874.8833" y2="325.7096" gradientTransform="matrix(1 0 0 -1 -7366.6201 1650)">
		<stop  offset="0" style="stop-color:#FF928E"/>
		<stop  offset="1" style="stop-color:#FEB3B1"/>
	</linearGradient>
	<path class="st40" d="M506.6,1268.3c0.1,0.8,1.6,13.2,2.2,18.1c0.1,1.1,0.9,2,2,2.2c2.5,0.3,5,0.3,7.5-0.1c1.5-0.4,2.5-1.7,2.5-3.3
		v-19.5L506.6,1268.3z"/>
	
		<linearGradient id="SVGID_37_" gradientUnits="userSpaceOnUse" x1="428.1198" y1="491.4592" x2="523.796" y2="491.4592" gradientTransform="matrix(1 0 0 -1 0 1650)">
		<stop  offset="0" style="stop-color:#E1473D"/>
		<stop  offset="1" style="stop-color:#E9605A"/>
	</linearGradient>
	<path class="st41" d="M497.8,1041.5c0,0,26.5,100.6,26,227.1c0,2.3-1.6,4.3-3.9,4.8c-4,0.9-8.1,1.4-12.3,1.4
		c-2.2-0.1-4-1.7-4.3-3.8c-3.7-21.8-25-144.3-37.1-164.2c0,0-8,109.2-5.4,165.8c0.1,1.4-1,2.6-2.4,2.8c-3.3,0.4-6.6,0.4-9.9,0
		c-1.6-0.2-2.9-1.4-3.2-3c-2.6-18.4-17.9-128-17.2-207c0-4.4,11.8-23.8,11.8-23.8L497.8,1041.5z"/>
	
		<linearGradient id="SVGID_38_" gradientUnits="userSpaceOnUse" x1="7895.584" y1="836.1126" x2="7677.7441" y2="358.0926" gradientTransform="matrix(1 0 0 -1 -7366.6201 1650)">
		<stop  offset="0" style="stop-color:#FE7062"/>
		<stop  offset="1" style="stop-color:#FF928E"/>
	</linearGradient>
	<path class="st42" d="M584.3,825c-11.6,21.6-30.9,43.7-62.3,49.6c-29,5.5-81,12.2-101.9,14.8c-6.3,0.8-12.1,3.9-16.2,8.7
		c-16.4,19-52.5,71-10,123.5c5.4-3,13.1-7.8,18.4-13.4c-4.7-13.2-5.1-30.1,4.8-50.9c0.3,1.6,0.8,3.3,1.3,4.9
		c13.6,43,14.3,78.7,14.3,86.9c0,1.1,0.7,2.1,1.7,2.6c17.8,7.2,52.2,2.9,63.7,1.2c2.1-0.3,3.6-2.3,3.3-4.4
		c-5.7-41,23.4-108.4,31-125.3c1.1-2.5,3.1-4.5,5.6-5.6c43.9-19.8,62.9-50.4,70.7-77.9C601.9,830.6,591.5,826.7,584.3,825z"/>
	
		<linearGradient id="SVGID_39_" gradientUnits="userSpaceOnUse" x1="634.6412" y1="894.2051" x2="573.6412" y2="787.205" gradientTransform="matrix(1 0 0 -1 0 1650)">
		<stop  offset="0" style="stop-color:#FF928E"/>
		<stop  offset="1" style="stop-color:#FEB3B1"/>
	</linearGradient>
	<path class="st43" d="M608.6,839.6c9.4-33.3,2.1-62.3,2.1-62.3h-10c-2.9,16.6-8.4,32.7-16.4,47.7
		C591.5,826.7,601.9,830.6,608.6,839.6z"/>
	
		<linearGradient id="SVGID_40_" gradientUnits="userSpaceOnUse" x1="614.5214" y1="905.6749" x2="553.5214" y2="798.6749" gradientTransform="matrix(1 0 0 -1 0 1650)">
		<stop  offset="0" style="stop-color:#FF928E"/>
		<stop  offset="1" style="stop-color:#FEB3B1"/>
	</linearGradient>
	<path class="st44" d="M604.2,782.7c0,0-15.2-19.7-10.3-30s21.9-9.3,21.9-9.3l2.4,8c0.6,2.1,0.5,4.4-0.2,6.4l-9.4,24.8L604.2,782.7z
		"/>
	
		<linearGradient id="SVGID_41_" gradientUnits="userSpaceOnUse" x1="467.9002" y1="835.29" x2="460.9002" y2="687.29" gradientTransform="matrix(1 0 0 -1 0 1650)">
		<stop  offset="0" style="stop-color:#FF928E"/>
		<stop  offset="1" style="stop-color:#FEB3B1"/>
	</linearGradient>
	<path class="st45" d="M451,850l-3.4,35.1c0,0,19.8,6,34.1-4.2L471.6,849L451,850z"/>
	
		<linearGradient id="SVGID_42_" gradientUnits="userSpaceOnUse" x1="507.2665" y1="837.5593" x2="471.2665" y2="815.5593" gradientTransform="matrix(1 0 0 -1 0 1650)">
		<stop  offset="0" style="stop-color:#FF928E"/>
		<stop  offset="1" style="stop-color:#FEB3B1"/>
	</linearGradient>
	<path class="st46" d="M474,809.9c0.5,0.5,20.1,38.9,20.1,38.9l-22.2,10.7l-24-33.7C447.9,825.9,466,802.4,474,809.9z"/>
	
		<linearGradient id="SVGID_43_" gradientUnits="userSpaceOnUse" x1="473.8362" y1="931.1907" x2="471.8362" y2="892.1907" gradientTransform="matrix(1 0 0 -1 0 1650)">
		<stop  offset="0" style="stop-color:#E1473D"/>
		<stop  offset="1" style="stop-color:#E9605A"/>
	</linearGradient>
	<path class="st47" d="M457.7,826.8c-0.4,1-0.3,2.2,0.3,3.1l11.1,18.5c0.2,0.3,0.4,0.5,0.6,0.8c1.3,1.2,5.8,4.8,9.3-0.1
		c3-4.1,5.8-7.9,8.8-9.5c1.7-0.9,3.9-0.2,4.8,1.5c0,0,0,0,0,0c3,5.8,5.5,11.8,7.6,18c0.5,1.8-0.4,3.6-2.1,4.3
		c-4.5,1.8-13.4,5.1-21.3,6.2c-1.3,0.2-2.6-0.4-3.4-1.4c-3.4-4.7-13-17.7-16.2-20.9c-3-3-8.6-1.9-11.1-1.2c-1,0.3-2,0.1-2.8-0.4
		c-2.6-1.5-7-5.4-2.9-11.9c1-1.6,0.5-3.8-1.1-4.8c-2.9-1.9-6-5.4-3-11.1s8.3-6.3,12-5.9c1.6,0.2,3.2-0.7,3.9-2.2
		c0.3-0.8,1-1.3,1.8-1.4c1.9-0.3,3.1-2.1,2.8-4c-0.6-3.3-0.2-7.5,5.1-10.4c9.6-5.3,18,3.3,20.1,10.6s-8.6,12.4-15.3,13.2
		C461.5,818.6,458.8,824,457.7,826.8z"/>
	
		<linearGradient id="SVGID_44_" gradientUnits="userSpaceOnUse" x1="4397.5718" y1="-2361.0845" x2="4437.3218" y2="-2320.3145" gradientTransform="matrix(0.6854 -0.7281 -0.7281 -0.6854 -4277.8789 2489.3176)">
		<stop  offset="0" style="stop-color:#FF928E"/>
		<stop  offset="1" style="stop-color:#FEB3B1"/>
	</linearGradient>
	<path class="st48" d="M461.3,854.2c0,0-4.3-12.5-9.7-12s-9.8,5.9-3,12C457,861.8,461.3,854.2,461.3,854.2z"/>
	
		<linearGradient id="SVGID_45_" gradientUnits="userSpaceOnUse" x1="346.4745" y1="664.8243" x2="270.4745" y2="604.8242" gradientTransform="matrix(1 0 0 -1 0 1650)">
		<stop  offset="0" style="stop-color:#FE7062"/>
		<stop  offset="1" style="stop-color:#FF928E"/>
	</linearGradient>
	<path class="st49" d="M415.3,954c-7.2-19.7-4.6-43.4-4.5-43.7l2,0.2c0,0.2-2.6,23.5,4.5,42.8L415.3,954z"/>
	
		<linearGradient id="SVGID_46_" gradientUnits="userSpaceOnUse" x1="7837.876" y1="584.018" x2="7818.2559" y2="549.108" gradientTransform="matrix(1 0 0 -1 -7366.6201 1650)">
		<stop  offset="0" style="stop-color:#FE7062"/>
		<stop  offset="1" style="stop-color:#FF928E"/>
	</linearGradient>
	<path class="st50" d="M465.2,1104.2c-0.5,0-0.9-0.3-1-0.8c-2.2-8.5-18.6-17.8-18.8-17.8c-0.5-0.3-0.6-0.9-0.4-1.4s0.9-0.6,1.4-0.4
		c0.7,0.4,17.3,9.8,19.7,19.1c0.1,0.5-0.2,1.1-0.7,1.2c0,0,0,0,0,0C465.3,1104.2,465.3,1104.2,465.2,1104.2z"/>
	<path class="st51" d="M2287.9,480.2l-10.4-2.4c-2.8-0.7-5.1-2.6-6.2-5.3c-2.7-6.6-6.2-12.9-10.3-18.8c-1.7-2.3-2.1-5.4-1.1-8.1
		l3.6-10c1.5-4.2,0.2-8.9-3.3-11.8l-10.4-8.4c-3.5-2.8-8.4-3.1-12.2-0.7l-9,5.7c-2.4,1.5-5.5,1.8-8.1,0.6c-6.6-2.8-13.5-4.8-20.6-6
		c-2.8-0.5-5.3-2.3-6.5-4.9l-4.5-9.6c-1.9-4.1-6.2-6.5-10.6-6l-13.3,1.4c-4.5,0.5-8.1,3.7-9.1,8.1l-2.4,10.4
		c-0.7,2.8-2.6,5.1-5.3,6.2c-6.6,2.7-12.9,6.2-18.8,10.3c-2.3,1.7-5.4,2.1-8.1,1.1l-10-3.6c-4.2-1.5-8.9-0.2-11.8,3.3l-8.4,10.4
		c-2.8,3.5-3.1,8.4-0.7,12.2l5.7,9c1.5,2.4,1.8,5.5,0.6,8.1c-2.8,6.6-4.8,13.5-6,20.5c-0.5,2.8-2.3,5.3-4.9,6.5l-9.6,4.5
		c-4.1,1.9-6.5,6.2-6,10.6l1.4,13.3c0.5,4.5,3.7,8.1,8.1,9.1l10.4,2.4c2.8,0.7,5.1,2.6,6.2,5.3c2.7,6.6,6.1,12.9,10.3,18.8
		c1.7,2.3,2.1,5.4,1.1,8.1l-3.6,10c-1.5,4.2-0.2,8.9,3.3,11.8l10.5,8.4c3.5,2.8,8.4,3.1,12.2,0.7l9-5.7c2.4-1.5,5.5-1.8,8.1-0.6
		c6.6,2.8,13.5,4.8,20.5,6c2.8,0.5,5.3,2.3,6.5,4.9l4.5,9.6c1.9,4.1,6.2,6.5,10.6,6l13.3-1.4c4.5-0.5,8.1-3.7,9.1-8.1l2.4-10.4
		c0.6-2.8,2.6-5.1,5.3-6.2c6.6-2.7,12.9-6.1,18.8-10.3c2.3-1.7,5.4-2.1,8.1-1.1l10,3.6c4.2,1.5,8.9,0.2,11.8-3.3l8.4-10.4
		c2.8-3.5,3.1-8.4,0.7-12.2l-5.7-9c-1.5-2.4-1.8-5.5-0.6-8.1c2.8-6.6,4.8-13.5,6-20.5c0.5-2.8,2.3-5.3,4.9-6.5l9.6-4.5
		c4.1-1.9,6.5-6.2,6-10.6l-1.5-13.3C2295.5,484.9,2292.3,481.2,2287.9,480.2z M2200.1,584.5c-42.1,8.9-83.5-18-92.4-60.1
		s18-83.5,60.1-92.4c42.1-8.9,83.5,18,92.4,60.1C2269.1,534.2,2242.2,575.5,2200.1,584.5C2200.1,584.5,2200.1,584.5,2200.1,584.5
		L2200.1,584.5z M2233.6,507.3c0,27.9-22.6,50.5-50.5,50.5s-50.5-22.6-50.5-50.5s22.6-50.5,50.5-50.5
		C2211,456.8,2233.6,479.4,2233.6,507.3C2233.6,507.3,2233.6,507.3,2233.6,507.3L2233.6,507.3z"/>
	<path class="st51" d="M2311.6,673.3l-7.5-1.7c-2-0.5-3.7-1.9-4.5-3.8c-2-4.8-4.5-9.4-7.5-13.6c-1.2-1.7-1.5-3.9-0.8-5.9l2.7-7.3
		c1.1-3.1,0.1-6.5-2.4-8.5l-7.6-6.1c-2.5-2-6.1-2.3-8.9-0.5l-6.5,4.1c-1.8,1.1-4,1.3-5.9,0.5c-4.8-2-9.8-3.5-14.9-4.4
		c-2.1-0.3-3.8-1.7-4.7-3.5l-3.3-7c-1.4-2.9-4.5-4.7-7.7-4.3l-9.7,1c-3.2,0.3-5.9,2.7-6.6,5.9l-1.7,7.5c-0.5,2-1.9,3.7-3.8,4.5
		c-4.8,2-9.4,4.5-13.6,7.5c-1.7,1.2-3.9,1.5-5.9,0.8l-7.3-2.6c-3.1-1.1-6.5-0.1-8.5,2.4l-6.1,7.6c-2,2.5-2.2,6.1-0.5,8.8l4.1,6.5
		c1.1,1.8,1.3,4,0.5,5.9c-2,4.8-3.5,9.8-4.4,14.9c-0.3,2.1-1.7,3.8-3.6,4.7l-7,3.3c-2.9,1.4-4.7,4.5-4.3,7.7l1,9.7
		c0.3,3.2,2.7,5.9,5.9,6.6l7.5,1.7c2,0.5,3.7,1.9,4.5,3.8c2,4.8,4.5,9.4,7.5,13.6c1.2,1.7,1.5,3.9,0.8,5.8l-2.6,7.3
		c-1.1,3.1-0.1,6.5,2.4,8.5l7.6,6.1c2.5,2,6.1,2.2,8.9,0.5l6.5-4.1c1.8-1.1,4-1.3,5.9-0.5c4.8,2,9.8,3.5,14.9,4.4
		c2.1,0.3,3.8,1.7,4.7,3.6l3.3,7c1.4,2.9,4.5,4.7,7.7,4.3l9.7-1c3.2-0.3,5.9-2.7,6.6-5.9l1.7-7.5c0.5-2,1.9-3.7,3.8-4.5
		c4.8-2,9.4-4.5,13.6-7.5c1.7-1.2,3.9-1.5,5.9-0.8l7.3,2.6c3.1,1.1,6.5,0.1,8.5-2.4l6.1-7.6c2-2.5,2.2-6.1,0.5-8.8l-4.1-6.5
		c-1.1-1.8-1.3-4-0.4-5.9c2-4.8,3.5-9.8,4.4-14.9c0.3-2.1,1.7-3.8,3.6-4.7l7-3.3c2.9-1.4,4.7-4.5,4.3-7.7l-1-9.7
		C2317.2,676.7,2314.8,674.1,2311.6,673.3z M2247.8,749c-30.6,6.5-60.6-13-67.1-43.6c-6.5-30.6,13-60.6,43.6-67.1
		c30.6-6.5,60.6,13,67.1,43.6C2297.9,712.5,2278.4,742.5,2247.8,749L2247.8,749z M2276.6,691.3c0,22.4-18.1,40.5-40.5,40.5
		s-40.5-18.1-40.5-40.5s18.1-40.5,40.5-40.5C2258.5,650.8,2276.6,668.9,2276.6,691.3C2276.6,691.3,2276.6,691.3,2276.6,691.3
		L2276.6,691.3z"/>
	<path class="st51" d="M2128.6,723.2l-6.5-7.7c-1.7-2.1-2.3-4.9-1.6-7.5c1.8-6.6,2.8-13.3,3-20.1c0.1-2.7,1.5-5.2,3.8-6.7l8.5-5.5
		c3.6-2.3,5.3-6.6,4.3-10.8l-3.1-12.3c-1-4.1-4.6-7.1-8.8-7.5l-10-0.9c-2.7-0.3-5.1-1.8-6.5-4.2c-3.4-5.9-7.4-11.4-12.1-16.3
		c-1.9-2-2.6-4.8-2.1-7.4l2.1-9.9c0.9-4.2-1-8.4-4.6-10.6l-11-6.5c-3.6-2.2-8.3-1.8-11.5,0.9l-7.7,6.5c-2.1,1.7-4.9,2.3-7.5,1.6
		c-6.6-1.8-13.3-2.8-20.1-3c-2.7-0.1-5.2-1.5-6.7-3.8l-5.4-8.4c-2.3-3.6-6.6-5.3-10.8-4.3l-12.3,3.1c-4.1,1-7.1,4.6-7.5,8.8l-0.9,10
		c-0.3,2.7-1.8,5.1-4.2,6.5c-5.9,3.4-11.4,7.4-16.3,12.1c-2,1.9-4.8,2.6-7.4,2.1l-9.9-2.1c-4.2-0.9-8.4,1-10.6,4.6l-6.5,10.9
		c-2.2,3.6-1.8,8.3,0.9,11.5l6.5,7.7c1.7,2.1,2.3,4.9,1.6,7.5c-1.8,6.6-2.8,13.3-3,20.1c-0.1,2.7-1.5,5.2-3.8,6.7l-8.5,5.5
		c-3.6,2.3-5.3,6.6-4.3,10.8l3.1,12.3c1,4.1,4.6,7.1,8.8,7.5l10,0.9c2.7,0.3,5.1,1.8,6.5,4.2c3.4,5.9,7.4,11.4,12,16.3
		c1.9,2,2.6,4.8,2.1,7.4l-2.1,9.9c-0.9,4.2,1,8.4,4.6,10.6l10.9,6.5c3.6,2.2,8.3,1.8,11.5-0.9l7.7-6.5c2.1-1.7,4.9-2.3,7.5-1.6
		c6.6,1.8,13.3,2.8,20.1,3c2.7,0.1,5.2,1.5,6.7,3.8l5.5,8.5c2.3,3.6,6.6,5.3,10.8,4.3l12.3-3.1c4.1-1,7.1-4.6,7.5-8.8l0.9-10
		c0.3-2.7,1.8-5.1,4.2-6.5c5.9-3.4,11.4-7.5,16.3-12.1c2-1.9,4.8-2.6,7.4-2.1l9.9,2.1c4.2,0.9,8.4-1,10.6-4.6l6.6-10.9
		C2131.6,731.1,2131.3,726.5,2128.6,723.2z M2002.5,751.5c-36.9-17.4-52.7-61.4-35.3-98.3s61.4-52.7,98.3-35.3
		c36.9,17.4,52.7,61.4,35.3,98.3C2083.4,753.1,2039.4,768.9,2002.5,751.5C2002.5,751.5,2002.5,751.5,2002.5,751.5L2002.5,751.5z"/>
	<path class="st51" d="M652.4,1534.6H272.8c-12.1,0-21.9-5.4-21.9-12v-200.8c0-6.6,9.8-12,21.9-12l382.7-0.6c12.2,0,22,5.4,22,12.1
		l-3,201.4C674.3,1529.2,664.5,1534.6,652.4,1534.6z"/>
	<path class="st6" d="M633.8,1324.6l-339.5,1.2c-12.3,0-22.2,5.5-22.1,12.2l2.4,168.9c0,6.6,9.8,12,21.8,12.1l329.9,3.3
		c12.3,0.1,22.5-5.3,22.7-12l7.3-173.3C656.4,1330.1,646.3,1324.5,633.8,1324.6z"/>
	<path class="st3" d="M620,1340.2v1.3c0,2-3,3.6-6.7,3.6H351.8c-3.7,0-6.6-1.6-6.6-3.6v-1.3c0-2,3-3.7,6.6-3.7h261.6
		C617,1336.6,620,1338.2,620,1340.2z"/>
	<path class="st3" d="M590.8,1356.3L590.8,1356.3c-0.2,1.9-3,3.4-6.5,3.4l-228.8,2.3c-3.7,0-6.8-1.6-6.8-3.6v-0.3
		c0-2,2.9-3.6,6.5-3.6l228.8-2C587.9,1352.5,591,1354.2,590.8,1356.3z"/>
	<path class="st3" d="M614.2,1515.2H614l-309.4-2c-7,0-13.3-2.3-16.8-5.9c-2-1.9-3-4.5-3-7.2l8-119.4c0.3-7.1,9-12.5,20.3-12.4
		l308.9,3.3c7,0.1,13.2,2.3,16.7,5.9c1.9,1.9,3,4.5,3,7.2c0,0,0,0.1,0,0.1l-7.4,118C633.9,1509.8,625.3,1515.2,614.2,1515.2z
		 M312.7,1376.6c-7.4,0-11.5,3.1-11.6,4.4l-8,119.4c0,0.3,0.5,0.8,0.6,1c1.6,1.6,5.5,3.3,10.8,3.3l309.4,2h0.2
		c7.5,0,11.6-3.2,11.6-4.4l7.4-118c-0.1-0.4-0.3-0.8-0.6-1.1c-1.6-1.6-5.5-3.3-10.7-3.3l-308.8-3.2H312.7z M637.4,1384.5
		L637.4,1384.5z"/>
	<path class="st3" d="M633.4,1399.6h-337c-2.3-0.1-4.1-2.1-4-4.4c0.1-2.2,1.8-3.9,4-4h337c2.3,0.1,4.1,2.1,4,4.4
		C637.3,1397.8,635.5,1399.5,633.4,1399.6z"/>
	<path class="st51" d="M907.8,1534.6H490.7c-13.3,0-24.1-3.6-24.1-8v-134.4c0-4.4,10.8-8,24-8l420.5-0.4c13.4,0,24.2,3.6,24.2,8.1
		l-3.3,134.8C931.9,1531,921.1,1534.6,907.8,1534.6z"/>
	<path class="st3" d="M887.4,1394l-373,0.8c-13.5,0-24.4,3.7-24.3,8.2l2.6,113c0.1,4.4,10.7,8,24,8.1l362.4,2.2
		c13.5,0.1,24.7-3.5,24.9-8l8-116C912.2,1397.7,901.1,1394,887.4,1394z"/>
	
		<linearGradient id="SVGID_47_" gradientUnits="userSpaceOnUse" x1="570.23" y1="245.0905" x2="872.24" y2="245.0905" gradientTransform="matrix(1 0 0 -1 0 1650)">
		<stop  offset="0" style="stop-color:#DAE3FE"/>
		<stop  offset="1" style="stop-color:#E9EFFD"/>
	</linearGradient>
	<path class="st52" d="M872.2,1404.5v0.9c0,1.3-3.3,2.4-7.3,2.4H577.5c-4,0-7.3-1.1-7.3-2.4v-0.9c0-1.3,3.3-2.4,7.3-2.4h287.4
		C869,1402,872.2,1403.1,872.2,1404.5z"/>
	
		<linearGradient id="SVGID_48_" gradientUnits="userSpaceOnUse" x1="574.23" y1="234.0949" x2="840.181" y2="234.0949" gradientTransform="matrix(1 0 0 -1 0 1650)">
		<stop  offset="0" style="stop-color:#DAE3FE"/>
		<stop  offset="1" style="stop-color:#E9EFFD"/>
	</linearGradient>
	<path class="st53" d="M840.2,1415.3L840.2,1415.3c-0.2,1.3-3.3,2.3-7.2,2.3l-251.3,1.5c-4.1,0-7.4-1.1-7.4-2.4v-0.2
		c0-1.3,3.2-2.4,7.2-2.4l251.3-1.3C837,1412.7,840.4,1413.9,840.2,1415.3z"/>
	
		<linearGradient id="SVGID_49_" gradientUnits="userSpaceOnUse" x1="504.3307" y1="177.5917" x2="895.5154" y2="177.5917" gradientTransform="matrix(1 0 0 -1 0 1650)">
		<stop  offset="0" style="stop-color:#DAE3FE"/>
		<stop  offset="1" style="stop-color:#E9EFFD"/>
	</linearGradient>
	<path class="st54" d="M865.8,1523h-0.2l-339.9-1.4c-3.4,0-14.8-0.4-19.4-5.4c-1.3-1.3-2-3.1-1.9-5c0-0.1,0-0.2,0-0.2l8.7-79.7
		c0.5-7.1,12.1-9.6,21.9-9.5l339.3,2.2c3.3,0,14.6,0.5,19.3,5.4c1.3,1.3,2,3.1,1.9,4.9c0,0.1,0,0.1,0,0.2l-8.2,79
		C887,1520.4,875.6,1523,865.8,1523z M512.8,1510.9c1.4,0.9,5.7,2.4,12.9,2.4l339.9,1.4h0.2c7.1,0,11.9-1.6,13.3-2.5l8-77.2
		c-1.4-0.9-5.6-2.4-12.8-2.4l-339.4-2.2c-7.3,0-12.2,1.5-13.6,2.5L512.8,1510.9z M879,1512.7c0,0.1,0,0.2,0,0.2V1512.7z
		 M891.4,1434.2L891.4,1434.2z M521.5,1432L521.5,1432z"/>
	
		<linearGradient id="SVGID_50_" gradientUnits="userSpaceOnUse" x1="512.53" y1="208.58" x2="891.13" y2="208.58" gradientTransform="matrix(1 0 0 -1 0 1650)">
		<stop  offset="0" style="stop-color:#DAE3FE"/>
		<stop  offset="1" style="stop-color:#E9EFFD"/>
	</linearGradient>
	<path class="st55" d="M886.9,1445.6H516.7c-2.3,0-4.2-1.9-4.2-4.2c0-2.3,1.9-4.2,4.2-4.2h370.2c2.3,0,4.2,1.9,4.2,4.2
		C891.1,1443.7,889.3,1445.6,886.9,1445.6z"/>
	
		<linearGradient id="SVGID_51_" gradientUnits="userSpaceOnUse" x1="2191.6499" y1="1218.4355" x2="2131.05" y2="1093.5155" gradientTransform="matrix(0.987 0.1607 0.1607 -0.987 -230.8173 1927.5405)">
		<stop  offset="0" style="stop-color:#09005D"/>
		<stop  offset="1" style="stop-color:#1A0F91"/>
	</linearGradient>
	<path class="st56" d="M2011.7,1182.5c-0.3,0.6-19.8,14.9-19.8,14.9s4.3,30.8,21.8,42.9c19.2,13.4,46.4-11,46.4-11
		s21.6,5.1,33.1-39.8c2.6-10.3-12.6-11.2-30.9-9.3C2038.5,1182.7,2011.7,1182.5,2011.7,1182.5z"/>
	
		<linearGradient id="SVGID_52_" gradientUnits="userSpaceOnUse" x1="2041.3376" y1="292.09" x2="2041.3376" y2="22.99" gradientTransform="matrix(1 0 0 -1 0 1650)">
		<stop  offset="0" style="stop-color:#FE7062"/>
		<stop  offset="1" style="stop-color:#FF928E"/>
	</linearGradient>
	<path class="st57" d="M1975.3,1287.5c7.6-5.3,16.1-9.2,25-11.6c3.3-0.9,21.5,4.3,32.7,4.1c15.4-0.4,31-7.4,43.7-4.2
		s22.9,7.2,28.9,11.5c17.8,12.7,28.3,36.3,34.6,59.7c-7.8,7.7-17.1,13.8-27.3,17.9l-2.8,113.8l-67.3,34.4l-76.8-38.5l2.8-111.2
		c0,0-24.4-11.3-26.2-15.5S1953.8,1302.3,1975.3,1287.5z"/>
	
		<linearGradient id="SVGID_53_" gradientUnits="userSpaceOnUse" x1="1927.1097" y1="327.0199" x2="2054.9197" y2="18.2699" gradientTransform="matrix(1 0 0 -1 0 1650)">
		<stop  offset="0" style="stop-color:#FF928E"/>
		<stop  offset="1" style="stop-color:#FEB3B1"/>
	</linearGradient>
	<path class="st58" d="M1943.8,1347.3c0,0-32.7,90.6,41.8,127.8c15.5-2.1,9.5-27.8,9.5-27.8s-32.4-7.2-22.7-82.7
		C1963.6,1357.3,1943.8,1347.3,1943.8,1347.3z"/>
	
		<linearGradient id="SVGID_54_" gradientUnits="userSpaceOnUse" x1="-5732.0459" y1="422.5715" x2="-5604.2363" y2="113.8315" gradientTransform="matrix(-1 0 0 -1 -3539.0698 1650)">
		<stop  offset="0" style="stop-color:#FF928E"/>
		<stop  offset="1" style="stop-color:#FEB3B1"/>
	</linearGradient>
	<path class="st59" d="M2138.6,1347.3c0,0,22.5,94.6-41.8,127.8c-15.5-2.1-9.5-27.8-9.5-27.8s26.1-12.8,22.6-82.7
		C2118.9,1357.3,2138.6,1347.3,2138.6,1347.3z"/>
	
		<linearGradient id="SVGID_55_" gradientUnits="userSpaceOnUse" x1="2097.5513" y1="285.019" x2="2015.5511" y2="191.6889" gradientTransform="matrix(1 0 0 -1 0 1650)">
		<stop  offset="0" style="stop-color:#09005D"/>
		<stop  offset="1" style="stop-color:#1A0F91"/>
	</linearGradient>
	<path class="st60" d="M1973.5,1381.9h130.8c4.6,0,8.3,3.7,8.3,8.3v83c0,4.6-3.7,8.3-8.3,8.3h-130.8c-4.6,0-8.3-3.7-8.3-8.3v-83
		C1965.2,1385.6,1968.9,1381.9,1973.5,1381.9z"/>
	
		<linearGradient id="SVGID_56_" gradientUnits="userSpaceOnUse" x1="2269.2876" y1="67.1652" x2="1928.6274" y2="234.4952" gradientTransform="matrix(1 0 0 -1 0 1650)">
		<stop  offset="0" style="stop-color:#4042E2"/>
		<stop  offset="1" style="stop-color:#4F52FF"/>
	</linearGradient>
	<path class="st61" d="M2177.4,1511c-16.9-3.9-55.9-1.8-55.9-1.8l-1.6,4.3l-2.6,21.4c0,0,37.1,6.7,55.5,6.7c1.7,0,3.5-0.3,5.1-0.8
		c0.6-0.5,1.1-1,1.6-1.6C2187.3,1530.7,2185,1518.3,2177.4,1511z"/>
	
		<linearGradient id="SVGID_57_" gradientUnits="userSpaceOnUse" x1="2163.4595" y1="251.1402" x2="2089.7295" y2="51.4401" gradientTransform="matrix(1 0 0 -1 0 1650)">
		<stop  offset="0" style="stop-color:#FF928E"/>
		<stop  offset="1" style="stop-color:#FEB3B1"/>
	</linearGradient>
	<path class="st62" d="M2110.3,1508l6.6,0.3c3.6,0.2,7,1.9,9.3,4.8c2.4,3,3.6,6.8,3.4,10.7c-0.1,3.1-1.4,6-3.6,8.2
		c-2,2-4.8,3.1-7.7,2.9l-10.1-0.7L2110.3,1508z"/>
	
		<linearGradient id="SVGID_58_" gradientUnits="userSpaceOnUse" x1="1885.9756" y1="108.2948" x2="2055.3057" y2="213.6249" gradientTransform="matrix(1 0 0 -1 0 1650)">
		<stop  offset="0" style="stop-color:#4042E2"/>
		<stop  offset="1" style="stop-color:#4F52FF"/>
	</linearGradient>
	<path class="st63" d="M1888.2,1509c17-3.3,55.9-0.1,55.9-0.1l1.5,4.3l2.1,21.4c0,0-37.3,5.6-55.6,5c-1.7,0-3.5-0.4-5.1-0.9
		c-0.6-0.5-1.1-1.1-1.6-1.6C1877.8,1528.4,1880.3,1516,1888.2,1509z"/>
	
		<linearGradient id="SVGID_59_" gradientUnits="userSpaceOnUse" x1="2015.7281" y1="311.3243" x2="1941.9681" y2="111.5244" gradientTransform="matrix(1 0 0 -1 0 1650)">
		<stop  offset="0" style="stop-color:#FF928E"/>
		<stop  offset="1" style="stop-color:#FEB3B1"/>
	</linearGradient>
	<path class="st64" d="M1955.3,1508l-6.6,0.1c-3.6,0.1-7.1,1.7-9.4,4.5c-2.5,3-3.8,6.7-3.7,10.6c0.1,3.1,1.3,6,3.4,8.3
		c2,2.1,4.8,3.3,7.7,3.2l10.1-0.4L1955.3,1508z"/>
	
		<linearGradient id="SVGID_60_" gradientUnits="userSpaceOnUse" x1="2072.9661" y1="164.9329" x2="2244.9661" y2="313.6029" gradientTransform="matrix(1 0 0 -1 0 1650)">
		<stop  offset="0" style="stop-color:#4042E2"/>
		<stop  offset="1" style="stop-color:#4F52FF"/>
	</linearGradient>
	<path class="st65" d="M2182.1,1444.1c-7.6-17.6-26.4-20.5-42.3-12.2c-0.3,0.4-101.2,52.1-190.2,74.8c2.5,8.2,3.9,16.8,4.1,25.4
		c0,1.9,0,3.8-0.1,5.6c68.3-3.5,142.3-26.3,206-46.3C2179.4,1485,2190.6,1463.6,2182.1,1444.1z"/>
	
		<linearGradient id="SVGID_61_" gradientUnits="userSpaceOnUse" x1="2002.9948" y1="318.7201" x2="2004.3247" y2="238.0601" gradientTransform="matrix(1 0 0 -1 0 1650)">
		<stop  offset="0" style="stop-color:#4042E2"/>
		<stop  offset="1" style="stop-color:#4F52FF"/>
	</linearGradient>
	<path class="st66" d="M2110.8,1533.3c-0.3-9.5,1.6-18.9,5.7-27.5c0.1-0.4,0.3-0.8,0.4-1.1c-5.1-1.6-11.6-3.7-20.3-6.6
		c-63.2-21.6-111.4-43.5-157.4-68.6c-17.9-9.8-38.2-3.2-43.9,17.9c-5.1,18.9,6.1,35,23.1,40.7c50.9,17,24.4,12.2,41,17.6
		c44.7,13.8,100.3,26.4,151.4,29.8C2110.8,1534.7,2110.8,1534,2110.8,1533.3z"/>
	
		<linearGradient id="SVGID_62_" gradientUnits="userSpaceOnUse" x1="2039.2373" y1="401.7498" x2="2035.9073" y2="280.4198" gradientTransform="matrix(1 0 0 -1 0 1650)">
		<stop  offset="0" style="stop-color:#FF928E"/>
		<stop  offset="1" style="stop-color:#FEB3B1"/>
	</linearGradient>
	<path class="st67" d="M2000.3,1275.9c0,0,6.8,29.4,39.8,28.8c33.6-0.6,36.6-28.9,36.6-28.9l-22-4.7l-1.8-24.5l-33,2.4l-0.6,23.2
		L2000.3,1275.9z"/>
	
		<linearGradient id="SVGID_63_" gradientUnits="userSpaceOnUse" x1="2046.2699" y1="469.0018" x2="2040.9298" y2="380.3418" gradientTransform="matrix(1 0 0 -1 0 1650)">
		<stop  offset="0" style="stop-color:#FF928E"/>
		<stop  offset="1" style="stop-color:#FEB3B1"/>
	</linearGradient>
	<path class="st68" d="M2024.5,1177.3c0,0-37.8,73.3,7,91.1c31.7,12.5,51.5-48.7,45.6-65.3c-9.2-25.6-15.2-22.6-15.2-22.6
		L2024.5,1177.3z"/>
	
		<linearGradient id="SVGID_64_" gradientUnits="userSpaceOnUse" x1="2119.6997" y1="599.0944" x2="2092.3599" y2="551.0944" gradientTransform="matrix(1 0 0 -1 0 1650)">
		<stop  offset="0" style="stop-color:#09005D"/>
		<stop  offset="1" style="stop-color:#1A0F91"/>
	</linearGradient>
	<path class="st69" d="M2086.3,1170.7c18.7,5.1,2.7,45.7-25.4,36.1s-39.2-9.4-43.6-1.7s-5.3,35.2-14.8,21.6
		c-10.4-14.9-16.3-44.7-3.5-54.4c11.4-8.6,14.1-21.9,27.8-21.5c18.2,0.6,32.3-7.5,40.5-1.6
		C2076.7,1155.9,2072.5,1166.9,2086.3,1170.7z"/>
	
		<linearGradient id="SVGID_65_" gradientUnits="userSpaceOnUse" x1="2013.563" y1="470.9698" x2="2008.2329" y2="382.2999" gradientTransform="matrix(1 0 0 -1 0 1650)">
		<stop  offset="0" style="stop-color:#FF928E"/>
		<stop  offset="1" style="stop-color:#FEB3B1"/>
	</linearGradient>
	<path class="st70" d="M2015.5,1211.3c0,0-8.1-8.7-9.4,1.8s2.9,23.9,7.7,16.6S2015.5,1211.3,2015.5,1211.3z"/>
	
		<linearGradient id="SVGID_66_" gradientUnits="userSpaceOnUse" x1="2029.1669" y1="239.9933" x2="2047.7705" y2="239.9933" gradientTransform="matrix(1 0 0 -1 0 1650)">
		<stop  offset="0" style="stop-color:#4042E2"/>
		<stop  offset="1" style="stop-color:#4F52FF"/>
	</linearGradient>
	<path class="st71" d="M2047.6,1408.8c0.8,5.3-2.1,10.1-7.3,10.9c-5.3,0.8-10.2-2.9-11-8.2c0,0,0,0,0,0c-0.8-5.3,1.6-10.5,6.9-11.3
		C2041.7,1399.6,2046.7,1403.4,2047.6,1408.8z"/>
</g>
</svg>
