<svg xmlns="http://www.w3.org/2000/svg" xmlns:xlink="http://www.w3.org/1999/xlink" viewBox="0 0 2475 1650"><defs><style>.cls-1{fill:#fff;}.cls-2{fill:url(#linear-gradient);}.cls-3{fill:#bdd0fb;}.cls-4{fill:url(#linear-gradient-2);}.cls-5{fill:url(#linear-gradient-3);}.cls-6{fill:#91b3fa;}.cls-7{fill:url(#linear-gradient-4);}.cls-8{fill:url(#linear-gradient-5);}.cls-9{fill:url(#linear-gradient-6);}.cls-10{fill:url(#linear-gradient-7);}.cls-11{opacity:0.22;}.cls-12{fill:url(#linear-gradient-8);}.cls-13{fill:url(#linear-gradient-9);}.cls-14{fill:url(#linear-gradient-10);}.cls-15{fill:url(#linear-gradient-11);}.cls-16{fill:url(#linear-gradient-12);}.cls-17{fill:url(#linear-gradient-13);}.cls-18{fill:url(#linear-gradient-14);}.cls-19{fill:url(#linear-gradient-15);}.cls-20{fill:url(#linear-gradient-16);}.cls-21{fill:url(#linear-gradient-17);}.cls-22{fill:url(#linear-gradient-18);}.cls-23{fill:url(#linear-gradient-19);}.cls-24{fill:url(#linear-gradient-20);}.cls-25{fill:url(#linear-gradient-21);}.cls-26{fill:url(#linear-gradient-22);}.cls-27{fill:url(#linear-gradient-23);}.cls-28{fill:url(#linear-gradient-24);}.cls-29{fill:url(#linear-gradient-25);}.cls-30{fill:url(#linear-gradient-26);}.cls-31{fill:url(#linear-gradient-27);}.cls-32{fill:url(#linear-gradient-28);}.cls-33{fill:url(#linear-gradient-29);}.cls-34{fill:url(#linear-gradient-30);}.cls-35{fill:url(#linear-gradient-31);}.cls-36{fill:url(#linear-gradient-32);}.cls-37{fill:url(#linear-gradient-33);}.cls-38{fill:url(#linear-gradient-34);}.cls-39{fill:url(#linear-gradient-35);}.cls-40{fill:url(#linear-gradient-36);}.cls-41{fill:url(#linear-gradient-37);}.cls-42{fill:url(#linear-gradient-38);}.cls-43{fill:url(#linear-gradient-39);}.cls-44{fill:url(#linear-gradient-40);}.cls-45{fill:url(#linear-gradient-41);}.cls-46{fill:url(#linear-gradient-42);}.cls-47{fill:url(#linear-gradient-43);}.cls-48{fill:url(#linear-gradient-44);}.cls-49{fill:url(#linear-gradient-45);}.cls-50{fill:url(#linear-gradient-46);}.cls-51{fill:#7d97f4;}.cls-52{fill:url(#linear-gradient-47);}.cls-53{fill:url(#linear-gradient-48);}.cls-54{fill:url(#linear-gradient-49);}.cls-55{fill:url(#linear-gradient-50);}.cls-56{fill:url(#linear-gradient-51);}.cls-57{fill:url(#linear-gradient-52);}.cls-58{fill:url(#linear-gradient-53);}.cls-59{fill:url(#linear-gradient-54);}.cls-60{fill:url(#linear-gradient-55);}.cls-61{fill:url(#linear-gradient-56);}.cls-62{fill:url(#linear-gradient-57);}.cls-63{fill:url(#linear-gradient-58);}.cls-64{fill:url(#linear-gradient-59);}.cls-65{fill:url(#linear-gradient-60);}.cls-66{fill:url(#linear-gradient-61);}.cls-67{fill:url(#linear-gradient-62);}.cls-68{fill:url(#linear-gradient-63);}.cls-69{fill:url(#linear-gradient-64);}.cls-70{fill:url(#linear-gradient-65);}.cls-71{fill:url(#linear-gradient-66);}</style><linearGradient id="linear-gradient" x1="234.25" y1="835.59" x2="2354" y2="835.59" gradientUnits="userSpaceOnUse"><stop offset="0" stop-color="#dae3fe"/><stop offset="1" stop-color="#e9effd"/></linearGradient><linearGradient id="linear-gradient-2" x1="1773.63" y1="618.32" x2="1935.65" y2="618.32" xlink:href="#linear-gradient"/><linearGradient id="linear-gradient-3" x1="1680.06" y1="799.02" x2="2208.46" y2="799.02" xlink:href="#linear-gradient"/><linearGradient id="linear-gradient-4" x1="594.82" y1="534.35" x2="681.4" y2="534.35" xlink:href="#linear-gradient"/><linearGradient id="linear-gradient-5" x1="269.03" y1="1234.48" x2="685.04" y2="1234.48" xlink:href="#linear-gradient"/><linearGradient id="linear-gradient-6" x1="1113.39" y1="1425.6" x2="1463.49" y2="375.29" gradientUnits="userSpaceOnUse"><stop offset="0" stop-color="#09005d"/><stop offset="1" stop-color="#1a0f91"/></linearGradient><linearGradient id="linear-gradient-7" x1="911.98" y1="1289.13" x2="2115.1" y2="404.04" gradientUnits="userSpaceOnUse"><stop offset="0" stop-color="#4042e2"/><stop offset="1" stop-color="#4f52ff"/></linearGradient><linearGradient id="linear-gradient-8" x1="1268.76" y1="1111.25" x2="1265.76" y2="1345.27" xlink:href="#linear-gradient-6"/><linearGradient id="linear-gradient-9" x1="1178.29" y1="277.82" x2="869.26" y2="811.87" gradientUnits="userSpaceOnUse"><stop offset="0" stop-color="#fe7062"/><stop offset="1" stop-color="#ff928e"/></linearGradient><linearGradient id="linear-gradient-10" x1="899.35" y1="-191.15" x2="881.35" y2="321.9" gradientUnits="userSpaceOnUse"><stop offset="0" stop-color="#ff928e"/><stop offset="1" stop-color="#feb3b1"/></linearGradient><linearGradient id="linear-gradient-11" x1="926.91" y1="-190.19" x2="908.9" y2="322.86" xlink:href="#linear-gradient-10"/><linearGradient id="linear-gradient-12" x1="965.95" y1="-188.82" x2="947.94" y2="324.23" xlink:href="#linear-gradient-10"/><linearGradient id="linear-gradient-13" x1="975.18" y1="-188.49" x2="957.17" y2="324.56" xlink:href="#linear-gradient-10"/><linearGradient id="linear-gradient-14" x1="1588.12" y1="-166.99" x2="1570.12" y2="346.06" xlink:href="#linear-gradient-10"/><linearGradient id="linear-gradient-15" x1="1704.96" y1="-162.89" x2="1686.96" y2="350.16" xlink:href="#linear-gradient-10"/><linearGradient id="linear-gradient-16" x1="1620.22" y1="-165.86" x2="1602.22" y2="347.19" xlink:href="#linear-gradient-10"/><linearGradient id="linear-gradient-17" x1="1851.27" y1="-157.75" x2="1833.27" y2="355.3" xlink:href="#linear-gradient-10"/><linearGradient id="linear-gradient-18" x1="1660.55" y1="-164.45" x2="1642.55" y2="348.61" xlink:href="#linear-gradient-10"/><linearGradient id="linear-gradient-19" x1="1909.57" y1="-155.71" x2="1891.56" y2="357.34" xlink:href="#linear-gradient-10"/><linearGradient id="linear-gradient-20" x1="687.18" y1="-198.6" x2="669.18" y2="314.45" xlink:href="#linear-gradient-10"/><linearGradient id="linear-gradient-21" x1="859.03" y1="-192.57" x2="841.03" y2="320.48" xlink:href="#linear-gradient-10"/><linearGradient id="linear-gradient-22" x1="729.95" y1="-197.1" x2="711.95" y2="315.95" xlink:href="#linear-gradient-10"/><linearGradient id="linear-gradient-23" x1="1657.95" y1="-164.54" x2="1639.94" y2="348.52" xlink:href="#linear-gradient-10"/><linearGradient id="linear-gradient-24" x1="953.41" y1="-189.25" x2="935.41" y2="323.8" xlink:href="#linear-gradient-10"/><linearGradient id="linear-gradient-25" x1="973.86" y1="-188.54" x2="955.86" y2="324.51" xlink:href="#linear-gradient-10"/><linearGradient id="linear-gradient-26" x1="1721.86" y1="-162.29" x2="1703.86" y2="350.76" xlink:href="#linear-gradient-10"/><linearGradient id="linear-gradient-27" x1="1220.95" y1="1052.66" x2="914.92" y2="1892.75" xlink:href="#linear-gradient-9"/><linearGradient id="linear-gradient-28" x1="1303.13" y1="1082.6" x2="997.1" y2="1922.68" xlink:href="#linear-gradient-9"/><linearGradient id="linear-gradient-29" x1="1227.29" y1="1291.71" x2="1374.3" y2="946.68" gradientUnits="userSpaceOnUse"><stop offset="0" stop-color="#e1473d"/><stop offset="1" stop-color="#e9605a"/></linearGradient><linearGradient id="linear-gradient-30" x1="7015.4" y1="3636.4" x2="7087.4" y2="3430.4" gradientTransform="translate(-7366.62)" xlink:href="#linear-gradient-6"/><linearGradient id="linear-gradient-31" x1="7907.83" y1="1252.04" x2="7768.5" y2="1361.43" gradientTransform="translate(-7366.62)" gradientUnits="userSpaceOnUse"><stop offset="0" stop-color="#53d8ff"/><stop offset="1" stop-color="#3840f7"/></linearGradient><linearGradient id="linear-gradient-32" x1="490.89" y1="931" x2="446.89" y2="994" xlink:href="#linear-gradient-10"/><linearGradient id="linear-gradient-33" x1="7822.6" y1="1253.62" x2="7815.29" y2="1317.46" gradientTransform="translate(-7366.62)" xlink:href="#linear-gradient-10"/><linearGradient id="linear-gradient-34" x1="7932.58" y1="1283.56" x2="7793.25" y2="1392.95" xlink:href="#linear-gradient-31"/><linearGradient id="linear-gradient-35" x1="7075.35" y1="3657.35" x2="7147.35" y2="3451.35" gradientTransform="translate(-7366.62)" xlink:href="#linear-gradient-6"/><linearGradient id="linear-gradient-36" x1="7882.19" y1="1260.44" x2="7874.88" y2="1324.29" gradientTransform="translate(-7366.62)" xlink:href="#linear-gradient-10"/><linearGradient id="linear-gradient-37" x1="428.1" y1="1158.53" x2="523.78" y2="1158.53" xlink:href="#linear-gradient-29"/><linearGradient id="linear-gradient-38" x1="7895.59" y1="813.89" x2="7677.75" y2="1291.91" gradientTransform="translate(-7366.62)" xlink:href="#linear-gradient-9"/><linearGradient id="linear-gradient-39" x1="634.65" y1="755.8" x2="573.65" y2="862.8" xlink:href="#linear-gradient-10"/><linearGradient id="linear-gradient-40" x1="614.53" y1="744.33" x2="553.53" y2="851.33" xlink:href="#linear-gradient-10"/><linearGradient id="linear-gradient-41" x1="467.9" y1="814.71" x2="460.9" y2="962.71" xlink:href="#linear-gradient-10"/><linearGradient id="linear-gradient-42" x1="507.26" y1="812.43" x2="471.26" y2="834.43" xlink:href="#linear-gradient-10"/><linearGradient id="linear-gradient-43" x1="473.85" y1="718.81" x2="471.85" y2="757.81" xlink:href="#linear-gradient-29"/><linearGradient id="linear-gradient-44" x1="3792.24" y1="4554.96" x2="3831.99" y2="4514.19" gradientTransform="translate(-5460.1 544.78) rotate(-46.73)" xlink:href="#linear-gradient-10"/><linearGradient id="linear-gradient-45" x1="346.47" y1="985.17" x2="270.47" y2="1045.17" xlink:href="#linear-gradient-9"/><linearGradient id="linear-gradient-46" x1="7837.89" y1="1065.99" x2="7818.27" y2="1100.9" gradientTransform="translate(-7366.62)" xlink:href="#linear-gradient-9"/><linearGradient id="linear-gradient-47" x1="570.23" y1="1404.91" x2="872.24" y2="1404.91" xlink:href="#linear-gradient"/><linearGradient id="linear-gradient-48" x1="574.23" y1="1415.91" x2="840.18" y2="1415.91" xlink:href="#linear-gradient"/><linearGradient id="linear-gradient-49" x1="504.33" y1="1472.39" x2="895.53" y2="1472.39" xlink:href="#linear-gradient"/><linearGradient id="linear-gradient-50" x1="512.53" y1="1441.42" x2="891.13" y2="1441.42" xlink:href="#linear-gradient"/><linearGradient id="linear-gradient-51" x1="2248.44" y1="276.15" x2="2187.84" y2="401.07" gradientTransform="translate(-46.67 443.23) rotate(9.25)" xlink:href="#linear-gradient-6"/><linearGradient id="linear-gradient-52" x1="2041.34" y1="1357.91" x2="2041.34" y2="1627.01" xlink:href="#linear-gradient-9"/><linearGradient id="linear-gradient-53" x1="1927.11" y1="1322.98" x2="2054.92" y2="1631.73" xlink:href="#linear-gradient-10"/><linearGradient id="linear-gradient-54" x1="-7596.05" y1="1227.43" x2="-7468.24" y2="1536.17" gradientTransform="matrix(-1, 0, 0, 1, -5403.07, 0)" xlink:href="#linear-gradient-10"/><linearGradient id="linear-gradient-55" x1="2097.55" y1="1364.98" x2="2015.55" y2="1458.31" xlink:href="#linear-gradient-6"/><linearGradient id="linear-gradient-56" x1="2269.28" y1="1582.85" x2="1928.62" y2="1415.52" xlink:href="#linear-gradient-7"/><linearGradient id="linear-gradient-57" x1="2163.46" y1="1398.86" x2="2089.73" y2="1598.56" xlink:href="#linear-gradient-10"/><linearGradient id="linear-gradient-58" x1="1885.96" y1="1541.68" x2="2055.29" y2="1436.35" xlink:href="#linear-gradient-7"/><linearGradient id="linear-gradient-59" x1="2015.74" y1="1338.68" x2="1941.98" y2="1538.48" xlink:href="#linear-gradient-10"/><linearGradient id="linear-gradient-60" x1="2072.96" y1="1485.06" x2="2244.96" y2="1336.39" xlink:href="#linear-gradient-7"/><linearGradient id="linear-gradient-61" x1="2002.99" y1="1331.28" x2="2004.32" y2="1411.94" xlink:href="#linear-gradient-7"/><linearGradient id="linear-gradient-62" x1="2039.23" y1="1248.25" x2="2035.9" y2="1369.58" xlink:href="#linear-gradient-10"/><linearGradient id="linear-gradient-63" x1="2046.3" y1="1181" x2="2040.96" y2="1269.66" xlink:href="#linear-gradient-10"/><linearGradient id="linear-gradient-64" x1="2119.69" y1="1050.9" x2="2092.35" y2="1098.9" xlink:href="#linear-gradient-6"/><linearGradient id="linear-gradient-65" x1="2013.56" y1="1179.03" x2="2008.23" y2="1267.7" xlink:href="#linear-gradient-10"/><linearGradient id="linear-gradient-66" x1="2029.18" y1="1409.99" x2="2047.77" y2="1409.99" xlink:href="#linear-gradient-7"/></defs><g id="Background"><rect class="cls-1" width="2475" height="1650"/></g><g id="Illustration"><path class="cls-2" d="M2294,906.84c-36.75-40.29-80.21-79.59-91.54-134.29-19.62-94.66,64.24-175.38,91.7-267.83,19-63.93,9.18-136.71-25.9-192.49s-94.76-93.42-157.81-99.54C2002,202.16,1895.82,279.52,1789,257.12c-85.56-17.94-153.18-97.09-240-105.56-102.2-10-187,79.32-284.61,112.94-116.74,40.22-243.32-1.81-358.09-47.93S670.68,119,549.69,141.06C415,165.63,302.1,289.84,284.09,433.21,266.24,575.31,416,689.37,288.51,860c-39.83,53.32-66.32,127.55-48.71,192.92,17.11,63.5,89.9,103.67,90.43,169.71.42,52.13-46,93.61-49.76,145.59-3.22,44.62,27.1,85.87,64.36,107s80.5,26.32,122.53,31.11L455,1520.42c211.73,20.12,424.78,15.64,637.31,11.14L2097.8,1510.3c34.45-.73,69.74-1.63,101.83-14.88s60.89-41.64,65.77-77.74c8.32-61.43-52.34-114.74-46.74-176.52,7.16-78.88,112.11-109.31,132.08-185.69C2364.85,1001.5,2330.77,947.13,2294,906.84Z"/><path class="cls-3" d="M1965.72,160.68c30.89,92.44,188.64,637.74-296.46,877.69,0,0-196.27-332.25,282.44-880.52A8.24,8.24,0,0,1,1965.72,160.68Z"/><path class="cls-4" d="M1935.64,253.77c-2.42,31.07-5.48,62-8.81,93s-7,61.88-11.11,92.75c-8.12,61.75-17.63,123.33-29,184.59S1862,746.33,1845.47,806.48q-12.27,45.15-27.87,89.37c-10.45,29.43-22.08,58.51-36,86.61a4.19,4.19,0,0,1-7.51-3.72v0h0c13.91-27.6,25.63-56.33,36.19-85.47s19.94-58.76,28.28-88.68c16.87-59.78,30.46-120.5,42.27-181.54S1902.49,500.52,1911,438.9q6.39-46.22,11.7-92.58c3.52-30.9,6.78-61.86,9.4-92.82v0a1.78,1.78,0,0,1,3.54.29Z"/><path class="cls-3" d="M2251.21,264.7c-.17-9.63-13.16-12.65-17.52-4.06-42.1,83.08-159.32,297.47-294,396.87-219.37,161.86-402.85,458.89-320.3,647.9C1619.35,1305.41,2268.82,1314.21,2251.21,264.7Z"/><path class="cls-5" d="M2208.42,386.67c-.78,2.7-1.68,5-2.53,7.48l-2.68,7.25-5.52,14.43c-3.73,9.59-7.56,19.15-11.42,28.69q-11.66,28.61-24,56.93c-16.42,37.76-33.83,75.09-51.81,112.14s-36.86,73.67-56.52,109.86L2046.63,737l-7.53,13.49c-5,9-9.94,18-15.15,26.92l-15.44,26.77-15.84,26.53c-42.6,70.52-88.93,138.87-139.93,203.65-3.13,4.1-6.39,8.09-9.68,12l-9.82,11.94-9.82,11.94c-3.32,3.94-6.75,7.79-10.12,11.69-6.8,7.73-13.43,15.63-20.38,23.23l-21,22.7c-28.55,29.72-58.42,58.21-90.15,84.51a1.05,1.05,0,0,1-1.36-1.6h0a1169.9,1169.9,0,0,0,88.34-85.87l20.68-22.83c6.85-7.65,13.37-15.59,20.08-23.37,3.31-3.92,6.69-7.79,10-11.75l9.66-12,9.66-12c3.24-4,6.45-8,9.53-12.11l18.74-24.45c6.2-8.19,12.18-16.54,18.27-24.81,3-4.15,6.1-8.26,9.08-12.45l8.83-12.62,8.83-12.63c3-4.2,5.88-8.41,8.71-12.7,23.18-33.93,45-68.77,66.48-103.8,42.68-70.25,81.76-142.66,118.51-216.21q27.48-55.2,52.82-111.46,12.7-28.11,24.84-56.46c4-9.47,8-18.95,11.86-28.47l5.73-14.31,2.79-7.18c.87-2.38,1.85-4.86,2.55-7.09l.07-.22a1,1,0,0,1,2,.6Z"/><path class="cls-6" d="M1676,1517.21s6.31-133.37,144.23-264.91c128-122,442-403.9,516.88-562.58,3.32-7,13.82-4.65,13.69,3.13-1.34,83.35-21.11,291.86-170.58,495.73C1987.49,1451.47,1676,1517.21,1676,1517.21Z"/><path class="cls-3" d="M2284.59,837.63c-2.84,18.23-7.94,36-14,53.46-.74,2.18-1.45,4.38-2.23,6.55l-2.47,6.46-5,12.94-5.49,12.71c-1.87,4.22-3.57,8.53-5.7,12.63a653.44,653.44,0,0,1-55.83,95.64c-5,7.78-10.84,15-16.37,22.37s-11,14.9-17.08,21.85l-17.81,21.26c-2.89,3.61-6.15,6.9-9.27,10.3l-9.45,10.15-9.44,10.15-4.74,5.06-5,4.83-19.87,19.34c-3.33,3.2-6.57,6.51-10,9.61l-10.23,9.3-20.44,18.59-20.66,18.37c-6.9,6.1-13.75,12.27-20.74,18.27q-20.85,18.13-42,36c-14,11.94-28.24,23.65-42.4,35.44l-42.82,34.89c-28.56,23.23-57.15,46.39-84.91,70.44-7,5.93-13.74,12.18-20.57,18.32-3.45,3-6.68,6.28-10,9.45s-6.64,6.33-9.85,9.61c-6.25,6.69-12.77,13.16-18.54,20.27l-4.47,5.22c-.73.88-1.52,1.72-2.21,2.64l-2,2.75-8.2,11,0,0a1,1,0,0,1-1.72-1.2,326.76,326.76,0,0,1,34.56-43.31c3.15-3.38,6.46-6.6,9.68-9.91s6.44-6.63,9.83-9.76c6.71-6.33,13.32-12.79,20.23-18.89,27.36-24.76,55.8-48.19,84-71.85s56.46-47.21,84.42-71.1,55.6-48.16,83-72.67l20.39-18.57,10.2-9.28c3.4-3.09,6.62-6.34,9.95-9.49l19.8-19.07,4.95-4.77,4.73-5,9.41-10c25.47-26.37,48.66-54.86,70.3-84.41A648.26,648.26,0,0,0,2246,940.56c2.2-4,4-8.27,6-12.39l5.88-12.44,5.35-12.68,2.68-6.34c.85-2.14,1.62-4.3,2.43-6.44,1.58-4.31,3.3-8.58,4.77-12.93l4.3-13.08c2.59-8.81,5.26-17.63,6.94-26.67a.13.13,0,1,1,.26,0Z"/><path class="cls-6" d="M642.6,1099.12S508.91,534.65,231.85,226.68C213.22,206,179.09,214,171.74,240.81,122.56,420.4,28.17,965.17,642.6,1099.12Z"/><path class="cls-3" d="M586.37,1062.72a1.54,1.54,0,0,1-2,2.33c-57-42.4-277.4-250.74-358.75-665.9a1.07,1.07,0,0,1,2.07-.53C255.36,494.85,368.48,849.71,586.37,1062.72Z"/><path class="cls-3" d="M709.28,836.31s53.3-406.21-52.4-679c-7.11-18.34-31.64-21.63-43.23-5.74C536.14,257.79,337.22,593.79,709.28,836.31Z"/><path class="cls-7" d="M681.29,798.18a1.08,1.08,0,0,1-1.9,1c-27-42.29-120.27-235.11-69.87-529.61a.76.76,0,0,1,1.5.17C605.15,340.24,590.85,602.9,681.29,798.18Z"/><path class="cls-3" d="M123.09,927.78a2.93,2.93,0,0,1,1.83-5.42c49.7,5.38,230.33,36,365.88,202.76,124,152.58,186,280,207.18,328.26a13.64,13.64,0,0,1-13.83,19c-61.51-6.13-232.85-32.29-304.51-136.86C294,1210.6,250.24,1006.29,123.09,927.78Z"/><path class="cls-8" d="M269,1014.07s161.77,61,416,440.82C685,1454.89,409.31,1086.76,269,1014.07Z"/><path class="cls-9" d="M2017.38,1463.7a27.47,27.47,0,0,1-27.41,27.38H507.6a27.48,27.48,0,0,1-27.41-27.38L467.86,611.82c0-15.06,17.74-44.46,50.27-42.25l1448.73-37.49a69.07,69.07,0,0,1,70.88,70.65Z"/><path class="cls-10" d="M1990.32,1437.42a26,26,0,0,1-25.94,25.94h-1421a26,26,0,0,1-25.93-25.94L505.78,664.09c1.37-46.54,42.17-63.27,66.9-62.28l1388.48-37.25A48.55,48.55,0,0,1,2011,614.24Z"/><path class="cls-6" d="M532.78,1068.33a2.1,2.1,0,0,1-2.1-2.07l-.92-62.71a2.1,2.1,0,0,1,2.06-2.13h0a2.1,2.1,0,0,1,2.09,2.06l.92,62.72a2.1,2.1,0,0,1-2.06,2.13Z"/><path class="cls-6" d="M530.52,914.64a2.11,2.11,0,0,1-2.1-2.07l-3.52-240.2c.07-16,5-28.86,14.69-38.13,17.6-16.86,45.14-16,46.31-16l443.4-11.9a2.1,2.1,0,1,1,.11,4.19l-443.52,11.9c-1.24,0-27.07-.84-43.4,14.81-8.83,8.45-13.34,20.26-13.4,35.08l3.52,240.16a2.09,2.09,0,0,1-2.06,2.13Z"/><g class="cls-11"><path class="cls-6" d="M580,1394.52c1.49-63.91.94-629.92-2.73-678.8s72.46-58.05,189.35-63.55,1103.09-27.28,1128.48-29.34c57.08-4.63,68.89,80.68,63.18,265.89-4.29,139.14-11.4,368.36-14.67,473.77a58.17,58.17,0,0,1-58,56.38c-237.32.65-1146.9,3.25-1207.45,5.06C608.46,1426,579.43,1419.87,580,1394.52Z"/></g><rect class="cls-12" x="389.99" y="1459.71" width="1747.65" height="74.85" rx="7.51"/><path class="cls-6" d="M1964.34,313.31l-341.3-1.9a17.92,17.92,0,0,0-15.46,27.14l1.71,2.85a17.91,17.91,0,0,0,15.36,8.7h339.59a17.92,17.92,0,0,0,17.92-17.92v-.95A17.92,17.92,0,0,0,1964.34,313.31Z"/><path class="cls-6" d="M2012,331.63v.55a17.91,17.91,0,0,0,17.91,17.92h75.77A17.92,17.92,0,0,0,2123,336.81h0a17.92,17.92,0,0,0-17.18-22.54l-75.77-.56A17.92,17.92,0,0,0,2012,331.63Z"/><path class="cls-6" d="M1882.24,377.62l-259.2-1.9a17.92,17.92,0,0,0-15.46,27.14l1.71,2.85a17.91,17.91,0,0,0,15.36,8.7h257.49a17.92,17.92,0,0,0,17.92-17.92v-.95A17.92,17.92,0,0,0,1882.24,377.62Z"/><path class="cls-6" d="M1929.92,395.94v.55a17.91,17.91,0,0,0,17.91,17.92h75.77a17.93,17.93,0,0,0,17.31-13.29h0a17.92,17.92,0,0,0-17.18-22.54L1948,378A17.92,17.92,0,0,0,1929.92,395.94Z"/><path class="cls-13" d="M1453.33,321.67H1088.76a156.47,156.47,0,1,0,2.12,68h180.51V429a26.7,26.7,0,0,0,26.7,26.71h1a26.7,26.7,0,0,0,26.7-26.71V389.66h68v60.7a26.71,26.71,0,0,0,26.71,26.71h1a26.71,26.71,0,0,0,26.71-26.71v-60.7h5.18A33.68,33.68,0,0,0,1487,356v-.65A33.67,33.67,0,0,0,1453.33,321.67ZM937.27,457a96.48,96.48,0,1,1,96.47-96.47A96.48,96.48,0,0,1,937.27,457Z"/><path class="cls-14" d="M970.28,1118a8.36,8.36,0,0,1-6.22-2.39,8.45,8.45,0,0,1-2.61-6.13v-30.24a27.36,27.36,0,0,0-27.23-27.37V961.7a27.42,27.42,0,0,0-27.39-27.39H817.94v18.85h88.89a8.55,8.55,0,0,1,8.53,8.54v90.45l-242.76,3.42a8.65,8.65,0,0,1-6.11-2.46,8.45,8.45,0,0,1-2.55-6.07V757.27H645.09V1047a27.38,27.38,0,0,0,27.77,27.38l261.08-3.67a8.75,8.75,0,0,1,6.11,2.45,8.49,8.49,0,0,1,2.55,6.08v30.24A27.39,27.39,0,0,0,970,1136.91l1,0,102.94-3.55-.65-18.85Z"/><path class="cls-15" d="M835.43,1156.09a27.51,27.51,0,0,0-26.92,27.39A8.55,8.55,0,0,1,800,1192H694.32v18.85H800a27.41,27.41,0,0,0,27.39-27.38,8.58,8.58,0,0,1,8.39-8.54l227.48-3.88-.32-18.86Z"/><path class="cls-16" d="M967.74,1219.4v10.17a8.55,8.55,0,0,1-8.54,8.53H796.09a27.42,27.42,0,0,0-27.39,27.39v36.73a27.39,27.39,0,0,0,27.36,27.39l1,0,94.51-3.5-.69-18.84-94.51,3.5a8.54,8.54,0,0,1-8.85-8.53v-36.73a8.54,8.54,0,0,1,8.53-8.53H959.2a27.42,27.42,0,0,0,27.39-27.39V1219.4a8.55,8.55,0,0,1,8.54-8.54h67.94V1192H995.13A27.41,27.41,0,0,0,967.74,1219.4Z"/><path class="cls-17" d="M844.36,867.12h.17c34.58-.16,97.11-.39,127.35-.06a8.56,8.56,0,0,1,8.43,8.53v192.65a27.42,27.42,0,0,0,27.39,27.39h55.37v-18.85H1007.7a8.55,8.55,0,0,1-8.54-8.54V875.59a27.48,27.48,0,0,0-27.07-27.39c-30.38-.32-93-.1-127.65.07h-.08A17.37,17.37,0,0,1,827,831.09c-.14-14.5-.25-34.75,0-48.8a8.51,8.51,0,0,1,8-8.37l105.12-7.25-1.3-18.81-105.12,7.25A27.24,27.24,0,0,0,808.18,782c-.26,14.26-.15,34.69,0,49.32A36.26,36.26,0,0,0,844.36,867.12Z"/><path class="cls-18" d="M1540.42,1086.84a27.34,27.34,0,0,0,24.43-27.23V911.12a8.57,8.57,0,0,1,7.33-8.44l42.49-6.07a27.53,27.53,0,0,0,23.51-27.12V709.08h-18.85V869.49a8.58,8.58,0,0,1-7.33,8.45L1569.51,884A27.52,27.52,0,0,0,1546,911.12v148.49a8.54,8.54,0,0,1-7.62,8.49l-80.35,8.73,2,18.75Z"/><path class="cls-19" d="M1747.13,1175.92V1104a8.55,8.55,0,0,1,8.45-8.53l34.44-.31a27.32,27.32,0,0,0,27.12-26.46l7.5-223.12L1805.8,845l-7.5,223.11a8.51,8.51,0,0,1-8.45,8.25l-34.43.31a27.47,27.47,0,0,0-27.15,27.38v71.67l-14.15-.18a27.38,27.38,0,0,0-27.75,27.38v139.6a8.48,8.48,0,0,1-2.54,6.08,8.61,8.61,0,0,1-6.1,2.46l-127.5-1.64a8.56,8.56,0,0,1-8.42-8.53V1240.35a27.42,27.42,0,0,0-27.39-27.39h-55.37v18.86h55.37a8.54,8.54,0,0,1,8.53,8.53v100.49a27.5,27.5,0,0,0,27,27.39l127.5,1.63h.36a27.4,27.4,0,0,0,27.38-27.39v-139.6a8.52,8.52,0,0,1,8.64-8.53l141,1.86.25-18.86Z"/><path class="cls-20" d="M1594.44,1157.12l1.84,134.54,18.85-.26-1.85-135.34,51.44-2.91a27.42,27.42,0,0,0,25.84-27.35v-79.4H1671.7v79.4a8.54,8.54,0,0,1-8,8.52l-205.14,11.61,1.07,18.83Z"/><path class="cls-21" d="M1833.93,787l-42.68,8.18a19.51,19.51,0,0,0-15.84,19.16v51.27a19.51,19.51,0,0,0,19.51,19.51h42.68a19.5,19.5,0,0,0,19.51-19.51V806.11A19.51,19.51,0,0,0,1833.93,787Z"/><path class="cls-22" d="M1647.47,659.15l-42.69,8.17A19.5,19.5,0,0,0,1589,686.48v51.28a19.51,19.51,0,0,0,19.5,19.51h42.68a19.51,19.51,0,0,0,19.51-19.51V678.31A19.51,19.51,0,0,0,1647.47,659.15Z"/><path class="cls-23" d="M1880,1136.84l-42.69,8.17a19.51,19.51,0,0,0-15.83,19.16v51.28A19.51,19.51,0,0,0,1841,1235h42.68a19.51,19.51,0,0,0,19.51-19.51V1156A19.51,19.51,0,0,0,1880,1136.84Z"/><path class="cls-24" d="M671.13,709.43l-42.68,8.18a19.51,19.51,0,0,0-15.84,19.16V788a19.51,19.51,0,0,0,19.51,19.51H674.8A19.5,19.5,0,0,0,694.31,788V728.59A19.51,19.51,0,0,0,671.13,709.43Z"/><path class="cls-25" d="M836.65,895.9,794,904.07a19.5,19.5,0,0,0-15.84,19.16v51.28A19.51,19.51,0,0,0,797.64,994h42.68a19.51,19.51,0,0,0,19.5-19.51V915.06A19.51,19.51,0,0,0,836.65,895.9Z"/><path class="cls-26" d="M698.37,1153.6l-42.68,8.18a19.51,19.51,0,0,0-15.84,19.16v51.27a19.5,19.5,0,0,0,19.51,19.51H702a19.51,19.51,0,0,0,19.51-19.51v-59.45A19.51,19.51,0,0,0,698.37,1153.6Z"/><path class="cls-27" d="M1624.42,1241.6l-42.68,8.17a19.51,19.51,0,0,0-15.84,19.16v51.28a19.51,19.51,0,0,0,19.51,19.51h42.68a19.52,19.52,0,0,0,19.51-19.51v-59.45A19.51,19.51,0,0,0,1624.42,1241.6Z"/><path class="cls-28" d="M918.36,1260.45l-42.68,8.18a19.51,19.51,0,0,0-15.84,19.16v51.27a19.5,19.5,0,0,0,19.51,19.51H922a19.5,19.5,0,0,0,19.5-19.51v-59.45A19.51,19.51,0,0,0,918.36,1260.45Z"/><path class="cls-29" d="M958.17,709.43l-42.69,8.18a19.5,19.5,0,0,0-15.83,19.16V788a19.5,19.5,0,0,0,19.5,19.51h42.68A19.5,19.5,0,0,0,981.34,788V728.59A19.51,19.51,0,0,0,958.17,709.43Z"/><path class="cls-30" d="M1697.75,975.52l-42.68,8.17a19.51,19.51,0,0,0-15.84,19.16v51.28a19.5,19.5,0,0,0,19.51,19.5h42.68a19.51,19.51,0,0,0,19.51-19.5V994.68A19.5,19.5,0,0,0,1697.75,975.52Z"/><path class="cls-31" d="M1118.79,1062.62h-45.64V880.74a141.6,141.6,0,0,1,124.4-140.43L1290.87,729A141.46,141.46,0,0,1,1449.39,869.4v158.78h-45.64V869.4a95.81,95.81,0,0,0-107.38-95.12l-93.32,11.34a95.91,95.91,0,0,0-84.26,95.12Z"/><path class="cls-32" d="M1059.66,1021.79l400.09-22.17a28.35,28.35,0,0,1,29.92,28.31v317a28.35,28.35,0,0,1-28.35,28.35H1070.84a28.36,28.36,0,0,1-28.34-27.43L1032.89,1051A28.35,28.35,0,0,1,1059.66,1021.79Z"/><path class="cls-33" d="M1326.5,1282.44l-24.22-69.62a23.32,23.32,0,0,1,5.3-24,65.93,65.93,0,1,0-88.43,4.92,23.52,23.52,0,0,1,7.63,26L1205,1282.44a23.49,23.49,0,0,0,22.18,31.21h77.18A23.49,23.49,0,0,0,1326.5,1282.44Z"/><path class="cls-34" d="M483.63,1310.85a2.83,2.83,0,0,0-.09-.86c-4.31-17.1-25.72-27.76-25.72-27.76l-8.48.67c-4.88,15.07-4.25,24.32-3.47,28.43a3.37,3.37,0,0,0,.09.34A202,202,0,0,0,483.63,1310.85Z"/><path class="cls-35" d="M446,1311.67a3.7,3.7,0,0,0,2.69,2.72c10,2.09,25.78.41,32.42-.46a3.08,3.08,0,0,0,2.56-3.08A202,202,0,0,1,446,1311.67Z"/><path class="cls-36" d="M412.37,1008.14c-5.24,5.59-13,10.42-18.39,13.43,8.11,10,19.08,20.06,33.6,29.88l4.16,9.33,13.32-16S421.16,1032.93,412.37,1008.14Z"/><path class="cls-37" d="M445.93,1270.26l3.59,17.3a2.83,2.83,0,0,0,2.42,2.33,24.45,24.45,0,0,0,5.56-.09,3.55,3.55,0,0,0,2.82-4.18l-2.5-15.36Z"/><path class="cls-38" d="M520.37,1311.5c-9.37-.27-14.21-1.37-16.72-2.39,0,.93,0,1.88,0,2.86a1.84,1.84,0,0,0,1.77,1.88l51.44-.33a2.35,2.35,0,0,0,1.89-3.42C552,1310.65,534.85,1311.9,520.37,1311.5Z"/><path class="cls-39" d="M558.78,1310.1a2.1,2.1,0,0,0-.21-.39c-4.54-6.35-16.11-19-39-24.47l-11-.35s-4.89,8.49-5,24.22c2.51,1,7.35,2.12,16.72,2.39C534.85,1311.9,552,1310.65,558.78,1310.1Z"/><path class="cls-40" d="M506.59,1268.27c.12.82,1.63,13.24,2.21,18.06a2.4,2.4,0,0,0,2,2.16,25.34,25.34,0,0,0,7.54-.12,3.25,3.25,0,0,0,2.46-3.26v-19.5Z"/><path class="cls-41" d="M497.79,1041.49s26.46,100.55,26,227.07a4.91,4.91,0,0,1-3.88,4.77,57.39,57.39,0,0,1-12.27,1.42,4.55,4.55,0,0,1-4.33-3.8c-3.71-21.75-25-144.3-37.13-164.2,0,0-8,109.15-5.43,165.78a2.67,2.67,0,0,1-2.36,2.79,44.83,44.83,0,0,1-9.85,0,3.59,3.59,0,0,1-3.2-3c-2.64-18.42-17.85-128-17.2-207,0-4.45,11.77-23.81,11.77-23.81Z"/><path class="cls-42" d="M584.3,825c-11.61,21.61-30.89,43.67-62.25,49.58-29,5.46-80.95,12.2-101.85,14.84A25.6,25.6,0,0,0,404,898.09c-16.43,19-52.47,71-10,123.48,5.43-3,13.15-7.84,18.39-13.43-4.7-13.23-5.08-30.14,4.75-50.87.34,1.64.76,3.27,1.26,4.87,13.56,43,14.28,78.69,14.25,86.92a2.74,2.74,0,0,0,1.71,2.55c17.84,7.15,52.18,2.89,63.71,1.17a3.87,3.87,0,0,0,3.25-4.4c-5.66-41,23.38-108.43,31.05-125.32a11.21,11.21,0,0,1,5.57-5.58c43.86-19.84,62.93-50.38,70.66-77.9C601.9,830.6,591.53,826.68,584.3,825Z"/><path class="cls-43" d="M608.58,839.58c9.37-33.35,2.08-62.25,2.08-62.25h-10A161.77,161.77,0,0,1,584.3,825C591.53,826.68,601.9,830.6,608.58,839.58Z"/><path class="cls-44" d="M604.19,782.65s-15.22-19.71-10.27-30,21.89-9.27,21.89-9.27l2.37,8.05a10.08,10.08,0,0,1-.24,6.44l-9.36,24.75Z"/><path class="cls-45" d="M451,850,447.6,885.1s19.77,5.95,34.14-4.19L471.64,849Z"/><path class="cls-46" d="M474,809.92c.48.45,20.08,38.94,20.08,38.94l-22.22,10.72-24-33.72S466,802.43,474,809.92Z"/><path class="cls-47" d="M457.67,826.8a3.55,3.55,0,0,0,.26,3.11L469,848.38a3.7,3.7,0,0,0,.61.76c1.32,1.22,5.83,4.79,9.32-.07,3-4.14,5.76-7.91,8.75-9.46a3.54,3.54,0,0,1,4.78,1.57,131.22,131.22,0,0,1,7.59,18,3.53,3.53,0,0,1-2.06,4.32c-4.49,1.83-13.38,5.12-21.27,6.21a3.55,3.55,0,0,1-3.35-1.42c-3.4-4.65-13-17.65-16.23-20.9-3-3-8.63-1.88-11.15-1.16a3.51,3.51,0,0,1-2.83-.37c-2.56-1.54-7-5.38-2.94-11.88a3.56,3.56,0,0,0-1.1-4.82c-2.86-1.88-6-5.4-3-11.12s8.33-6.3,12-5.86A3.66,3.66,0,0,0,452,810a2.34,2.34,0,0,1,1.83-1.44,3.45,3.45,0,0,0,2.79-4c-.65-3.28-.16-7.53,5.06-10.4,9.59-5.27,18,3.32,20.12,10.56s-8.58,12.38-15.32,13.23C461.47,818.57,458.76,824,457.67,826.8Z"/><path class="cls-48" d="M461.31,854.16s-4.26-12.47-9.72-12-9.75,5.89-3,12C457,861.75,461.31,854.16,461.31,854.16Z"/><path class="cls-49" d="M415.32,954.05c-7.19-19.68-4.58-43.44-4.55-43.68l2,.23c0,.23-2.58,23.54,4.45,42.77Z"/><path class="cls-50" d="M465.19,1104.19a1,1,0,0,1-1-.75c-2.2-8.46-18.62-17.76-18.79-17.85a1,1,0,0,1,1-1.74c.7.4,17.33,9.81,19.74,19.09a1,1,0,0,1-.72,1.22A1.07,1.07,0,0,1,465.19,1104.19Z"/><path class="cls-51" d="M2287.91,480.24l-10.36-2.36a8.8,8.8,0,0,1-6.17-5.29,94.08,94.08,0,0,0-10.29-18.78,8.79,8.79,0,0,1-1.13-8.06l3.6-10a10.52,10.52,0,0,0-3.3-11.75l-10.44-8.39a10.49,10.49,0,0,0-12.18-.71l-9,5.66a8.79,8.79,0,0,1-8.11.62,94.39,94.39,0,0,0-20.55-6,8.81,8.81,0,0,1-6.49-4.89l-4.53-9.62a10.49,10.49,0,0,0-10.64-6L2165,396.11a10.51,10.51,0,0,0-9.12,8.12l-2.36,10.36a8.8,8.8,0,0,1-5.29,6.17,94.08,94.08,0,0,0-18.78,10.29,8.79,8.79,0,0,1-8.06,1.13l-10-3.6a10.52,10.52,0,0,0-11.75,3.3l-8.39,10.44a10.5,10.5,0,0,0-.71,12.18l5.67,9a8.79,8.79,0,0,1,.62,8.11,93.29,93.29,0,0,0-6,20.55,8.82,8.82,0,0,1-4.9,6.49l-9.62,4.53a10.52,10.52,0,0,0-6,10.64l1.44,13.31a10.54,10.54,0,0,0,8.12,9.12l10.37,2.36a8.82,8.82,0,0,1,6.17,5.29,93.54,93.54,0,0,0,10.28,18.78,8.79,8.79,0,0,1,1.13,8.06l-3.6,10a10.5,10.5,0,0,0,3.31,11.75L2118,600.9a10.5,10.5,0,0,0,12.18.71l9-5.66a8.78,8.78,0,0,1,8.12-.63,93.21,93.21,0,0,0,20.54,6,8.79,8.79,0,0,1,6.49,4.9l4.53,9.62a10.53,10.53,0,0,0,10.64,6l13.32-1.44a10.51,10.51,0,0,0,9.11-8.12l2.36-10.36a8.81,8.81,0,0,1,5.29-6.18,93.54,93.54,0,0,0,18.78-10.28,8.79,8.79,0,0,1,8.06-1.13l10,3.6a10.5,10.5,0,0,0,11.75-3.31l8.4-10.43a10.5,10.5,0,0,0,.7-12.18l-5.66-9a8.81,8.81,0,0,1-.62-8.12,94.14,94.14,0,0,0,6-20.54,8.77,8.77,0,0,1,4.89-6.49l9.62-4.53a10.5,10.5,0,0,0,6-10.64L2296,489.35A10.5,10.5,0,0,0,2287.91,480.24Zm-87.85,104.23a77.92,77.92,0,1,1,60.06-92.39A77.91,77.91,0,0,1,2200.06,584.47Zm33.54-77.15a50.52,50.52,0,1,1-50.52-50.52A50.51,50.51,0,0,1,2233.6,507.32Z"/><path class="cls-51" d="M2311.63,673.34l-7.52-1.72a6.37,6.37,0,0,1-4.49-3.84,68.12,68.12,0,0,0-7.46-13.63,6.42,6.42,0,0,1-.83-5.86L2294,641a7.63,7.63,0,0,0-2.4-8.53L2284,626.4a7.63,7.63,0,0,0-8.85-.52l-6.54,4.12a6.4,6.4,0,0,1-5.89.45,68.88,68.88,0,0,0-14.92-4.38,6.36,6.36,0,0,1-4.71-3.55l-3.29-7a7.64,7.64,0,0,0-7.73-4.33l-9.67,1a7.62,7.62,0,0,0-6.62,5.89l-1.72,7.53a6.37,6.37,0,0,1-3.84,4.48,68.15,68.15,0,0,0-13.63,7.47,6.39,6.39,0,0,1-5.86.82l-7.27-2.62a7.65,7.65,0,0,0-8.53,2.4l-6.1,7.58a7.64,7.64,0,0,0-.51,8.85l4.11,6.54a6.37,6.37,0,0,1,.46,5.89,68.25,68.25,0,0,0-4.38,14.93,6.38,6.38,0,0,1-3.55,4.71l-7,3.29a7.63,7.63,0,0,0-4.33,7.73l1,9.66a7.62,7.62,0,0,0,5.89,6.62l7.53,1.72a6.4,6.4,0,0,1,4.48,3.84,68.23,68.23,0,0,0,7.47,13.64,6.39,6.39,0,0,1,.82,5.85l-2.62,7.27a7.65,7.65,0,0,0,2.4,8.54l7.58,6.09a7.63,7.63,0,0,0,8.85.51l6.54-4.11a6.4,6.4,0,0,1,5.89-.45,68.23,68.23,0,0,0,14.93,4.37,6.41,6.41,0,0,1,4.71,3.56l3.29,7a7.63,7.63,0,0,0,7.73,4.34l9.66-1a7.63,7.63,0,0,0,6.62-5.89l1.72-7.53a6.36,6.36,0,0,1,3.84-4.48,69,69,0,0,0,13.64-7.47,6.39,6.39,0,0,1,5.85-.83l7.27,2.62a7.63,7.63,0,0,0,8.53-2.4l6.1-7.58a7.63,7.63,0,0,0,.51-8.85l-4.11-6.54a6.37,6.37,0,0,1-.45-5.89,68,68,0,0,0,4.37-14.92,6.38,6.38,0,0,1,3.55-4.71l7-3.29a7.63,7.63,0,0,0,4.34-7.73l-1-9.67A7.63,7.63,0,0,0,2311.63,673.34Zm-63.8,75.7a56.59,56.59,0,1,1,43.62-67.1A56.59,56.59,0,0,1,2247.83,749Zm28.77-57.72a40.51,40.51,0,1,1-40.51-40.51A40.5,40.5,0,0,1,2276.6,691.32Z"/><path class="cls-51" d="M2128.56,723.2l-6.47-7.73a8.32,8.32,0,0,1-1.62-7.53,89,89,0,0,0,3-20.07,8.34,8.34,0,0,1,3.77-6.73l8.46-5.49a10,10,0,0,0,4.25-10.77l-3.06-12.32a10,10,0,0,0-8.79-7.52l-10-.89a8.33,8.33,0,0,1-6.48-4.19,88.79,88.79,0,0,0-12.06-16.32,8.33,8.33,0,0,1-2.09-7.42l2.1-9.86a9.94,9.94,0,0,0-4.61-10.61L2084,589.2a10,10,0,0,0-11.54.9l-7.73,6.47a8.36,8.36,0,0,1-7.53,1.63,88.43,88.43,0,0,0-20.07-3,8.34,8.34,0,0,1-6.73-3.77L2025,583a10,10,0,0,0-10.77-4.25l-12.32,3.06a10,10,0,0,0-7.52,8.8l-.89,10a8.34,8.34,0,0,1-4.18,6.48,88.52,88.52,0,0,0-16.33,12.06,8.33,8.33,0,0,1-7.42,2.09l-9.86-2.1a10,10,0,0,0-10.61,4.61l-6.54,10.87a10,10,0,0,0,.89,11.54l6.47,7.73a8.33,8.33,0,0,1,1.63,7.53,88.43,88.43,0,0,0-3,20.07,8.34,8.34,0,0,1-3.77,6.73l-8.46,5.49a10,10,0,0,0-4.25,10.77l3.07,12.32a10,10,0,0,0,8.79,7.52l10,.89a8.36,8.36,0,0,1,6.49,4.19,88.73,88.73,0,0,0,12,16.32,8.33,8.33,0,0,1,2.09,7.42l-2.1,9.86a10,10,0,0,0,4.61,10.61l10.87,6.55a10,10,0,0,0,11.54-.9l7.73-6.47a8.36,8.36,0,0,1,7.53-1.63,88.43,88.43,0,0,0,20.07,3,8.34,8.34,0,0,1,6.73,3.77l5.5,8.46a10,10,0,0,0,10.76,4.25l12.32-3.06a10,10,0,0,0,7.52-8.8l.89-10a8.33,8.33,0,0,1,4.19-6.48A89.25,89.25,0,0,0,2095,750.21a8.33,8.33,0,0,1,7.42-2.09l9.86,2.1a10,10,0,0,0,10.61-4.61l6.55-10.87A10,10,0,0,0,2128.56,723.2Zm-126.1,28.28a73.86,73.86,0,1,1,98.32-35.28A73.86,73.86,0,0,1,2002.46,751.48Z"/><path class="cls-51" d="M652.41,1534.56H272.75c-12.11,0-21.93-5.37-21.93-12V1321.75c0-6.61,9.78-12,21.87-12l382.7-.57c12.17,0,22,5.41,22,12.08l-3,201.36C674.27,1529.23,664.47,1534.56,652.41,1534.56Z"/><path class="cls-6" d="M633.81,1324.55l-339.49,1.15c-12.27,0-22.16,5.52-22.1,12.24l2.37,168.88c.05,6.62,9.75,12,21.83,12.13l329.85,3.3c12.32.12,22.48-5.27,22.65-12l7.27-173.32C656.36,1330.08,646.27,1324.51,633.81,1324.55Z"/><path class="cls-3" d="M620,1340.22v1.28c0,2-3,3.64-6.65,3.64H351.78c-3.68,0-6.65-1.63-6.65-3.64v-1.28c0-2,3-3.65,6.65-3.65H613.35C617,1336.57,620,1338.2,620,1340.22Z"/><path class="cls-3" d="M590.82,1356.34h0c-.19,1.91-3,3.41-6.52,3.45l-228.76,2.28c-3.72,0-6.78-1.6-6.78-3.64v-.3c0-2,2.92-3.61,6.55-3.64l228.76-2C587.93,1352.47,591,1354.23,590.82,1356.34Z"/><path class="cls-3" d="M614.18,1515.16H614l-309.4-2c-7,0-13.29-2.26-16.81-5.92a9.88,9.88,0,0,1-3-7.23l8-119.37c.25-7.13,8.95-12.51,20.34-12.4l308.86,3.29c7,.08,13.2,2.3,16.68,5.94a9.88,9.88,0,0,1,3,7.2.62.62,0,0,1,0,.13l-7.42,118C633.92,1509.78,625.35,1515.16,614.18,1515.16ZM312.7,1376.58c-7.43,0-11.54,3.14-11.59,4.45l-8,119.36c0,.28.45.8.65,1,1.57,1.64,5.53,3.31,10.81,3.34l309.41,2h.17c7.45,0,11.56-3.15,11.6-4.45l7.42-118a2.13,2.13,0,0,0-.63-1.11c-1.56-1.62-5.48-3.29-10.72-3.35L313,1376.58Zm324.69,7.91h0Z"/><path class="cls-3" d="M633.38,1399.59h-337a4.2,4.2,0,0,1,0-8.39h337a4.2,4.2,0,0,1,0,8.39Z"/><path class="cls-51" d="M907.84,1534.56H490.71c-13.3,0-24.09-3.6-24.09-8v-134.4c0-4.43,10.75-8,24-8l420.47-.38c13.38,0,24.22,3.62,24.15,8.08l-3.33,134.78C931.86,1531,921.09,1534.56,907.84,1534.56Z"/><path class="cls-3" d="M887.4,1394l-373,.77c-13.49,0-24.35,3.69-24.29,8.19l2.6,113c.06,4.43,10.72,8,24,8.11l362.41,2.21c13.53.08,24.69-3.52,24.88-8l8-116C912.18,1397.7,901.09,1394,887.4,1394Z"/><path class="cls-52" d="M872.24,1404.48v.86c0,1.35-3.28,2.44-7.31,2.44H577.54c-4,0-7.31-1.09-7.31-2.44v-.86c0-1.34,3.27-2.44,7.31-2.44H864.93C869,1402,872.24,1403.14,872.24,1404.48Z"/><path class="cls-53" d="M840.17,1415.28h0c-.21,1.27-3.33,2.28-7.17,2.3l-251.33,1.53c-4.09,0-7.44-1.07-7.44-2.44v-.2c0-1.33,3.2-2.41,7.19-2.44l251.34-1.33C837,1412.68,840.4,1413.86,840.17,1415.28Z"/><path class="cls-54" d="M865.83,1523h-.23l-339.94-1.36c-3.38,0-14.75-.44-19.4-5.38a6.57,6.57,0,0,1-1.92-5c0-.08,0-.15,0-.22l8.74-79.72c.54-7.11,12.11-9.61,21.9-9.5l339.34,2.2c3.35,0,14.64.48,19.26,5.37a6.61,6.61,0,0,1,1.93,4.94c0,.07,0,.14,0,.21l-8.16,79C887,1520.44,875.58,1523,865.83,1523Zm-353-12.14c1.42.86,5.67,2.37,12.87,2.4l339.94,1.36h.2c7.11,0,11.9-1.55,13.25-2.52l8-77.24c-1.41-.86-5.63-2.36-12.77-2.41l-339.35-2.2c-7.25,0-12.19,1.53-13.57,2.51Zm366.2,1.81c0,.07,0,.15,0,.22Zm12.32-78.51h0Zm-369.89-2.18h0Z"/><path class="cls-55" d="M886.94,1445.61H516.72a4.19,4.19,0,0,1,0-8.38H886.94a4.19,4.19,0,1,1,0,8.38Z"/><path class="cls-56" d="M2011.71,1182.46c-.31.59-19.8,14.93-19.8,14.93s4.31,30.79,21.79,42.95c19.21,13.37,46.35-11,46.35-11s21.6,5.14,33.08-39.82c2.64-10.32-12.57-11.19-30.93-9.29C2038.53,1182.67,2011.71,1182.46,2011.71,1182.46Z"/><path class="cls-57" d="M1975.28,1287.52a82.08,82.08,0,0,1,25-11.63c3.35-.91,21.48,4.35,32.68,4.1,15.38-.36,31-7.36,43.72-4.2s22.9,7.24,28.85,11.47c17.81,12.67,28.27,36.3,34.65,59.7a81.49,81.49,0,0,1-27.26,17.89l-2.81,113.75L2042.85,1513l-76.77-38.54,2.75-111.16s-24.38-11.35-26.17-15.48S1953.78,1302.3,1975.28,1287.52Z"/><path class="cls-58" d="M1943.8,1347.33s-32.67,90.57,41.83,127.8c15.47-2.06,9.52-27.75,9.52-27.75s-32.37-7.16-22.65-82.71C1963.55,1357.3,1943.8,1347.33,1943.8,1347.33Z"/><path class="cls-59" d="M2138.6,1347.33s22.48,94.55-41.82,127.8c-15.47-2.06-9.52-27.75-9.52-27.75s26.09-12.84,22.65-82.71C2118.86,1357.3,2138.6,1347.33,2138.6,1347.33Z"/><rect class="cls-60" x="1965.2" y="1381.88" width="147.49" height="99.61" rx="8.33"/><path class="cls-61" d="M2177.38,1511c-16.88-3.88-55.89-1.79-55.89-1.79l-1.59,4.29-2.62,21.36s37.15,6.7,55.46,6.68a17.05,17.05,0,0,0,5.14-.77,21.94,21.94,0,0,0,1.62-1.58C2187.27,1530.73,2185,1518.26,2177.38,1511Z"/><path class="cls-62" d="M2110.28,1508l6.61.29a12.74,12.74,0,0,1,9.28,4.79,15.64,15.64,0,0,1,3.4,10.71A12.3,12.3,0,0,1,2126,1532a10,10,0,0,1-7.73,2.94l-10.11-.72Z"/><path class="cls-63" d="M1888.15,1509c17-3.35,55.92-.07,55.92-.07l1.47,4.34,2.1,21.43s-37.31,5.56-55.61,5a17.13,17.13,0,0,1-5.12-.93,20.31,20.31,0,0,1-1.58-1.63C1877.77,1528.36,1880.33,1516,1888.15,1509Z"/><path class="cls-64" d="M1955.3,1508l-6.61.08a12.65,12.65,0,0,0-9.4,4.51,15.61,15.61,0,0,0-3.67,10.6,12.43,12.43,0,0,0,3.37,8.26,10.11,10.11,0,0,0,7.66,3.17l10.12-.41Z"/><path class="cls-65" d="M2182.1,1444.06c-7.65-17.62-26.37-20.48-42.31-12.24-.28.36-101.19,52.08-190.19,74.75a96.42,96.42,0,0,1,4.14,25.4c0,1.91,0,3.78-.09,5.64,68.25-3.51,142.32-26.27,206-46.27C2179.35,1485,2190.59,1463.58,2182.1,1444.06Z"/><path class="cls-66" d="M2110.77,1533.31a58.62,58.62,0,0,1,5.74-27.5c.12-.39.26-.76.38-1.14-5.08-1.58-11.65-3.71-20.27-6.64-63.2-21.62-111.41-43.46-157.43-68.6-17.87-9.77-38.2-3.22-43.92,17.93-5.11,18.88,6.11,35,23.14,40.67,50.93,17,24.41,12.24,41,17.59,44.67,13.82,100.26,26.4,151.41,29.84C2110.83,1534.74,2110.79,1534,2110.77,1533.31Z"/><path class="cls-67" d="M2000.28,1275.89s6.79,29.45,39.79,28.84c33.61-.61,36.61-28.94,36.61-28.94l-22-4.7-1.83-24.46-33,2.45-.61,23.24Z"/><path class="cls-68" d="M2024.5,1177.32s-37.85,73.31,7,91.1c31.66,12.54,51.52-48.69,45.6-65.27-9.16-25.64-15.19-22.6-15.19-22.6Z"/><path class="cls-69" d="M2086.25,1170.65c18.7,5.14,2.72,45.69-25.43,36.1s-39.21-9.45-43.6-1.72-5.32,35.18-14.84,21.61c-10.44-14.87-16.25-44.73-3.46-54.36,11.43-8.6,14.1-21.93,27.82-21.47,18.2.61,32.28-7.46,40.49-1.64C2076.67,1155.86,2072.5,1166.87,2086.25,1170.65Z"/><path class="cls-70" d="M2015.49,1211.33s-8.07-8.68-9.36,1.79,2.86,23.94,7.72,16.55S2015.49,1211.33,2015.49,1211.33Z"/><path class="cls-71" d="M2047.64,1408.85c.79,5.29-2.05,10.09-7.33,10.87a9.68,9.68,0,0,1-11-8.16c-.78-5.28,1.64-10.53,6.93-11.31A10.41,10.41,0,0,1,2047.64,1408.85Z"/></g></svg>