<?xml version="1.0" encoding="utf-8"?>
<!-- Generator: Adobe Illustrator 24.1.2, SVG Export Plug-In . SVG Version: 6.00 Build 0)  -->
<svg version="1.1" id="_лой_1" xmlns="http://www.w3.org/2000/svg" xmlns:xlink="http://www.w3.org/1999/xlink" x="0px" y="0px"
	 viewBox="0 0 3000 2000" style="enable-background:new 0 0 3000 2000;" xml:space="preserve">
<style type="text/css">
	.st0{display:none;fill:#FFFFFF;}
	.st1{fill:#EBF3FA;}
	.st2{fill:#D9E8FE;}
	.st3{fill:#F5FBFF;}
	.st4{fill:#8FADEF;}
	.st5{fill:#DFEBFD;}
	.st6{fill:#9FC1F4;}
	.st7{fill:#FF8C64;}
	.st8{fill:#BBC9F9;}
	.st9{fill:#35488B;}
	.st10{fill:#2C3A64;}
	.st11{fill:#DDE7FE;}
	.st12{fill:#6C7AFF;}
	.st13{fill:#CDE2FC;}
	.st14{fill:#A4C8F4;}
	.st15{opacity:0.5;fill:#BDD8FF;enable-background:new    ;}
	.st16{fill:#BDD8FF;}
	.st17{fill:#F77D48;}
	.st18{fill:#FFB93E;}
	.st19{fill:#FFA412;}
	.st20{fill:#7DA4EA;}
	.st21{fill:#0B0755;}
	.st22{fill:#B5C6E8;}
	.st23{fill:#E9F0FF;}
	.st24{fill:#F99746;}
	.st25{fill:#ED975D;}
	.st26{fill:#FFB27D;}
	.st27{fill:#2B478B;}
	.st28{fill:#FFFFFF;}
	.st29{fill:#F2F7FE;}
	.st30{fill:#C4D9E8;}
	.st31{fill:#DFEBF5;}
	.st32{fill:#233862;}
</style>
<rect class="st0" width="3000" height="2000"/>
<path class="st1" d="M2699.4,1673.5c-154.9,0-2411.6,0.5-2412.9-2.9l-0.2-0.4c-0.1-0.2-0.2-0.4-0.2-0.6
	c-0.9-1.7-347.7-480.8,191.5-814.3c211-130.5-13.2-216.6,154.6-361.9c192.8-166.9,403.2,17.7,617.6-58c37.9-13.4,75.9-34.9,114-67.9
	c21.6-18.6,45.1-35,70-48.8c3.9-2.2,7.8-4.3,11.7-6.3c15.2-7.9,30.8-15,46.7-21.3c10.8-4.3,21.8-8.2,33-11.9l0,0
	c17.8-5.8,36-10.8,54.7-15c26.9-6,54.1-10.5,81.6-13.4c12.1-1.3,24.4-2.4,36.7-3.1c239.6-15.1,509.2,69.9,648.3,194.2
	c28,25,155.4,154.5,55,332.5c-63.4,112.4,202.2,219.7,296.5,348.1C2937.7,1448.8,2701.6,1669.3,2699.4,1673.5z"/>
<rect x="1412" y="832.5" transform="matrix(0.9784 -0.2065 0.2065 0.9784 -154.5411 325.6795)" class="st2" width="140.9" height="141"/>
<rect x="1434.9" y="875.8" transform="matrix(0.3489 -0.9371 0.9371 0.3489 93.2232 2027.1641)" class="st3" width="141.4" height="141.4"/>
<path class="st4" d="M1256.4,529.8h180.4c8.7,0,15.7,7,15.7,15.7v189.2c0,8.7-7,15.7-15.7,15.7h-180.4c-8.7,0-15.7-7-15.7-15.7
	V545.5C1240.7,536.8,1247.7,529.8,1256.4,529.8z"/>
<path class="st5" d="M1264.2,539.4H1429c7.9,0,14.3,6.4,14.3,14.3v172.8c0,7.9-6.4,14.3-14.3,14.3h-164.8c-7.9,0-14.3-6.4-14.3-14.3
	V553.7C1249.9,545.8,1256.3,539.4,1264.2,539.4z"/>
<path class="st4" d="M1342.3,559.5c0.2-2.4,2.3-4.3,4.7-4.1s4.3,2.3,4.1,4.7c-0.2,2.3-2.1,4.1-4.4,4.1
	C1344.1,564.1,1342.2,562,1342.3,559.5z"/>
<path class="st4" d="M1377.7,566.2c1-2.1,3.5-3,5.6-2c0.1,0.1,0.2,0.1,0.4,0.2c2.1,1.4,2.9,4.1,1.7,6.4c-1,2.1-3.5,3-5.6,2
	c-0.1-0.1-0.3-0.1-0.4-0.2C1377.2,571.2,1376.5,568.4,1377.7,566.2z"/>
<path class="st4" d="M1408,592c1.9-1.3,4.5-0.8,5.9,1.1c0.1,0.1,0.1,0.2,0.2,0.3c1.3,2.2,0.7,5-1.3,6.5c-1.9,1.3-4.5,0.8-5.8-1.1
	c-0.1-0.1-0.1-0.2-0.2-0.3C1405.4,596.3,1405.9,593.5,1408,592z"/>
<path class="st4" d="M1423,632c2.6-0.2,4.9,1.8,5,4.4s-1.8,4.9-4.4,5c-2.6,0.2-4.9-1.8-5-4.4c0-0.1,0-0.2,0-0.3
	C1418.5,634.2,1420.5,632.1,1423,632z"/>
<path class="st4" d="M1415.3,678.5c1.7,1.9,1.7,4.8,0,6.7c-1.5,1.7-4.2,1.9-5.9,0.3c-0.1-0.1-0.2-0.2-0.3-0.3
	c-1.7-1.9-1.7-4.8,0-6.7c1.5-1.7,4.2-1.9,5.9-0.3C1415.1,678.3,1415.2,678.4,1415.3,678.5z"/>
<path class="st4" d="M1387.8,708.2c1.7,1.9,1.7,4.8,0,6.7c-1.5,1.7-4.2,1.9-5.9,0.3c-0.1-0.1-0.2-0.2-0.3-0.3
	c-1.7-1.9-1.7-4.8,0-6.7c1.5-1.7,4.2-1.9,5.9-0.3C1387.6,708,1387.7,708.1,1387.8,708.2z"/>
<path class="st4" d="M1342.3,723.5c0.2-2.4,2.3-4.3,4.7-4.1c2.4,0.2,4.3,2.3,4.1,4.7c-0.2,2.3-2.1,4.1-4.4,4.1
	C1344.1,728.1,1342.2,726,1342.3,723.5z"/>
<path class="st4" d="M1315.5,566.2c-1-2.1-3.5-3-5.6-2c-0.1,0.1-0.2,0.1-0.4,0.2c-2.1,1.4-2.9,4.1-1.7,6.4c1,2.1,3.5,3,5.6,2
	c0.1-0.1,0.3-0.1,0.4-0.2C1315.9,571.2,1316.7,568.4,1315.5,566.2z"/>
<path class="st4" d="M1285.1,592c-1.9-1.3-4.5-0.8-5.9,1.1c-0.1,0.1-0.1,0.2-0.2,0.3c-1.3,2.2-0.8,5,1.3,6.5
	c1.9,1.3,4.5,0.8,5.8-1.1c0.1-0.1,0.1-0.2,0.2-0.3C1287.8,596.3,1287.2,593.5,1285.1,592z"/>
<path class="st4" d="M1270.1,632c-2.6-0.2-4.9,1.8-5,4.4s1.8,4.9,4.4,5c2.6,0.2,4.9-1.8,5-4.4c0-0.1,0-0.2,0-0.3
	C1274.6,634.2,1272.6,632.1,1270.1,632z"/>
<path class="st4" d="M1277.8,678.5c-1.7,1.9-1.7,4.8,0,6.7c1.5,1.7,4.2,1.9,5.9,0.3c0.1-0.1,0.2-0.2,0.3-0.3c1.7-1.9,1.7-4.8,0-6.7
	c-1.5-1.7-4.2-1.9-5.9-0.3C1278,678.3,1277.9,678.4,1277.8,678.5z"/>
<path class="st4" d="M1305.3,708.2c-1.7,1.9-1.7,4.8,0,6.7c1.5,1.7,4.2,1.9,5.9,0.3c0.1-0.1,0.2-0.2,0.3-0.3c1.7-1.9,1.7-4.8,0-6.7
	c-1.5-1.7-4.2-1.9-5.9-0.3C1305.5,708,1305.4,708.1,1305.3,708.2z"/>
<path class="st4" d="M1345.4,636.8c0.2-2.4,2.3-4.3,4.7-4.1c2.4,0.2,4.3,2.3,4.1,4.7c-0.2,2.3-2.1,4.1-4.4,4.1
	C1347.3,641.4,1345.4,639.3,1345.4,636.8z"/>
<rect x="1349.2" y="577.9" class="st4" width="1.2" height="58.8"/>
<polygon class="st4" points="1350.4,638.2 1348.2,635.2 1377.2,610.7 1379.5,613.7 "/>
<path class="st6" d="M1785.5,477.6l-5.8-3.2c-6.2-3.4-8.5-11.2-5.1-17.5l26.8-48.9c3.4-6.2,11.2-8.5,17.5-5.1l8.3,4.6
	c1.3,0.6,1.8,2.1,1.2,3.4c-0.6,1.3-2.1,1.8-3.4,1.2c-0.1,0-0.2-0.1-0.3-0.1l-8.3-4.6c-3.8-2.1-8.6-0.7-10.6,3.1l-26.8,48.9
	c-2.1,3.8-0.7,8.5,3.1,10.6l5.8,3.2c3.8,2.1,8.5,0.7,10.6-3.1c0,0,0,0,0,0l17.8-32.4c0.6-1.3,2.1-1.8,3.4-1.2
	c1.3,0.6,1.8,2.1,1.2,3.4c0,0.1-0.1,0.2-0.1,0.3l-17.8,32.4C1799.6,478.8,1791.8,481,1785.5,477.6z"/>
<path class="st6" d="M1760.7,529l-10.4-5.7c-9.7-5.3-13-18.1-7.3-28.5l40.3-73.5c0.7-1.2,2.3-1.6,3.5-0.8c1.1,0.7,1.5,2.1,0.9,3.3
	l-40.3,73.5c-4.4,8-2,17.7,5.3,21.6l10.4,5.7c7.3,4,16.7,0.8,21.1-7.2l45.9-83.7c4.4-8,2-17.7-5.3-21.6c-1.3-0.6-1.8-2.1-1.2-3.4
	c0.6-1.3,2.1-1.8,3.4-1.2c0.1,0,0.2,0.1,0.3,0.1c9.7,5.3,13,18.1,7.3,28.5l-45.9,83.7C1782.9,530.2,1770.4,534.3,1760.7,529z"/>
<path class="st7" d="M2194.9,686.5l4.6-4.8c4.9-5.1,13.1-5.3,18.2-0.3l40.1,38.7c5.1,4.9,5.2,13.1,0.3,18.2l-6.6,6.8
	c-1,1-2.6,1-3.6,0.1c-1-1-1-2.6-0.1-3.6l0,0l6.6-6.8c3-3.1,2.9-8.1-0.2-11.1l-40.1-38.7c-3.1-3-8.1-2.9-11.1,0.2l-4.6,4.8
	c-3,3.1-2.9,8.1,0.2,11.1l26.6,25.7c1,1,1,2.6,0.1,3.6c-1,1-2.6,1-3.6,0.1l0,0l-26.6-25.7C2190.1,699.8,2190,691.7,2194.9,686.5z"/>
<path class="st7" d="M2151.9,649.1l8.3-8.6c7.7-8,20.9-7.7,29.4,0.5l60.3,58.2c1,1,1,2.6,0.1,3.6c-1,1-2.6,1-3.6,0.1l-60.3-58.2
	c-6.5-6.3-16.5-6.6-22.3-0.6l-8.3,8.6c-5.8,6-5.1,15.9,1.4,22.2l68.7,66.3c6.5,6.3,16.5,6.6,22.3,0.6c1-1,2.6-1,3.6-0.1
	c1,1,1,2.6,0.1,3.6c-7.7,8-20.9,7.7-29.4-0.5l-68.7-66.3C2144.9,670.2,2144.2,657,2151.9,649.1z"/>
<path class="st2" d="M1280.8,1173.5c0,0-8.2-136-31.8-178.6h123.8v178.3L1280.8,1173.5z"/>
<path class="st8" d="M1342.8,1173.5c0,0-8.2-136-31.8-178.6h123.8v178.3L1342.8,1173.5z"/>
<rect x="1389.4" y="921.8" class="st9" width="119.8" height="386.6"/>
<rect x="1509.2" y="921.8" class="st10" width="289" height="386.6"/>
<circle class="st11" cx="1449.3" cy="970" r="20"/>
<circle class="st12" cx="1449.3" cy="970" r="14.1"/>
<rect x="1421.5" y="1018.2" class="st4" width="56.4" height="101.8"/>
<rect x="1596.3" y="1099.1" class="st13" width="230" height="74.1"/>
<rect x="1826.3" y="1099.1" class="st14" width="230" height="74.1"/>
<rect x="1596.3" y="1135.4" class="st4" width="57.4" height="1.6"/>
<rect x="1667.8" y="1112.6" class="st4" width="158.5" height="1.6"/>
<rect x="1596.3" y="1155.3" class="st4" width="101.5" height="1.6"/>
<rect x="1525" y="1025" class="st2" width="230" height="74.1"/>
<rect x="1755" y="1025" class="st8" width="230" height="74.1"/>
<rect x="1525" y="1061.3" class="st4" width="57.4" height="1.6"/>
<rect x="1596.5" y="1038.4" class="st4" width="158.5" height="1.6"/>
<rect x="1525" y="1081.2" class="st4" width="101.5" height="1.6"/>
<rect x="1653.7" y="816" class="st15" width="230" height="74.1"/>
<rect x="1883.7" y="816" class="st14" width="230" height="74.1"/>
<rect x="1653.7" y="852.3" class="st4" width="57.4" height="1.6"/>
<rect x="1725.2" y="829.5" class="st4" width="158.5" height="1.6"/>
<rect x="1653.7" y="871.2" class="st4" width="101.5" height="1.6"/>
<rect x="1582.4" y="741.9" class="st3" width="230" height="74.1"/>
<rect x="1812.4" y="741.9" class="st16" width="230" height="74.1"/>
<rect x="1582.4" y="778.1" class="st4" width="57.4" height="1.6"/>
<rect x="1800.5" y="778.1" class="st4" width="57.4" height="1.6"/>
<rect x="1779.3" y="755.3" class="st4" width="158.5" height="1.6"/>
<rect x="1582.4" y="798.1" class="st4" width="101.5" height="1.6"/>
<rect x="1841.5" y="890" class="st16" width="230" height="135"/>
<rect x="1611.5" y="890" class="st3" width="230" height="135"/>
<rect x="2014.1" y="956.4" class="st4" width="57.4" height="2.2"/>
<rect x="1683.8" y="915.4" class="st9" width="316.2" height="1.2"/>
<rect x="1970" y="992.8" class="st4" width="101.5" height="2.2"/>
<rect x="1774.7" y="939.6" class="st9" width="109" height="1.2"/>
<rect x="1493.4" y="1173.5" class="st17" width="677.1" height="500.3"/>
<rect x="1270.8" y="1173.5" class="st7" width="536.9" height="500.3"/>
<path class="st10" d="M1439.1,1221.9h139.1c8.6,0,15.7,7,15.7,15.7l0,0v2c0,8.6-7,15.7-15.7,15.7l0,0h-139.1
	c-8.6,0-15.7-7-15.7-15.7c0,0,0,0,0,0v-2C1423.4,1228.9,1430.4,1221.9,1439.1,1221.9z"/>
<rect x="1474.8" y="1342.4" transform="matrix(0.173 -0.9849 0.9849 0.173 -112.5596 2679.3955)" class="st6" width="128.7" height="128.7"/>
<rect x="1538.1" y="1289.2" transform="matrix(0.173 -0.9849 0.9849 0.173 -52.4973 2644.634)" class="st4" width="20.8" height="128.7"/>
<rect x="1633.5" y="1244" transform="matrix(0.9672 -0.2541 0.2541 0.9672 -276.7213 474.3479)" class="st18" width="128.7" height="128.7"/>
<rect x="1619.7" y="1245.8" transform="matrix(0.9672 -0.2541 0.2541 0.9672 -263.9147 469.149)" class="st19" width="128.7" height="20.8"/>
<path class="st4" d="M1274,1034.4c-3.5-19.3-13.6-39-13.7-39.2l1-0.5c0.1,0.2,10.3,20.1,13.8,39.5L1274,1034.4z"/>
<path class="st4" d="M1304.3,1083c-7.3-52-22.5-87.5-22.6-87.8l1.1-0.5c0.2,0.3,15.4,36,22.7,88.1L1304.3,1083z"/>
<rect x="2083.4" y="1296.6" class="st4" width="510.1" height="376.9"/>
<rect x="1915.7" y="1296.6" class="st6" width="404.4" height="376.9"/>
<path class="st9" d="M2042.5,1333h104.8c6.5,0,11.8,5.3,11.8,11.8v1.5c0,6.5-5.3,11.8-11.8,11.8h-104.8c-6.5,0-11.8-5.3-11.8-11.8
	v-1.5C2030.7,1338.3,2036,1333,2042.5,1333z"/>
<rect x="1895.9" y="1232.5" class="st16" width="424.3" height="83"/>
<rect x="2320.2" y="1232.5" class="st20" width="286.1" height="83"/>
<rect x="2151.4" y="1390.1" transform="matrix(0.9672 -0.2541 0.2541 0.9672 -297.4476 611.5276)" class="st7" width="134.1" height="134.1"/>
<rect x="2137.1" y="1392" transform="matrix(0.9672 -0.2541 0.2541 0.9672 -284.0999 606.1115)" class="st17" width="134.1" height="21.7"/>
<polygon class="st17" points="2178.2,1063.3 2284.6,977.7 2442.4,997 2442.4,1063.3 "/>
<rect x="2020.4" y="977.3" class="st7" width="264.2" height="86.5"/>
<path class="st11" d="M2251.6,1007c7.5,0,13.7,6.1,13.7,13.7c0,7.5-6.1,13.7-13.7,13.7c-7.5,0-13.7-6.1-13.7-13.7c0,0,0,0,0,0
	C2237.9,1013.1,2244,1007,2251.6,1007z"/>
<path class="st21" d="M2251.6,1013c4.2,0,7.6,3.4,7.6,7.6c0,4.2-3.4,7.6-7.6,7.6c-4.2,0-7.6-3.4-7.6-7.6c0,0,0,0,0,0
	C2243.9,1016.5,2247.3,1013.1,2251.6,1013z"/>
<rect x="2136.9" y="1001.7" class="st16" width="81.8" height="38.5"/>
<rect x="2036.2" y="1148.1" class="st11" width="261.8" height="84.4"/>
<rect x="2298" y="1148.1" class="st22" width="261.8" height="84.4"/>
<rect x="2036.2" y="1189.4" class="st9" width="65.3" height="1.8"/>
<rect x="2117.6" y="1163.4" class="st9" width="180.5" height="1.8"/>
<rect x="2036.2" y="1212.1" class="st9" width="115.5" height="1.8"/>
<rect x="1955" y="1063.7" class="st23" width="261.8" height="84.4"/>
<rect x="2216.9" y="1063.7" class="st8" width="261.8" height="84.4"/>
<rect x="1955" y="1105" class="st4" width="65.3" height="1.8"/>
<rect x="2036.4" y="1079" class="st4" width="180.5" height="1.8"/>
<rect x="1955" y="1127.7" class="st4" width="115.5" height="1.8"/>
<path class="st24" d="M591.5,840.8c-4.6,0-7.9-1.1-9.5-3.5c-1.2-1.9-1.5-4.2-1-6.4c4.7-25.1,87.4-96.6,196.5-169.9
	C884,589.4,1002,526.7,1015.3,545.9c1.2,1.9,1.6,4.2,1,6.4c-4.7,25.1-87.3,96.6-196.4,170C726.5,785,624.3,840.8,591.5,840.8z
	 M584,836c5,7.2,33.4-1,76.2-21.9c44.5-21.8,100.8-55.1,158.3-93.8c106.9-71.9,190.9-144.2,195.4-168.4c0.4-1.5,0.2-3.2-0.6-4.6
	c-5-7.2-33.4,1-76.2,21.9c-44.6,21.8-100.8,55.1-158.4,93.9c-106.9,71.8-190.9,144.2-195.4,168.4C582.9,832.9,583.1,834.6,584,836
	L584,836z"/>
<path class="st10" d="M1194.1,1216c-74.2-23.8-547.4,179.8-547.4,179.8s-77,54.7-3.5,169.2c61.1,95.1,520.7-195.4,529-158.9
	c19.9,87.1,189.4,254.3,189.4,254.3c28.3,9.3,91.3-28.5,91.3-28.5C1386.7,1531.3,1253.3,1235,1194.1,1216z"/>
<path class="st25" d="M952.9,895.2c0,0-10.4-16.4-12.1-33.1s0.9-63.5-10.8-74.4s-48.9-38-62.3-32.2s30.6,32.8,31.9,46.5
	s0.5,15.2-4.6,16.1s-22-19.2-22.1-12.8s16.5,41.7,24.7,48.7s20.5,61.4,20.5,61.4L952.9,895.2z"/>
<path class="st4" d="M952.9,872c0,0-43.8,0-51.3,35.3c0,0,2.3,119.9,18,227.3c-94.5-89.3-59.5-87.9-136.4-146.1
	c-31.2-23.6-59.3,57.7-58.6,115.2s201.3,189,253,172.8C1033.7,1259,1045.2,1133.6,952.9,872z"/>
<path class="st10" d="M1760.3,1669.5c0.2-0.2,1.6-2,1.9-2.3l88.9-149.4c2.3-3.6,1.2-8.4-2.4-10.6c-0.8-0.5-1.7-0.8-2.6-1
	c-13.2-2.9-26.9,2.1-35.1,12.8c-17.8,23.1-56.2,59.1-94,51.4c-1.2-0.3-2.4-0.6-3.6-0.9c-38.8-10.9-24.1,70.1-24.1,70.1
	s1.3,0.9,3.5,2.4C1704.8,1650.2,1749.2,1677.3,1760.3,1669.5z"/>
<path class="st9" d="M562.3,1442.4c0,0,412.1-18.2,571.5,23.1c0,0,158.4,111.4,26.2,148.4c-51.4,14.4-227.3,56.5-322.5,56.5
	c-156.3,0-305.9,1-305.9,1c-24.1-10.6-27.8-81.8-31.7-101C472.7,1437,562.3,1442.4,562.3,1442.4z"/>
<path class="st9" d="M1123.9,1463.1c0,0,432,82,599.7,108.2c0,0-18.2,70.4-45.5,86.1c0,0-99.8,6.5-199.6,13.1
	c-123.2,8.1-244.7-7-318.6-36.7C993.2,1566.8,1123.9,1463.1,1123.9,1463.1z"/>
<path class="st26" d="M799.9,1075.1c-76-3.4-175.2-120.4-175.2-120.4s56.2-17,93.5-80.8c7.9-13.5,14.3-27.8,19.1-42.7l25.3,41.9
	l37.2,61.8c0,0-3.4,9-10.9,24.8l0,0c-2.5,5.3-5.5,11.3-9,18.1c-4.2,8.1-9.1,17.1-14.7,27.1C788.6,1031.7,799.9,1075.1,799.9,1075.1z
	"/>
<path class="st25" d="M799.8,934.9c0,0-3.4,9-10.9,24.8c-53.7-36.5-58.5-89.1-58.5-89.1s4.2-0.6,32.2,2.5L799.8,934.9z"/>
<path class="st26" d="M821.5,948.3c0,0-114.8-40-88.8-111.1s28.7-124.1,103.1-101.6s78.6,54.8,75.7,80.7S852,956.8,821.5,948.3z"/>
<path class="st27" d="M711.8,707.7c-0.8-1.5-3.2-3.1-8.9-4.6c3.7-1.2,7.6-1.5,11.4-0.8c2.9-7.9,10.1-21.3,24.6-22
	c0,0-8.2,2.5-11,10.9c19.4-13.3,56-18.3,149,9c122.5,35.9,64.6,108.4,46.5,114.7s-53.2-28.6-83.8-32.5s-45.5,39.1-56.9,43
	s-5.2-5.9-17.7-15.1s-18.6,13.7-17.8,29.7s-26.3,29.6-26.3,29.6s-2.7-9.3-10.7-22.6c-14.9-24.8-14.4-117.4-1.7-134.5
	C709.5,710.7,710.6,709.2,711.8,707.7z"/>
<path class="st6" d="M832.2,1152.4c-8.6,222.6-83.3,188.3-44.5,254.2c24.8,42-27,75.1-83.8,117.9c-1.7,1.3-3.3,2.5-5,3.8
	c-16.3,12.4-33.5,24.5-50.8,35.5c-26.7,17.1-53.5,31.6-76.8,40.5c-23.8,9.1-44.1,12.4-57.1,6.8c-0.4-0.2-0.8-0.3-1.2-0.5
	c-11.1-5.5-20.4-20.4-27.9-40.6c-13.6-36-29-178.2-33.4-220.6c-0.8-7.6-1.2-12.1-1.2-12.1c-25.2-310,232.1-418.8,232.1-418.8
	s22.5,67.3,95.3,63.2C778,981.8,835.8,1058.1,832.2,1152.4z"/>
<path class="st4" d="M703.9,1524.5c-1.7,1.3-3.3,2.5-5,3.8c-16.3,12.4-33.5,24.5-50.8,35.5c-26.7,17.1-53.5,31.6-76.8,40.5
	c-25.8,7.3-47.2,10.6-57.1,6.8c-0.4-0.2-0.8-0.3-1.2-0.5c-11.1-5.5-20.4-20.4-27.9-40.6c-13.6-36-29-178.2-33.4-220.6
	c31.6-90.9,75-193.6,123.2-239.6c95-90.7,124,47.4,124,47.4S625.4,1338.5,703.9,1524.5z"/>
<path class="st6" d="M606.5,1026.4c-37.7,93.7-115.9,274.3-88.1,362.2c0,0,112.7,29.7,115.9-5.1c18.3-194.9,185.9-408,56.5-403.9
	C654.7,980.7,620,992.8,606.5,1026.4z"/>
<path class="st17" d="M768.4,992.8c0,0,89.8,271.3,37.8,533l-77.3,26.5l-18.9-54.9c0,0,100.1-255.9,45.9-501.7L768.4,992.8z"/>
<path class="st26" d="M603,1607.5c0,0,29.4,40.1,65.3,34.4s49.3,4.7,65.3,13.3s20.5,13,14.8,15.3c-4.3,1.7-83,0.8-121.6,0.3
	c-12.7-0.2-49-34-49-34L603,1607.5z"/>
<path class="st6" d="M513.8,1363.1c-5.5,146.4,45,246.3,58.7,297.4c0,0,16.7,7.9,29.6,3.6c28.3-9.3,28-31.8,28-31.8
	s0.8-182.1,4.3-249C637.9,1318.2,514.9,1332.6,513.8,1363.1z"/>
<path class="st17" d="M698.9,901.4c0,0-24.1,6.5-36.1,27.1c0,0,9.4,40.7,101.3,63.4l-3.5-10.6C760.6,981.3,708.1,955.5,698.9,901.4z
	"/>
<path class="st17" d="M760.6,981.3c0,0,18.7-7,22.7-10.1c0,0,4.7,10.7,2.8,19.4c0,0-6.1,3.8-22,1.3S760.6,981.3,760.6,981.3z"/>
<path class="st17" d="M768.4,981.2c0,0-18.3-1.6-20.2,0.8s10.7,24,16.9,22.9S773.5,983.7,768.4,981.2z"/>
<path class="st24" d="M593.3,840.4c-4.6,0-7.9-1.1-9.5-3.5l2-1.3c9.6,13.8,106.1-29.4,234.5-115.7
	c106.9-71.9,190.9-144.3,195.4-168.4c0.4-1.5,0.2-3.2-0.6-4.6l2-1.3c1.2,1.9,1.6,4.2,1,6.4c-4.7,25.1-87.3,96.6-196.4,170
	C728.3,784.5,626.1,840.4,593.3,840.4z"/>
<path class="st24" d="M620.5,768.2c-25.5,0-46.1-1.8-61.3-5.3c-16.4-3.8-25.9-9.5-28.4-16.9c-1.3-3.9-0.6-8,2-12.5
	c11.1-19,55.8-38.2,81.5-47.9c44.7-16.9,103-32.9,164.4-45c70.5-13.9,138.6-21.6,191.7-21.7c25.9-0.1,46.8,1.7,62.2,5.3
	c16.4,3.8,25.9,9.5,28.4,16.9c1.3,3.9,0.6,8.1-2,12.5c-11.1,19-55.8,38.2-81.5,47.9c-44.7,16.9-103,32.9-164.4,45
	c-70.5,13.9-138.6,21.6-191.7,21.7L620.5,768.2z M971.2,622h-0.8c-52.9,0.1-120.8,7.8-191.1,21.6c-124.7,24.5-227.3,63-243.9,91.4
	c-2.1,3.7-2.7,7-1.7,10.1c4.2,12.8,35.9,20.2,87,20.2h0.8c52.9-0.1,120.8-7.8,191.1-21.6c124.7-24.6,227.3-63,243.9-91.4
	c2.1-3.7,2.7-7,1.7-10.1C1054,629.4,1022.3,622,971.2,622z"/>
<polygon class="st18" points="607.1,683.7 599.7,689.6 608.9,691.9 612.2,700.8 617.2,692.8 626.6,692.3 620.6,685.1 623.1,676 
	614.3,679.5 606.5,674.3 "/>
<polygon class="st18" points="987.7,583.7 984.7,592.6 993.6,589.6 1001.2,595.2 1001,585.8 1008.8,580.3 999.7,577.5 996.9,568.5 
	991.5,576.2 982,576.1 "/>
<polygon class="st24" points="885.7,519.1 881.7,527.7 890.9,525.7 897.8,532.1 898.7,522.7 907,518.1 898.3,514.3 896.5,505.1 
	890.2,512.1 880.9,511 "/>
<polygon class="st24" points="1000.5,755.2 996.5,763.8 1005.7,761.7 1012.7,768.2 1013.6,758.8 1021.8,754.2 1013.2,750.4 
	1011.3,741.2 1005.1,748.2 995.7,747.1 "/>
<polygon class="st18" points="633.5,818.8 625.7,824 634.7,827 637.3,836.1 642.9,828.5 652.4,828.9 646.9,821.2 650.1,812.3 
	641.1,815.1 633.6,809.3 "/>
<polygon class="st24" points="444.9,778.2 495.1,795.1 489.2,774.6 518.6,780.2 467,754.5 476,778.4 "/>
<polygon class="st24" points="778.1,485.6 774.8,566.7 802.4,549.2 806.9,594.8 822.5,507.8 791.2,531.4 "/>
<path class="st28" d="M1856,1615.6c1.4,3.5,4.1,22,9.8,37.4l0,0c3.4,9.3,7.9,17.5,13.9,20.7c16,8.5,44.2-3,44.2-3s46.9,8.1,51.6,6.1
	s13.2-72.5,13.2-72.5s-34.6-40.1-37.8-41.4s-30.8,11.4-35.4,11.1s-30.5-19.3-37.9-15.3S1853.7,1610,1856,1615.6z"/>
<path class="st29" d="M1915.4,1574.1c0,0,7.2,19,9.4,20.7s26.1-31.9,26.1-31.9C1947.7,1561.7,1920,1574.3,1915.4,1574.1z"/>
<path class="st29" d="M1877.1,1577.2c0,0,31.8,32.9,31.2,35.8s-37.6,21.6-38.8,20.8s9-23.9,8.8-27.9S1877.1,1577.2,1877.1,1577.2z"
	/>
<path class="st29" d="M1856,1615.6c1.4,3.5,4.1,22,9.8,37.4l0,0l0,0l-2.1-34.8l13.8-59.4C1870.1,1562.8,1853.7,1610,1856,1615.6z"/>
<path class="st29" d="M1923.9,1670.7c0,0,46.9,8.1,51.6,6.1s13.2-72.5,13.2-72.5s-12.3,35.7-12.6,37.5s-14.6-3-14.6-3L1923.9,1670.7
	z"/>
<polygon class="st29" points="1976.4,1603.7 1970.1,1622.2 1959.3,1621.6 1967.8,1614.1 "/>
<path class="st28" d="M2121,1631.7c1.1,2.4,3.2,14.9,7.6,25.4l0,0c2.7,6.3,6.2,11.9,10.8,14.1c12.4,6,34.3-1.5,34.3-1.5
	s36.4,6,40,4.7s10.2-48.8,10.2-48.8s-26.8-27.5-29.3-28.4s-23.9,7.3-27.5,7.1s-23.6-13.4-29.4-10.8S2119.2,1627.8,2121,1631.7z"/>
<path class="st30" d="M2167.1,1604.3c0,0,5.6,12.9,7.3,14.1s20.2-21.3,20.2-21.3C2192.1,1596.3,2170.6,1604.5,2167.1,1604.3z"/>
<path class="st31" d="M2137.3,1606c0,0,24.7,22.6,24.2,24.5s-29.1,14.2-30.1,13.6s7-16.1,6.8-18.8S2137.3,1606,2137.3,1606z"/>
<path class="st30" d="M2121,1631.7c1.1,2.4,3.2,14.9,7.6,25.4l0,0l0,0l-1.6-23.6l10.7-40C2131.9,1596.2,2119.2,1627.8,2121,1631.7z"
	/>
<path class="st31" d="M2173.7,1669.7c0,0,36.4,6,40,4.7s10.2-48.8,10.2-48.8s-9.5,24-9.8,25.2s-11.4-2.2-11.4-2.2L2173.7,1669.7z"/>
<polygon class="st31" points="2214.4,1625 2209.5,1637.4 2201.1,1636.9 2207.7,1631.9 "/>
<path class="st28" d="M2175.1,937.9c1.1,2.4,3.2,14.9,7.6,25.4l0,0c2.7,6.3,6.2,11.9,10.8,14.1c12.4,6,34.3-1.5,34.3-1.5
	s36.4,6,40,4.7s10.2-48.8,10.2-48.8s-26.8-27.5-29.3-28.4s-23.9,7.3-27.5,7.1s-23.6-13.4-29.4-10.8S2173.3,934.1,2175.1,937.9z"/>
<path class="st30" d="M2221.3,910.6c0,0,5.6,12.9,7.3,14.1s20.2-21.3,20.2-21.3C2246.2,902.5,2224.8,910.8,2221.3,910.6z"/>
<path class="st31" d="M2191.5,912.3c0,0,24.7,22.6,24.2,24.5s-29.1,14.2-30.1,13.6s7-16.1,6.8-18.8S2191.5,912.3,2191.5,912.3z"/>
<path class="st30" d="M2175.1,937.9c1.1,2.4,3.2,14.9,7.6,25.4l0,0l0,0l-1.6-23.6l10.7-40C2186.1,902.4,2173.3,934.1,2175.1,937.9z"
	/>
<path class="st31" d="M2227.8,976c0,0,36.4,6,40,4.7s10.2-48.8,10.2-48.8s-9.5,24-9.8,25.2S2257,955,2257,955L2227.8,976z"/>
<polygon class="st31" points="2268.5,931.3 2263.7,943.7 2255.3,943.2 2261.9,938.2 "/>
<path class="st32" d="M149.7,1669.9h2704.2c1.7,0,3.1,1.4,3.1,3.1v1.1c0,1.7-1.4,3.1-3.1,3.1H149.7c-1.7,0-3.1-1.4-3.1-3.1v-1.1
	C146.7,1671.3,148,1669.9,149.7,1669.9z"/>
</svg>
