<svg id="_лой_1" data-name="‘лой_1" xmlns="http://www.w3.org/2000/svg" viewBox="0 0 3000 2000"><defs><style>.cls-1{fill:#fff;}.cls-2{fill:#ebf3fa;}.cls-3{fill:#d9e8fe;}.cls-4{fill:#f5fbff;}.cls-5{fill:#8fadef;}.cls-6{fill:#dfebfd;}.cls-7{fill:#9fc1f4;}.cls-8{fill:#ff8c64;}.cls-9{fill:#bbc9f9;}.cls-10{fill:#35488b;}.cls-11{fill:#2c3a64;}.cls-12{fill:#dde7fe;}.cls-13{fill:#6c7aff;}.cls-14{fill:#cde2fc;}.cls-15{fill:#a4c8f4;}.cls-16,.cls-17{fill:#bdd8ff;}.cls-16{opacity:0.5;}.cls-18{fill:#f77d48;}.cls-19{fill:#ffb93e;}.cls-20{fill:#ffa412;}.cls-21{fill:#7da4ea;}.cls-22{fill:#0b0755;}.cls-23{fill:#b5c6e8;}.cls-24{fill:#e9f0ff;}.cls-25{fill:#f99746;}.cls-26{fill:#ed975d;}.cls-27{fill:#ffb27d;}.cls-28{fill:#2b478b;}.cls-29{fill:#f2f7fe;}.cls-30{fill:#c4d9e8;}.cls-31{fill:#dfebf5;}.cls-32{fill:#233862;}</style></defs><rect class="cls-1" width="3000" height="2000"/><path class="cls-2" d="M2699.37,1673.51c-154.91,0-2411.58.47-2412.89-2.94l-.22-.43a2.05,2.05,0,0,1-.22-.63c-.86-1.71-347.7-480.8,191.5-814.32,211-130.5-13.2-216.64,154.57-361.92,192.81-166.94,403.22,17.74,617.61-58,37.89-13.36,75.9-34.87,114-67.88a415.85,415.85,0,0,1,70-48.8q5.79-3.24,11.68-6.31A499.39,499.39,0,0,1,1492.09,291q16.19-6.42,33-11.86h0q26.65-8.66,54.68-14.95a724.7,724.7,0,0,1,81.56-13.43q18.2-2,36.68-3.14c239.56-15.12,509.15,69.92,648.27,194.22,28,25,155.38,154.54,55,332.55-63.39,112.39,202.17,219.73,296.54,348.07C2937.74,1448.79,2701.55,1669.26,2699.37,1673.51Z"/><rect class="cls-3" x="1412.01" y="832.63" width="140.95" height="140.95" transform="translate(-154.53 325.56) rotate(-11.92)"/><rect class="cls-4" x="1434.45" y="869.69" width="140.95" height="140.95" transform="matrix(0.94, 0.35, -0.35, 0.94, 420, -463.99)"/><rect class="cls-5" x="1240.72" y="529.81" width="211.82" height="220.56" rx="15.7"/><rect class="cls-6" x="1249.9" y="539.37" width="193.47" height="201.45" rx="14.34"/><path class="cls-5" d="M1342.25,559.5a4.4,4.4,0,1,1,4.38,4.71A4.55,4.55,0,0,1,1342.25,559.5Z"/><path class="cls-5" d="M1377.65,566.15a4.23,4.23,0,0,1,6-1.82,4.88,4.88,0,0,1,1.7,6.4,4.23,4.23,0,0,1-6,1.83A4.91,4.91,0,0,1,1377.65,566.15Z"/><path class="cls-5" d="M1408,592a4.21,4.21,0,0,1,6.06,1.4,4.92,4.92,0,0,1-1.31,6.51,4.2,4.2,0,0,1-6.06-1.4A4.91,4.91,0,0,1,1408,592Z"/><path class="cls-5" d="M1423,632.05a4.72,4.72,0,1,1-4.39,4.71A4.56,4.56,0,0,1,1423,632.05Z"/><path class="cls-5" d="M1415.34,678.51a5,5,0,0,1,0,6.66,4.18,4.18,0,0,1-6.21,0,5,5,0,0,1,0-6.66A4.18,4.18,0,0,1,1415.34,678.51Z"/><path class="cls-5" d="M1387.79,708.16a5,5,0,0,1,0,6.66,4.18,4.18,0,0,1-6.21,0,5,5,0,0,1,0-6.66A4.18,4.18,0,0,1,1387.79,708.16Z"/><path class="cls-5" d="M1342.25,723.45a4.4,4.4,0,1,1,4.38,4.7A4.55,4.55,0,0,1,1342.25,723.45Z"/><path class="cls-5" d="M1315.48,566.15a4.23,4.23,0,0,0-6-1.82,4.88,4.88,0,0,0-1.7,6.4,4.23,4.23,0,0,0,6,1.83A4.91,4.91,0,0,0,1315.48,566.15Z"/><path class="cls-5" d="M1285.14,592a4.21,4.21,0,0,0-6.06,1.4,4.91,4.91,0,0,0,1.31,6.51,4.2,4.2,0,0,0,6.06-1.4A4.91,4.91,0,0,0,1285.14,592Z"/><path class="cls-5" d="M1270.12,632.05a4.72,4.72,0,1,0,4.39,4.71A4.56,4.56,0,0,0,1270.12,632.05Z"/><path class="cls-5" d="M1277.79,678.51a5,5,0,0,0,0,6.66,4.18,4.18,0,0,0,6.21,0,5,5,0,0,0,0-6.66A4.18,4.18,0,0,0,1277.79,678.51Z"/><path class="cls-5" d="M1305.34,708.16a5,5,0,0,0,0,6.66,4.18,4.18,0,0,0,6.21,0,5,5,0,0,0,0-6.66A4.18,4.18,0,0,0,1305.34,708.16Z"/><path class="cls-5" d="M1345.45,636.76a4.4,4.4,0,1,1,4.39,4.71A4.56,4.56,0,0,1,1345.45,636.76Z"/><rect class="cls-5" x="1349.24" y="577.93" width="1.2" height="58.83"/><polygon class="cls-5" points="1350.4 638.2 1348.18 635.16 1377.24 610.68 1379.46 613.71 1350.4 638.2"/><path class="cls-7" d="M1785.54,477.64l-5.83-3.2a12.87,12.87,0,0,1-5.09-17.46l26.81-48.87a12.87,12.87,0,0,1,17.46-5.1l8.34,4.58a2.52,2.52,0,1,1-2.42,4.41l-8.34-4.57a7.83,7.83,0,0,0-10.63,3.1L1779,459.4a7.85,7.85,0,0,0,3.1,10.63l5.83,3.19a7.82,7.82,0,0,0,10.62-3.1l17.8-32.44a2.52,2.52,0,1,1,4.41,2.42L1803,472.54A12.88,12.88,0,0,1,1785.54,477.64Z"/><path class="cls-7" d="M1760.66,529l-10.44-5.73c-9.7-5.32-13-18.09-7.25-28.48l40.3-73.48a2.52,2.52,0,0,1,4.41,2.43l-40.3,73.47c-4.36,7.95-2,17.67,5.26,21.65l10.44,5.73c7.26,4,16.72.75,21.08-7.21l45.91-83.69c4.36-7.95,2-17.66-5.26-21.65a2.52,2.52,0,1,1,2.42-4.41c9.7,5.32,13,18.09,7.25,28.48l-45.91,83.7C1782.88,530.15,1770.36,534.28,1760.66,529Z"/><path class="cls-8" d="M2194.9,686.55l4.61-4.78a12.88,12.88,0,0,1,18.19-.33l40.11,38.71a12.88,12.88,0,0,1,.32,18.19l-6.61,6.84a2.51,2.51,0,1,1-3.62-3.49l6.61-6.85a7.83,7.83,0,0,0-.2-11.07l-40.11-38.71a7.84,7.84,0,0,0-11.07.2l-4.61,4.78a7.83,7.83,0,0,0,.2,11.07l26.62,25.7a2.51,2.51,0,1,1-3.49,3.62l-26.63-25.7A12.87,12.87,0,0,1,2194.9,686.55Z"/><path class="cls-8" d="M2151.92,649.06l8.27-8.57c7.68-8,20.86-7.74,29.38.49l60.3,58.19a2.51,2.51,0,1,1-3.49,3.62l-60.3-58.19c-6.53-6.3-16.52-6.58-22.27-.62l-8.27,8.57c-5.75,6-5.12,15.93,1.41,22.23l68.68,66.29c6.53,6.3,16.52,6.58,22.27.62a2.51,2.51,0,0,1,3.62,3.49c-7.67,8-20.86,7.74-29.38-.49l-68.69-66.29C2144.93,670.18,2144.24,657,2151.92,649.06Z"/><path class="cls-3" d="M1280.85,1173.54s-8.23-136-31.75-178.6h123.83v178.32Z"/><path class="cls-9" d="M1342.77,1173.54s-8.23-136-31.75-178.6h123.83v178.32Z"/><rect class="cls-10" x="1389.36" y="921.76" width="119.85" height="386.63"/><rect class="cls-11" x="1509.21" y="921.76" width="289.02" height="386.63"/><circle class="cls-12" cx="1449.28" cy="970.05" r="20"/><circle class="cls-13" cx="1449.28" cy="970.05" r="14.14"/><rect class="cls-5" x="1421.54" y="1018.24" width="56.37" height="101.83"/><rect class="cls-14" x="1596.33" y="1099.13" width="229.99" height="74.13"/><rect class="cls-15" x="1826.31" y="1099.13" width="229.99" height="74.13"/><rect class="cls-5" x="1596.33" y="1135.39" width="57.39" height="1.61"/><rect class="cls-5" x="1667.79" y="1112.58" width="158.53" height="1.61"/><rect class="cls-5" x="1596.33" y="1155.35" width="101.46" height="1.61"/><rect class="cls-3" x="1525" y="1025" width="229.99" height="74.13"/><rect class="cls-9" x="1754.98" y="1025" width="229.99" height="74.13"/><rect class="cls-5" x="1525" y="1061.26" width="57.39" height="1.61"/><rect class="cls-5" x="1596.46" y="1038.45" width="158.53" height="1.61"/><rect class="cls-5" x="1525" y="1081.22" width="101.47" height="1.61"/><rect class="cls-16" x="1653.72" y="816" width="229.99" height="74.13"/><rect class="cls-15" x="1883.7" y="816" width="229.99" height="74.13"/><rect class="cls-5" x="1653.72" y="852.26" width="57.39" height="1.61"/><rect class="cls-5" x="1725.18" y="829.45" width="158.53" height="1.61"/><rect class="cls-5" x="1653.72" y="871.19" width="101.46" height="1.61"/><rect class="cls-4" x="1582.39" y="741.87" width="229.99" height="74.13"/><rect class="cls-17" x="1812.37" y="741.87" width="229.99" height="74.13"/><rect class="cls-5" x="1582.39" y="778.13" width="57.39" height="1.61"/><rect class="cls-5" x="1800.51" y="778.13" width="57.39" height="1.61"/><rect class="cls-5" x="1779.3" y="755.32" width="158.53" height="1.61"/><rect class="cls-5" x="1582.39" y="798.09" width="101.46" height="1.61"/><rect class="cls-17" x="1841.48" y="890.03" width="229.99" height="134.96" transform="translate(3912.94 1915.03) rotate(180)"/><rect class="cls-4" x="1611.49" y="890.03" width="229.99" height="134.96" transform="translate(3452.97 1915.03) rotate(180)"/><rect class="cls-5" x="2014.07" y="956.43" width="57.39" height="2.17"/><rect class="cls-10" x="1683.85" y="915.4" width="316.15" height="1.18"/><rect class="cls-5" x="1970" y="992.76" width="101.46" height="2.17"/><rect class="cls-10" x="1774.71" y="939.58" width="109" height="1.18"/><rect class="cls-18" x="1493.38" y="1173.54" width="677.14" height="500.29"/><rect class="cls-8" x="1270.77" y="1173.54" width="536.88" height="500.29"/><path class="cls-11" d="M1439.07,1221.87h139.07a15.65,15.65,0,0,1,15.65,15.65v2a15.65,15.65,0,0,1-15.65,15.65H1439.07a15.66,15.66,0,0,1-15.66-15.66v-2A15.66,15.66,0,0,1,1439.07,1221.87Z"/><rect class="cls-7" x="1474.85" y="1342.34" width="128.72" height="128.72" transform="translate(266.47 -245) rotate(9.96)"/><rect class="cls-5" x="1484.18" y="1343.15" width="128.72" height="20.8" transform="translate(257.42 -247.41) rotate(9.96)"/><rect class="cls-19" x="1633.43" y="1244.03" width="128.72" height="128.72" transform="translate(-276.71 474.3) rotate(-14.72)"/><rect class="cls-20" x="1619.72" y="1245.8" width="128.72" height="20.8" transform="translate(-263.91 469.12) rotate(-14.72)"/><path class="cls-5" d="M1274,1034.4c-3.48-19.29-13.57-39-13.67-39.2l1-.53c.1.19,10.27,20.06,13.77,39.52Z"/><path class="cls-5" d="M1304.34,1083c-7.25-52-22.47-87.47-22.62-87.82l1.08-.47c.15.35,15.43,36,22.71,88.12Z"/><rect class="cls-5" x="2083.44" y="1296.63" width="510.11" height="376.89"/><rect class="cls-7" x="1915.74" y="1296.63" width="404.45" height="376.89"/><rect class="cls-10" x="2030.73" y="1333.04" width="128.35" height="25.11" rx="11.79"/><rect class="cls-17" x="1895.91" y="1232.5" width="424.28" height="83.03"/><rect class="cls-21" x="2320.19" y="1232.5" width="286.08" height="83.03"/><rect class="cls-8" x="2151.37" y="1390.16" width="134.14" height="134.14" transform="translate(-297.44 611.46) rotate(-14.72)"/><rect class="cls-18" x="2137.09" y="1392" width="134.14" height="21.68" transform="translate(-284.1 606.06) rotate(-14.72)"/><polygon class="cls-18" points="2178.19 1063.31 2284.55 977.67 2442.36 996.96 2442.36 1063.31 2178.19 1063.31"/><rect class="cls-8" x="2109.23" y="888.4" width="86.46" height="264.18" transform="translate(3172.95 -1131.97) rotate(90)"/><path class="cls-12" d="M2251.55,1007a13.67,13.67,0,1,1-13.66,13.66A13.66,13.66,0,0,1,2251.55,1007Z"/><path class="cls-22" d="M2251.55,1013.05a7.64,7.64,0,1,1-7.64,7.64A7.65,7.65,0,0,1,2251.55,1013.05Z"/><rect class="cls-17" x="2158.49" y="980.11" width="38.52" height="81.76" transform="translate(3198.74 -1156.75) rotate(90)"/><rect class="cls-12" x="2036.24" y="1148.11" width="261.81" height="84.39"/><rect class="cls-23" x="2298.04" y="1148.11" width="261.81" height="84.39"/><rect class="cls-10" x="2036.24" y="1189.39" width="65.33" height="1.83"/><rect class="cls-10" x="2117.58" y="1163.42" width="180.46" height="1.83"/><rect class="cls-10" x="2036.24" y="1212.11" width="115.5" height="1.83"/><rect class="cls-24" x="1955.04" y="1063.72" width="261.81" height="84.39"/><rect class="cls-9" x="2216.85" y="1063.72" width="261.81" height="84.39"/><rect class="cls-5" x="1955.04" y="1105" width="65.33" height="1.83"/><rect class="cls-5" x="2036.39" y="1079.03" width="180.46" height="1.83"/><rect class="cls-5" x="1955.04" y="1127.72" width="115.5" height="1.83"/><path class="cls-25" d="M591.54,840.81c-4.64,0-7.89-1.12-9.54-3.49a8.26,8.26,0,0,1-1-6.39c4.74-25.1,87.36-96.58,196.45-169.94C884,589.37,1002,526.73,1015.29,545.87a8.2,8.2,0,0,1,1,6.38c-4.74,25.11-87.35,96.58-196.44,170C726.53,785,624.34,840.81,591.54,840.81ZM584,836c5,7.16,33.44-1,76.18-21.93C704.7,792.26,760.94,759,818.5,720.23,925.37,648.36,1009.38,576,1013.94,551.81a5.93,5.93,0,0,0-.6-4.59c-5-7.16-33.44,1-76.18,21.93C892.6,590.93,836.35,624.24,778.79,663,671.93,734.82,587.91,807.23,583.35,831.37a6,6,0,0,0,.6,4.6Z"/><path class="cls-11" d="M1194.09,1216c-74.17-23.81-547.41,179.82-547.41,179.82s-77,54.71-3.48,169.24c61.1,95.09,520.68-195.42,529-158.93,19.89,87.13,189.41,254.29,189.41,254.29,28.31,9.28,91.32-28.52,91.32-28.52C1386.74,1531.29,1253.34,1235,1194.09,1216Z"/><path class="cls-26" d="M952.91,895.15s-10.39-16.43-12.06-33.07.94-63.49-10.79-74.42-48.88-38-62.28-32.19,30.57,32.84,31.89,46.54.5,15.2-4.63,16.12-22-19.24-22.11-12.83S889.39,847,897.62,854s20.46,61.36,20.46,61.36Z"/><path class="cls-5" d="M952.91,872s-43.83,0-51.25,35.35c0,0,2.26,119.93,18,227.31-94.51-89.29-59.52-87.93-136.35-146.09-31.22-23.64-59.35,57.66-58.57,115.17s201.32,189,253,172.82C1033.69,1259,1045.16,1133.57,952.91,872Z"/><path class="cls-11" d="M1760.34,1669.49c.24-.17,1.6-2,1.89-2.25l88.94-149.39a7.7,7.7,0,0,0-5-11.65,34.82,34.82,0,0,0-35.14,12.79c-17.8,23.12-56.24,59.09-94,51.38-1.2-.25-2.42-.55-3.64-.88-38.84-10.93-24.14,70.07-24.14,70.07s1.28.92,3.51,2.43C1704.83,1650.17,1749.16,1677.33,1760.34,1669.49Z"/><path class="cls-10" d="M562.25,1442.41s412.12-18.22,571.46,23.08c0,0,158.38,111.4,26.19,148.4-51.45,14.39-227.3,56.54-322.52,56.54-156.29,0-305.86,1-305.86,1-24.09-10.6-27.84-81.84-31.73-101C472.72,1437,562.25,1442.41,562.25,1442.41Z"/><path class="cls-10" d="M1123.94,1463.1s432,82,599.69,108.18c0,0-18.24,70.45-45.5,86.07,0,0-99.78,6.53-199.55,13.08-123.18,8.09-244.69-7-318.56-36.68C993.21,1566.77,1123.94,1463.1,1123.94,1463.1Z"/><path class="cls-27" d="M799.9,1075.13c-76-3.39-175.19-120.38-175.19-120.38s56.16-17,93.53-80.84a220.19,220.19,0,0,0,19.09-42.67l25.25,41.9L799.8,934.9s-3.37,9-10.93,24.85v0c-2.52,5.29-5.49,11.35-9,18.07-4.18,8.09-9.07,17.14-14.71,27.07C788.57,1031.69,799.9,1075.13,799.9,1075.13Z"/><path class="cls-26" d="M799.8,934.9s-3.37,9-10.93,24.85c-53.7-36.53-58.47-89.06-58.47-89.06s4.17-.62,32.18,2.45Z"/><path class="cls-27" d="M821.47,948.26s-114.76-40-88.75-111.07S761.44,713.07,835.8,735.6s78.6,54.84,75.69,80.68S852,956.84,821.47,948.26Z"/><path class="cls-28" d="M711.75,707.66c-.85-1.53-3.21-3.12-8.9-4.64a23.53,23.53,0,0,1,11.38-.83c2.89-7.87,10.13-21.35,24.62-22,0,0-8.23,2.46-11,10.89,19.39-13.3,56-18.29,149,9C999.37,736,941.45,808.44,923.31,814.74s-53.23-28.62-83.78-32.46-45.45,39.08-56.9,43-5.22-5.93-17.7-15.14-18.62,13.74-17.77,29.66-26.35,29.58-26.35,29.58-2.71-9.33-10.7-22.63c-14.93-24.85-14.37-117.41-1.73-134.51C709.5,710.74,710.61,709.2,711.75,707.66Z"/><path class="cls-7" d="M832.19,1152.44c-8.64,222.64-83.34,188.28-44.49,254.18,24.75,42-27,75.1-83.76,117.89-1.67,1.25-3.33,2.52-5,3.79-16.29,12.39-33.53,24.51-50.76,35.53-26.73,17.09-53.49,31.6-76.83,40.5-23.81,9.11-44.06,12.42-57.09,6.76-.42-.17-.8-.32-1.17-.51-11.14-5.49-20.38-20.38-27.94-40.55-13.58-36-29-178.15-33.4-220.63-.77-7.64-1.21-12.05-1.21-12.05-25.21-310,232.11-418.83,232.11-418.83s22.52,67.28,95.26,63.15C778,981.78,835.85,1058.1,832.19,1152.44Z"/><path class="cls-5" d="M703.94,1524.51c-1.67,1.25-3.33,2.52-5,3.79-16.29,12.39-33.53,24.51-50.76,35.53-26.73,17.09-53.49,31.6-76.83,40.5-25.82,7.33-47.18,10.57-57.09,6.76-.42-.17-.8-.32-1.17-.51-11.14-5.49-20.38-20.38-27.94-40.55-13.58-36-29-178.15-33.4-220.63,31.58-90.88,75-193.6,123.18-239.61,95-90.73,124,47.45,124,47.45S625.41,1338.54,703.94,1524.51Z"/><path class="cls-7" d="M606.53,1026.37c-37.67,93.65-115.9,274.28-88.07,362.15,0,0,112.65,29.73,115.92-5.13,18.28-194.88,185.93-408,56.53-403.86C654.71,980.7,620.05,992.77,606.53,1026.37Z"/><path class="cls-18" d="M768.44,992.81s89.84,271.29,37.81,533L729,1552.36l-18.93-54.94S810.22,1241.49,756,995.69Z"/><path class="cls-27" d="M603,1607.5s29.36,40.09,65.35,34.41,49.25,4.73,65.35,13.26,20.52,13,14.76,15.26c-4.34,1.7-83,.84-121.58.31-12.67-.17-49-34-49-34Z"/><path class="cls-7" d="M513.78,1363.1c-5.47,146.38,45,246.25,58.7,297.43,0,0,16.65,7.9,29.59,3.63,28.31-9.32,28-31.78,28-31.78s.75-182.1,4.33-249C637.87,1318.2,514.93,1332.55,513.78,1363.1Z"/><path class="cls-18" d="M698.9,901.4s-24.13,6.5-36.09,27.11c0,0,9.4,40.65,101.27,63.38l-3.47-10.62S708.13,955.48,698.9,901.4Z"/><path class="cls-18" d="M760.61,981.27s18.73-7,22.67-10.08c0,0,4.7,10.7,2.78,19.41,0,0-6.06,3.81-22,1.29S760.61,981.27,760.61,981.27Z"/><path class="cls-18" d="M768.44,981.17s-18.31-1.56-20.2.8,10.7,24,16.94,22.94S773.49,983.7,768.44,981.17Z"/><path class="cls-25" d="M593.26,840.37c-4.64,0-7.89-1.12-9.53-3.49l1.95-1.35c9.58,13.84,106.12-29.36,234.55-115.73,106.86-71.87,190.88-144.28,195.43-168.42a5.92,5.92,0,0,0-.6-4.59l2-1.35a8.19,8.19,0,0,1,1,6.38c-4.73,25.1-87.35,96.58-196.44,169.95C728.26,784.51,626.07,840.37,593.26,840.37Z"/><path class="cls-25" d="M620.55,768.24c-25.48,0-46.12-1.77-61.35-5.27-16.38-3.76-25.93-9.46-28.4-16.93-1.27-3.86-.61-8,2-12.46,11.12-19,55.85-38.18,81.52-47.9,44.66-16.91,103-32.87,164.35-44.95,70.53-13.88,138.61-21.58,191.71-21.66,25.86-.06,46.83,1.73,62.24,5.27,16.38,3.76,25.93,9.46,28.39,16.93,1.28,3.86.62,8.06-2,12.46-11.12,19-55.85,38.18-81.52,47.9-44.67,16.91-103,32.87-164.36,45-70.52,13.88-138.6,21.58-191.7,21.66ZM971.21,622h-.85c-52.92.09-120.8,7.76-191.15,21.62-124.71,24.55-227.28,63-243.9,91.43-2.13,3.65-2.7,7-1.71,10.06,4.23,12.83,35.92,20.18,87,20.18h.85c52.92-.09,120.8-7.76,191.14-21.61,124.71-24.56,227.29-63,243.9-91.44,2.14-3.65,2.71-7,1.71-10.06C1054,629.36,1022.27,622,971.21,622Z"/><polygon class="cls-19" points="607.11 683.72 599.71 689.6 608.87 691.9 612.17 700.76 617.19 692.75 626.64 692.35 620.57 685.1 623.11 676 614.34 679.52 606.47 674.3 607.11 683.72"/><polygon class="cls-19" points="987.68 583.69 984.66 592.64 993.6 589.6 1001.18 595.24 1001.05 585.79 1008.76 580.33 999.74 577.53 996.92 568.51 991.47 576.23 982.02 576.12 987.68 583.69"/><polygon class="cls-25" points="885.66 519.14 881.67 527.7 890.89 525.66 897.81 532.1 898.72 522.7 906.98 518.11 898.32 514.34 896.51 505.06 890.24 512.14 880.86 510.99 885.66 519.14"/><polygon class="cls-25" points="1000.5 755.22 996.51 763.78 1005.74 761.74 1012.65 768.18 1013.56 758.78 1021.82 754.19 1013.16 750.42 1011.35 741.15 1005.09 748.22 995.71 747.08 1000.5 755.22"/><polygon class="cls-19" points="633.55 818.76 625.72 824.05 634.68 827.05 637.29 836.13 642.91 828.54 652.36 828.86 646.87 821.17 650.09 812.28 641.08 815.13 633.63 809.31 633.55 818.76"/><polygon class="cls-25" points="444.92 778.15 495.1 795.14 489.21 774.64 518.57 780.24 467 754.46 475.98 778.4 444.92 778.15"/><polygon class="cls-25" points="778.09 485.61 774.83 566.71 802.41 549.18 806.88 594.76 822.46 507.82 791.16 531.37 778.09 485.61"/><path class="cls-1" d="M1856,1615.58c1.45,3.49,4.12,22,9.81,37.42v0c3.43,9.3,7.93,17.48,13.91,20.68,16,8.53,44.2-3,44.2-3s46.86,8.06,51.57,6.13,13.21-72.46,13.21-72.46-34.58-40.14-37.8-41.41-30.85,11.4-35.44,11.14-30.47-19.27-37.92-15.27S1853.67,1610,1856,1615.58Z"/><path class="cls-29" d="M1915.45,1574.08s7.17,19,9.37,20.73,26.07-31.87,26.07-31.87C1947.68,1561.67,1920,1574.34,1915.45,1574.08Z"/><path class="cls-29" d="M1877.06,1577.24s31.8,32.89,31.2,35.77-37.55,21.59-38.82,20.79,9-23.9,8.77-27.91S1877.06,1577.24,1877.06,1577.24Z"/><path class="cls-29" d="M1856,1615.58c1.45,3.49,4.12,22,9.81,37.42v0h0l-2.08-34.83,13.8-59.38C1870.08,1562.83,1853.67,1610,1856,1615.58Z"/><path class="cls-29" d="M1923.91,1670.68s46.86,8.06,51.57,6.13,13.21-72.46,13.21-72.46-12.27,35.74-12.6,37.54-14.62-3-14.62-3Z"/><polygon class="cls-29" points="1976.4 1603.67 1970.12 1622.16 1959.32 1621.56 1967.78 1614.12 1976.4 1603.67"/><path class="cls-1" d="M2121,1631.66c1.13,2.37,3.2,14.89,7.62,25.4v0c2.66,6.32,6.16,11.91,10.8,14.13,12.38,6,34.28-1.53,34.28-1.53s36.36,6,40,4.74,10.22-48.83,10.22-48.83-26.84-27.53-29.33-28.43-23.93,7.35-27.49,7.13-23.64-13.38-29.42-10.76S2119.17,1627.85,2121,1631.66Z"/><path class="cls-30" d="M2167.08,1604.29s5.56,12.9,7.27,14.12,20.22-21.25,20.22-21.25C2192.08,1596.27,2170.64,1604.51,2167.08,1604.29Z"/><path class="cls-31" d="M2137.3,1606s24.68,22.6,24.22,24.54-29.13,14.16-30.11,13.61,7-16.05,6.79-18.77S2137.3,1606,2137.3,1606Z"/><path class="cls-30" d="M2121,1631.66c1.13,2.37,3.2,14.89,7.62,25.4v0h0l-1.63-23.57,10.69-40C2131.88,1596.16,2119.17,1627.85,2121,1631.66Z"/><path class="cls-31" d="M2173.67,1669.68s36.36,6,40,4.74,10.22-48.83,10.22-48.83-9.51,24-9.75,25.23-11.35-2.18-11.35-2.18Z"/><polygon class="cls-31" points="2214.37 1624.99 2209.51 1637.42 2201.12 1636.89 2207.68 1631.95 2214.37 1624.99"/><path class="cls-1" d="M2175.14,937.93c1.12,2.38,3.2,14.9,7.62,25.41v0c2.66,6.32,6.16,11.9,10.8,14.13,12.38,6,34.28-1.53,34.28-1.53s36.36,6,40,4.74,10.22-48.83,10.22-48.83-26.84-27.53-29.33-28.43-23.93,7.35-27.49,7.13-23.65-13.38-29.42-10.76S2173.34,934.13,2175.14,937.93Z"/><path class="cls-30" d="M2221.25,910.57s5.56,12.9,7.27,14.12,20.22-21.25,20.22-21.25C2246.24,902.54,2224.81,910.79,2221.25,910.57Z"/><path class="cls-31" d="M2191.47,912.26s24.68,22.6,24.21,24.54-29.12,14.16-30.11,13.61,7-16.06,6.8-18.77S2191.47,912.26,2191.47,912.26Z"/><path class="cls-30" d="M2175.14,937.93c1.12,2.38,3.2,14.9,7.62,25.41v0h0l-1.63-23.57,10.69-40C2186.05,902.44,2173.34,934.13,2175.14,937.93Z"/><path class="cls-31" d="M2227.84,976s36.36,6,40,4.74,10.22-48.83,10.22-48.83-9.51,24-9.76,25.23-11.34-2.18-11.34-2.18Z"/><polygon class="cls-31" points="2268.54 931.27 2263.67 943.69 2255.29 943.16 2261.85 938.23 2268.54 931.27"/><rect class="cls-32" x="146.66" y="1669.92" width="2710.34" height="7.19" rx="3.07"/></svg>