<svg xmlns="http://www.w3.org/2000/svg" xmlns:xlink="http://www.w3.org/1999/xlink" viewBox="0 0 1228.82 1006.42"><defs><style>.cls-1{fill:#00399e;}.cls-2{fill:none;}.cls-3{isolation:isolate;}.cls-4{clip-path:url(#clip-path);}.cls-5{fill:url(#Degradado_sin_nombre_57);}.cls-6{clip-path:url(#clip-path-2);}.cls-12,.cls-14,.cls-17,.cls-20,.cls-7,.cls-8{mix-blend-mode:overlay;}.cls-7{fill:url(#linear-gradient);}.cls-8{fill:url(#linear-gradient-2);}.cls-9{opacity:0.61;fill:url(#linear-gradient-3);}.cls-10,.cls-11,.cls-9{mix-blend-mode:soft-light;}.cls-10{fill:url(#linear-gradient-4);}.cls-11{fill:url(#linear-gradient-5);}.cls-12{opacity:0.83;}.cls-13{fill:url(#linear-gradient-6);}.cls-15{fill:url(#linear-gradient-7);}.cls-16{fill:url(#linear-gradient-8);}.cls-17{opacity:0.44;}.cls-18{fill:url(#linear-gradient-9);}.cls-19{fill:url(#linear-gradient-10);}.cls-20{opacity:0.36;}.cls-21{fill:url(#linear-gradient-11);}</style><clipPath id="clip-path" transform="translate(368.11 326.79)"><rect class="cls-1" width="750" height="500"/></clipPath><radialGradient id="Degradado_sin_nombre_57" cx="530.21" cy="258.89" r="930.27" gradientUnits="userSpaceOnUse"><stop offset="0" stop-color="#1d7bff"/><stop offset="1" stop-color="#0044a5"/></radialGradient><clipPath id="clip-path-2" transform="translate(368.11 326.79)"><rect class="cls-2" width="750" height="500" transform="translate(750 500) rotate(180)"/></clipPath><linearGradient id="linear-gradient" x1="-129.08" y1="2.32" x2="289.42" y2="443.96" gradientTransform="matrix(-1, 0, 0, 1, 1118.11, 326.79)" gradientUnits="userSpaceOnUse"><stop offset="0" stop-color="#fff"/><stop offset="0.07" stop-color="#fff" stop-opacity="0.84"/><stop offset="0.16" stop-color="#fff" stop-opacity="0.64"/><stop offset="0.26" stop-color="#fff" stop-opacity="0.47"/><stop offset="0.36" stop-color="#fff" stop-opacity="0.33"/><stop offset="0.47" stop-color="#fff" stop-opacity="0.21"/><stop offset="0.58" stop-color="#fff" stop-opacity="0.12"/><stop offset="0.7" stop-color="#fff" stop-opacity="0.05"/><stop offset="0.83" stop-color="#fff" stop-opacity="0.01"/><stop offset="1" stop-color="#fff" stop-opacity="0"/></linearGradient><linearGradient id="linear-gradient-2" x1="486.14" y1="-324.46" x2="904.64" y2="117.18" gradientTransform="matrix(-1, 0, 0, 1, 1118.11, 326.79)" gradientUnits="userSpaceOnUse"><stop offset="0" stop-color="#fff"/><stop offset="1" stop-color="#fff" stop-opacity="0"/></linearGradient><linearGradient id="linear-gradient-3" x1="356.86" y1="96" x2="283.43" y2="196.37" gradientTransform="matrix(1, 0, 0, -1, 321.5, 713)" gradientUnits="userSpaceOnUse"><stop offset="0.19" stop-opacity="0"/><stop offset="0.67" stop-color="#060606" stop-opacity="0.48"/><stop offset="0.7" stop-color="#0f0e0f" stop-opacity="0.63"/><stop offset="0.78" stop-color="#1d1b1b" stop-opacity="0.84"/><stop offset="0.86" stop-color="#252223" stop-opacity="0.96"/><stop offset="1" stop-color="#272425"/></linearGradient><linearGradient id="linear-gradient-4" x1="582.77" y1="420.61" x2="286.73" y2="815" gradientUnits="userSpaceOnUse"><stop offset="0.19" stop-opacity="0"/><stop offset="0.67" stop-color="#060606" stop-opacity="0.57"/><stop offset="0.7" stop-color="#0f0e0e" stop-opacity="0.68"/><stop offset="0.78" stop-color="#1c1a1b" stop-opacity="0.86"/><stop offset="0.86" stop-color="#252223" stop-opacity="0.97"/><stop offset="1" stop-color="#272425"/></linearGradient><linearGradient id="linear-gradient-5" x1="808.69" y1="738.89" x2="392.11" y2="810.89" xlink:href="#linear-gradient-4"/><linearGradient id="linear-gradient-6" x1="-38.67" y1="896.08" x2="316.19" y2="518.08" gradientTransform="translate(392.5 664.14) rotate(180)" xlink:href="#linear-gradient-2"/><linearGradient id="linear-gradient-7" x1="-501.21" y1="833.29" x2="-146.35" y2="455.29" gradientTransform="translate(392.5 664.14) rotate(180)" xlink:href="#linear-gradient-2"/><linearGradient id="linear-gradient-8" x1="-407.63" y1="942.03" x2="-52.77" y2="564.03" gradientTransform="translate(392.5 664.14) rotate(180)" xlink:href="#linear-gradient-2"/><linearGradient id="linear-gradient-9" x1="138.15" y1="413.29" x2="493.01" y2="35.29" gradientTransform="translate(392.5 664.14) rotate(180)" xlink:href="#linear-gradient-2"/><linearGradient id="linear-gradient-10" x1="-507.67" y1="369.72" x2="-152.81" y2="-8.28" gradientTransform="translate(392.5 664.14) rotate(180)" xlink:href="#linear-gradient-2"/><linearGradient id="linear-gradient-11" x1="-484.47" y1="635.39" x2="-129.61" y2="257.39" gradientTransform="translate(392.5 664.14) rotate(180)" gradientUnits="userSpaceOnUse"><stop offset="0" stop-color="#fff" stop-opacity="0"/><stop offset="0.45" stop-color="#fff" stop-opacity="0.44"/><stop offset="1" stop-color="#fff"/></linearGradient></defs><g class="cls-3"><g id="BACKGROUND"><rect class="cls-1" x="368.11" y="326.79" width="750" height="500"/><g class="cls-4"><rect class="cls-5" x="368.11" y="326.79" width="750" height="500"/></g></g><g id="OBJECTS"><g class="cls-6"><polygon class="cls-7" points="1118.11 326.79 615.21 829.68 917.04 829.68 1118.11 631.67 1118.11 326.79"/><polygon class="cls-8" points="502.89 0 0 502.89 301.82 502.89 502.89 304.88 502.89 0"/><polygon class="cls-9" points="380.6 837.65 902.89 327.03 1009.08 326.79 380.6 952.25 380.6 837.65"/><polygon class="cls-10" points="300.38 662.47 669.55 290.46 781.31 290.46 300.38 786.66 300.38 662.47"/><polygon class="cls-11" points="511.67 882.22 880.85 510.22 992.6 510.22 511.67 1006.42 511.67 882.22"/><g class="cls-12"><path class="cls-13" d="M355.21-179.18A36.35,36.35,0,0,1,381-168.49a36.49,36.49,0,0,1,0,51.62L125.1,139.06A36.5,36.5,0,0,1,73.48,87.44L329.41-168.49A36.34,36.34,0,0,1,355.21-179.18Z" transform="translate(368.11 326.79)"/></g><g class="cls-14"><path class="cls-15" d="M817.75-116.39a36.38,36.38,0,0,1,25.81,10.69,36.51,36.51,0,0,1,0,51.62L587.63,201.84A36.5,36.5,0,1,1,536,150.23L791.94-105.7A36.38,36.38,0,0,1,817.75-116.39Z" transform="translate(368.11 326.79)"/></g><g class="cls-14"><path class="cls-16" d="M724.17-225.13A36.42,36.42,0,0,1,750-214.44a36.51,36.51,0,0,1,0,51.62L494.05,93.11a36.5,36.5,0,0,1-51.62-51.62L698.36-214.44A36.42,36.42,0,0,1,724.17-225.13Z" transform="translate(368.11 326.79)"/></g><g class="cls-17"><path class="cls-18" d="M178.39,303.61a36.5,36.5,0,0,1,25.81,62.31L-51.73,621.85a36.5,36.5,0,0,1-51.61,0,36.49,36.49,0,0,1,0-51.62L152.58,314.3A36.38,36.38,0,0,1,178.39,303.61Z" transform="translate(368.11 326.79)"/></g><g class="cls-14"><path class="cls-19" d="M824.21,347.18A36.5,36.5,0,0,1,850,409.49L594.1,665.42a36.5,36.5,0,0,1-51.62-51.62L798.4,357.87A36.38,36.38,0,0,1,824.21,347.18Z" transform="translate(368.11 326.79)"/></g><g class="cls-20"><path class="cls-21" d="M801,81.51a36.5,36.5,0,0,1,25.81,62.31L570.89,399.75a36.5,36.5,0,1,1-51.62-51.62L775.2,92.2A36.42,36.42,0,0,1,801,81.51Z" transform="translate(368.11 326.79)"/></g></g></g></g></svg>