<svg id="Layer_1" data-name="Layer 1" xmlns="http://www.w3.org/2000/svg" xmlns:xlink="http://www.w3.org/1999/xlink" viewBox="0 0 163 184.99"><defs><style>.cls-1{fill:url(#linear-gradient);}.cls-2{fill:url(#linear-gradient-2);}.cls-3{fill:url(#linear-gradient-3);}.cls-4{fill:url(#linear-gradient-4);}.cls-5{fill:url(#linear-gradient-5);}</style><linearGradient id="linear-gradient" x1="668.08" y1="-50.11" x2="694.3" y2="-50.11" gradientTransform="matrix(0.01, 1, 1, -0.01, 174.5, -565.09)" gradientUnits="userSpaceOnUse"><stop offset="0" stop-color="#fff"/><stop offset="0.01" stop-color="#f6f6f6"/><stop offset="0.05" stop-color="#c8c8c8"/><stop offset="0.09" stop-color="#9d9d9d"/><stop offset="0.14" stop-color="#777"/><stop offset="0.2" stop-color="#575757"/><stop offset="0.25" stop-color="#3b3b3b"/><stop offset="0.32" stop-color="#252525"/><stop offset="0.4" stop-color="#141414"/><stop offset="0.49" stop-color="#090909"/><stop offset="0.63" stop-color="#020202"/><stop offset="1"/></linearGradient><linearGradient id="linear-gradient-2" x1="601" y1="-100.01" x2="718.9" y2="-100.01" gradientTransform="matrix(1, 0, 0, -1, -547, 68)" gradientUnits="userSpaceOnUse"><stop offset="0" stop-color="#666"/><stop offset="0.55" stop-color="#4d4d4d"/><stop offset="1" stop-color="#333"/></linearGradient><linearGradient id="linear-gradient-3" x1="681.9" y1="-82.25" x2="764" y2="-82.25" xlink:href="#linear-gradient-2"/><linearGradient id="linear-gradient-4" x1="660.17" y1="-3.52" x2="729.51" y2="-3.52" gradientTransform="matrix(1, 0, 0, -1, -547, 68)" gradientUnits="userSpaceOnUse"><stop offset="0" stop-color="#f2f2f2"/><stop offset="0.73" stop-color="#e6e6e6"/><stop offset="1" stop-color="#ccc"/></linearGradient><linearGradient id="linear-gradient-5" x1="633.68" y1="-14.01" x2="681.96" y2="-14.01" gradientTransform="matrix(1, 0, 0, -1, -547, 68)" gradientUnits="userSpaceOnUse"><stop offset="0" stop-color="#b3b3b3"/><stop offset="0.52" stop-color="#999"/><stop offset="1" stop-color="gray"/></linearGradient></defs><ellipse class="cls-1" cx="133.08" cy="116.72" rx="11.26" ry="13.11" transform="translate(-38.96 209.62) rotate(-89.43)"/><path class="cls-2" d="M112,212.33,54,125.39a30.44,30.44,0,0,1,9.39-9c13.45-8.1,29.06-2.81,33.9-.83L134.9,172c7.45,11.8,21.2,18.85,36,18.68l1,.54L158.4,212C148.21,227.86,122.43,228,112,212.33Z" transform="translate(-54 -39)"/><path class="cls-3" d="M203.12,111a33.5,33.5,0,0,0-18.68-1.24,43.27,43.27,0,0,0-11.7,4.23h0a5.82,5.82,0,0,0-.52.68,7.16,7.16,0,0,1-.57.65h0l-36.75,57c7.45,11.8,21.2,18.86,36,18.69l1,.54,45.1-69.7A29.49,29.49,0,0,0,203.12,111Z" transform="translate(-54 -39)"/><path class="cls-4" d="M148.41,45.78l34.1,50.5a17.67,17.67,0,0,1-5.52,5.23c-7.91,4.7-17.09,1.63-19.93.48l-22.13-32.8c-4.37-6.85-12.46-10.95-21.14-10.85l-.62-.31,7.94-12.09C127.11,36.76,142.27,36.67,148.41,45.78Z" transform="translate(-54 -39)"/><path class="cls-5" d="M94.81,104.78a19.92,19.92,0,0,0,11,.72,25.81,25.81,0,0,0,6.88-2.46h0a3,3,0,0,0,.31-.4c.1-.13.22-.25.33-.37h0l21.63-33c-4.37-6.85-12.46-10.95-21.14-10.85l-.62-.31L86.68,98.54A17.32,17.32,0,0,0,94.81,104.78Z" transform="translate(-54 -39)"/></svg>