<svg id="Layer_1" data-name="Layer 1" xmlns="http://www.w3.org/2000/svg" xmlns:xlink="http://www.w3.org/1999/xlink" viewBox="0 0 563.68 84">
  <defs>
    <style>
      .cls-1 {
        fill: url(#linear-gradient);
      }

      .cls-2 {
        fill: url(#linear-gradient-2);
      }

      .cls-3 {
        fill: url(#linear-gradient-3);
      }

      .cls-4 {
        fill: url(#linear-gradient-4);
      }

      .cls-5 {
        fill: url(#linear-gradient-5);
      }

      .cls-6 {
        fill: #ffcdc9;
      }
    </style>
    <linearGradient id="linear-gradient" x1="352.9" y1="-324.84" x2="364.16" y2="-324.84" gradientTransform="matrix(0.02, 1, 1, -0.02, 451.84, -310.14)" gradientUnits="userSpaceOnUse">
      <stop offset="0" stop-color="#fff"/>
      <stop offset="0.01" stop-color="#f6f6f6"/>
      <stop offset="0.05" stop-color="#c8c8c8"/>
      <stop offset="0.09" stop-color="#9d9d9d"/>
      <stop offset="0.14" stop-color="#777"/>
      <stop offset="0.2" stop-color="#575757"/>
      <stop offset="0.25" stop-color="#3b3b3b"/>
      <stop offset="0.32" stop-color="#252525"/>
      <stop offset="0.4" stop-color="#141414"/>
      <stop offset="0.49" stop-color="#090909"/>
      <stop offset="0.63" stop-color="#020202"/>
      <stop offset="1"/>
    </linearGradient>
    <linearGradient id="linear-gradient-2" x1="323.78" y1="-347.75" x2="374.39" y2="-347.75" gradientTransform="matrix(1, 0, 0, -1, -224.23, -270.01)" gradientUnits="userSpaceOnUse">
      <stop offset="0" stop-color="#afafaf"/>
      <stop offset="0.59" stop-color="gray"/>
      <stop offset="1" stop-color="gray"/>
    </linearGradient>
    <linearGradient id="linear-gradient-3" x1="358.52" y1="-339.69" x2="393.78" y2="-339.69" gradientTransform="matrix(1, 0, 0, -1, -224.23, -270.01)" gradientUnits="userSpaceOnUse">
      <stop offset="0" stop-color="#666"/>
      <stop offset="0.55" stop-color="#4d4d4d"/>
      <stop offset="1" stop-color="#333"/>
    </linearGradient>
    <linearGradient id="linear-gradient-4" x1="349.19" y1="-303.93" x2="378.97" y2="-303.93" gradientTransform="matrix(1, 0, 0, -1, -224.23, -270.01)" gradientUnits="userSpaceOnUse">
      <stop offset="0" stop-color="#f2f2f2"/>
      <stop offset="0.53" stop-color="#e6e6e6"/>
      <stop offset="1" stop-color="#ccc"/>
    </linearGradient>
    <linearGradient id="linear-gradient-5" x1="337.78" y1="-308.7" x2="358.52" y2="-308.7" gradientTransform="matrix(1, 0, 0, -1, -224.23, -270.01)" gradientUnits="userSpaceOnUse">
      <stop offset="0" stop-color="#b3b3b3"/>
      <stop offset="0.52" stop-color="#999"/>
      <stop offset="1" stop-color="gray"/>
    </linearGradient>
  </defs>
  <g>
    <ellipse class="cls-1" cx="134.26" cy="54.86" rx="5.11" ry="5.63" transform="translate(-22.83 168.83) rotate(-88.85)"/>
    <g>
      <path class="cls-2" d="M124.46,97.86,99.55,58.38a13.53,13.53,0,0,1,4-4.08c5.78-3.68,12.48-1.28,14.56-.38l16.15,25.64A17.68,17.68,0,0,0,149.7,88l.46.25-5.8,9.45C140,104.91,128.94,105,124.46,97.86Z" transform="translate(-99.55 -19.16)"/>
      <path class="cls-3" d="M163.55,51.87a13.59,13.59,0,0,0-8-.56,18.29,18.29,0,0,0-5,1.92h0l-.22.31a1.76,1.76,0,0,1-.24.3h0l-15.8,25.83a17.67,17.67,0,0,0,15.44,8.49l.46.24,19.36-31.63A12.82,12.82,0,0,0,163.55,51.87Z" transform="translate(-99.55 -19.16)"/>
      <path class="cls-4" d="M140.09,22.24l14.65,22.92a7.45,7.45,0,0,1-2.37,2.37c-3.4,2.14-7.34.74-8.56.22l-9.5-14.89a10.44,10.44,0,0,0-9.08-4.93l-.27-.14,3.41-5.49a7.07,7.07,0,0,1,11.72-.06Z" transform="translate(-99.55 -19.16)"/>
      <path class="cls-5" d="M117.08,49a8,8,0,0,0,4.72.32,10.73,10.73,0,0,0,3-1.11h0a.59.59,0,0,0,.13-.18l.14-.17h0l9.29-15A10.44,10.44,0,0,0,125.28,28l-.27-.14L113.55,46.16A7.53,7.53,0,0,0,117.08,49Z" transform="translate(-99.55 -19.16)"/>
    </g>
  </g>
  <g>
    <path class="cls-6" d="M212.9,100.85a22.74,22.74,0,0,1-11.9-3,21.25,21.25,0,0,1-7.94-8.22,23.62,23.62,0,0,1-2.81-11.5V20.35H204V79.81a8.93,8.93,0,0,0,2.48,6.32,8.32,8.32,0,0,0,6.38,2.65h21.39v12.07Z" transform="translate(-99.55 -19.16)"/>
    <path class="cls-6" d="M268.9,102.23a25.19,25.19,0,0,1-14.49-4.14A27.12,27.12,0,0,1,245,87a35.6,35.6,0,0,1-3.28-15.35,32.69,32.69,0,0,1,3.74-15.7,28,28,0,0,1,10.7-11,32.23,32.23,0,0,1,16.61-4.08q9.56,0,16.28,4.08a27.77,27.77,0,0,1,10.35,11,33.07,33.07,0,0,1,3.62,15.47v29.44H289.83V89.93h-.23a26.44,26.44,0,0,1-4.48,6,20.81,20.81,0,0,1-6.79,4.55A23.76,23.76,0,0,1,268.9,102.23ZM272.47,91a15.78,15.78,0,0,0,9-2.59,17.64,17.64,0,0,0,6-7,21.08,21.08,0,0,0,2.07-10,22.42,22.42,0,0,0-2.07-9.83,17.09,17.09,0,0,0-5.86-6.9,15.71,15.71,0,0,0-9.09-2.59,16.22,16.22,0,0,0-15.41,9.55,24.52,24.52,0,0,0,0,19.72,16.82,16.82,0,0,0,5.93,7A16.36,16.36,0,0,0,272.47,91Z" transform="translate(-99.55 -19.16)"/>
    <path class="cls-6" d="M318.7,100.85V89.58H347a6.89,6.89,0,0,0,3.62-.92A6.66,6.66,0,0,0,353,86.25a6.19,6.19,0,0,0,.86-3.11,6.26,6.26,0,0,0-.81-3.22,6,6,0,0,0-2.3-2.24,6.69,6.69,0,0,0-3.45-.86h-11.5a25.7,25.7,0,0,1-10-1.84,15,15,0,0,1-6.9-5.7,17.29,17.29,0,0,1-2.53-9.71,16.32,16.32,0,0,1,2.36-8.63,18.22,18.22,0,0,1,6.38-6.32,17.3,17.3,0,0,1,9.08-2.42h27.26V53.47h-26a6,6,0,0,0-4.37,1.67,5.46,5.46,0,0,0-1.73,4.08,5.54,5.54,0,0,0,1.73,4,6.21,6.21,0,0,0,4.6,1.72h11.15a26.84,26.84,0,0,1,10.81,2,14.58,14.58,0,0,1,6.85,5.86,18.93,18.93,0,0,1,2.35,9.89,17.81,17.81,0,0,1-2.41,9,18.15,18.15,0,0,1-6.61,6.67,18.35,18.35,0,0,1-9.49,2.47Z" transform="translate(-99.55 -19.16)"/>
    <path class="cls-6" d="M371.71,53.47V42.2h41.52V53.47Zm26.8,47.38q-7.83,0-12.25-4.48t-4.43-12.19V27.48h13.11V83.6a5.94,5.94,0,0,0,1.61,4.31,5.61,5.61,0,0,0,4.26,1.67h12.3v11.27Z" transform="translate(-99.55 -19.16)"/>
    <path class="cls-6" d="M426.11,100.85V20.35h33.81A28.72,28.72,0,0,1,474,23.86a26.82,26.82,0,0,1,10.18,9.77A27.55,27.55,0,0,1,488,48.18a28,28,0,0,1-3.74,14.49,26.18,26.18,0,0,1-10.12,9.83A29.24,29.24,0,0,1,459.8,76h-20v24.84Zm13.68-36.91h18.4a17.83,17.83,0,0,0,8.05-1.84,14,14,0,0,0,5.81-5.35,16.21,16.21,0,0,0,2.13-8.57,16,16,0,0,0-2.13-8.45,14.53,14.53,0,0,0-5.75-5.41,17,17,0,0,0-8-1.89H439.79Z" transform="translate(-99.55 -19.16)"/>
    <path class="cls-6" d="M525.12,102.23a31.17,31.17,0,0,1-16-4.08A30.21,30.21,0,0,1,494,71.53,30.21,30.21,0,0,1,509.14,44.9a33.57,33.57,0,0,1,32.08,0,30.78,30.78,0,0,1,0,53.25A31.43,31.43,0,0,1,525.12,102.23Zm0-11.27a16.81,16.81,0,0,0,15.76-9.6,23.28,23.28,0,0,0,0-19.67,16.81,16.81,0,0,0-15.76-9.6,16.72,16.72,0,0,0-9.37,2.59,17.73,17.73,0,0,0-6.21,7,22.82,22.82,0,0,0,0,19.72,17.67,17.67,0,0,0,6.21,7A16.72,16.72,0,0,0,525.12,91Z" transform="translate(-99.55 -19.16)"/>
    <path class="cls-6" d="M568.71,100.85V89.58H597a6.91,6.91,0,0,0,3.62-.92A6.63,6.63,0,0,0,603,86.25a6.09,6.09,0,0,0,.86-3.11,6.36,6.36,0,0,0-.8-3.22,6.12,6.12,0,0,0-2.3-2.24,6.75,6.75,0,0,0-3.45-.86h-11.5a25.75,25.75,0,0,1-10-1.84,15.09,15.09,0,0,1-6.9-5.7,17.37,17.37,0,0,1-2.52-9.71,16.41,16.41,0,0,1,2.35-8.63,18.3,18.3,0,0,1,6.38-6.32,17.36,17.36,0,0,1,9.09-2.42h27.26V53.47h-26a6.07,6.07,0,0,0-4.38,1.67,5.45,5.45,0,0,0-1.72,4.08,5.53,5.53,0,0,0,1.72,4,6.24,6.24,0,0,0,4.6,1.72h11.16a26.84,26.84,0,0,1,10.81,2,14.5,14.5,0,0,1,6.84,5.86,18.93,18.93,0,0,1,2.36,9.89,18.26,18.26,0,0,1-9,15.7,18.32,18.32,0,0,1-9.48,2.47Z" transform="translate(-99.55 -19.16)"/>
    <path class="cls-6" d="M621.72,53.47V42.2h41.51V53.47Zm26.79,47.38q-7.82,0-12.24-4.48t-4.43-12.19V27.48H645V83.6a5.9,5.9,0,0,0,1.61,4.31,5.6,5.6,0,0,0,4.25,1.67h12.31v11.27Z" transform="translate(-99.55 -19.16)"/>
  </g>
</svg>
