<?xml version="1.0" encoding="utf-8"?>
<!-- Generator: Adobe Illustrator 24.1.2, SVG Export Plug-In . SVG Version: 6.00 Build 0)  -->
<svg version="1.1" id="Layer_1" xmlns="http://www.w3.org/2000/svg" xmlns:xlink="http://www.w3.org/1999/xlink" x="0px" y="0px"
	 viewBox="0 0 753.6 127.1" style="enable-background:new 0 0 753.6 127.1;" xml:space="preserve">
<style type="text/css">
	.st0{display:none;fill:none;stroke:#FFFFFF;stroke-width:3;stroke-miterlimit:10;}
	.st1{fill:#D31C54;}
	.st2{fill:#ED3781;}
	.st3{fill:#F23D5B;}
	.st4{fill:#261F21;}
	.st5{fill:#141213;}
	.st6{opacity:0.45;enable-background:new    ;}
	.st7{fill:#8C635A;}
	.st8{fill:#664B46;}
	.st9{fill:#F97F12;}
	.st10{fill:#FBB03B;}
	.st11{fill:#E82D2D;}
	.st12{fill:url(#SVGID_1_);}
	.st13{fill:url(#SVGID_2_);}
	.st14{fill:url(#SVGID_3_);}
	.st15{fill:url(#SVGID_4_);}
	.st16{fill:url(#SVGID_5_);}
	.st17{fill:#FFCDC9;}
</style>
<g>
	<line class="st0" x1="574.7" y1="-17.1" x2="582.9" y2="-22.1"/>
	<line class="st0" x1="581.8" y1="-22.9" x2="589.6" y2="-17.1"/>
	<g>
		<g>
			<path class="st1" d="M-279.9-290.1h136.3c-10.8-10.5-26.7-17.1-44.5-17.1h-97.8v117.2h148.2c4.7,0,8.4-3.2,8.4-7.1v-60h-150.7
				V-290.1z"/>
			<path class="st2" d="M-143.8-290.1h-137.9v33h152.4v-0.5C-129.2-270-134.7-281.4-143.8-290.1z"/>
			<path class="st3" d="M-287.4-307.2L-287.4-307.2c-22.2,0-40.2,22.2-40.2,49.6v60.5c0,3.9,2.6,7.1,5.8,7.1h74.7v-67.6
				C-247.1-285-265.1-307.2-287.4-307.2z"/>
			<path class="st4" d="M-271.8-298.4c-4.4-2.1-9.1-3.3-14-3.3c-20.5,0-37.1,19.8-37.1,44.1v62.1h28v-62.1
				C-294.9-276-285.4-291.8-271.8-298.4z"/>
			<path class="st5" d="M-272.1-298.4c-13.7,6.6-23.4,22.4-23.4,40.8v62.1h46.8v-62.1C-248.7-276-258.4-291.8-272.1-298.4z"/>
			<path class="st6" d="M-198.6-190.8h63.4c3.3,0,6-3.2,6-7.1v-60C-129.2-257.9-134.8-200.4-198.6-190.8z"/>
			<g>
				<rect x="-241.4" y="-190.6" class="st7" width="43.1" height="37"/>
				<rect x="-221.9" y="-190.6" class="st8" width="23.7" height="37"/>
				<polygon class="st6" points="-198.3,-153.7 -198.3,-190.6 -241.4,-190.6 -221.9,-172.2 				"/>
				<rect x="-241.4" y="-116.7" class="st7" width="43.1" height="37"/>
				<rect x="-221.9" y="-116.7" class="st8" width="23.7" height="37"/>
				<polygon class="st6" points="-198.2,-79.8 -198.2,-116.7 -241.4,-116.7 -221.9,-98.3 				"/>
				<rect x="-241.4" y="-116.7" class="st7" width="43.1" height="37"/>
				<rect x="-221.9" y="-116.7" class="st8" width="23.7" height="37"/>
				<polygon class="st6" points="-198.2,-79.8 -198.2,-116.7 -241.4,-116.7 -221.9,-98.3 				"/>
				<rect x="-241.4" y="-153.7" class="st7" width="43.1" height="37"/>
				<rect x="-221.9" y="-153.7" class="st8" width="23.7" height="37"/>
				<polygon class="st6" points="-198.2,-116.8 -198.2,-153.7 -241.4,-153.7 -221.9,-135.3 				"/>
			</g>
		</g>
		<g>
			<ellipse class="st9" cx="-239" cy="-287" rx="5.2" ry="6.1"/>
			<path class="st10" d="M-238.6-292.1v-33.5h-4v33.5c-0.5,0.7-0.7,1.6-0.7,2.5c0,2.1,1.2,3.7,2.7,3.7s2.7-1.7,2.7-3.7
				C-237.9-290.4-238.1-291.3-238.6-292.1z"/>
			<rect x="-246.9" y="-332.6" class="st11" width="27.4" height="18.1"/>
		</g>
	</g>
	<g>
		
			<linearGradient id="SVGID_1_" gradientUnits="userSpaceOnUse" x1="867.8671" y1="-29.1978" x2="879.1268" y2="-29.1978" gradientTransform="matrix(1 0 0 -1 -224.2837 22.0113)">
			<stop  offset="0" style="stop-color:#FFFFFF"/>
			<stop  offset="1.000000e-02" style="stop-color:#F6F6F6"/>
			<stop  offset="5.000000e-02" style="stop-color:#C8C8C8"/>
			<stop  offset="9.000000e-02" style="stop-color:#9D9D9D"/>
			<stop  offset="0.14" style="stop-color:#777777"/>
			<stop  offset="0.2" style="stop-color:#575757"/>
			<stop  offset="0.25" style="stop-color:#3B3B3B"/>
			<stop  offset="0.32" style="stop-color:#252525"/>
			<stop  offset="0.4" style="stop-color:#141414"/>
			<stop  offset="0.49" style="stop-color:#090909"/>
			<stop  offset="0.63" style="stop-color:#020202"/>
			<stop  offset="1" style="stop-color:#000000"/>
		</linearGradient>
		<path class="st12" d="M643.6,51.1c0.1-2.8,2.6-5.1,5.7-5c3.1,0.1,5.6,2.4,5.5,5.2s-2.6,5.1-5.7,5S643.5,53.9,643.6,51.1z"/>
		<g>
			
				<linearGradient id="SVGID_2_" gradientUnits="userSpaceOnUse" x1="838.7471" y1="-52.1044" x2="889.3572" y2="-52.1044" gradientTransform="matrix(1 0 0 -1 -224.23 21.99)">
				<stop  offset="0" style="stop-color:#AFAFAF"/>
				<stop  offset="0.59" style="stop-color:#808080"/>
				<stop  offset="1" style="stop-color:#808080"/>
			</linearGradient>
			<path class="st13" d="M639.4,94.2l-24.9-39.5c1-1.6,2.4-3,4-4.1c5.8-3.7,12.5-1.3,14.6-0.4l16.2,25.6c3.3,5.4,9.2,8.6,15.4,8.5
				l0.5,0.3l-5.8,9.5C655,101.3,643.9,101.3,639.4,94.2z"/>
			
				<linearGradient id="SVGID_3_" gradientUnits="userSpaceOnUse" x1="873.4872" y1="-44.0425" x2="908.7471" y2="-44.0425" gradientTransform="matrix(1 0 0 -1 -224.23 21.99)">
				<stop  offset="0" style="stop-color:#666666"/>
				<stop  offset="0.55" style="stop-color:#4D4D4D"/>
				<stop  offset="1" style="stop-color:#333333"/>
			</linearGradient>
			<path class="st14" d="M678.5,48.2c-2.5-1-5.3-1.2-8-0.6c-1.8,0.4-3.4,1-5,1.9l0,0l0,0c0,0-0.2,0.2-0.2,0.3
				c-0.1,0.1-0.2,0.2-0.2,0.3l0,0L649.3,76c3.3,5.4,9.1,8.6,15.4,8.5l0.5,0.2l19.4-31.6C683.1,50.9,681,49.2,678.5,48.2z"/>
			
				<linearGradient id="SVGID_4_" gradientUnits="userSpaceOnUse" x1="864.1571" y1="-8.2845" x2="893.9371" y2="-8.2845" gradientTransform="matrix(1 0 0 -1 -224.23 21.99)">
				<stop  offset="0" style="stop-color:#F2F2F2"/>
				<stop  offset="0.53" style="stop-color:#E6E6E6"/>
				<stop  offset="1" style="stop-color:#CCCCCC"/>
			</linearGradient>
			<path class="st15" d="M655.1,18.6l14.7,22.9c-0.6,1-1.4,1.8-2.4,2.4c-3.4,2.1-7.3,0.7-8.6,0.2l-9.5-14.9c-1.9-3.1-5.4-5-9.1-4.9
				l-0.3-0.1l3.4-5.5c2.2-3.2,6.6-4.1,9.8-2C653.9,17.2,654.5,17.8,655.1,18.6z"/>
			
				<linearGradient id="SVGID_5_" gradientUnits="userSpaceOnUse" x1="852.7471" y1="-13.0565" x2="873.4871" y2="-13.0565" gradientTransform="matrix(1 0 0 -1 -224.23 21.99)">
				<stop  offset="0" style="stop-color:#B3B3B3"/>
				<stop  offset="0.52" style="stop-color:#999999"/>
				<stop  offset="1" style="stop-color:#808080"/>
			</linearGradient>
			<path class="st16" d="M632,45.4c1.5,0.6,3.1,0.7,4.7,0.3c1-0.2,2.1-0.6,3-1.1l0,0l0,0c0.1-0.1,0.1-0.1,0.1-0.2
				c0-0.1,0.1-0.1,0.1-0.2l0,0l9.3-15c-1.9-3.1-5.4-5-9.1-4.9l-0.3-0.1l-11.5,18.3C629.4,43.8,630.6,44.8,632,45.4z"/>
		</g>
	</g>
	<g>
		<path class="st17" d="M107.4,99.4c-4,0.1-7.9-0.9-11.4-2.9c-3.2-1.8-5.8-4.5-7.6-7.7c-1.8-3.2-2.7-6.9-2.7-10.6V29.4h16.8v50
			c0,1.6,0.6,3.1,1.7,4.2c1.1,1.2,2.6,1.8,4.2,1.8h18.5v14H107.4z"/>
		<path class="st17" d="M117.3,99.4L140,37.5c1-2.9,3-5.4,5.6-7c2.7-1.6,5.7-2.4,8.8-2.4c3.1,0,6.1,0.7,8.8,2.3c2.6,1.6,4.6,4,5.6,7
			l22.8,62h-18.1l-4.4-13.5h-29.7l-4.6,13.5H117.3z M143.7,72h21.1l-8.9-27.9c-0.1-0.3-0.3-0.6-0.5-0.9c-0.2-0.2-0.5-0.3-0.9-0.3
			c-0.3,0-0.6,0.1-0.9,0.3c-0.2,0.2-0.4,0.5-0.5,0.8L143.7,72z"/>
		<path class="st17" d="M198.1,99.4v-14H228c1.3,0,2.5-0.3,3.6-1c1-0.7,1.9-1.5,2.5-2.6c0.6-1.1,1-2.3,1-3.5c0-1.3-0.3-2.5-1-3.6
			c-0.6-1.1-1.5-1.9-2.5-2.6c-1.1-0.7-2.3-1-3.6-1h-10.8c-3.8,0-7.6-0.8-11.1-2.5c-3.2-1.6-6-4-7.9-7c-2.1-3.3-3.1-7.2-3-11.1
			c-0.1-3.9,0.9-7.7,2.8-11.1c1.8-3.1,4.4-5.6,7.6-7.4c3.2-1.8,6.9-2.7,10.6-2.6h30.9v14h-29c-1.2,0-2.3,0.3-3.3,0.9
			c-1,0.6-1.8,1.4-2.3,2.4c-0.5,1-0.8,2.2-0.8,3.3c0,1.1,0.3,2.3,0.8,3.3c0.5,1,1.3,1.8,2.3,2.4c1,0.6,2.1,0.9,3.3,0.9h11.3
			c4-0.1,8,0.8,11.6,2.5c3.2,1.6,5.8,4.1,7.7,7.1c1.9,3.2,2.8,6.9,2.8,10.6c0.1,4.3-0.9,8.5-2.9,12.3c-1.8,3.2-4.4,5.9-7.6,7.7
			c-3.2,1.8-6.9,2.7-10.6,2.7H198.1z"/>
		<path class="st17" d="M296.8,99.4c-3.9,0.1-7.8-0.9-11.3-2.9c-3.2-1.8-5.8-4.5-7.6-7.6c-1.9-3.3-2.8-7-2.8-10.7V43.4h-19v-14h54.7
			v14H292v36.3c0,1.5,0.6,2.9,1.7,4c1,1.1,2.5,1.7,4,1.7h5.5v14H296.8z"/>
		<path class="st17" d="M339,99.4v-70h30.1c4.5-0.1,8.9,1,12.9,3.2c3.8,2.1,7,5.1,9.3,8.9c2.4,3.9,3.6,8.5,3.5,13
			c0.2,9.2-4.8,17.7-12.8,22.1c-4,2.2-8.4,3.3-12.9,3.2h-13.3v19.6H339z M355.8,65.7h11.4c1.9,0,3.7-0.4,5.3-1.3
			c1.6-0.9,3-2.2,4-3.8c2-3.8,2-8.3,0-12c-0.9-1.6-2.3-2.9-4-3.9c-1.6-0.9-3.5-1.4-5.3-1.4h-11.4V65.7z"/>
		<path class="st17" d="M437.3,100.7c-5.2,0.1-10.4-0.9-15.2-2.8c-8.8-3.6-15.8-10.6-19.3-19.4c-3.5-9.1-3.5-19.2,0-28.4
			c1.7-4.3,4.3-8.2,7.5-11.5c3.3-3.4,7.3-6,11.7-7.8c9.8-3.7,20.6-3.7,30.3,0c4.4,1.7,8.4,4.4,11.8,7.8c3.2,3.3,5.8,7.3,7.5,11.5
			c3.6,9.1,3.6,19.2,0,28.4c-1.7,4.3-4.3,8.3-7.5,11.6c-3.3,3.4-7.3,6-11.7,7.8C447.6,99.8,442.5,100.8,437.3,100.7z M437.3,86.4
			c2.8,0,5.6-0.5,8.2-1.6c2.5-1.1,4.7-2.7,6.5-4.6c1.8-2.1,3.3-4.5,4.2-7c1-2.8,1.5-5.8,1.5-8.8c0-3-0.5-5.9-1.5-8.7
			c-0.9-2.6-2.4-5-4.2-7c-1.8-2-4-3.6-6.5-4.6c-5.2-2.2-11.1-2.2-16.3,0c-2.4,1.1-4.6,2.7-6.5,4.6c-1.9,2-3.3,4.4-4.2,7
			c-1,2.8-1.5,5.7-1.5,8.7c0,3,0.5,5.9,1.5,8.8c0.9,2.6,2.3,5,4.2,7c1.8,2,4,3.6,6.5,4.6C431.7,85.9,434.5,86.5,437.3,86.4z"/>
		<path class="st17" d="M483.7,99.4v-14h29.9c1.3,0,2.5-0.3,3.6-1c1-0.7,1.9-1.5,2.5-2.6c0.6-1.1,1-2.3,1-3.5c0-1.3-0.3-2.5-1-3.6
			c-0.6-1.1-1.5-1.9-2.5-2.6c-1.1-0.7-2.3-1-3.6-1h-10.8c-3.8,0-7.6-0.8-11.1-2.5c-3.3-1.6-6-4-8-7c-2-3.3-3.1-7.2-3-11.1
			c-0.1-3.9,0.9-7.7,2.8-11.1c1.8-3.1,4.4-5.6,7.6-7.4c3.3-1.8,6.9-2.7,10.7-2.6h30.9v14h-29c-1.2,0-2.3,0.3-3.3,0.9
			c-1,0.6-1.8,1.4-2.3,2.4c-0.5,1-0.8,2.2-0.8,3.3c0,1.1,0.3,2.3,0.8,3.3c0.5,1,1.3,1.8,2.3,2.4c1,0.6,2.1,0.9,3.3,0.9H515
			c4-0.1,8,0.8,11.7,2.5c3.2,1.6,5.8,4.1,7.7,7.1c1.9,3.2,2.8,6.9,2.8,10.6c0.1,4.3-0.9,8.5-2.8,12.3c-1.8,3.2-4.4,5.9-7.7,7.7
			c-3.2,1.8-6.9,2.7-10.6,2.7H483.7z"/>
		<path class="st17" d="M582.4,99.4c-3.9,0.1-7.8-0.9-11.2-2.9c-3.2-1.8-5.8-4.5-7.6-7.6c-1.9-3.3-2.8-7-2.8-10.7V43.4h-19v-14h54.7
			v14h-19v36.3c0,1.5,0.6,2.9,1.7,4c1,1.1,2.5,1.7,4,1.7h5.5v14H582.4z"/>
	</g>
</g>
</svg>
