<svg xmlns="http://www.w3.org/2000/svg" viewBox="0 0 648.56 423.05"><defs><style>.cls-1{fill:#ebebeb;}.cls-10,.cls-2{fill:#fff;}.cls-12,.cls-13,.cls-3{fill:none;}.cls-10,.cls-3{stroke:#ebebeb;}.cls-10,.cls-12,.cls-13,.cls-3{stroke-miterlimit:10;}.cls-4{fill:#a6a6a6;}.cls-5{fill:#ffc727;}.cls-6{fill:#263238;}.cls-7{fill:#dbdbdb;}.cls-8{fill:#c7c7c7;}.cls-9{fill:#455a64;}.cls-10{stroke-width:0.5px;}.cls-11{fill:#020100;}.cls-11,.cls-14,.cls-18{opacity:0.1;}.cls-12,.cls-13{stroke:#263238;stroke-width:0.75px;}.cls-13{stroke-dasharray:4.01 5.01;}.cls-15{fill:#37474f;}.cls-16{fill:#774442;}.cls-17{fill:#ff9cbd;}.cls-18{fill:#050400;}</style></defs><g id="Background_Complete" data-name="Background Complete"><path class="cls-1" d="M650,220.72a28.4,28.4,0,0,1-8.4,3.4,29,29,0,1,1,8.4-3.4Z" transform="translate(-50.72 -38.96)"/><path class="cls-2" d="M643.92,192.67a8.82,8.82,0,1,1-8.71-8.92A8.82,8.82,0,0,1,643.92,192.67Z" transform="translate(-50.72 -38.96)"/><path class="cls-2" d="M650.06,217.08l0,3.64a28.4,28.4,0,0,1-8.4,3.4,28.81,28.81,0,0,1-22.08-3.77l0-3.63a15.25,15.25,0,0,1,30.49.36Z" transform="translate(-50.72 -38.96)"/><path class="cls-1" d="M114.72,138.82a19,19,0,0,1-28.29-12,19,19,0,1,1,28.29,12Z" transform="translate(-50.72 -38.96)"/><path class="cls-2" d="M110.73,120.45A5.78,5.78,0,1,1,105,114.6,5.78,5.78,0,0,1,110.73,120.45Z" transform="translate(-50.72 -38.96)"/><path class="cls-2" d="M114.75,136.44l0,2.38a19,19,0,0,1-20-.25l0-2.37a10,10,0,1,1,20,.24Z" transform="translate(-50.72 -38.96)"/><rect class="cls-3" x="84.7" y="15.2" width="125.64" height="85.64"/><path class="cls-4" d="M144.82,59.25a2.52,2.52,0,1,1-2.52-2.52A2.52,2.52,0,0,1,144.82,59.25Z" transform="translate(-50.72 -38.96)"/><path class="cls-1" d="M155.11,59.25a2.52,2.52,0,1,1-2.52-2.52A2.52,2.52,0,0,1,155.11,59.25Z" transform="translate(-50.72 -38.96)"/><path class="cls-5" d="M165.41,59.25a2.53,2.53,0,1,1-2.52-2.52A2.52,2.52,0,0,1,165.41,59.25Z" transform="translate(-50.72 -38.96)"/><line class="cls-3" x1="84.7" y1="25.22" x2="210.34" y2="25.22"/><rect class="cls-1" x="85.57" y="185.02" width="66.59" height="42.23" transform="translate(-77.48 -21.01) rotate(-7.77)"/><path class="cls-2" d="M149,180.72c-2.32,2.91-4.7,5.72-7,8.6s-4.75,5.64-7.15,8.44-5,5.82-7.52,8.71l-.22.27q-3.34,3.82-6.7,7.63l-.34.37-.41-.26c-2.83-1.86-5.66-3.71-8.49-5.58a2.49,2.49,0,0,1-.3-.19q-4.8-3.15-9.59-6.38-4.56-3.08-9.13-6.22c-3-2.14-6.08-4.21-9.09-6.39,3.13,1.79,6.23,3.71,9.34,5.56s6.21,3.8,9.3,5.74q5.16,3.21,10.33,6.53h0l7.73,4.95c2-2.28,4.07-4.58,6.11-6.84l0,0c2.72-3,5.45-6.06,8.2-9q3.69-4,7.42-8C144,186,146.47,183.29,149,180.72Z" transform="translate(-50.72 -38.96)"/><path class="cls-2" d="M112.22,208.49a.5.5,0,0,0-.07.08l-.92,1c-1.47,1.63-3,3.2-4.53,4.73-1.88,1.89-3.82,3.72-5.77,5.54s-4,3.58-6,5.31-4.09,3.43-6.25,5c1.76-2,3.62-3.95,5.51-5.83s3.83-3.72,5.77-5.54,4-3.59,6-5.32c1.61-1.38,3.27-2.75,5-4l1.18-.9Z" transform="translate(-50.72 -38.96)"/><path class="cls-2" d="M154.37,221.24c-2.51-1-5-2.05-7.37-3.17s-4.81-2.31-7.19-3.51-4.73-2.48-7.05-3.79c-1.89-1.07-3.76-2.17-5.6-3.34l-1.17-.75-.09-.06.11,0,1.38.56c2,.8,3.94,1.67,5.87,2.57,2.43,1.12,4.81,2.31,7.19,3.52s4.72,2.47,7,3.79S152.13,219.76,154.37,221.24Z" transform="translate(-50.72 -38.96)"/><rect class="cls-1" x="596.23" y="226.85" width="66.9" height="105.49" transform="translate(161.84 788.98) rotate(-76.68)"/><path class="cls-2" d="M688.71,259.19c-5.09,3-10.21,5.78-15.31,8.7s-10.24,5.64-15.38,8.41q-8,4.35-16.08,8.58l-.49.28q-7.11,3.73-14.25,7.46l-.7.35-.45-.62q-4.71-6.53-9.38-13.08c-.11-.13-.22-.29-.33-.45-3.54-4.94-7.05-9.89-10.54-14.9-3.33-4.76-6.65-9.58-10-14.39s-6.58-9.69-9.79-14.64c3.61,4.45,7.09,9,10.63,13.55s7,9.15,10.48,13.78q5.8,7.69,11.55,15.54s0,0,0,0c2.87,3.89,5.74,7.81,8.61,11.72,4.3-2.22,8.62-4.45,12.93-6.62,0,0,0,0,0,0,5.76-2.93,11.51-5.85,17.28-8.71q7.75-3.86,15.53-7.6C678.32,264.09,683.49,261.55,688.71,259.19Z" transform="translate(-50.72 -38.96)"/><path class="cls-2" d="M618.51,279.28c-.06,0-.1.06-.15.08l-1.94,1q-4.63,2.34-9.38,4.4c-3.86,1.73-7.77,3.33-11.69,4.9s-7.87,3-11.86,4.44-8,2.75-12.11,3.88c3.76-2,7.6-3.77,11.46-5.48s7.78-3.32,11.69-4.9,7.89-3,11.88-4.45c3.18-1.12,6.4-2.2,9.65-3.15.76-.23,1.51-.44,2.27-.65Z" transform="translate(-50.72 -38.96)"/><path class="cls-2" d="M673.55,322.15c-3.16-2.85-6.16-5.85-9.08-8.89s-5.79-6.16-8.63-9.29-5.58-6.35-8.26-9.62c-2.19-2.65-4.33-5.34-6.38-8.12l-1.3-1.77s-.06-.1-.1-.14a.63.63,0,0,0,.13.11l1.74,1.62c2.48,2.31,4.86,4.71,7.21,7.14,2.94,3.05,5.79,6.16,8.61,9.3s5.58,6.35,8.26,9.62S671.08,318.68,673.55,322.15Z" transform="translate(-50.72 -38.96)"/><rect class="cls-1" x="361.08" width="60.61" height="38.44"/><path class="cls-2" d="M472.4,39c-2.44,2.34-4.94,4.58-7.4,6.89s-5,4.51-7.49,6.73-5.23,4.64-7.85,6.93l-.24.22-7,6.06-.34.28-.34-.28-7-6.07-.25-.21q-3.94-3.43-7.86-6.94c-2.5-2.21-5-4.47-7.47-6.72s-5-4.55-7.41-6.89c2.6,2,5.16,4.11,7.73,6.17s5.14,4.18,7.69,6.32q4.25,3.52,8.5,7.15l0,0c2.12,1.79,4.24,3.6,6.37,5.41,2.11-1.81,4.23-3.63,6.35-5.41,0,0,0,0,0,0q4.25-3.6,8.51-7.16,3.81-3.18,7.67-6.3C467.24,43.07,469.8,41,472.4,39Z" transform="translate(-50.72 -38.96)"/><path class="cls-2" d="M435.82,59.48s-.05.05-.08.06c-.32.28-.63.55-.95.81-1.52,1.29-3.08,2.52-4.66,3.71-1.93,1.47-3.91,2.88-5.89,4.29s-4,2.73-6,4.05-4.12,2.59-6.26,3.76c1.84-1.61,3.75-3.11,5.68-4.57s3.92-2.89,5.89-4.29,4-2.75,6.05-4.06c1.63-1.05,3.29-2.08,5-3l1.18-.67Z" transform="translate(-50.72 -38.96)"/><path class="cls-2" d="M472.26,76.16C470.12,75,468,73.71,466,72.4S462,69.72,460,68.35s-4-2.82-5.89-4.29c-1.57-1.19-3.13-2.41-4.64-3.7l-1-.82s0,0-.07-.06l.09.05,1.18.67c1.69,1,3.34,2,5,3,2.05,1.31,4.05,2.68,6,4.06s4,2.81,5.89,4.29S470.42,74.55,472.26,76.16Z" transform="translate(-50.72 -38.96)"/></g><g id="Shadow"><ellipse class="cls-1" cx="158.92" cy="410.37" rx="147.31" ry="12.68"/></g><g id="Floor"><polygon class="cls-6" points="0 317.81 81.07 317.56 162.14 317.47 324.28 317.31 486.42 317.47 567.49 317.56 648.56 317.81 567.49 318.05 486.42 318.14 324.28 318.3 162.14 318.14 81.07 318.05 0 317.81"/></g><g id="Device"><rect class="cls-7" x="102.72" y="34.07" width="441.45" height="295.29"/><rect class="cls-6" x="105.92" y="37.67" width="435.03" height="288.09"/><rect class="cls-8" x="45.22" y="351.51" width="556.44" height="20.27"/><polygon class="cls-7" points="45.22 351.5 102.72 329.36 544.16 329.36 601.66 351.5 45.22 351.5"/><polygon class="cls-6" points="107.85 343.65 144.95 329.36 501.93 329.36 539.03 343.65 107.85 343.65"/><rect class="cls-2" x="130.51" y="59.56" width="385.86" height="244.32"/><rect class="cls-9" x="130.18" y="59.56" width="386.19" height="9.4"/><path class="cls-8" d="M188.38,103.22a2.34,2.34,0,1,1-2.34-2.33A2.33,2.33,0,0,1,188.38,103.22Z" transform="translate(-50.72 -38.96)"/><path class="cls-2" d="M197.9,103.22a2.34,2.34,0,1,1-2.34-2.33A2.33,2.33,0,0,1,197.9,103.22Z" transform="translate(-50.72 -38.96)"/><path class="cls-5" d="M207.42,103.22a2.34,2.34,0,1,1-2.33-2.33A2.33,2.33,0,0,1,207.42,103.22Z" transform="translate(-50.72 -38.96)"/><rect class="cls-7" x="509.52" y="68.96" width="6.85" height="234.91"/><path class="cls-4" d="M563.66,189.36h0a1.77,1.77,0,0,1-1.77-1.77V111.06a1.77,1.77,0,0,1,1.77-1.77h0a1.77,1.77,0,0,1,1.77,1.77v76.53A1.77,1.77,0,0,1,563.66,189.36Z" transform="translate(-50.72 -38.96)"/><rect class="cls-2" x="241.71" y="83.74" width="207.99" height="7.91"/><path class="cls-1" d="M500.5,130.69H292.35v-8.07H500.5Z" transform="translate(-50.72 -38.96)"/><rect class="cls-5" x="441.7" y="83.66" width="8.08" height="8.08"/><path class="cls-2" d="M499,128.87l-.73.55-1.36-1.78-.49-.66a.88.88,0,0,0,.28-.16,1.25,1.25,0,0,0,.38-.48l.52.69Z" transform="translate(-50.72 -38.96)"/><path class="cls-2" d="M497.53,124.66a2,2,0,1,0-.65,3,1.67,1.67,0,0,0,.28-.18,2.08,2.08,0,0,0,.41-.43A2,2,0,0,0,497.53,124.66Zm-.86,2.16a.88.88,0,0,1-.28.16,1.17,1.17,0,0,1-1.39-.38,1.19,1.19,0,1,1,2.05-.26A1.25,1.25,0,0,1,496.67,126.82Z" transform="translate(-50.72 -38.96)"/><rect class="cls-8" x="243.36" y="85.29" width="0.42" height="4.8"/><path class="cls-5" d="M546.34,130.92a4.63,4.63,0,0,1-1.29.54,4.5,4.5,0,0,1-5.43-3.3,4.49,4.49,0,1,1,6.72,2.76Z" transform="translate(-50.72 -38.96)"/><path class="cls-2" d="M545.35,126.58a1.37,1.37,0,1,1-1.37-1.37A1.37,1.37,0,0,1,545.35,126.58Z" transform="translate(-50.72 -38.96)"/><path class="cls-2" d="M546.34,130.35v.57a4.63,4.63,0,0,1-1.29.54,4.43,4.43,0,0,1-3.43-.55v-.56a2.36,2.36,0,0,1,4.72,0Z" transform="translate(-50.72 -38.96)"/><path class="cls-7" d="M530.78,131.59h-3.13v-1.11a.16.16,0,0,0-.09-.15l-.34-.19a.17.17,0,0,0-.18,0l-1,.55-1.56-2.7,1-.56a.18.18,0,0,0,.08-.16c0-.06,0-.13,0-.19s0-.13,0-.19a.18.18,0,0,0-.08-.16l-1-.56,1.56-2.7,1,.55a.17.17,0,0,0,.18,0,3.79,3.79,0,0,1,.34-.2.14.14,0,0,0,.09-.14v-1.11h3.13v1.11a.18.18,0,0,0,.09.15,1.86,1.86,0,0,1,.34.19.17.17,0,0,0,.18,0l1-.55,1.56,2.7-1,.56a.18.18,0,0,0-.08.16c0,.06,0,.12,0,.19s0,.13,0,.19a.18.18,0,0,0,.08.16l1,.56-1.56,2.7-1-.55a.17.17,0,0,0-.18,0l-.34.19a.16.16,0,0,0-.09.15Zm-2.35-.78H530v-.33a.94.94,0,0,1,.52-.84l.27-.15a1,1,0,0,1,1,0l.28.17.79-1.36-.29-.17a.93.93,0,0,1-.47-.87v-.3a.94.94,0,0,1,.47-.88l.29-.16-.79-1.36-.28.16a.93.93,0,0,1-1,0l-.27-.15a1,1,0,0,1-.52-.84v-.33h-1.57v.33a1,1,0,0,1-.52.84l-.27.15a.93.93,0,0,1-1,0l-.28-.16-.79,1.36.29.16a.94.94,0,0,1,.47.88v.3a1,1,0,0,1-.47.88l-.29.16.79,1.36.28-.17a1,1,0,0,1,1,0l.27.16a.94.94,0,0,1,.52.84Zm.79-1.43a2.31,2.31,0,1,1,2.31-2.31A2.31,2.31,0,0,1,529.22,129.38Zm0-3.84a1.53,1.53,0,1,0,1.53,1.53A1.53,1.53,0,0,0,529.22,125.54Z" transform="translate(-50.72 -38.96)"/><rect class="cls-1" x="221.42" y="124.27" width="288.1" height="16.33"/><rect class="cls-2" x="234.2" y="129.98" width="4.9" height="4.9"/><polygon class="cls-2" points="259.94 134.88 255.04 134.88 257.04 132.43 255.04 129.98 259.94 129.98 261.94 132.43 259.94 134.88"/><polygon class="cls-5" points="247.34 129.98 248.13 131.59 249.92 131.85 248.63 133.11 248.93 134.88 247.34 134.04 245.74 134.88 246.05 133.11 244.76 131.85 246.54 131.59 247.34 129.98"/><rect class="cls-6" x="265.46" y="131.43" width="39.07" height="2"/><rect class="cls-6" x="452.62" y="131.43" width="35.47" height="2"/><rect class="cls-9" x="316.46" y="131.43" width="121.26" height="2"/><rect class="cls-10" x="234.2" y="146.31" width="4.9" height="4.9"/><polygon class="cls-10" points="259.94 151.21 255.04 151.21 257.04 148.76 255.04 146.31 259.94 146.31 261.94 148.76 259.94 151.21"/><polygon class="cls-5" points="247.34 146.31 248.13 147.92 249.92 148.18 248.63 149.44 248.93 151.21 247.34 150.37 245.74 151.21 246.05 149.44 244.76 148.18 246.54 147.92 247.34 146.31"/><rect class="cls-6" x="265.46" y="147.76" width="39.07" height="2"/><rect class="cls-6" x="452.62" y="147.76" width="35.47" height="2"/><rect class="cls-9" x="316.46" y="147.76" width="121.26" height="2"/><rect class="cls-1" x="221.42" y="156.92" width="288.1" height="16.33"/><rect class="cls-2" x="234.2" y="162.63" width="4.9" height="4.9"/><polygon class="cls-2" points="259.94 167.54 255.04 167.54 257.04 165.09 255.04 162.63 259.94 162.63 261.94 165.09 259.94 167.54"/><polygon class="cls-2" points="247.34 162.63 248.13 164.25 249.92 164.51 248.63 165.76 248.93 167.54 247.34 166.7 245.74 167.54 246.05 165.76 244.76 164.51 246.54 164.25 247.34 162.63"/><rect class="cls-7" x="265.46" y="164.09" width="39.07" height="2"/><rect class="cls-7" x="452.62" y="164.09" width="35.47" height="2"/><rect class="cls-8" x="316.46" y="164.09" width="121.26" height="2"/><rect class="cls-10" x="234.2" y="178.96" width="4.9" height="4.9"/><polygon class="cls-10" points="259.94 183.87 255.04 183.87 257.04 181.42 255.04 178.96 259.94 178.96 261.94 181.42 259.94 183.87"/><polygon class="cls-5" points="247.34 178.96 248.13 180.58 249.92 180.84 248.63 182.09 248.93 183.87 247.34 183.03 245.74 183.87 246.05 182.09 244.76 180.84 246.54 180.58 247.34 178.96"/><rect class="cls-7" x="265.46" y="180.42" width="39.07" height="2"/><rect class="cls-7" x="452.62" y="180.42" width="35.47" height="2"/><rect class="cls-8" x="316.46" y="180.42" width="121.26" height="2"/><rect class="cls-1" x="221.42" y="189.58" width="288.1" height="16.33"/><rect class="cls-2" x="234.2" y="195.29" width="4.9" height="4.9"/><polygon class="cls-2" points="259.94 200.2 255.04 200.2 257.04 197.74 255.04 195.29 259.94 195.29 261.94 197.74 259.94 200.2"/><polygon class="cls-5" points="247.34 195.29 248.13 196.91 249.92 197.16 248.63 198.42 248.93 200.2 247.34 199.36 245.74 200.2 246.05 198.42 244.76 197.16 246.54 196.91 247.34 195.29"/><rect class="cls-7" x="265.46" y="196.75" width="39.07" height="2"/><rect class="cls-7" x="452.62" y="196.75" width="35.47" height="2"/><rect class="cls-8" x="316.46" y="196.75" width="121.26" height="2"/><rect class="cls-10" x="234.2" y="211.62" width="4.9" height="4.91"/><polygon class="cls-10" points="259.94 216.53 255.04 216.53 257.04 214.07 255.04 211.62 259.94 211.62 261.94 214.07 259.94 216.53"/><polygon class="cls-10" points="247.34 211.62 248.13 213.24 249.92 213.49 248.63 214.75 248.93 216.53 247.34 215.69 245.74 216.53 246.05 214.75 244.76 213.49 246.54 213.24 247.34 211.62"/><rect class="cls-7" x="265.46" y="213.08" width="39.07" height="2"/><rect class="cls-7" x="452.62" y="213.08" width="35.47" height="2"/><rect class="cls-8" x="316.46" y="213.08" width="121.26" height="2"/><rect class="cls-1" x="221.42" y="222.24" width="288.1" height="16.33"/><rect class="cls-2" x="234.2" y="227.95" width="4.9" height="4.9"/><polygon class="cls-2" points="259.94 232.85 255.04 232.85 257.04 230.4 255.04 227.95 259.94 227.95 261.94 230.4 259.94 232.85"/><polygon class="cls-5" points="247.34 227.95 248.13 229.56 249.92 229.82 248.63 231.08 248.93 232.85 247.34 232.02 245.74 232.85 246.05 231.08 244.76 229.82 246.54 229.56 247.34 227.95"/><rect class="cls-7" x="265.46" y="229.4" width="39.07" height="2"/><rect class="cls-7" x="452.62" y="229.4" width="35.47" height="2"/><rect class="cls-8" x="316.46" y="229.4" width="121.26" height="2"/><rect class="cls-10" x="234.2" y="244.28" width="4.9" height="4.9"/><polygon class="cls-10" points="259.94 249.18 255.04 249.18 257.04 246.73 255.04 244.28 259.94 244.28 261.94 246.73 259.94 249.18"/><polygon class="cls-10" points="247.34 244.28 248.13 245.89 249.92 246.15 248.63 247.41 248.93 249.18 247.34 248.34 245.74 249.18 246.05 247.41 244.76 246.15 246.54 245.89 247.34 244.28"/><rect class="cls-7" x="265.46" y="245.73" width="39.07" height="2"/><rect class="cls-7" x="452.62" y="245.73" width="35.47" height="2"/><rect class="cls-8" x="316.46" y="245.73" width="121.26" height="2"/><rect class="cls-1" x="221.42" y="254.89" width="288.1" height="16.33"/><rect class="cls-2" x="234.2" y="260.61" width="4.9" height="4.91"/><polygon class="cls-2" points="259.94 265.51 255.04 265.51 257.04 263.06 255.04 260.61 259.94 260.61 261.94 263.06 259.94 265.51"/><polygon class="cls-2" points="247.34 260.61 248.13 262.22 249.92 262.48 248.63 263.74 248.93 265.51 247.34 264.67 245.74 265.51 246.05 263.74 244.76 262.48 246.54 262.22 247.34 260.61"/><rect class="cls-7" x="265.46" y="262.06" width="39.07" height="2"/><rect class="cls-7" x="452.62" y="262.06" width="35.47" height="2"/><rect class="cls-8" x="316.46" y="262.06" width="121.26" height="2"/><rect class="cls-10" x="234.2" y="276.93" width="4.9" height="4.91"/><polygon class="cls-10" points="259.94 281.84 255.04 281.84 257.04 279.39 255.04 276.94 259.94 276.94 261.94 279.39 259.94 281.84"/><polygon class="cls-10" points="247.34 276.94 248.13 278.55 249.92 278.81 248.63 280.06 248.93 281.84 247.34 281 245.74 281.84 246.05 280.06 244.76 278.81 246.54 278.55 247.34 276.94"/><rect class="cls-7" x="265.46" y="278.39" width="39.07" height="2"/><rect class="cls-7" x="452.62" y="278.39" width="35.47" height="2"/><rect class="cls-8" x="316.46" y="278.39" width="121.26" height="2"/><rect class="cls-1" x="221.42" y="287.55" width="288.1" height="16.33"/><rect class="cls-2" x="234.2" y="293.26" width="4.9" height="4.9"/><polygon class="cls-2" points="259.94 298.17 255.04 298.17 257.04 295.72 255.04 293.26 259.94 293.26 261.94 295.72 259.94 298.17"/><polygon class="cls-5" points="247.34 293.26 248.13 294.88 249.92 295.14 248.63 296.39 248.93 298.17 247.34 297.33 245.74 298.17 246.05 296.39 244.76 295.14 246.54 294.88 247.34 293.26"/><rect class="cls-7" x="265.46" y="294.72" width="39.07" height="2"/><rect class="cls-7" x="452.62" y="294.72" width="35.47" height="2"/><rect class="cls-8" x="316.46" y="294.72" width="121.26" height="2"/><rect class="cls-7" x="250" y="109.53" width="54.54" height="5.84"/><rect class="cls-7" x="234.2" y="109.53" width="7.43" height="5.84"/><path class="cls-2" d="M292.36,148.5l-.91.95-.92.93-1,1,0,0-.86.83,0,0,0,0-.86-.84,0,0-1-1-.92-.93-.91-.95c.32.27.63.56.95.85l.94.87,1.05,1h0l.78.75.78-.75h0l1.05-1,.94-.87C291.73,149.06,292,148.77,292.36,148.5Z" transform="translate(-50.72 -38.96)"/><path class="cls-2" d="M287.87,151.2h0l-.12.15c-.18.25-.38.48-.57.7l-.72.81-.74.76c-.25.25-.51.49-.77.71.22-.3.46-.59.7-.86s.48-.54.72-.81.49-.52.74-.76.4-.39.61-.57l.15-.13Z" transform="translate(-50.72 -38.96)"/><path class="cls-2" d="M292.34,154.34c-.26-.22-.52-.46-.77-.71l-.74-.76c-.24-.27-.49-.53-.72-.81s-.39-.45-.57-.69l-.12-.16h0l.15.13c.21.18.41.37.61.57s.5.5.74.76.49.53.72.81S292.11,154,292.34,154.34Z" transform="translate(-50.72 -38.96)"/><rect class="cls-7" x="341.78" y="109.53" width="54.54" height="5.84"/><path class="cls-7" d="M380.06,150.48a1.24,1.24,0,1,1-1.24-1.24A1.23,1.23,0,0,1,380.06,150.48Z" transform="translate(-50.72 -38.96)"/><path class="cls-7" d="M381,153.89v.45h-4.28v-.45a2.14,2.14,0,1,1,4.28,0Z" transform="translate(-50.72 -38.96)"/><path class="cls-7" d="M383.23,149.73A1.24,1.24,0,1,1,382,148.5,1.23,1.23,0,0,1,383.23,149.73Z" transform="translate(-50.72 -38.96)"/><path class="cls-7" d="M384.13,153.14v.45h-4.28v-.45a2.14,2.14,0,0,1,4.28,0Z" transform="translate(-50.72 -38.96)"/><rect class="cls-7" x="433.56" y="109.53" width="54.54" height="5.84"/><path class="cls-7" d="M475.91,148.5h-7.43v5.84h7.43l2.22-2.92Zm.06,3.36a.44.44,0,0,1-.44-.44A.44.44,0,0,1,476,151a.43.43,0,0,1,.44.44A.44.44,0,0,1,476,151.86Z" transform="translate(-50.72 -38.96)"/><rect class="cls-5" x="130.18" y="68.96" width="91.24" height="234.91"/><rect class="cls-2" x="142.94" y="103.74" width="65.73" height="17.43"/><rect class="cls-2" x="142.94" y="83.66" width="9.16" height="1.47"/><rect class="cls-2" x="142.94" y="90.26" width="9.16" height="1.47"/><rect class="cls-2" x="142.94" y="87" width="9.16" height="1.47"/><rect class="cls-1" x="160.8" y="83.66" width="12.74" height="8.08"/><path class="cls-1" d="M224.26,122.62v8.07H211.52v-8.07c.55.31,1.09.63,1.63.95s1.08.64,1.61,1l1.79,1.11h0l1.34.84,1.34-.84h0l1.79-1.11c.53-.33,1.07-.65,1.61-1S223.71,122.93,224.26,122.62Z" transform="translate(-50.72 -38.96)"/><path class="cls-2" d="M224.26,122.62l-1.56,1.06-1.57,1-1.65,1.07,0,0-1.47.94-.07,0-.07,0-1.47-.94,0,0-1.65-1.07-1.57-1-1.56-1.06c.55.31,1.09.63,1.63.95s1.08.64,1.61,1l1.79,1.11h0l1.34.84,1.34-.84h0l1.79-1.11c.53-.33,1.07-.65,1.61-1S223.71,122.93,224.26,122.62Z" transform="translate(-50.72 -38.96)"/><path class="cls-2" d="M216.57,125.64h0l-.2.17c-.32.27-.64.53-1,.78s-.82.61-1.23.9-.84.58-1.27.85-.87.55-1.32.79c.39-.34.79-.65,1.2-1s.82-.61,1.23-.9.84-.58,1.28-.85.69-.44,1-.64l.25-.14Z" transform="translate(-50.72 -38.96)"/><path class="cls-2" d="M224.23,129.14c-.45-.24-.89-.51-1.32-.79s-.85-.56-1.27-.85-.83-.59-1.24-.9-.65-.51-1-.78l-.2-.17h0l.25.14c.35.2.7.42,1,.64s.86.56,1.27.85.84.59,1.24.9S223.84,128.8,224.23,129.14Z" transform="translate(-50.72 -38.96)"/><rect class="cls-11" x="130.18" y="136.37" width="91.24" height="12.39"/><rect class="cls-2" x="142.94" y="139.03" width="52.91" height="7.28"/><rect class="cls-2" x="142.94" y="153.28" width="52.91" height="7.28"/><rect class="cls-2" x="142.94" y="167.54" width="52.91" height="7.28"/><rect class="cls-2" x="142.94" y="181.79" width="52.91" height="7.28"/><rect class="cls-9" x="154.17" y="196.05" width="52.91" height="7.28"/><rect class="cls-9" x="154.17" y="210.3" width="52.91" height="7.28"/><rect class="cls-2" x="142.94" y="224.56" width="52.91" height="7.28"/><rect class="cls-2" x="142.94" y="238.81" width="52.91" height="7.28"/></g><g id="Paper_Plane" data-name="Paper Plane"><path class="cls-12" d="M180.65,266.44c0,.66,0,1.33.08,2" transform="translate(-50.72 -38.96)"/><path class="cls-13" d="M181.59,273.37c6.59,25.15,46.76,55.6,91.47,36.23,48.19-20.87,46.4-100.26,108.63-133.79" transform="translate(-50.72 -38.96)"/><path class="cls-12" d="M383.91,174.65l1.79-.89" transform="translate(-50.72 -38.96)"/><polygon class="cls-5" points="331.09 123.94 324.82 141.16 337.99 130.88 388.33 112.62 331.09 123.94"/><polygon class="cls-14" points="331.09 123.94 324.82 141.16 337.99 130.88 388.33 112.62 331.09 123.94"/><polygon class="cls-6" points="339.68 134.9 324.82 141.16 337.99 130.88 339.68 134.9"/><polygon class="cls-5" points="337.99 130.88 388.33 112.62 347.04 152.92 337.99 130.88"/><polygon class="cls-5" points="331.09 123.94 310.17 110.43 388.33 112.62 331.09 123.94"/></g><g id="Speech_Bubble" data-name="Speech Bubble"><circle class="cls-4" cx="561.89" cy="107.36" r="48.78" transform="translate(271.88 588.01) rotate(-76.09)"/><rect class="cls-2" x="477.88" y="47.29" width="66.59" height="42.23"/><path class="cls-7" d="M595.19,86.25c-2.69,2.57-5.43,5-8.14,7.56s-5.47,5-8.22,7.41-5.75,5.09-8.63,7.61l-.26.24-7.67,6.66-.38.31-.37-.31-7.66-6.67-.27-.23c-2.89-2.52-5.77-5-8.64-7.63s-5.48-4.91-8.21-7.39-5.45-5-8.14-7.56c2.86,2.2,5.67,4.52,8.5,6.78s5.64,4.6,8.44,6.94c3.12,2.58,6.24,5.21,9.35,7.86,0,0,0,0,0,0,2.33,2,4.66,4,7,5.94,2.32-2,4.65-4,7-5.94,0,0,0,0,0,0q4.67-4,9.35-7.87c2.8-2.32,5.61-4.64,8.43-6.92S592.33,88.45,595.19,86.25Z" transform="translate(-50.72 -38.96)"/><path class="cls-7" d="M555,108.79l-.08.07-1,.89c-1.67,1.41-3.38,2.76-5.12,4.07-2.12,1.62-4.29,3.17-6.47,4.71s-4.39,3-6.64,4.46-4.52,2.85-6.87,4.14c2-1.77,4.12-3.42,6.24-5s4.3-3.17,6.47-4.72,4.4-3,6.65-4.46c1.79-1.15,3.61-2.28,5.47-3.34l1.3-.73Z" transform="translate(-50.72 -38.96)"/><path class="cls-7" d="M595,127.13c-2.35-1.29-4.63-2.7-6.87-4.14s-4.45-2.94-6.65-4.46-4.35-3.09-6.47-4.71c-1.73-1.31-3.44-2.65-5.1-4.06l-1.06-.9-.08-.07.1,0,1.3.74c1.86,1.06,3.67,2.19,5.47,3.34,2.25,1.44,4.45,2.94,6.64,4.46s4.35,3.1,6.47,4.72S593,125.36,595,127.13Z" transform="translate(-50.72 -38.96)"/><circle class="cls-5" cx="587.9" cy="86.25" r="10.74" transform="translate(-46.9 156.45) rotate(-18.93)"/><path class="cls-2" d="M586.72,88.61V79.87a1.2,1.2,0,0,1,1.19-1.19,1.18,1.18,0,0,1,1.17,1.19v8.74a1.16,1.16,0,0,1-1.17,1.18A1.18,1.18,0,0,1,586.72,88.61Zm1.19,5.21a1.19,1.19,0,0,1-1.19-1.19V92.2A1.2,1.2,0,0,1,587.91,91a1.18,1.18,0,0,1,1.17,1.19v.43A1.17,1.17,0,0,1,587.91,93.82Z" transform="translate(-50.72 -38.96)"/></g><g id="Plant"><path class="cls-6" d="M638,263.84a75.64,75.64,0,0,1,1.76-12.34,27.34,27.34,0,0,1,4.41-10.41,13.2,13.2,0,0,1,8.64-5.39c3.39-.41,6.57,1.1,9.1,3.23,3.14,2.64,5.54,6.14,7.79,9.53a116.45,116.45,0,0,1,6.74,11.79c.07.13-.14.24-.21.11a72.58,72.58,0,0,0-6-9.86,62,62,0,0,0-6.93-8.4c-2.33-2.27-5.28-4.39-8.65-4.5a10.65,10.65,0,0,0-8.46,4.36c-2.25,2.89-3.4,6.49-4.26,10a75,75,0,0,0-1.73,11.75c-.67,8.13-.85,16.31-1,24.46Q639,295.11,639,302l-.06,7a41.2,41.2,0,0,1-.27,6.76c-.07.46-.81.41-.89,0a40.32,40.32,0,0,1-.31-6.41c0-2.21-.06-4.43-.08-6.64q-.06-6.47,0-12.93C637.35,281.15,637.45,272.47,638,263.84Z" transform="translate(-50.72 -38.96)"/><path class="cls-5" d="M649.66,257.71c.43-2.3,1.21-5.29,2.52-7.08,2.35-3.2,4.89-1.8,2.54,1.74a21.26,21.26,0,0,0-3.3,8.74s4,5.65,8.73,8.44c-.2-2.18-.82-5.52-.39-8.74.92-7,5.14-6.59,4.1-1.05a47.89,47.89,0,0,0-1,11.22,23.62,23.62,0,0,0,5.1,2.5c-.27-.81-.56-1.78-.88-3-1.7-6.26,2.48-8.21,2.61-4.69a49,49,0,0,0,1.62,8.88c2.29.77,4.19,1.3,5.35,1.71a19.44,19.44,0,0,1,7.83,5.35,24.68,24.68,0,0,0,5.34-6.91c-1.46-1.25-3.77-3.12-7-5.38-6-4.24-3.91-9.59.85-6.26,3.44,2.4,6.1,6.85,7.3,9.13a37.1,37.1,0,0,0,2.73-12.5c-4.72-4.42-16.38-10.59-12.86-10.59,3.16,0,10.24,4.64,12.83,6.43a32.42,32.42,0,0,0-.4-3.64c-4.44-2.91-18.87-7.43-16.57-8.74,2.53-1.42,12.6,3.24,15.64,4.71a18.31,18.31,0,0,0-2.67-5.52c-6.13-8.22-17.2-11.05-22-9.48-3.42,1.11-2.42,9.77-3.16,9.48C650.85,237,644.61,240.88,649.66,257.71Zm33.63-.95c1-1.17,5.48,2.29,4.18,4.18S682,258.27,683.29,256.76Zm-23.52-7.39c1.18.75-.57,5.13-2.4,3.81C655.82,252.05,658.57,248.61,659.77,249.37Z" transform="translate(-50.72 -38.96)"/><path class="cls-6" d="M661.56,250.71c.62-1.22,1.27-2.44,2-3.62a21.28,21.28,0,0,1,2.27-3.28c-.2-.24-.38-.49-.59-.73s.06-.23.15-.13c.23.26.45.53.67.8a.22.22,0,0,1,.1.11c.84,1,1.64,2.06,2.4,3.13a36.41,36.41,0,0,1,4,1.15c1.35.45,2.68.92,4,1.47.13.06.07.29-.07.23-1.3-.58-2.61-1.13-4-1.59s-2.57-.76-3.85-1.12c.41.59.83,1.19,1.22,1.79a47.4,47.4,0,0,1,7,2.88c2.38,1.13,4.67,2.44,7,3.76a.12.12,0,0,1-.12.2,75.47,75.47,0,0,0-6.92-3.58c-2.21-1-4.49-1.88-6.71-2.87,5.6,8.75,9,18.84,13.45,28.18.07.14-.14.25-.2.11-1.37-3.27-3-6.47-4.45-9.69-1.34-2.89-2.65-5.8-4-8.69-.39-.85-.8-1.7-1.21-2.54.25,4.67.15,9.42.91,14a.11.11,0,1,1-.22,0c-.33-5-1.21-9.9-1.17-14.92,0,0,0,0,0-.06-1-1.91-2-3.79-3-5.63-1.86,4.38-3.81,8.81-4.68,13.51,0,.14-.26.08-.22-.07,1.26-4.71,2.43-9.42,4.7-13.77a54.31,54.31,0,0,0-4-5.68c-.62,1.16-1.42,2.26-2.13,3.37s-1.37,2.17-2,3.29a48.21,48.21,0,0,0-3.5,7.41c0,.14-.28.07-.22-.07C659.25,255.63,660.34,253.13,661.56,250.71Z" transform="translate(-50.72 -38.96)"/><path class="cls-6" d="M617.39,261.35c3.6-3.61,7.78-8.34,13.34-8.33,5.36,0,9.31,4.32,11.57,8.78,2.37,4.66,3.23,9.93,3.9,15.06a185.43,185.43,0,0,1,1.42,18.53c.1,3.44.08,6.88,0,10.32a68.36,68.36,0,0,1-.79,10.41c-.1.56-1,.58-1,0-.17-2.9,0-5.81,0-8.71s0-5.7-.14-8.56c-.21-5.77-.63-11.53-1.31-17.26-.59-5-1.06-10.16-2.56-15-1.35-4.37-3.89-9.36-8.31-11.28-6-2.61-11.94,2.17-15.89,6.2C617.47,261.6,617.29,261.45,617.39,261.35Z" transform="translate(-50.72 -38.96)"/><path class="cls-5" d="M599.05,269.4h0c0,.74.07,1.47.12,2.18a13,13,0,0,1,5.89-2.44c5.1-.54,4.78,3.34,1.37,3.5a19.43,19.43,0,0,0-7,1.4c.83,6.74,2.68,12.16,3,12.23a97.67,97.67,0,0,0,13.49-1.7c-1.27-2.71-4.16-6.3-2.69-6.59s3.08,2.91,3.9,6.34a64.94,64.94,0,0,0,9.81-2.7c-2.25-1.94-5.72-4.36-4.39-5.39s4.08,2.37,5.73,4.85a19.87,19.87,0,0,0,4.24-2.37c-3-4.44-10.4-5.34-9.44-8.55s7.86,1.24,11,7.19c3.63-3.77,4.7-9.11,4.32-13.67-3.17-.37-9.27.3-8.82-2s4.84-1.84,8.45-.51a12.7,12.7,0,0,0-2.12-5c-3.34-4.29-13.53,1.16-13.53,1.16s1.09-10.24-2.79-12c-2.24-1-6.19-1-10.16,1.33,2.23.18,4.91.89,6,2.43,1.39,2-.79,3-2.18,2.13-1-.65-2.8-2.67-6.09-2.94a20.43,20.43,0,0,0-3.67,4.07,19.83,19.83,0,0,0-1.08,1.7,14,14,0,0,1,11.93.21c4.41,2.19,2,6.78-1.85,5S605,255.74,601,256.74A28.55,28.55,0,0,0,599,268.16a20,20,0,0,1,6.55-3.14c4.39-1.15,5.71,1.47.89,2A19.59,19.59,0,0,0,599.05,269.4Zm5.34-7c-.3-1.42,2.81-1.83,3.33-.67C608.15,262.66,604.69,263.78,604.39,262.35ZM631,270.23c.3-.77,2.38.11,2.19,1.08C633,272.6,630.75,271,631,270.23Zm-14.71,5c1.52-.6,3.89,3.17,2.24,4S615.08,275.72,616.32,275.22Z" transform="translate(-50.72 -38.96)"/><path class="cls-6" d="M603,285.5c2.29-3.82,4.55-7.67,7-11.43q1.68-2.62,3.51-5.14l-.55-.13-.91-.18c-.7-.12-1.41-.22-2.12-.29a19.34,19.34,0,0,0-2-.11,9.67,9.67,0,0,0-2.15.11c-.08,0-.1-.12,0-.11.71,0,1.44-.07,2.16-.08s1.39,0,2.08.05,1.31.1,1.95.2l1.07.19c.21,0,.43.07.64.13q1.86-2.55,3.86-5a45.79,45.79,0,0,0-12.53-4,.06.06,0,0,1,0-.12,42.52,42.52,0,0,1,12.71,3.86c.73-.9,1.46-1.79,2.2-2.68s1.72-2,2.47-3c0-.07.15,0,.09.07a45.4,45.4,0,0,0-2.91,3.55h0a42.75,42.75,0,0,1,4.65,3.74c1.53,1.35,3,2.74,4.46,4.18.05,0,0,.13-.09.08q-2.13-2.13-4.45-4.06c-1.54-1.28-3.17-2.46-4.73-3.73,0,0,0,0,0,0-.35.47-.71.94-1.07,1.4l-.53.71,0,0c-.6.77-1.19,1.55-1.78,2.33a19.48,19.48,0,0,1,1.77,3.19c.51,1.08,1,2.2,1.37,3.32a48.86,48.86,0,0,1,1.91,7.17c0,.07-.1.1-.11,0a42.05,42.05,0,0,0-2.09-7c-.44-1.17-.95-2.31-1.47-3.45s-1.05-2-1.5-3.07c-.51.68-1,1.36-1.52,2.06l-.43.6c0,.05,0,.11,0,.11h0c-1.57,2.19-3.06,4.44-4.52,6.71a2.18,2.18,0,0,1,.2.5c.09.28.18.55.26.83a14.15,14.15,0,0,1,.4,1.71c.1.54.18,1.08.23,1.63a14.26,14.26,0,0,0,.14,1.85c0,.09-.13.1-.12,0a6.31,6.31,0,0,0-.12-1.73c-.09-.59-.2-1.18-.33-1.76s-.27-1-.42-1.56c-.08-.26-.17-.52-.25-.78a4.09,4.09,0,0,1-.16-.42c-.68,1.07-1.36,2.14-2,3.22-1.32,2.14-2.63,4.29-3.94,6.43C603.09,285.71,602.92,285.61,603,285.5Z" transform="translate(-50.72 -38.96)"/><path class="cls-6" d="M638.28,314.89c.06-2.17.4-4.36.64-6.51s.48-4.33.71-6.5a95.89,95.89,0,0,1,1.68-12.54,18.2,18.2,0,0,1,5.1-9.38,8.28,8.28,0,0,1,5-2.38,8.59,8.59,0,0,1,5.31,1.63,18.55,18.55,0,0,1,4.47,4.71,46.18,46.18,0,0,1,3.48,5.66c0,.07-.08.12-.12.05a29,29,0,0,0-7.53-8.45,8.93,8.93,0,0,0-4.75-2,6.44,6.44,0,0,0-4.61,1.84,17.27,17.27,0,0,0-4.86,8.61,86.79,86.79,0,0,0-1.89,11.58l-.9,6.88c-.3,2.29-.49,4.63-1,6.88A.38.38,0,0,1,638.28,314.89Z" transform="translate(-50.72 -38.96)"/><path class="cls-5" d="M649,298.05a12.09,12.09,0,0,0,2.35,2.4c-.35-2.11-.78-5.87.29-7.87,1.65-3.11,3.62-1.56,2.63,1.14a22,22,0,0,0-1.6,7.66,32.56,32.56,0,0,0,7.21,3.4,11.8,11.8,0,0,1-.24-3.71c.33-3.32,2.87-3.26,2.21.2a21.46,21.46,0,0,0-.35,4.06,74.88,74.88,0,0,0,11.23,2.53,32.84,32.84,0,0,0,4.65-8.27c-2.71-.68-8.19-.83-8.07-2.76.16-2.6,5.46-.6,8.57,1.28a20.63,20.63,0,0,0,.93-7,34.81,34.81,0,0,0-7.46-1.24c-5.57-.48-5.29-3.64-1.26-3.57,3,.06,6.75,1.88,8.53,2.83-1.16-7.58-6.94-12.43-11.57-12.62-7.79-.31-5,9.38-5,9.38s-5.28-3.71-10.26-3.61S643.62,290.63,649,298.05Zm20.8-14c-.17-1.09,3.31-1.35,3.49.05C673.45,285.65,669.93,285.14,669.75,284Zm5.6,11.37c-.08-.71,1.43-.83,1.77.06C677.34,296.05,675.41,296.11,675.35,295.4Zm-18.71.67c1.18.16,1.84,4.36-.18,4.28C654.92,300.28,655.65,295.93,656.64,296.07Z" transform="translate(-50.72 -38.96)"/><path class="cls-6" d="M658.27,300.73c.19-.52.36-1.05.53-1.59-.15.54-.29,1.08-.39,1.63A.07.07,0,1,1,658.27,300.73Z" transform="translate(-50.72 -38.96)"/><path class="cls-6" d="M660.32,294c.37-1.07.78-2.14,1.19-3.19.23-.57.46-1.13.71-1.68a7.09,7.09,0,0,1,.69-1.41,10.42,10.42,0,0,1-.63-1.36s0-.07.07,0a15.81,15.81,0,0,1,1.52,2.36c.22.36.42.74.63,1.11a9.4,9.4,0,0,1,1.31.2c.47.09.94.18,1.4.29l1.39.32c.46.11.91.26,1.38.33.11,0,.06.19,0,.15a8,8,0,0,0-1.46-.38c-.44-.1-.89-.18-1.34-.24s-.91-.13-1.37-.17l-1-.08c.19.32.38.65.56,1l.09.15a4.61,4.61,0,0,1,1.11.13c.41.08.81.15,1.21.24.81.18,1.62.37,2.42.6,1.69.47,3.35,1,5,1.55.09,0,0,.17-.06.14a48.86,48.86,0,0,0-5-1.4l-2.39-.53-1.2-.25a7,7,0,0,1-.93-.21c.85,1.59,1.66,3.19,2.4,4.84,1.62,3.57,3,7.25,4.36,10.92,0,.09-.1.15-.13.06a101.09,101.09,0,0,0-4.65-10.68c-.31-.63-.63-1.26-.94-1.9,0,.13-.06.26-.08.39-.08.43-.16.87-.23,1.3-.15.87-.3,1.74-.43,2.61a30.94,30.94,0,0,0-.63,5.41.08.08,0,1,1-.15,0c.14-.86.14-1.76.2-2.63s.12-1.83.23-2.73.21-1.75.36-2.62c.07-.43.14-.87.22-1.3a2.67,2.67,0,0,1,.25-.94c-.46-.92-.91-1.84-1.37-2.75s-.87-1.71-1.32-2.56l-.59-1.09a8.71,8.71,0,0,1-.52,1.31l-.6,1.48c-.44,1.08-.86,2.18-1.28,3.28-.58,1.56-1.23,3.15-1.72,4.78C659.39,297.17,659.79,295.55,660.32,294Z" transform="translate(-50.72 -38.96)"/><path class="cls-6" d="M658.8,299.14c0-.12.07-.25.11-.37C658.87,298.89,658.84,299,658.8,299.14Z" transform="translate(-50.72 -38.96)"/><polygon class="cls-15" points="574.53 271.71 575.08 283.31 576.49 313.19 607.33 313.19 608.74 283.31 609.29 271.71 574.53 271.71"/><polygon class="cls-6" points="574.53 271.71 575.08 283.31 608.74 283.31 609.29 271.71 574.53 271.71"/><rect class="cls-15" x="623.06" y="305.98" width="39.14" height="9.38" transform="translate(1234.54 582.38) rotate(180)"/><rect class="cls-15" x="599.42" y="313.19" width="5.41" height="4.91"/><rect class="cls-6" x="599.42" y="313.19" width="5.41" height="2.45"/><rect class="cls-15" x="578.99" y="313.19" width="5.41" height="4.91"/><rect class="cls-6" x="578.99" y="313.19" width="5.41" height="2.45"/></g><g id="Chair"><path class="cls-8" d="M87.49,444.86l144.58.63c35.15-27.6,38.78-68.48,13.7-93.27-15.17-15-34.44-12-52.78-14.35h-.06a54.31,54.31,0,0,1-18.61-5.47c-18.89-10-29.54-33.47-45.43-53.25q-3-3.72-6.22-7.21C109.6,258,83.58,257.53,70,277.15,35.41,327,51.24,401.2,87.49,444.86Z" transform="translate(-50.72 -38.96)"/><path class="cls-7" d="M84.28,330.8c3.79,59.32,72.29,81.46,115.08,63.69,37.2-15.45,25-50.72-6.37-56.62h-.06a54.31,54.31,0,0,1-18.61-5.47c-18.89-10-29.54-33.47-45.43-53.25C105.21,266.85,81.5,287.37,84.28,330.8Z" transform="translate(-50.72 -38.96)"/></g><g id="Character"><path class="cls-16" d="M199.21,454.14c-2.14-.75-50.8-38.53-51.75-41.14-.36-1,4.73-8.4,11.13-17.17,1.38-1.9,2.82-3.85,4.29-5.82,9.55-12.81,20-26.18,20-26.18L215.48,389l-20.87,25.48-4.58,5.6s12.17,22.79,12.9,25.77S201.36,454.89,199.21,454.14Z" transform="translate(-50.72 -38.96)"/><path class="cls-1" d="M168,383.17c-1.69,2.24-3.42,4.56-5.13,6.84-1.47,2-2.91,3.92-4.29,5.81C152.18,404.6,147.1,412,147.46,413c.95,2.61,49.61,40.39,51.76,41.14s4.42-5.31,3.71-8.28S190,420.09,190,420.09l4.58-5.6,4.66-5.68Z" transform="translate(-50.72 -38.96)"/><path class="cls-5" d="M199.44,454.6c-2.17-.78-51.49-39.42-52.44-42.08-.44-1.23,7.34-12.07,15.79-23.32l32.15,25.05-4.68,5.67s12.27,23.25,13,26.28S201.62,455.37,199.44,454.6Z" transform="translate(-50.72 -38.96)"/><path class="cls-6" d="M200.28,452.07c-8.11-6.68-41.44-32.86-50-38.85-.07-.05-.1,0,0,0,7.9,6.8,41.44,32.71,49.9,38.94C200.35,452.34,200.45,452.21,200.28,452.07Z" transform="translate(-50.72 -38.96)"/><path class="cls-6" d="M192.87,419c-2.78-3.16-7.15-5.78-11.45-5.41-.17,0-.15.26,0,.3a58.73,58.73,0,0,1,11.12,5.51A.27.27,0,0,0,192.87,419Z" transform="translate(-50.72 -38.96)"/><path class="cls-6" d="M194.11,422.25c-2.78-3.15-7.15-5.77-11.45-5.4-.17,0-.15.25,0,.3a57.56,57.56,0,0,1,11.12,5.51A.27.27,0,0,0,194.11,422.25Z" transform="translate(-50.72 -38.96)"/><path class="cls-6" d="M195.35,425.51c-2.78-3.16-7.15-5.77-11.45-5.41-.17,0-.15.26,0,.31a57.89,57.89,0,0,1,11.13,5.5A.27.27,0,0,0,195.35,425.51Z" transform="translate(-50.72 -38.96)"/><path class="cls-6" d="M196.59,428.77c-2.78-3.16-7.15-5.78-11.45-5.41-.17,0-.15.25,0,.3a57.36,57.36,0,0,1,11.13,5.51A.27.27,0,0,0,196.59,428.77Z" transform="translate(-50.72 -38.96)"/><path class="cls-6" d="M204.77,416.18c.1-2.76-2.9-3.83-5.15-3.75A22,22,0,0,0,188.77,416a.11.11,0,0,0,0,.18.51.51,0,0,0,.19.81c3.46,1.11,7,2.72,10.73,2.74C201.85,419.68,204.68,418.8,204.77,416.18Zm-10.22,1.36c-1.72-.5-3.4-1.09-5.14-1.53,2.12-.68,4.2-1.45,6.38-1.92a24.36,24.36,0,0,1,3.19-.51c1.65-.12,7,1,3.58,4.13C200.71,419.43,196.59,418.14,194.55,417.54Z" transform="translate(-50.72 -38.96)"/><path class="cls-6" d="M181.17,408.62c1.78,3.25,4.91,5.6,7.55,8.11a.51.51,0,0,0,.8-.21c.06,0,.14,0,.14-.1a22,22,0,0,0-2.1-11.21c-1-2-3.39-4.14-5.77-2.73S180.12,406.73,181.17,408.62Zm.35-3.47c1.12-4.45,4.65-.34,5.34,1.18a23.18,23.18,0,0,1,1.07,3,63.65,63.65,0,0,1,1.37,6.53c-1.21-1.32-2.53-2.51-3.8-3.78C184,410.6,180.9,407.61,181.52,405.15Z" transform="translate(-50.72 -38.96)"/><path class="cls-9" d="M249.14,339c-2.24,17-44,65.91-48.86,71.53l-1.1,1.27L164.61,385.2l.4-.51,30.44-39.86s-50.34,29.37-75.52,16c-11.31-6-19.7-16.63-19.7-16.63l32.87-17.53s9.1,2.94,14.91,2.09c20-2.93,65-20,75.6-19.55C237.35,309.82,251.19,323.4,249.14,339Z" transform="translate(-50.72 -38.96)"/><path class="cls-6" d="M206.39,330a39.53,39.53,0,0,0-3.15,4c-1.07,1.41-2.16,2.81-3.24,4.22l0,.05c.19-.42.38-.83.58-1.24.67-1.41,1.22-2.86,2-4.2.05-.08-.08-.16-.13-.08-.82,1.33-1.78,2.6-2.48,4-.34.66-.65,1.32-.94,2-.16.38-.33.75-.47,1.13a4.3,4.3,0,0,0-.2.54c-.48.65-1,1.31-1.42,2-1,1.49-1.93,3.06-3,4.53-.05.08.07.15.13.08,1-1.39,2.23-2.68,3.3-4.05s2.11-2.84,3.13-4.29l3-4.26a41.66,41.66,0,0,0,3-4.37C206.5,330,206.43,330,206.39,330Z" transform="translate(-50.72 -38.96)"/><path class="cls-6" d="M202.72,403.56c-1.89-1.76-3.94-3.39-5.94-5s-4-3.28-6.06-4.9c-4.06-3.25-8.1-6.53-12.2-9.72-2.26-1.76-4.53-3.49-6.87-5.12a.11.11,0,0,0-.13.18c3.84,3.5,7.94,6.69,12,9.93s8.13,6.49,12.25,9.68c2.25,1.74,4.48,3.54,6.84,5.14C202.7,403.79,202.81,403.64,202.72,403.56Z" transform="translate(-50.72 -38.96)"/><path class="cls-6" d="M88.38,267.19a3,3,0,0,0,2.17,5.32,3.11,3.11,0,0,0,0,1.25,3.25,3.25,0,0,0,3.6,2.49,2.88,2.88,0,0,0,0,1.05,2.95,2.95,0,0,0,5.2,1.16,3,3,0,0,0,3.49,2,2.7,2.7,0,0,0,1.12-.53,2.38,2.38,0,0,0,0,.26,3,3,0,0,0,5.62.47,2.93,2.93,0,0,0,3.33,1.63,3,3,0,0,0,2.18-2.06,3.33,3.33,0,0,0,2.15.23,3.16,3.16,0,0,0,2-1.49,3.24,3.24,0,0,0,5-2.58,3,3,0,0,0,1.16,0,3,3,0,0,0,2.28-3.17,3,3,0,0,0,1.43,0,3.24,3.24,0,0,0,2.45-3.9,3,3,0,0,0-.42-1,1.89,1.89,0,0,0,.52-.06,3,3,0,0,0,2.22-3.54,2.89,2.89,0,0,0-.78-1.41,3.25,3.25,0,0,0,2.15-3.82,3.17,3.17,0,0,0-.87-1.56,3.26,3.26,0,0,0,1.38-3.46,3.2,3.2,0,0,0-1.81-2.21,2.87,2.87,0,0,0,.45-2.34,2.93,2.93,0,0,0-1.46-1.93,3.24,3.24,0,0,0-2.24-5.32,2.92,2.92,0,0,0,0-1.41,3,3,0,0,0-3.16-2.28,3,3,0,0,0,0-1.4,3.26,3.26,0,0,0-3.9-2.44,2.62,2.62,0,0,0-.71.27,3,3,0,0,0-.08-.52,3.26,3.26,0,0,0-3.9-2.44,2.65,2.65,0,0,0-.76.28,3.23,3.23,0,0,0-.07-.92,3.27,3.27,0,0,0-3.92-2.44,3.22,3.22,0,0,0-2.07,1.53,3.23,3.23,0,0,0-5.06.46,3,3,0,0,0-5.41.46,3,3,0,0,0-4.72,2.06,3.21,3.21,0,0,0-2.59-.5A3.26,3.26,0,0,0,92,236.58a3,3,0,0,0-1.08,0,3,3,0,0,0-2.21,3.55,2.83,2.83,0,0,0,.42,1l-.19,0a3.26,3.26,0,0,0-2.44,3.91,2.84,2.84,0,0,0,.35.88A2.65,2.65,0,0,0,86,246a3,3,0,0,0-2.21,3.55,2.92,2.92,0,0,0,1.33,1.85,2.95,2.95,0,0,0,.38,4.69,3.25,3.25,0,0,0,1.25,6.05,2.9,2.9,0,0,0-.8,2.75A3,3,0,0,0,88.38,267.19Z" transform="translate(-50.72 -38.96)"/><path class="cls-16" d="M115.64,292.58c6.15,8.83,27.25,31.76,41.84,35.09,8,1.83,46.89,7.26,52.21,2.42,6.24-5.67,3.35-27.06-1.61-27.26-15.13-.59-43.13,2.37-50.13.83-3.16-.7-19.93-11.52-37.84-20.17C113.34,280.22,111.67,286.88,115.64,292.58Z" transform="translate(-50.72 -38.96)"/><path class="cls-5" d="M199.84,301.66l-2.59,32s-35.25-.56-45.89-6.54-28-21.24-34.59-31.85-4.41-16.39,8.53-9.87,30.39,17,32.68,17.55S199.84,301.66,199.84,301.66Z" transform="translate(-50.72 -38.96)"/><path class="cls-6" d="M192.81,303.88c0-.08-.13-.11-.15,0-.44,2.2-.62,4.46-.87,6.68s-.48,4.61-.68,6.92c-.42,4.6-.9,9.23-1,13.85,0,.2.26.19.29,0,.69-4.54,1.06-9.14,1.49-13.71.21-2.26.41-4.53.57-6.8S192.84,306.19,192.81,303.88Z" transform="translate(-50.72 -38.96)"/><path class="cls-2" d="M145,296.09a147.16,147.16,0,0,1-11.21,18c-.12-.12-.25-.23-.37-.33a146.93,146.93,0,0,0,11.14-17.9C144.72,295.92,144.87,296,145,296.09Z" transform="translate(-50.72 -38.96)"/><path class="cls-2" d="M149.21,298.43a143.21,143.21,0,0,1-11.6,18.9l-.38-.32a144,144,0,0,0,11.55-18.82Z" transform="translate(-50.72 -38.96)"/><path class="cls-11" d="M166,331.2c-6-.95-11.46-2.26-14.66-4.06-10.64-6-28-21.24-34.59-31.85-5.06-8.1-5-13.39,1.13-12.53Z" transform="translate(-50.72 -38.96)"/><path class="cls-5" d="M84.45,351.89c1.93.63,56.89-15.27,56.89-15.27l-6.49-19.08s3.2-6.14,1.72-12c-2-7.89-16.59-20.85-17.73-21.61-4.61-3.05-8.92-3-12.74-1C90.21,291.36,84.45,351.89,84.45,351.89Z" transform="translate(-50.72 -38.96)"/><path class="cls-2" d="M133.83,299.93c-14.22,7-33.85,9.62-42.09,10.46,0-.17.09-.34.14-.51,8.3-.87,27.62-3.51,41.66-10.37Z" transform="translate(-50.72 -38.96)"/><path class="cls-2" d="M136,303.85c-15.1,8.24-37.93,11-45.57,11.74a4.87,4.87,0,0,1,.12-.52c7.77-.75,30.33-3.53,45.24-11.68C135.88,303.55,136,303.7,136,303.85Z" transform="translate(-50.72 -38.96)"/><path class="cls-6" d="M126.38,290.76c1.41,1.65,2.93,3.21,4.39,4.82-.68-1.2-1.36-2.4-2.08-3.58a0,0,0,1,1,0,0,26.67,26.67,0,0,1,2.79,4.44,36.62,36.62,0,0,1,3,3.87,17.41,17.41,0,0,1,2.5,5.32,14.56,14.56,0,0,1,.16,5.88,37.62,37.62,0,0,1-1.85,6.58c-.1.28-.51.1-.43-.18,1-3.72,2.2-7.66,1.38-11.54s-3.23-7.1-5.57-10.16a54.13,54.13,0,0,0-4.47-5.33C126.19,290.78,126.31,290.68,126.38,290.76Z" transform="translate(-50.72 -38.96)"/><path class="cls-16" d="M98.92,296.21c-4.42,25.06-.83,44,3.43,46.31,11.46,6.26,33.57-4.78,41.34-7.3,3.14-1,.12-27.08-3.34-26.37-8.52,1.73-23.74,10.58-24.17,10.54-.85-.09-1.84-6.49-6.22-25.14C106.41,279.17,100.73,286,98.92,296.21Z" transform="translate(-50.72 -38.96)"/><path class="cls-16" d="M137.1,309.73s16.11-6.74,29.14-6.14c4.42.2,22.35,5.84,21.17,10.23-1.07,4-15.93-2.51-15.93-2.51s15.57,5.21,13.41,9.75-18-5-18-5,15.87,5.71,12.9,10c-2.25,3.27-17.06-4.57-17.06-4.57s13.62,5,11.45,8.46c-2.39,3.83-16.52-2.55-16.52-2.55-7,7.88-13.54,8.77-18.27,8.85C138.26,336.3,137.1,309.73,137.1,309.73Z" transform="translate(-50.72 -38.96)"/><path class="cls-6" d="M166.21,309.16c1.85.55,3.73,1.09,5.53,1.79s3.57,1.48,5.29,2.36a33.7,33.7,0,0,1,6.38,4c-3.7-2.55-10.09-5.19-11.89-5.9s-3.55-1.5-5.34-2.21C166.14,309.21,166.17,309.15,166.21,309.16Z" transform="translate(-50.72 -38.96)"/><path class="cls-6" d="M163.53,315.6c2.34.8,4.68,1.51,7,2.41s4.38,1.95,6.6,3c.17.09.07.15-.1.08-2.26-1-4.42-1.68-6.7-2.62s-4.5-2-6.8-2.82C163.48,315.64,163.5,315.59,163.53,315.6Z" transform="translate(-50.72 -38.96)"/><path class="cls-6" d="M160.24,320.71a54.7,54.7,0,0,1,10.39,4.51c.17.08,0,.15-.14.07-3.43-1.56-6.11-2.81-10.28-4.45C160.14,320.81,160.17,320.69,160.24,320.71Z" transform="translate(-50.72 -38.96)"/><path class="cls-5" d="M133.93,309.82,147.11,338s-40.9,11.94-46.45,4.76S95.5,313,98.1,297.37s9.64-15.92,12.71-1.8,4.89,23,5.45,23S133.93,309.82,133.93,309.82Z" transform="translate(-50.72 -38.96)"/><path class="cls-2" d="M114.28,311.5a114.54,114.54,0,0,1-18,9.7v-.54A113.55,113.55,0,0,0,114.16,311C114.21,311.16,114.24,311.33,114.28,311.5Z" transform="translate(-50.72 -38.96)"/><path class="cls-2" d="M115.44,316.37a115.84,115.84,0,0,1-19,10.15l0-.54a114.22,114.22,0,0,0,18.85-10.12C115.35,316,115.4,316.21,115.44,316.37Z" transform="translate(-50.72 -38.96)"/><path class="cls-6" d="M128.59,313.61c0-.07-.17,0-.14.05.74,2.12,1.72,4.16,2.63,6.21s1.92,4.22,2.91,6.31c2,4.18,3.88,8.42,6.09,12.48a.15.15,0,0,0,.26-.14c-1.7-4.26-3.71-8.42-5.64-12.58-1-2.06-1.93-4.12-2.94-6.16S129.78,315.58,128.59,313.61Z" transform="translate(-50.72 -38.96)"/><path class="cls-6" d="M125.5,343.18a18.2,18.2,0,0,0-3.43.57c-1.18.21-2.36.4-3.55.56a67.38,67.38,0,0,1-7,.59c-2.28.06-7.93-.28-9.67-1.85a11,11,0,0,1-3-5.09,75.5,75.5,0,0,1-1.4-8A104.12,104.12,0,0,1,97,312.71c.07-1.6.17-3.19.28-4.79s.31-3.25.37-4.88a.06.06,0,0,0-.11,0,57.87,57.87,0,0,0-1.08,7.88c-.1-1.65-.3-3.29-.33-4.94,0-.1-.15-.09-.15,0,0,1.74-.08,3.47,0,5.21,0,1,.14,1.95.25,2.92q-.21,3.31-.18,6.63a68.05,68.05,0,0,0,2,17.3c.68,2.46,1.72,4.81,4,6.12a14.42,14.42,0,0,0,5.38,1.41,44.78,44.78,0,0,0,11.78-.75c1.08-.2,2.17-.43,3.25-.67a13.18,13.18,0,0,0,3.1-.85A.06.06,0,0,0,125.5,343.18Z" transform="translate(-50.72 -38.96)"/><polygon class="cls-6" points="83.73 271.08 83.73 271.08 83.73 271.08 83.73 271.08"/><path class="cls-6" d="M133.87,309.29c-3,1.5-6,3-9,4.55l-4.44,2.27c-1.42.74-4.13,2.2-4.13,2.2,0-.68-.56-2.65-.84-3.92s-.64-2.76-1-4.14c-.09-.35-.19-.71-.29-1.07l-.18-2c-.1-1.06-.19-2.15-.36-3.21,0,0-.05,0-.06,0a15.44,15.44,0,0,0,0,3q-.69-2.49-1.42-5a0,0,0,0,0-.09,0c.54,2.79,1.11,5.58,1.75,8.35.31,1.35.65,2.68,1,4a42.48,42.48,0,0,0,1.2,4.28,46.24,46.24,0,0,0,4.5-2q2.31-1.1,4.6-2.25c2.95-1.48,5.93-3,8.79-4.66,0,0,.44.93.47,1s.17-.08.14-.21A5.37,5.37,0,0,0,133.87,309.29Z" transform="translate(-50.72 -38.96)"/><polygon class="cls-6" points="83.73 271.08 83.73 271.08 83.73 271.08 83.73 271.08"/><rect class="cls-8" x="85.29" y="291" width="58.31" height="2.62"/><polygon class="cls-4" points="97.76 291 95.77 293.62 143.6 293.62 143.6 291 97.76 291"/><polygon class="cls-8" points="100.26 293.62 157.09 293.62 161.82 255.02 104.99 255.02 100.26 293.62"/><path class="cls-2" d="M178.3,313.28a3.39,3.39,0,0,0,3.4,3.46,3.54,3.54,0,0,0,3.52-3.46,3.39,3.39,0,0,0-3.4-3.46A3.53,3.53,0,0,0,178.3,313.28Z" transform="translate(-50.72 -38.96)"/><path class="cls-16" d="M212.08,297.71c2.14,3.31,7.42,7.17,8.15,10a3.35,3.35,0,0,1-1.38,3.76s3.06,1.06,3.3,3.74c.12,1.38-2,2.78-2,2.78a4,4,0,0,1,2.48,3.36c0,1.91-2.06,3-2.06,3s1.89,2,1.32,4c-1.16,4-17.43,6.13-20.73.47-1.55-2.64,2.46-2.95,2.46-2.95s-5.87-.95-6.39-4.29,4.69-3.43,4.69-3.43-5.67-1-5.87-4.48c-.21-3.67,5-2.86,5-2.86s-3.94-2-3.47-4.71c.76-4.5,10,.29,13.5-1Z" transform="translate(-50.72 -38.96)"/><path class="cls-6" d="M220.28,324.61a0,0,0,0,1,0,.09,28.45,28.45,0,0,1-16.89,1.21c-.18,0-.18-.35,0-.34A58,58,0,0,0,220.28,324.61Z" transform="translate(-50.72 -38.96)"/><path class="cls-6" d="M220.25,318c.07,0,.09.09,0,.11a26.59,26.59,0,0,1-18.5.18c-.21-.08-.31-.36-.07-.28C205.84,319.31,215.07,319.17,220.25,318Z" transform="translate(-50.72 -38.96)"/><path class="cls-6" d="M200.72,310.5c5.87,2,11.82,2,17.91,1.08.08,0,.09.1,0,.13-2.86,1.26-6.81,1.44-9.89,1.33a16.46,16.46,0,0,1-8.13-2.34C200.55,310.64,200.59,310.45,200.72,310.5Z" transform="translate(-50.72 -38.96)"/><path class="cls-16" d="M103.45,284.88s9.72,8.24,15.9,6.73,2.39-7.78,2.39-7.78-5.64-3.44-11.67-2.65A10.47,10.47,0,0,0,103.45,284.88Z" transform="translate(-50.72 -38.96)"/><path class="cls-16" d="M108.45,283.4c.22,1,4.87,7.51,9.41,7.37,1.48,0,1.57-8.14,1.57-8.14l.14-.6,2-8.34-11.15-7.3S108.36,283,108.45,283.4Z" transform="translate(-50.72 -38.96)"/><path class="cls-6" d="M121.56,273.69l-2,8.34a17.24,17.24,0,0,1-9.84-10c.34-2.87.63-5.26.67-5.61a.18.18,0,0,0,0-.05l1.41.85Z" transform="translate(-50.72 -38.96)"/><path class="cls-16" d="M133.52,261.58c.31,15.05-8.67,16.94-11.91,17-3,.06-13-.12-14.85-15.05s5-19.84,11.76-20.33S133.21,246.54,133.52,261.58Z" transform="translate(-50.72 -38.96)"/><path class="cls-6" d="M131.2,259.18a8.8,8.8,0,0,1-1-.26,1.68,1.68,0,0,1-1-.47.53.53,0,0,1,0-.65,1.33,1.33,0,0,1,1.32-.24,1.88,1.88,0,0,1,1.19.75A.56.56,0,0,1,131.2,259.18Z" transform="translate(-50.72 -38.96)"/><path class="cls-6" d="M121,260c.35,0,.68-.11,1-.17a1.67,1.67,0,0,0,1-.37.53.53,0,0,0,0-.65,1.32,1.32,0,0,0-1.29-.37,1.92,1.92,0,0,0-1.26.63A.57.57,0,0,0,121,260Z" transform="translate(-50.72 -38.96)"/><path class="cls-6" d="M123,262.3s-.08.05-.08.09c0,1-.16,2.2-1.1,2.52,0,0,0,.06,0,0C122.93,264.83,123.14,263.27,123,262.3Z" transform="translate(-50.72 -38.96)"/><path class="cls-6" d="M122.08,261.21c-1.64-.17-1.86,3.13-.33,3.29S123.46,261.35,122.08,261.21Z" transform="translate(-50.72 -38.96)"/><path class="cls-6" d="M121.42,261.34c-.3.17-.6.48-1,.49s-.69-.35-.93-.7c0,0-.06,0-.06,0,0,.64.15,1.3.82,1.44s1.1-.41,1.3-1C121.63,261.45,121.54,261.27,121.42,261.34Z" transform="translate(-50.72 -38.96)"/><path class="cls-6" d="M128.91,262.35s.08,0,.07.09c-.1,1,0,2.21.85,2.61,0,0,0,.07,0,.06C128.7,264.87,128.65,263.3,128.91,262.35Z" transform="translate(-50.72 -38.96)"/><path class="cls-6" d="M129.9,261.35c1.66,0,1.54,3.3,0,3.3S128.52,261.35,129.9,261.35Z" transform="translate(-50.72 -38.96)"/><path class="cls-6" d="M130.58,261.59c.26.18.51.51.82.54s.64-.31.88-.65c0,0,.05,0,.05,0,0,.63-.23,1.28-.84,1.38s-1-.46-1.08-1.1C130.39,261.69,130.48,261.51,130.58,261.59Z" transform="translate(-50.72 -38.96)"/><path class="cls-6" d="M122.25,271.35c.21.27.4.63.77.71a2.72,2.72,0,0,0,1.13-.1s.06,0,0,.05a1.38,1.38,0,0,1-1.36.38,1.12,1.12,0,0,1-.68-1C122.14,271.32,122.22,271.31,122.25,271.35Z" transform="translate(-50.72 -38.96)"/><path class="cls-6" d="M126.92,267.69s.09,1.54,0,2.26c0,.07-.18.08-.43.08,0,0,0,0,0,0a3.43,3.43,0,0,1-3.21-1.55c0-.08,0-.14.11-.09a5.2,5.2,0,0,0,3,1.15c.07-.2-.23-2.64-.12-2.64a6.37,6.37,0,0,1,1.6.5c-.08-3.21-.69-6.39-.72-9.6a.1.1,0,0,1,.19,0,52.29,52.29,0,0,1,1.22,10.31C128.64,268.49,127.2,267.83,126.92,267.69Z" transform="translate(-50.72 -38.96)"/><path class="cls-6" d="M126.51,269.74a4.15,4.15,0,0,1-1.66,1.33,1.87,1.87,0,0,1-1.15.09c-.83-.2-.86-1-.72-1.62a4.29,4.29,0,0,1,.35-1A5.46,5.46,0,0,0,126.51,269.74Z" transform="translate(-50.72 -38.96)"/><path class="cls-17" d="M124.85,271.07a1.87,1.87,0,0,1-1.15.09c-.83-.2-.86-1-.72-1.62A2,2,0,0,1,124.85,271.07Z" transform="translate(-50.72 -38.96)"/><path class="cls-6" d="M107.93,262.88c1.59-.1,5.72-4.5,5.82-12.2,0,0-.56,6.91-1.08,7.92s2.31-2.47,2.48-8.68a25.16,25.16,0,0,0,6.38,3.28c2.94.81,4.73.78,4.94.56s-4.11-1.55-5.28-2.89c0,0,7.81,3.59,11.4,3.85.42,0,.31-7.36-5.27-11s-13.78-.81-16.14,1.48c0,0-1.67.76-4.67,4.88S106.21,263,107.93,262.88Z" transform="translate(-50.72 -38.96)"/><path class="cls-5" d="M107.63,266.47c.76,2.1-5.17-7.39-5.3-8.94s2-9.43,8.09-13.35c5.11-3.29,12-2.15,13.17-1.94a9.46,9.46,0,0,1,3.73,1.51s-9-1.52-16.14,1.48C107.74,246.68,104.77,258.63,107.63,266.47Z" transform="translate(-50.72 -38.96)"/><path class="cls-5" d="M107.58,243.8s1.19-4.77,5.08-6.51c0,0,1.12,4.05.12,5.83-.5.88-3.58,2.16-4.11,1.75A7.5,7.5,0,0,1,107.58,243.8Z" transform="translate(-50.72 -38.96)"/><path class="cls-18" d="M107.58,243.8a8.43,8.43,0,0,0,1.08,1.07.19.19,0,0,0,.09,0,.16.16,0,0,0,.11,0H109a4.66,4.66,0,0,0,1.77-.47,9.65,9.65,0,0,0-1-1.6,2.84,2.84,0,0,0-1.56-.72A10.53,10.53,0,0,0,107.58,243.8Z" transform="translate(-50.72 -38.96)"/><path class="cls-5" d="M106.77,244.66s-5.91.93-8.22,3A8,8,0,0,0,104,250c1.36-.08,4.33-3.55,3.92-4.15A6.1,6.1,0,0,0,106.77,244.66Z" transform="translate(-50.72 -38.96)"/><path class="cls-18" d="M105.44,244.91a3.4,3.4,0,0,0,.69,1.83,2.91,2.91,0,0,0,1,.69c.56-.73.91-1.39.75-1.62a5.91,5.91,0,0,0-1.15-1.15S106.24,244.74,105.44,244.91Z" transform="translate(-50.72 -38.96)"/><path class="cls-5" d="M106.59,246.12a1.94,1.94,0,1,0,0-2.74A1.93,1.93,0,0,0,106.59,246.12Z" transform="translate(-50.72 -38.96)"/><path class="cls-16" d="M109.18,264.63s-3-4.9-5.18-3.87-.18,8,2.25,9.08a2.56,2.56,0,0,0,3.5-1.14Z" transform="translate(-50.72 -38.96)"/><path class="cls-6" d="M104.63,262.74s0,.05,0,.06c1.71.83,2.52,2.51,3.06,4.24a1.4,1.4,0,0,0-2.07-.52s0,.1,0,.09a1.57,1.57,0,0,1,1.68.66,7,7,0,0,1,.73,1.45c.07.16.36.09.31-.09v0C108.54,266.36,107,263.12,104.63,262.74Z" transform="translate(-50.72 -38.96)"/><path class="cls-16" d="M324.52,410.44c-.79,2.13-39.4,50.13-42,51-1,.34-8.32-4.87-17-11.43-1.87-1.41-3.8-2.88-5.74-4.39C247.13,435.88,234,425.22,234,425.22L259.68,393l25.12,21.31,5.52,4.67s23-11.76,26-12.44S325.31,408.31,324.52,410.44Z" transform="translate(-50.72 -38.96)"/><path class="cls-1" d="M253,440.4c2.21,1.73,4.5,3.5,6.75,5.25,2,1.51,3.87,3,5.73,4.4,8.67,6.55,16,11.76,17,11.41,2.63-.9,41.24-48.89,42-51s-5.23-4.52-8.21-3.86-26,12.45-26,12.45l-5.52-4.68-5.6-4.76Z" transform="translate(-50.72 -38.96)"/><path class="cls-5" d="M325,410.22c-.81,2.16-40.31,50.8-43,51.7-1.23.42-11.93-7.55-23-16.19L284.56,414l5.59,4.78s23.46-11.86,26.5-12.53S325.8,408.06,325,410.22Z" transform="translate(-50.72 -38.96)"/><path class="cls-6" d="M322.47,409.34c-6.82,8-33.58,40.86-39.71,49.28-.05.07,0,.1.05,0,6.93-7.77,33.42-40.86,39.8-49.22C322.74,409.27,322.62,409.17,322.47,409.34Z" transform="translate(-50.72 -38.96)"/><path class="cls-6" d="M289.28,416.17c-3.21,2.72-5.9,7.05-5.61,11.36,0,.16.25.14.3,0a59.09,59.09,0,0,1,5.7-11A.26.26,0,0,0,289.28,416.17Z" transform="translate(-50.72 -38.96)"/><path class="cls-6" d="M292.55,415c-3.2,2.72-5.9,7.05-5.6,11.35,0,.17.25.15.3,0a57.92,57.92,0,0,1,5.7-11A.27.27,0,0,0,292.55,415Z" transform="translate(-50.72 -38.96)"/><path class="cls-6" d="M295.83,413.81c-3.21,2.72-5.9,7-5.6,11.35,0,.17.24.15.3,0a58.15,58.15,0,0,1,5.69-11A.26.26,0,0,0,295.83,413.81Z" transform="translate(-50.72 -38.96)"/><path class="cls-6" d="M299.11,412.62c-3.21,2.73-5.9,7.05-5.61,11.36,0,.17.25.15.3,0a57.9,57.9,0,0,1,5.7-11A.27.27,0,0,0,299.11,412.62Z" transform="translate(-50.72 -38.96)"/><path class="cls-6" d="M286.67,404.22c-2.76-.15-3.89,2.83-3.85,5.09a22.05,22.05,0,0,0,3.34,10.91.1.1,0,0,0,.17,0,.51.51,0,0,0,.81-.17c1.17-3.45,2.85-7,2.93-10.69C290.12,407.21,289.28,404.36,286.67,404.22Zm1.18,10.25c-.53,1.71-1.15,3.38-1.62,5.11a64.32,64.32,0,0,1-1.81-6.42A24.27,24.27,0,0,1,284,410c-.09-1.66,1.13-6.94,4.19-3.51C289.84,408.34,288.49,412.43,287.85,414.47Z" transform="translate(-50.72 -38.96)"/><path class="cls-6" d="M278.7,427.69c3.27-1.73,5.68-4.82,8.24-7.41a.51.51,0,0,0-.2-.8c0-.07,0-.14-.1-.15a22.12,22.12,0,0,0-11.25,1.91c-2,1-4.19,3.32-2.82,5.72S276.79,428.7,278.7,427.69Zm-3.47-.41c-4.43-1.2-.26-4.66,1.27-5.32a23.36,23.36,0,0,1,3.06-1,66.17,66.17,0,0,1,6.54-1.26c-1.33,1.2-2.55,2.5-3.84,3.74C280.73,424.9,277.68,427.94,275.23,427.28Z" transform="translate(-50.72 -38.96)"/><path class="cls-9" d="M283.44,409.42,256.35,446l-91.43-63.45-8.82-6.12s-2.49,1.68-6.25,3.76c-5.22,2.89-12.87,6.54-19.64,7.54-11.35,1.68-30.3,1.49-39.86-11.3-8.06-10.77-3.69-24.82-3.69-24.82l12.47-5.36s29.49-24.57,48.59-25.31c8.12-.32,19.93,5.83,30.88,12.25S283.44,409.42,283.44,409.42Z" transform="translate(-50.72 -38.96)"/><path class="cls-6" d="M156.1,376.41s-2.49,1.68-6.25,3.76c-6.64-7.95-20.71-22.4-21.14-22.91Z" transform="translate(-50.72 -38.96)"/><path class="cls-6" d="M109.93,338c-1.76,1.22-3.46,2.52-5.2,3.78s-3.48,2.4-5.11,3.75-3.22,2.84-4.78,4.31c-.75.72-1.49,1.44-2.22,2.18a19.2,19.2,0,0,0-2.12,2.3c-.06.08,0,.17.13.12A25.36,25.36,0,0,0,93,352.53l2.46-2.1c1.59-1.34,3.2-2.65,4.78-4s3-2.81,4.59-4.17,3.42-2.81,5.15-4.18C110,338,110,338,109.93,338Z" transform="translate(-50.72 -38.96)"/><path class="cls-6" d="M277.08,408.11c-1.76,1.9-3.38,3.94-5,5.94s-3.28,4-4.91,6.06c-3.25,4.06-6.53,8.1-9.72,12.2-1.75,2.26-3.49,4.53-5.12,6.88-.07.1.1.22.18.13,3.5-3.85,6.69-7.95,9.94-12s6.48-8.14,9.67-12.25c1.74-2.25,3.54-4.49,5.14-6.84C277.31,408.13,277.16,408,277.08,408.11Z" transform="translate(-50.72 -38.96)"/><path class="cls-6" d="M202.05,408.48c-4.55-3.58-9.27-7-14-10.33s-9.39-6.7-14.15-9.95c-1.37-.93-2.75-1.84-4.12-2.76s-2.81-1.76-4.16-2.7c-.08-.06-.15.07-.07.13,1.24.88,2.41,1.88,3.62,2.8s2.31,1.77,3.48,2.63c2.29,1.69,4.6,3.35,6.9,5q7,5.07,14.13,10c2.7,1.85,5.39,3.71,8.14,5.47C202,408.86,202.2,408.6,202.05,408.48Z" transform="translate(-50.72 -38.96)"/><path class="cls-6" d="M231.29,370.76c-4.21-3.48-8.71-6.62-13.12-9.84s-8.89-6.54-13.36-9.78l-13.32-9.62c-4.3-3.11-8.58-6.27-13.13-9q-3.74-2.26-7.66-4.16a49.47,49.47,0,0,0-7.92-3.23c-.08,0-.12.09-.05.13,2.24,1.25,4.59,2.31,6.86,3.51s4.45,2.45,6.62,3.77c4.51,2.73,8.77,5.84,13,8.92,8.89,6.39,17.76,12.81,26.71,19.11,5,3.53,9.92,7.25,15.12,10.49C231.25,371.13,231.44,370.88,231.29,370.76Z" transform="translate(-50.72 -38.96)"/></g></svg>