<svg xmlns="http://www.w3.org/2000/svg" xmlns:xlink="http://www.w3.org/1999/xlink" viewBox="0 0 2475 1650"><defs><style>.cls-1{fill:none;}.cls-11,.cls-2,.cls-71{fill:#fff;}.cls-3{fill:url(#linear-gradient);}.cls-4{fill:#91b3fa;}.cls-5{fill:#bdd0fb;}.cls-6{fill:url(#linear-gradient-2);}.cls-7{fill:url(#linear-gradient-3);}.cls-8{fill:url(#linear-gradient-4);}.cls-9{fill:url(#linear-gradient-5);}.cls-10{fill:url(#linear-gradient-6);}.cls-11{opacity:0.74;}.cls-12{fill:url(#linear-gradient-7);}.cls-13{fill:url(#linear-gradient-8);}.cls-14{opacity:0.2;}.cls-15{fill:url(#linear-gradient-9);}.cls-16{fill:url(#linear-gradient-10);}.cls-17{fill:url(#linear-gradient-11);}.cls-18{fill:url(#linear-gradient-12);}.cls-19{fill:url(#linear-gradient-13);}.cls-20{fill:url(#linear-gradient-14);}.cls-21{fill:url(#linear-gradient-15);}.cls-22{fill:url(#linear-gradient-16);}.cls-23{fill:url(#linear-gradient-17);}.cls-24{fill:url(#linear-gradient-18);}.cls-25{fill:url(#linear-gradient-19);}.cls-26{fill:url(#linear-gradient-20);}.cls-27{fill:url(#linear-gradient-21);}.cls-28{fill:url(#linear-gradient-22);}.cls-29{fill:url(#linear-gradient-23);}.cls-30{fill:url(#linear-gradient-24);}.cls-31{fill:url(#linear-gradient-25);}.cls-32{fill:url(#linear-gradient-26);}.cls-33{clip-path:url(#clip-path);}.cls-34{fill:#7d97f4;}.cls-35{fill:url(#linear-gradient-27);}.cls-36{fill:url(#linear-gradient-28);}.cls-37{fill:url(#linear-gradient-29);}.cls-38{fill:url(#linear-gradient-30);}.cls-39{fill:url(#linear-gradient-31);}.cls-40{fill:url(#linear-gradient-32);}.cls-41{fill:url(#linear-gradient-33);}.cls-42{fill:url(#linear-gradient-34);}.cls-43{fill:url(#linear-gradient-35);}.cls-44{fill:url(#linear-gradient-36);}.cls-45{fill:url(#linear-gradient-37);}.cls-46{fill:url(#linear-gradient-38);}.cls-47{fill:url(#linear-gradient-39);}.cls-48{opacity:0.29;}.cls-49{fill:url(#linear-gradient-40);}.cls-50{fill:url(#linear-gradient-41);}.cls-51{fill:url(#linear-gradient-42);}.cls-52{fill:url(#linear-gradient-43);}.cls-53{fill:url(#linear-gradient-44);}.cls-54{fill:url(#linear-gradient-45);}.cls-55{fill:url(#linear-gradient-46);}.cls-56{fill:url(#linear-gradient-47);}.cls-57{fill:url(#linear-gradient-48);}.cls-58{fill:url(#linear-gradient-49);}.cls-59{fill:url(#linear-gradient-50);}.cls-60{fill:url(#linear-gradient-51);}.cls-61{fill:url(#linear-gradient-52);}.cls-62{fill:url(#linear-gradient-53);}.cls-63{fill:url(#linear-gradient-54);}.cls-64{fill:url(#linear-gradient-55);}.cls-65{fill:url(#linear-gradient-56);}.cls-66{fill:url(#linear-gradient-57);}.cls-67{fill:url(#linear-gradient-58);}.cls-68{fill:url(#linear-gradient-59);}.cls-69{fill:url(#linear-gradient-60);}.cls-70{fill:url(#linear-gradient-61);}.cls-71{opacity:0.92;}.cls-72{fill:url(#linear-gradient-62);}.cls-73{opacity:0.87;}</style><linearGradient id="linear-gradient" x1="276.79" y1="771.87" x2="2308.95" y2="771.87" gradientUnits="userSpaceOnUse"><stop offset="0" stop-color="#dae3fe"/><stop offset="1" stop-color="#e9effd"/></linearGradient><linearGradient id="linear-gradient-2" x1="1966.89" y1="1212.19" x2="2252.18" y2="1212.19" xlink:href="#linear-gradient"/><linearGradient id="linear-gradient-3" x1="415.23" y1="1115.49" x2="505.04" y2="1115.49" xlink:href="#linear-gradient"/><linearGradient id="linear-gradient-4" x1="192.48" y1="1342.71" x2="569.13" y2="1342.71" xlink:href="#linear-gradient"/><linearGradient id="linear-gradient-5" x1="733.85" y1="529.37" x2="676.6" y2="758.37" gradientUnits="userSpaceOnUse"><stop offset="0" stop-color="#fe7062"/><stop offset="1" stop-color="#ff928e"/></linearGradient><linearGradient id="linear-gradient-6" x1="760.36" y1="228.48" x2="754.36" y2="346.48" xlink:href="#linear-gradient-5"/><linearGradient id="linear-gradient-7" x1="1145.08" y1="1437.06" x2="1486.75" y2="412.07" gradientUnits="userSpaceOnUse"><stop offset="0" stop-color="#09005d"/><stop offset="1" stop-color="#1a0f91"/></linearGradient><linearGradient id="linear-gradient-8" x1="1906.99" y1="344.64" x2="22.38" y2="2497.18" gradientUnits="userSpaceOnUse"><stop offset="0" stop-color="#4042e2"/><stop offset="1" stop-color="#4f52ff"/></linearGradient><linearGradient id="linear-gradient-9" x1="1939.69" y1="1349.3" x2="419.19" y2="1719.15" xlink:href="#linear-gradient-7"/><linearGradient id="linear-gradient-10" x1="1966.01" y1="369.67" x2="1891.42" y2="665.16" xlink:href="#linear-gradient-5"/><linearGradient id="linear-gradient-11" x1="2255.31" y1="-245.42" x2="2135.3" y2="-44.4" xlink:href="#linear-gradient-5"/><linearGradient id="linear-gradient-12" x1="2132.91" y1="453.22" x2="2081.44" y2="657.1" xlink:href="#linear-gradient-5"/><linearGradient id="linear-gradient-13" x1="2144.43" y1="235.6" x2="2138.43" y2="333.6" xlink:href="#linear-gradient-5"/><linearGradient id="linear-gradient-14" x1="1825.02" y1="666.82" x2="1817.02" y2="924.82" xlink:href="#linear-gradient-5"/><linearGradient id="linear-gradient-15" x1="2135.05" y1="-58.08" x2="1979.03" y2="214.95" xlink:href="#linear-gradient-5"/><linearGradient id="linear-gradient-16" x1="528.72" y1="276.51" x2="520.72" y2="428.51" xlink:href="#linear-gradient-5"/><linearGradient id="linear-gradient-17" x1="756.98" y1="-167.49" x2="618.97" y2="78.53" xlink:href="#linear-gradient-5"/><linearGradient id="linear-gradient-18" x1="507.15" y1="654.28" x2="511.15" y2="948.28" xlink:href="#linear-gradient-5"/><linearGradient id="linear-gradient-19" x1="649.56" y1="228.94" x2="559.55" y2="456.96" xlink:href="#linear-gradient-5"/><linearGradient id="linear-gradient-20" x1="298.92" y1="439.52" x2="290.92" y2="679.52" xlink:href="#linear-gradient-5"/><linearGradient id="linear-gradient-21" x1="415.71" y1="-24.79" x2="331.7" y2="245.23" xlink:href="#linear-gradient-5"/><linearGradient id="linear-gradient-22" x1="2216.2" y1="608.6" x2="2150.72" y2="867.99" xlink:href="#linear-gradient-5"/><linearGradient id="linear-gradient-23" x1="2337.12" y1="-12.44" x2="2298.12" y2="158.58" xlink:href="#linear-gradient-5"/><linearGradient id="linear-gradient-24" x1="1711.81" y1="-167.94" x2="1063.81" y2="980.06" gradientUnits="userSpaceOnUse"><stop offset="0" stop-color="#e1473d"/><stop offset="1" stop-color="#e9605a"/></linearGradient><linearGradient id="linear-gradient-25" x1="1287.66" y1="135.99" x2="1267.66" y2="669.99" xlink:href="#linear-gradient-5"/><linearGradient id="linear-gradient-26" x1="1711.79" y1="-167.95" x2="1063.79" y2="980.05" xlink:href="#linear-gradient-24"/><clipPath id="clip-path"><path class="cls-1" d="M1270.6,1008.09,1741,616.32a10.73,10.73,0,0,0-5.86-18.92c-3.31-.33-6.69-308.49-10.12-308.3L801.72,340.57c-11,.61-21.24,312-30.07,317.39a10.67,10.67,0,0,0-1.57,16.91l354.4,329.61C1164,1041.2,1228.92,1042.8,1270.6,1008.09Z"/></clipPath><linearGradient id="linear-gradient-27" x1="2900.69" y1="1719.46" x2="2858.03" y2="1959.46" gradientTransform="translate(-2333)" xlink:href="#linear-gradient-8"/><linearGradient id="linear-gradient-28" x1="2900.45" y1="1502.25" x2="2923.97" y2="1502.25" gradientTransform="translate(-2333)" gradientUnits="userSpaceOnUse"><stop offset="0" stop-color="#ff928e"/><stop offset="1" stop-color="#feb3b1"/></linearGradient><linearGradient id="linear-gradient-29" x1="2719.74" y1="1687.29" x2="2677.08" y2="1927.29" gradientTransform="translate(-2333)" xlink:href="#linear-gradient-8"/><linearGradient id="linear-gradient-30" x1="2750.89" y1="1482.63" x2="2779" y2="1482.63" xlink:href="#linear-gradient-28"/><linearGradient id="linear-gradient-31" x1="843.65" y1="1164.42" x2="687.66" y2="1252.92" xlink:href="#linear-gradient-7"/><linearGradient id="linear-gradient-32" x1="565.62" y1="904.18" x2="681.62" y2="1203.18" xlink:href="#linear-gradient-5"/><linearGradient id="linear-gradient-33" x1="2845.63" y1="1378.52" x2="2859.1" y2="1351.57" gradientTransform="translate(-2333)" gradientUnits="userSpaceOnUse"><stop offset="0" stop-color="#020039"/><stop offset="1" stop-color="#090056"/></linearGradient><linearGradient id="linear-gradient-34" x1="2716.54" y1="1619.93" x2="2756.54" y2="1456.93" xlink:href="#linear-gradient-28"/><linearGradient id="linear-gradient-35" x1="498.97" y1="930.04" x2="614.97" y2="1229.04" xlink:href="#linear-gradient-5"/><linearGradient id="linear-gradient-36" x1="647.84" y1="872.28" x2="763.84" y2="1171.28" xlink:href="#linear-gradient-5"/><linearGradient id="linear-gradient-37" x1="790.75" y1="898.36" x2="783.75" y2="976.36" gradientTransform="matrix(1, 0, 0, 1, 0, 0)" xlink:href="#linear-gradient-28"/><linearGradient id="linear-gradient-38" x1="686.4" y1="871.43" x2="626.4" y2="970.43" gradientTransform="matrix(1, 0, 0, 1, 0, 0)" xlink:href="#linear-gradient-28"/><linearGradient id="linear-gradient-39" x1="2771.62" y1="1138.94" x2="3184.37" y2="1138.94" gradientTransform="translate(-2333)" xlink:href="#linear-gradient-7"/><linearGradient id="linear-gradient-40" x1="1299.19" y1="371.1" x2="1125.19" y2="733.1" xlink:href="#linear-gradient-7"/><linearGradient id="linear-gradient-41" x1="2764.62" y1="1631.73" x2="2804.62" y2="1468.73" xlink:href="#linear-gradient-28"/><linearGradient id="linear-gradient-42" x1="879.66" y1="926.7" x2="856.99" y2="982.04" gradientTransform="matrix(1, 0, 0, 1, 0, 0)" xlink:href="#linear-gradient-28"/><linearGradient id="linear-gradient-43" x1="655.68" y1="805.21" x2="669.02" y2="853.88" gradientTransform="matrix(1, 0, 0, 1, 0, 0)" xlink:href="#linear-gradient-28"/><linearGradient id="linear-gradient-44" x1="642.76" y1="813.96" x2="706.93" y2="896.58" xlink:href="#linear-gradient-7"/><linearGradient id="linear-gradient-45" x1="632.63" y1="811.53" x2="645.96" y2="860.19" gradientTransform="matrix(1, 0, 0, 1, 0, 0)" xlink:href="#linear-gradient-28"/><linearGradient id="linear-gradient-46" x1="4955.75" y1="2947.32" x2="4883.75" y2="3229.32" gradientTransform="matrix(-1, 0, 0, 1, 7565.4, 0)" xlink:href="#linear-gradient-8"/><linearGradient id="linear-gradient-47" x1="5294.71" y1="1501.39" x2="5315.99" y2="1501.39" gradientTransform="matrix(-1, 0, 0, 1, 7565.4, 0)" xlink:href="#linear-gradient-28"/><linearGradient id="linear-gradient-48" x1="5073.92" y1="2977.49" x2="5001.92" y2="3259.49" gradientTransform="matrix(-1, 0, 0, 1, 7565.4, 0)" xlink:href="#linear-gradient-8"/><linearGradient id="linear-gradient-49" x1="5402.21" y1="1491.94" x2="5423.37" y2="1491.94" gradientTransform="matrix(-1, 0, 0, 1, 7565.4, 0)" xlink:href="#linear-gradient-28"/><linearGradient id="linear-gradient-50" x1="2404.81" y1="1191.34" x2="2302.82" y2="1265.34" xlink:href="#linear-gradient-7"/><linearGradient id="linear-gradient-51" x1="2222.56" y1="1200.94" x2="2251.31" y2="1200.94" gradientTransform="matrix(1, 0, 0, 1, 0, 0)" xlink:href="#linear-gradient-33"/><linearGradient id="linear-gradient-52" x1="2089.58" y1="810.96" x2="2087.58" y2="884.96" xlink:href="#linear-gradient-24"/><linearGradient id="linear-gradient-53" x1="5543.78" y1="872.37" x2="5622.42" y2="872.37" gradientTransform="matrix(-1, 0, 0, 1, 7565.4, 0)" xlink:href="#linear-gradient-28"/><linearGradient id="linear-gradient-54" x1="2160.32" y1="1001.09" x2="1995.3" y2="1307.12" xlink:href="#linear-gradient-5"/><linearGradient id="linear-gradient-55" x1="5721.84" y1="889.52" x2="5551.93" y2="1100.91" gradientTransform="matrix(-1, 0, 0, 1, 7565.4, 0)" xlink:href="#linear-gradient-28"/><linearGradient id="linear-gradient-56" x1="5754.06" y1="915.41" x2="5584.14" y2="1126.8" gradientTransform="matrix(-1, 0, 0, 1, 7565.4, 0)" xlink:href="#linear-gradient-28"/><linearGradient id="linear-gradient-57" x1="5530.69" y1="761.76" x2="5366.12" y2="1064.13" gradientTransform="matrix(-1, 0, 0, 1, 7565.4, 0)" xlink:href="#linear-gradient-28"/><linearGradient id="linear-gradient-58" x1="4126.65" y1="6328.88" x2="4053.92" y2="6425.1" gradientTransform="matrix(-0.82, -0.58, -0.58, 0.82, 9107.92, -1973.39)" xlink:href="#linear-gradient-28"/><linearGradient id="linear-gradient-59" x1="2208.9" y1="788.59" x2="2131.9" y2="819.59" xlink:href="#linear-gradient-7"/><linearGradient id="linear-gradient-60" x1="4020.13" y1="6405.08" x2="4078.47" y2="6345.23" gradientTransform="matrix(-0.82, -0.58, -0.58, 0.82, 9107.92, -1973.39)" xlink:href="#linear-gradient-28"/><linearGradient id="linear-gradient-61" x1="1700.94" y1="652.63" x2="1603.65" y2="917.96" xlink:href="#linear-gradient-24"/><linearGradient id="linear-gradient-62" x1="1884.08" y1="732.33" x2="1753.23" y2="949.06" xlink:href="#linear-gradient-24"/></defs><g id="Background"><rect class="cls-2" width="2475" height="1650"/></g><g id="Illustration"><path class="cls-3" d="M2251.45,836.41c-35.23-36.5-76.9-72.09-87.76-121.64-18.81-85.74,61.59-158.85,87.91-242.6,18.19-57.9,8.81-123.83-24.83-174.35s-90.85-84.62-151.29-90.16c-104-9.55-205.78,60.53-308.22,40.24-82-16.25-146.85-87.94-230.12-95.62-98-9-179.29,71.85-272.86,102.3C1152.36,291,1031,252.94,921,211.17s-225.81-88.39-341.8-68.39C450.08,165,341.83,277.53,324.56,407.4,307.45,536.11,451,639.42,328.8,794c-38.18,48.29-63.57,115.53-46.69,174.73,16.39,57.53,86.18,93.91,86.69,153.72.4,47.22-44.12,84.8-47.71,131.88-3.08,40.42,26,77.78,61.71,96.93s77.17,23.84,117.46,28.18l-11.87,12.77c203,18.22,407.22,14.17,611,10.09l964-19.26c33-.66,66.85-1.47,97.62-13.48s58.37-37.71,63.05-70.41c8-55.64-50.18-103.93-44.81-159.89,6.87-71.45,107.48-99,126.62-168.19C2319.35,922.15,2286.68,872.9,2251.45,836.41Z"/><path class="cls-4" d="M2121.08,868.66c16.62,49.75,101.52,343.22-159.55,472.36,0,0-105.63-178.82,152-473.88A4.44,4.44,0,0,1,2121.08,868.66Z"/><path class="cls-5" d="M2105.66,918.82c-2.59,33.46-6.21,66.79-10.46,100s-9.32,66.44-15.37,99.45-13.12,65.87-22,98.32q-6.55,24.36-14.9,48.25a428.19,428.19,0,0,1-19.35,46.86,4.09,4.09,0,0,1-7.34-3.61v0l0,0a418.22,418.22,0,0,0,19.51-45.75q8.54-23.44,15.31-47.57c9.15-32.09,16.54-64.72,23-97.52s11.82-65.85,16.49-99,8.64-66.39,11.61-99.7v0a1.74,1.74,0,0,1,1.88-1.57A1.72,1.72,0,0,1,2105.66,918.82Z"/><path class="cls-5" d="M2274.72,924.64a5,5,0,0,0-9.43-2.18c-22.65,44.71-85.74,160.09-158.25,213.59-118,87.1-216.8,247-172.37,348.68C1934.67,1484.73,2284.2,1489.47,2274.72,924.64Z"/><path class="cls-6" d="M2252.14,990.37c-.43,1.56-.89,2.77-1.34,4.11l-1.41,3.93-2.89,7.8c-2,5.18-4,10.33-6.06,15.49q-6.2,15.43-12.74,30.72c-8.75,20.38-18.07,40.51-27.67,60.5s-19.73,39.73-30.31,59.24-21.45,38.85-32.95,57.84a1058.8,1058.8,0,0,1-75.53,109.64c-14,17.27-28.39,34.19-43.77,50.23a572.46,572.46,0,0,1-48.91,45.19,1,1,0,0,1-1.44-.15,1,1,0,0,1,.12-1.42c33.1-29.33,62.71-62.3,89.68-97.24,13.55-17.43,26.42-35.39,38.86-53.63s24.11-37,35.7-55.82c23-37.73,44-76.69,63.94-116.15q14.89-29.64,28.63-59.84,6.91-15.09,13.53-30.3l6.47-15.28,3.16-7.66,1.53-3.85c.48-1.26,1-2.63,1.39-3.72l.08-.22a1,1,0,0,1,1.93.59Z"/><path class="cls-4" d="M1930,1490s18.71-69.38,106.39-122.6c81.36-49.38,279-161.29,336.65-236a3.86,3.86,0,0,1,6.83,3.22c-10.33,43.66-44.79,151-146.89,240.89C2101.32,1491.36,1930,1490,1930,1490Z"/><path class="cls-5" d="M2328.41,1203a163.78,163.78,0,0,1-13.1,26.77c-1.22,2.18-2.55,4.28-3.91,6.36l-4,6.29c-2.89,4-5.64,8.22-8.69,12.17a335.29,335.29,0,0,1-40.15,44.32c-3.53,3.54-7.42,6.68-11.18,10s-7.49,6.62-11.49,9.61L2224,1327.7c-1.93,1.58-4,2.93-6.07,4.37l-6.15,4.28-6.15,4.27-3.08,2.12-3.18,2-12.7,7.92c-2.12,1.3-4.22,2.69-6.37,3.92l-6.45,3.71L2161,1367.7c-17.3,9.74-34.66,19.37-52.28,28.5-8.77,4.64-17.61,9.13-26.43,13.67l-26.59,13.31c-17.7,8.89-35.51,17.54-52.93,26.83q-13.11,6.88-25.64,14.7a194.72,194.72,0,0,0-23.61,17.59h0a1,1,0,0,1-1.41-1.48,170.55,170.55,0,0,1,23-19.12q12.35-8.46,25.25-16c4.29-2.53,8.59-5,13-7.38s8.69-4.81,13.06-7.14c8.72-4.75,17.5-9.35,26.27-14,17.54-9.23,35.06-18.41,52.49-27.78s34.72-18.93,51.94-28.65l12.85-7.4c4.29-2.46,8.58-4.92,12.74-7.52l12.58-7.68,3.15-1.92,3.05-2.06,6.1-4.15a446,446,0,0,0,46.69-35.92c3.64-3.3,7.35-6.53,10.94-9.88l10.51-10.35c3.42-3.53,6.73-7.17,10.11-10.75s6.43-7.43,9.67-11.14,6.13-7.71,9.21-11.55l4.34-6c1.47-2,2.89-4,4.23-6.07a183.13,183.13,0,0,0,14.93-25.55.12.12,0,0,1,.17-.07A.13.13,0,0,1,2328.41,1203Z"/><path class="cls-5" d="M399.82,868.66C383.2,918.41,298.3,1211.88,559.37,1341c0,0,105.63-178.82-152-473.88A4.44,4.44,0,0,0,399.82,868.66Z"/><path class="cls-7" d="M418.69,918.55c3,33.31,7,66.57,11.61,99.7s10.07,66.17,16.49,99,13.83,65.43,23,97.52q6.78,24.09,15.31,47.57a418.22,418.22,0,0,0,19.51,45.75h0a4.09,4.09,0,1,1-7.29,3.7l0,0a426.23,426.23,0,0,1-19.35-46.86q-8.37-23.87-14.9-48.25c-8.84-32.45-15.88-65.32-22-98.32s-11.08-66.19-15.37-99.45-7.87-66.59-10.46-100a1.73,1.73,0,0,1,3.45-.29Z"/><path class="cls-4" d="M246.18,924.64a5,5,0,0,1,9.42-2.18c22.66,44.71,85.75,160.09,158.25,213.59,118.06,87.1,216.81,247,172.38,348.68C586.23,1484.73,236.7,1489.47,246.18,924.64Z"/><path class="cls-5" d="M270.76,990c.37,1.09.92,2.46,1.4,3.72l1.53,3.85,3.16,7.66,6.47,15.28q6.6,15.23,13.53,30.3,13.77,30.18,28.63,59.84c19.95,39.46,40.91,78.42,63.94,116.15,11.59,18.8,23.26,37.57,35.7,55.82s25.3,36.2,38.85,53.63c27,34.94,56.59,67.91,89.69,97.24a1,1,0,0,1,.1,1.44,1,1,0,0,1-1.42.13,571,571,0,0,1-48.91-45.19c-15.38-16-29.8-33-43.77-50.23A1058.8,1058.8,0,0,1,384.13,1230c-11.5-19-22.37-38.35-32.95-57.84s-20.73-39.24-30.31-59.24-18.92-40.12-27.67-60.5q-6.52-15.3-12.74-30.72c-2-5.16-4.09-10.31-6.06-15.49l-2.89-7.8-1.41-3.93c-.45-1.34-.91-2.55-1.35-4.11a1,1,0,0,1,1.94-.59Z"/><path class="cls-5" d="M590.89,1490s-18.71-69.38-106.39-122.6c-81.36-49.38-279-161.29-336.65-236a3.86,3.86,0,0,0-6.83,3.22c10.32,43.66,44.79,151,146.89,240.89C419.58,1491.36,590.89,1490,590.89,1490Z"/><path class="cls-8" d="M192.73,1202.92a183.13,183.13,0,0,0,14.93,25.55c1.34,2.07,2.76,4.08,4.23,6.07l4.34,6c3.08,3.84,6.05,7.77,9.21,11.55s6.31,7.55,9.67,11.14,6.69,7.22,10.11,10.75l10.51,10.35c3.59,3.35,7.3,6.58,10.94,9.88a446,446,0,0,0,46.69,35.92l6.1,4.15,3.05,2.06,3.14,1.92,12.59,7.68c4.16,2.6,8.45,5.06,12.74,7.52l12.84,7.4q25.85,14.58,51.95,28.65c17.43,9.37,35,18.55,52.49,27.78,8.77,4.6,17.55,9.2,26.26,14q6.57,3.49,13.07,7.14c4.37,2.36,8.67,4.85,13,7.38q12.88,7.5,25.25,16a169.85,169.85,0,0,1,23,19.12,1,1,0,0,1-1.4,1.49l0,0a194.72,194.72,0,0,0-23.61-17.59q-12.54-7.82-25.65-14.7c-17.41-9.29-35.22-17.94-52.92-26.83l-26.59-13.31c-8.82-4.54-17.66-9-26.43-13.67-17.62-9.13-35-18.76-52.28-28.5L347,1360.28l-6.45-3.71c-2.15-1.23-4.25-2.62-6.37-3.92l-12.7-7.92-3.18-2-3.08-2.12-6.15-4.27-6.15-4.28c-2-1.44-4.14-2.79-6.08-4.37l-11.81-9.21c-4-3-7.68-6.39-11.49-9.61s-7.65-6.42-11.18-10a335.29,335.29,0,0,1-40.15-44.32c-3-3.95-5.8-8.12-8.69-12.17l-4-6.29c-1.36-2.08-2.7-4.18-3.91-6.36a163.78,163.78,0,0,1-13.1-26.77.12.12,0,0,1,.08-.16A.13.13,0,0,1,192.73,1202.92Z"/><path class="cls-9" d="M892.2,569.34H611.47A20.52,20.52,0,0,1,591,548.82V366a20.53,20.53,0,0,1,19.38-20.49L901.9,329.28a20.53,20.53,0,0,1,21.63,21.6l-10.83,199A20.53,20.53,0,0,1,892.2,569.34Z"/><path class="cls-10" d="M758.39,459l153.46-127.8a20.35,20.35,0,0,0-10-2L610.33,345.53a20.49,20.49,0,0,0-12.93,5.56L712.25,457.9C724.72,469.49,745.23,470,758.39,459Z"/><path class="cls-11" d="M737.06,452.7a32.21,32.21,0,0,1-21.33-8.11l-43.27-38.21a3.06,3.06,0,1,1,4.06-4.59L719.79,440a26,26,0,0,0,32.53,1.63l22.42-16.12a3.07,3.07,0,0,1,3.58,5L755.9,446.6A32.27,32.27,0,0,1,737.06,452.7Z"/><path class="cls-11" d="M658.39,392.94a3.05,3.05,0,0,1-2-.77L650.54,387a3.07,3.07,0,1,1,4.06-4.6l5.82,5.14a3.07,3.07,0,0,1-2,5.37Z"/><path class="cls-12" d="M2027.28,1474.24a26.82,26.82,0,0,1-26.75,26.73H553.9a26.82,26.82,0,0,1-26.75-26.73l-12-831.33c0-14.7,17.32-43.4,49.06-41.24L1978,565.08A67.42,67.42,0,0,1,2047.15,634Z"/><path class="cls-13" d="M2000.87,1448.6a25.39,25.39,0,0,1-25.31,25.31H588.79a25.39,25.39,0,0,1-25.31-25.31L552.12,693.91c1.34-45.42,41.16-61.74,65.29-60.78l1355-36.35a47.37,47.37,0,0,1,48.6,48.48Z"/><path class="cls-2" d="M578.47,1088.4a2,2,0,0,1-2.05-2l-.89-61.21a2,2,0,0,1,2-2.07h0a2,2,0,0,1,2,2l.9,61.21a2,2,0,0,1-2,2.07Z"/><path class="cls-4" d="M576.26,938.42a2,2,0,0,1-2-2L570.78,702c.07-15.65,4.89-28.16,14.33-37.21,17.18-16.45,44.06-15.63,45.2-15.58L1063,637.58a2,2,0,0,1,2.1,2,2,2,0,0,1-2,2.1L630.3,653.28c-1.22,0-26.42-.82-42.36,14.46-8.61,8.25-13,19.76-13.07,34.23l3.44,234.38a2,2,0,0,1-2,2.07Z"/><g class="cls-14"><path class="cls-4" d="M624.58,1406.73c1.45-62.37.91-614.73-2.67-662.43s70.72-56.66,184.78-62S1883.19,655.65,1908,653.64c55.7-4.51,67.23,78.74,61.66,259.48-4.19,135.79-11.13,359.48-14.32,462.35a56.77,56.77,0,0,1-56.63,55c-231.6.64-1119.25,3.18-1178.35,4.94C652.33,1437.46,624,1431.47,624.58,1406.73Z"/></g><rect class="cls-15" x="439.12" y="1470.35" width="1705.52" height="73.04" rx="7.51"/><path class="cls-16" d="M2119,422.13H1838.25c-11.33,0-20.52-8.41-20.52-18.78V236.12c0-10,8.5-18.19,19.38-18.74l291.56-14.87c12.21-.62,22.3,8.6,21.63,19.76l-10.83,182.1C2138.88,414.33,2129.88,422.13,2119,422.13Z"/><path class="cls-17" d="M1985.17,321.22,2138.63,204.3a22.06,22.06,0,0,0-10-1.79l-291.56,14.87a21.37,21.37,0,0,0-12.93,5.08L1939,320.17C1951.5,330.78,1972,331.25,1985.17,321.22Z"/><path class="cls-11" d="M1963.84,315.42a33.92,33.92,0,0,1-21.33-7.42l-43.27-34.95a2.64,2.64,0,0,1-.27-4,3.28,3.28,0,0,1,4.33-.25l43.27,35a27.89,27.89,0,0,0,32.53,1.49l22.42-14.74a3.25,3.25,0,0,1,4.28.64,2.65,2.65,0,0,1-.7,3.91l-22.42,14.75A34.29,34.29,0,0,1,1963.84,315.42Z"/><path class="cls-11" d="M1885.17,260.75a3.23,3.23,0,0,1-2-.7l-5.83-4.71a2.64,2.64,0,0,1-.27-4,3.27,3.27,0,0,1,4.33-.24l5.83,4.7a2.64,2.64,0,0,1,.27,4A3.19,3.19,0,0,1,1885.17,260.75Z"/><path class="cls-18" d="M2224.82,520.27H2043.61A13.25,13.25,0,0,1,2030.37,507V389a13.24,13.24,0,0,1,12.51-13.22l188.19-10.49a13.24,13.24,0,0,1,14,13.94l-7,128.48A13.24,13.24,0,0,1,2224.82,520.27Z"/><path class="cls-19" d="M2138.45,449.07l99.05-82.49a13.19,13.19,0,0,0-6.43-1.26l-188.19,10.49a13.21,13.21,0,0,0-8.35,3.58l74.13,68.95A23.05,23.05,0,0,0,2138.45,449.07Z"/><path class="cls-11" d="M2124.68,445a20.8,20.8,0,0,1-13.77-5.24L2083,415.09a2,2,0,0,1,2.62-3l27.93,24.66a16.78,16.78,0,0,0,21,1.05l14.47-10.4a2,2,0,1,1,2.31,3.21L2136.84,441A20.8,20.8,0,0,1,2124.68,445Z"/><path class="cls-11" d="M2073.9,406.41a1.94,1.94,0,0,1-1.31-.5l-3.76-3.31a2,2,0,0,1,2.62-3l3.76,3.32a2,2,0,0,1-1.31,3.46Z"/><path class="cls-20" d="M1965.25,708H1684.52A20.52,20.52,0,0,1,1664,687.48V504.68a20.53,20.53,0,0,1,19.38-20.49l291.56-16.25a20.53,20.53,0,0,1,21.64,21.6l-10.84,199.05A20.52,20.52,0,0,1,1965.25,708Z"/><path class="cls-21" d="M1831.44,597.7,1984.9,469.89a20.47,20.47,0,0,0-10-1.95l-291.56,16.25a20.47,20.47,0,0,0-12.93,5.55L1785.3,596.55C1797.77,608.15,1818.28,608.66,1831.44,597.7Z"/><path class="cls-11" d="M1810.11,591.36a32.21,32.21,0,0,1-21.33-8.11L1745.51,545a3.06,3.06,0,1,1,4.06-4.59l43.27,38.2a26,26,0,0,0,32.53,1.62l22.42-16.11a3.07,3.07,0,0,1,3.58,5L1829,585.26A32.27,32.27,0,0,1,1810.11,591.36Z"/><path class="cls-11" d="M1731.44,531.6a3,3,0,0,1-2-.77l-5.82-5.14a3.06,3.06,0,0,1,4.05-4.6l5.83,5.14a3.07,3.07,0,0,1-2,5.37Z"/><path class="cls-22" d="M626.52,403.73H425.7A14.69,14.69,0,0,1,411,389.05V258.28a14.68,14.68,0,0,1,13.87-14.65L633.45,232a14.68,14.68,0,0,1,15.48,15.46l-7.75,142.38A14.68,14.68,0,0,1,626.52,403.73Z"/><path class="cls-23" d="M530.8,324.82,640.58,233.4a14.68,14.68,0,0,0-7.13-1.4L424.89,243.63a14.61,14.61,0,0,0-9.25,4L497.8,324C506.72,332.3,521.39,332.66,530.8,324.82Z"/><path class="cls-11" d="M515.54,320.29a22.94,22.94,0,0,1-15.25-5.81l-31-27.32a2.2,2.2,0,0,1,2.91-3.29l30.95,27.33a18.6,18.6,0,0,0,23.27,1.16l16-11.53a2.19,2.19,0,0,1,2.56,3.56l-16,11.53A23,23,0,0,1,515.54,320.29Z"/><path class="cls-11" d="M459.27,277.54a2.15,2.15,0,0,1-1.45-.55l-4.17-3.68a2.19,2.19,0,0,1,2.9-3.29l4.17,3.68a2.2,2.2,0,0,1-1.45,3.84Z"/><path class="cls-24" d="M642.76,822.87H362a20.52,20.52,0,0,1-20.52-20.52V619.55a20.52,20.52,0,0,1,19.38-20.49l291.56-16.25a20.52,20.52,0,0,1,21.63,21.61L663.25,803.47A20.52,20.52,0,0,1,642.76,822.87Z"/><path class="cls-25" d="M509,712.57l153.46-127.8a20.41,20.41,0,0,0-10-2L360.89,599.06A20.46,20.46,0,0,0,348,604.62L462.81,711.43C475.28,723,495.79,723.53,509,712.57Z"/><path class="cls-11" d="M487.62,706.24a32.15,32.15,0,0,1-21.33-8.12L423,659.92a3.07,3.07,0,1,1,4.06-4.6l43.27,38.2a26,26,0,0,0,32.53,1.63L525.3,679a3.07,3.07,0,0,1,3.58,5l-22.42,16.12A32.21,32.21,0,0,1,487.62,706.24Z"/><path class="cls-11" d="M409,646.47a3.07,3.07,0,0,1-2-.76l-5.83-5.15a3.06,3.06,0,1,1,4.06-4.59l5.83,5.14a3.06,3.06,0,0,1-2,5.36Z"/><path class="cls-26" d="M436.25,579.56H155.52A20.52,20.52,0,0,1,135,559V376.24a20.53,20.53,0,0,1,19.38-20.49L445.94,339.5a20.53,20.53,0,0,1,21.64,21.61l-10.84,199A20.52,20.52,0,0,1,436.25,579.56Z"/><path class="cls-27" d="M302.44,469.26,455.9,341.46a20.36,20.36,0,0,0-10-2L154.38,355.75a20.49,20.49,0,0,0-12.93,5.56L256.3,468.12C268.77,479.71,289.28,480.22,302.44,469.26Z"/><path class="cls-11" d="M281.11,462.93a32.17,32.17,0,0,1-21.33-8.12l-43.27-38.2a3.07,3.07,0,0,1,4.06-4.6l43.27,38.2a26,26,0,0,0,32.53,1.63l22.42-16.12a3.07,3.07,0,0,1,3.58,5L300,456.82A32.21,32.21,0,0,1,281.11,462.93Z"/><path class="cls-11" d="M202.44,403.16a3.07,3.07,0,0,1-2-.76l-5.82-5.15a3.06,3.06,0,0,1,4-4.6l5.83,5.15a3.06,3.06,0,0,1-2,5.36Z"/><path class="cls-28" d="M2318.64,751.31H2088.11a16.85,16.85,0,0,1-16.85-16.85V584.35a16.85,16.85,0,0,1,15.92-16.82l239.42-13.35a16.85,16.85,0,0,1,17.76,17.74l-8.89,163.46A16.86,16.86,0,0,1,2318.64,751.31Z"/><path class="cls-29" d="M2208.76,660.74l126-105a16.82,16.82,0,0,0-8.17-1.61l-239.42,13.35a16.79,16.79,0,0,0-10.62,4.56l94.31,87.71C2181.11,669.32,2198,669.74,2208.76,660.74Z"/><path class="cls-11" d="M2191.24,655.53a26.42,26.42,0,0,1-17.51-6.66l-35.54-31.37a2.52,2.52,0,0,1,3.34-3.78l35.53,31.37a21.33,21.33,0,0,0,26.71,1.34l18.41-13.24a2.52,2.52,0,0,1,2.94,4.1l-18.41,13.23A26.42,26.42,0,0,1,2191.24,655.53Z"/><path class="cls-11" d="M2126.64,606.46a2.54,2.54,0,0,1-1.67-.63l-4.78-4.23a2.52,2.52,0,0,1,3.33-3.77l4.79,4.22a2.52,2.52,0,0,1-1.67,4.41Z"/><path class="cls-30" d="M1245.36,266.37l-487.42,403a64.55,64.55,0,0,0,31.5,6.32l923.49-48.13a64.7,64.7,0,0,0,41-17.44L1391.46,270.51C1352.11,233.65,1287.16,231.81,1245.36,266.37Z"/><path class="cls-31" d="M1694.34,1357.4h-889a65,65,0,0,1-65-65V713.53a65,65,0,0,1,61.37-64.89L1725,597.18a65,65,0,0,1,68.51,68.42l-34.3,630.34A65,65,0,0,1,1694.34,1357.4Z"/><path class="cls-32" d="M1270.6,1008.09l486-404.71a64.52,64.52,0,0,0-31.53-6.2L801.72,648.64a64.78,64.78,0,0,0-40.93,17.59l363.69,338.25C1164,1041.2,1228.92,1042.8,1270.6,1008.09Z"/><g class="cls-33"><path class="cls-4" d="M1621.44,1114.4h-732V416.75c0-26.7,24.82-48.76,56.6-50.3l611.86-29.58c34.47-1.66,63.51,21.34,63.51,50.3Z"/><path class="cls-5" d="M1596.4,1114.4H914.51V464.5c0-24.88,23.13-45.43,52.73-46.86l570-27.56c32.11-1.55,59.17,19.88,59.17,46.86Z"/></g><path class="cls-34" d="M640.89,1537.43c-14.3,1.23-39.13,3.24-58.71,4.1-11.77.52-18.54-.63-22.44-2.19,0,.44,0,.85,0,1.24a4,4,0,0,0,3.85,3.82,685.89,685.89,0,0,0,76.88.08,2.88,2.88,0,0,0,2.35-4.33A24.12,24.12,0,0,0,640.89,1537.43Z"/><path class="cls-35" d="M582.18,1541.53c19.58-.86,44.41-2.87,58.71-4.1-14.06-17.26-58.71-28.89-58.71-28.89H569.57a52.84,52.84,0,0,0-9.83,30.8C563.64,1540.9,570.41,1542.05,582.18,1541.53Z"/><path class="cls-36" d="M567.45,1488l1.18,23.35a5.33,5.33,0,0,0,4.55,5,20.76,20.76,0,0,0,9.47-.79,6.28,6.28,0,0,0,4.24-4.85L591,1488Z"/><path class="cls-34" d="M403.66,1541.36c-6.21-.87-9-4.09-10.19-7.53l0,.09c-.92,3.63,1.2,7.4,5.43,9.19a35.39,35.39,0,0,0,15,2.36c4.66-.19,8.94-2.12,11.29-5.21l0,0C420.57,1542.53,414,1542.8,403.66,1541.36Z"/><path class="cls-37" d="M432.91,1487.8h-10.4c-15.84-.32-25.79,33.09-29,46,1.18,3.44,4,6.66,10.19,7.53,10.35,1.44,16.91,1.17,21.58-1.14,8.56-11.26,12.8-27.76,14.84-37.38A13.13,13.13,0,0,0,432.91,1487.8Z"/><path class="cls-38" d="M423.85,1466.13l-5.78,23a6.25,6.25,0,0,0,3.25,7.07c3.23,1.66,7.78,3.4,12,2.89a5.19,5.19,0,0,0,4.24-3.47l8.48-24.16Z"/><path class="cls-39" d="M417,1472.77c7.19,6.37,30.55,7.21,30.55,7.21,84.18-202,118.62-230.74,118.62-230.74-12.16,76.26-2,245.08-2,245.08,13.89,6.13,31.8,0,31.8,0a1300.9,1300.9,0,0,1,43-319.55c-56.89-1.28-87.15-20.75-97-28.56C494.5,1222.67,417,1472.77,417,1472.77Z"/><path class="cls-40" d="M556.37,913.87c-10.77,53.72-6.91,149.85-4.37,193.71.71,12.32-7.89,29.41-14.85,41.07a3.65,3.65,0,0,0,1.48,5.14c11.64,6,51.09,24.53,96.8,26.84a6.53,6.53,0,0,0,6.56-4.87c33.91-126.62,73.3-207.54,73.3-207.54C671.8,898.78,556.37,913.87,556.37,913.87Z"/><path class="cls-41" d="M571.87,1244.46a2.74,2.74,0,0,1-1.4-.39,2.71,2.71,0,0,1-.9-3.71,84.58,84.58,0,0,1,33.37-29,2.69,2.69,0,0,1,2.35,4.85,80.8,80.8,0,0,0-31.12,26.93A2.69,2.69,0,0,1,571.87,1244.46Z"/><path class="cls-42" d="M488.82,1068c3.46,25,13.68,52.32,34.13,81.31l7.77-6.34s-9-36.4-3.87-77.7C514.24,1062.83,499.34,1065.37,488.82,1068Z"/><path class="cls-43" d="M568.4,980.15l-12-66.28S476,975.3,488.82,1068c10.52-2.66,25.42-5.2,38-2.73C530.52,1035.54,541.5,1003.23,568.4,980.15Z"/><path class="cls-44" d="M715.29,968.22l-31,66.81c5,40.34,26.68,57.78,50,64.46a141.9,141.9,0,0,1,10.42-43.5C714.88,1025.17,715.29,968.22,715.29,968.22Z"/><path class="cls-45" d="M744.73,1056a141.9,141.9,0,0,0-10.42,43.5c62.34,24.19,78.83-22.71,78.83-22.71l-11.52-2C775.6,1077.49,757.43,1069.1,744.73,1056Z"/><path class="cls-46" d="M686.71,885.75l-15,55a10.72,10.72,0,0,1-14.32,7.13,219.29,219.29,0,0,1-21.58-9.86,14.43,14.43,0,0,1-5.09-20.74l31.13-46.43Z"/><path class="cls-47" d="M841.7,1039.94,458,1179.6a29.39,29.39,0,0,0-16.7,39.78l1.17,2.56a27.32,27.32,0,0,0,36.33,13.48l372.61-172.37Z"/><g class="cls-48"><ellipse class="cls-4" cx="1018.09" cy="955.92" rx="189.43" ry="186.02"/></g><path class="cls-49" d="M1018.09,748.94c-116.42,0-210.79,92.67-210.79,207s94.37,207,210.79,207,210.79-92.67,210.79-207S1134.5,748.94,1018.09,748.94Zm0,383.56c-99.32,0-179.83-79-179.83-176.58s80.51-176.58,179.83-176.58,179.82,79.06,179.82,176.58S1117.4,1132.5,1018.09,1132.5Z"/><path class="cls-4" d="M823.32,981.17a1,1,0,0,1-1-.89c-.62-4.89-1.06-9.88-1.31-14.81a1,1,0,0,1,1-1.07,1,1,0,0,1,1.08,1c.24,4.88.67,9.81,1.29,14.65a1,1,0,0,1-.88,1.14Zm1.45-57.88h-.18a1,1,0,0,1-.83-1.19,191.29,191.29,0,0,1,11.35-38.84c30.33-73.57,102.15-121.1,183-121.1A199.4,199.4,0,0,1,1124,792.42a1,1,0,1,1-1.08,1.74,197.26,197.26,0,0,0-104.87-30c-80,0-151.08,47-181.09,119.84a188,188,0,0,0-11.22,38.42A1,1,0,0,1,824.77,923.29Z"/><path class="cls-50" d="M527.51,1141.9l36.28-3,15.71,14.49s-3.71,5.13-15.33,2.18-27.54-3.68-27.54-3.68-16,7.24-16.24-6.3Z"/><path class="cls-51" d="M808.52,1085.36c3.13,2.45,13.88-2.67,20.46-6.21a7.57,7.57,0,0,0,3.66-8.94c-1.59-5-4.22-11.43-7.47-12.24C819.77,1056.62,795.59,1075.26,808.52,1085.36Z"/><path class="cls-4" d="M465.53,1229.66a1,1,0,0,1-.33-.06c-11.87-4.1-18.09-10.9-18.5-20.2s5.48-18,14.64-21.61l46.07-18a1,1,0,0,1,.75,1.91l-46.08,18c-8.34,3.26-13.7,11.14-13.33,19.62s6.12,14.56,17.12,18.36a1,1,0,0,1-.34,2Z"/><path class="cls-4" d="M522,1166.26a1,1,0,0,1-.37-2l6-2.32a1,1,0,1,1,.75,1.9l-6,2.33A.94.94,0,0,1,522,1166.26Z"/><path class="cls-52" d="M690,831.7s12.39,28.47,13.22,43.42,4.06,24.64-13.22,27.65-31.84-5.6-39.73-20.48c0,0-12.36-22.94-9.58-32.34S690,831.7,690,831.7Z"/><path class="cls-53" d="M656.13,871.58h2.18s-9-18.46-1.09-21.7,39.24-9.64,46-20.75c6.51-10.72.7-24.56-8-28.44a1.17,1.17,0,0,0-1.48.55L693,802.6a1.18,1.18,0,0,1-2.17-.22h0a1.17,1.17,0,0,0-2.1-.32c-2.07,3.32-7.68,8.73-22.7,11.5-21.32,3.94-35.42,12.57-35.77,27.3a1.17,1.17,0,0,1-1.81,1c-1.58-1-4.1-1.41-7.46,1.42-5.86,4.92-3.46,17.69,9.37,28.19a1.18,1.18,0,0,1,0,1.89c-2.33,1.51-5.8,5.11,3.19,9.92,9.19,4.91,14.63,4.38,16.69,3.85a1.16,1.16,0,0,0,.88-1.21l-.8-13.06a1.17,1.17,0,0,1,1.17-1.25Z"/><path class="cls-54" d="M656.66,874.31s-4.73-18.18-12.88-13.08,4.23,20.38,10.79,21.06Z"/><path class="cls-55" d="M2268.7,1507.28s5.83,9.19,7.3,34.92a4.2,4.2,0,0,1-4.17,4.44h-45.59a2.7,2.7,0,0,1-2.56-3.54c2.68-7.91,10.75-27.19,28.78-38.2Z"/><path class="cls-56" d="M2270.68,1489.85l-2.58,21.62a4.07,4.07,0,0,1-3.55,3.58,36,36,0,0,1-9.64-.1,6.67,6.67,0,0,1-5.5-6.62v-20.88Z"/><path class="cls-57" d="M2155.9,1504.9a63.72,63.72,0,0,1,8.54,32.18,8.06,8.06,0,0,1-8.11,7.88h-70.81a3.39,3.39,0,0,1-1.94-6.17c13.4-9.41,39.73-27,58.78-33.89Z"/><path class="cls-58" d="M2163.19,1481.55l-5.5,26.7a5.51,5.51,0,0,1-6.52,4.33,20,20,0,0,1-6.22-2.6,6.31,6.31,0,0,1-2.82-6.45l5.69-32.36Z"/><path class="cls-59" d="M2260.58,1110.26s19.12,16.86,22.72,37.14-10.19,350-10.19,350-19.13,3.19-29-2.79c0,0-11.69-214-20.58-263.43,0,0-46.61,221.66-59.52,261.71,0,0-18.43,2.24-24.37-1.26,0,0,12.21-287.33,27.55-338.42Z"/><path class="cls-60" d="M2224.1,1223.69a1.74,1.74,0,0,1-.39,0,1.55,1.55,0,0,1-1.1-1.88l8.13-31.16a1.56,1.56,0,0,1,.65-.9l17.56-11.26a1.53,1.53,0,0,1,1.65,2.58l-17,10.94-8,30.58A1.53,1.53,0,0,1,2224.1,1223.69Z"/><path class="cls-61" d="M2071.85,919.74c80.51-6.68,101.55,10,101.55,10l-38.69,61.08s-79.11-1.56-135.79-45.25a138.41,138.41,0,0,0,22.7-33.89A106.52,106.52,0,0,0,2071.85,919.74Z"/><path class="cls-62" d="M1945.77,801.57a2.47,2.47,0,0,1,4.7-1l10.28,21.92a22.87,22.87,0,0,1,1.82,13.59l-3.6,12.76a22,22,0,0,0,4.49,17.53c9.44,11.8,29.54,33.35,58.16,45.24a138.41,138.41,0,0,1-22.7,33.89c-20.8-16-38.59-37.73-48.33-67.11a10.76,10.76,0,0,1-7.6-10.71Z"/><path class="cls-63" d="M2045.35,955.15c28.34-30.54,82.33-44.33,113.58-50A28.68,28.68,0,0,1,2191,923.33c14.06,37.81,52.32,136.18,59.73,153.09,6.09,13.87,12.44,27.42,16.47,35.89a10.16,10.16,0,0,1-4.74,13.54c-26.3,12.68-73.62,27-92.8,32.61a6.58,6.58,0,0,1-8.42-6.33,20.64,20.64,0,0,0-2.93-10.58l-72.66-121.07c-45.28,50.21-84.94,54.8-115.4,43.81a229.42,229.42,0,0,0,10.08-47.58C2025.31,1009,2045.35,955.15,2045.35,955.15Z"/><path class="cls-64" d="M1905.92,1008.28l8.12-10.83c26.3,18.06,48.28,22.34,66.27,19.26a229.42,229.42,0,0,1-10.08,47.58C1930.09,1049.81,1905.92,1008.28,1905.92,1008.28Z"/><path class="cls-65" d="M1911.65,1008.48l-45.76,1.78-42.13-23.53c6-3.79,40.24,4,40.24,4s35.75-5.41,45.43-5.42c8,0,6.89,11.54,6.27,15.46-.13.8-.23,1.28-.23,1.28Z"/><path class="cls-66" d="M2115.94,849.06,2140.08,908s-27.74,19.2-50.06,17.38l-12-53Z"/><path class="cls-67" d="M2075.16,808.9c-.56.78-17.47,61.88-17.47,61.88l35.09,8.92,24.64-55.53S2084.41,795.78,2075.16,808.9Z"/><path class="cls-68" d="M2104.2,832.6l-10.68,30.25a4.23,4.23,0,0,1-.55,1.08c-1.45,2.06-7,8.78-13.49,2.73-5.92-5.49-11.41-10.42-16.48-11.31a4.48,4.48,0,0,0-5.1,3.22c-1.53,5.55-4.76,18.12-5.9,29.48a4.46,4.46,0,0,0,3.64,4.81c6.85,1.3,21.38,3.65,33.51,2.79a4.49,4.49,0,0,0,3.78-2.6c3.34-7.31,13.59-29.47,17.4-35.21,3.57-5.38,12.34-5.23,16-4.91a4.42,4.42,0,0,0,3.3-1.07c3.21-2.82,9.34-10,.72-18.64a4.49,4.49,0,0,1,.11-6.46c3.7-3.47,7.65-9.64,1.49-17.29s-14.53-6.54-19.59-4.69a4.49,4.49,0,0,1-5.4-2,3.54,3.54,0,0,0-3.65-1.71,4.41,4.41,0,0,1-4.71-4.53c.09-5-1.7-11.27-10.34-14-15.33-4.77-24.89,10-25.83,21.09s16,15.28,25.91,14.54c7.56-.57,13.18,6.93,15.44,10.55A4.46,4.46,0,0,1,2104.2,832.6Z"/><path class="cls-69" d="M2106.33,868.82s2.48-19.19,10.46-20.13,15.75,5.62,7.81,16.39C2114.73,878.47,2106.33,868.82,2106.33,868.82Z"/><path class="cls-70" d="M1282.88,840.79l86-69.17a47.13,47.13,0,0,1,29.52-10.32h502.44c25.52,0,46.21,20,46.21,44.75V944.4c0,24.72-20.69,44.75-46.21,44.75H1398.44a47.13,47.13,0,0,1-29.52-10.32l-86-69.17A43.87,43.87,0,0,1,1282.88,840.79Z"/><path class="cls-71" d="M1774.47,800.55h74.3c19.52,0,35.34,15.32,35.34,34.23v72c0,18.91-15.82,34.23-35.34,34.23h-74.3c-19.53,0-35.35-15.32-35.35-34.23v-72C1739.12,815.87,1754.94,800.55,1774.47,800.55Z"/><polygon class="cls-72" points="1771.2 852.84 1810.09 921.35 1852.04 820.16 1806.26 873.49 1771.2 852.84"/><g class="cls-73"><path class="cls-2" d="M1457.92,845l-8.14,2.2a2.46,2.46,0,0,1-.67.09h-3.32a2.57,2.57,0,0,1-2.34-1.51,39.78,39.78,0,0,0-1.92-3.8,31.11,31.11,0,0,0-3.36-4.74,12.47,12.47,0,0,0-3.83-2.91,16.17,16.17,0,0,0-4.93-1.38,2.69,2.69,0,0,0-.75,0,25.82,25.82,0,0,0-4.53,1.09,24.68,24.68,0,0,0-4.5,2.05,9.68,9.68,0,0,0-3.77,3.71,10.56,10.56,0,0,0-1.21,5.08,10.06,10.06,0,0,0,1.28,5.08,11,11,0,0,0,3.83,3.82c1.79,1,3.7,2,5.71,3s4.14,1.9,6.38,2.74c.18.07.38.15.61.22a1.77,1.77,0,0,0,.6.12c.18.08.38.15.61.23s.42.15.6.22l1.28.46c.4.15.78.31,1.14.46a67.08,67.08,0,0,1,7.86,3.48,60.42,60.42,0,0,1,7.19,4.39,14.84,14.84,0,0,1,5.17,6,20.24,20.24,0,0,1,1.68,8.62,18.49,18.49,0,0,1-2,8.73,18.71,18.71,0,0,1-5.92,6.56,29.4,29.4,0,0,1-8.66,4,37.39,37.39,0,0,1-10.15,1.31h-5.37A46,46,0,0,1,1415,903a22,22,0,0,1-8.53-4.16,29.33,29.33,0,0,1-6.25-6.79,34.59,34.59,0,0,1-3.24-6.2,2.57,2.57,0,0,1,1.82-3.43l6-1.43a2.46,2.46,0,0,1,.6-.07h3.23a2.59,2.59,0,0,1,2.41,1.67,23.72,23.72,0,0,0,2.38,4.72,29.85,29.85,0,0,0,4.44,5.25,19.73,19.73,0,0,0,5.11,3.14,21.33,21.33,0,0,0,5.88,1.51,2.91,2.91,0,0,0,.59,0,17.33,17.33,0,0,0,9.51-3.74,12.46,12.46,0,0,0,3.63-4.51,13.29,13.29,0,0,0,1.21-5.76,10.38,10.38,0,0,0-5.64-9.7c-1.88-1.06-3.88-2.07-6-3s-4.32-1.85-6.65-2.68a2.75,2.75,0,0,0-.47-.17,3.65,3.65,0,0,1-.47-.18,1.21,1.21,0,0,1-.34-.05l-.47-.17a.88.88,0,0,0-.33-.18,2.26,2.26,0,0,1-.47-.17,1.12,1.12,0,0,1-.34,0c-.14,0-.29-.1-.47-.17a60.3,60.3,0,0,1-7.86-3.2c-2.47-1.22-4.86-2.55-7.19-4a14.54,14.54,0,0,1-5-5.77,18.83,18.83,0,0,1-1.68-8.27,16.9,16.9,0,0,1,1.95-8.1,18.84,18.84,0,0,1,5.71-6.39,29.27,29.27,0,0,1,8.4-4.11,32.47,32.47,0,0,1,9.47-1.37l5.38-.11a33.83,33.83,0,0,1,9.87,1.54,19.18,19.18,0,0,1,7.46,4.39,33.73,33.73,0,0,1,5.37,6.33,43.44,43.44,0,0,1,3.9,7.48Z"/><path class="cls-2" d="M1493,826.74a3.09,3.09,0,0,1,.6.08,5.94,5.94,0,0,0,1.32.15h3.49a2.84,2.84,0,0,0,.81.12h.8c.72,0,1.46,0,2.22,0s1.55.1,2.35.18l2.22.22,2.22.23c1.52.23,3,.52,4.36.86a28.92,28.92,0,0,1,4.24,1.42,22.93,22.93,0,0,1,5.1,2.86,19.18,19.18,0,0,1,4,4.11,16.79,16.79,0,0,1,2.76,5,16.06,16.06,0,0,1,.87,5.19,19,19,0,0,1-1,6.16,22.79,22.79,0,0,1-3,5.82,19.78,19.78,0,0,1-4.77,4.8,20.81,20.81,0,0,1-6.38,3,25.78,25.78,0,0,1-3,.75q-1.55.29-3.15.51c-1.08.15-2.13.28-3.16.4a28.51,28.51,0,0,1-3,.17,15,15,0,0,1-1.89.11H1499l-5.23-.11-.29,0a16.71,16.71,0,0,1-1.73.09h-1.88l-1.38,0a2.58,2.58,0,0,0-2.65,2.58v28.89a2.58,2.58,0,0,1-2.58,2.58h-9.63a2.57,2.57,0,0,1-2.57-2.58v-71a2.58,2.58,0,0,1,2.57-2.58H1493Zm-7.08,32.46a2.58,2.58,0,0,0,2.57,2.58h5.62v.11a49.09,49.09,0,0,0,7.73-.8,35.8,35.8,0,0,0,7-2.05,9.68,9.68,0,0,0,5-4,12.9,12.9,0,0,0,1.68-6.85,14.33,14.33,0,0,0-1.75-7.48,9.68,9.68,0,0,0-5.24-4.16,45.19,45.19,0,0,0-7.32-1.94,54.36,54.36,0,0,0-8.13-.8h-4.57a2.58,2.58,0,0,0-2.68,2.58Z"/><path class="cls-2" d="M1602.55,899.46a2.57,2.57,0,0,1-2.44,3.4h-9.61a2.58,2.58,0,0,1-2.44-1.75l-7-20.8a2.59,2.59,0,0,0-2.44-1.76h-19.92a2.6,2.6,0,0,0-2.46,1.79l-6.64,20.73a2.57,2.57,0,0,1-2.45,1.79h-9.6a2.58,2.58,0,0,1-2.45-3.39l23.55-71a2.59,2.59,0,0,1,2.45-1.77h15.1a2.58,2.58,0,0,1,2.44,1.76Zm-36.47-50.76-5.85,19.46a2.58,2.58,0,0,0,2.46,3.32h12a2.58,2.58,0,0,0,2.46-3.35L1571,848.67A2.58,2.58,0,0,0,1566.08,848.7Z"/><path class="cls-2" d="M1686.87,900.28a2.57,2.57,0,0,1-2.58,2.58h-9.62a2.58,2.58,0,0,1-2.58-2.58v-33a2.58,2.58,0,0,0-5-.79L1656,901.07a2.58,2.58,0,0,1-2.45,1.79h-9a2.57,2.57,0,0,1-2.45-1.78l-11.46-35.16a2.58,2.58,0,0,0-5,.8v33.56a2.57,2.57,0,0,1-2.58,2.58h-9.62a2.58,2.58,0,0,1-2.58-2.58v-71a2.59,2.59,0,0,1,2.58-2.58h16.51a2.57,2.57,0,0,1,2.45,1.79L1647.1,874c.36,1.22.67,2.38.94,3.48s.54,2.19.81,3.25a1.88,1.88,0,0,1,.06-.46,2.27,2.27,0,0,1,.21-.45,2.67,2.67,0,0,0,.2-.46,1.74,1.74,0,0,0,.06-.45c.09-.38.18-.75.27-1.09s.18-.66.27-1a4.2,4.2,0,0,1,.14-1.08c.08-.34.17-.67.26-1l14.62-46.24a2.57,2.57,0,0,1,2.46-1.81h16.89a2.58,2.58,0,0,1,2.58,2.58Z"/></g></g></svg>