<?xml version="1.0" encoding="utf-8"?>
<!-- Generator: Adobe Illustrator 24.1.2, SVG Export Plug-In . SVG Version: 6.00 Build 0)  -->
<svg version="1.1" id="Layer_1" xmlns="http://www.w3.org/2000/svg" xmlns:xlink="http://www.w3.org/1999/xlink" x="0px" y="0px"
	 viewBox="0 0 2475 1650" style="enable-background:new 0 0 2475 1650;" xml:space="preserve">
<style type="text/css">
	.st0{display:none;}
	.st1{display:inline;fill:#FFFFFF;}
	.st2{fill:url(#SVGID_1_);}
	.st3{fill:#91B3FA;}
	.st4{fill:#BDD0FB;}
	.st5{fill:url(#SVGID_2_);}
	.st6{fill:url(#SVGID_3_);}
	.st7{fill:url(#SVGID_4_);}
	.st8{fill:url(#SVGID_5_);}
	.st9{fill:url(#SVGID_6_);}
	.st10{opacity:0.74;fill:#FFFFFF;enable-background:new    ;}
	.st11{fill:url(#SVGID_7_);}
	.st12{fill:url(#SVGID_8_);}
	.st13{fill:#FFFFFF;}
	.st14{opacity:0.2;}
	.st15{fill:url(#SVGID_9_);}
	.st16{fill:url(#SVGID_10_);}
	.st17{fill:url(#SVGID_11_);}
	.st18{fill:url(#SVGID_12_);}
	.st19{fill:url(#SVGID_13_);}
	.st20{fill:url(#SVGID_14_);}
	.st21{fill:url(#SVGID_15_);}
	.st22{fill:url(#SVGID_16_);}
	.st23{fill:url(#SVGID_17_);}
	.st24{fill:url(#SVGID_18_);}
	.st25{fill:url(#SVGID_19_);}
	.st26{fill:url(#SVGID_20_);}
	.st27{fill:url(#SVGID_21_);}
	.st28{fill:url(#SVGID_22_);}
	.st29{fill:url(#SVGID_23_);}
	.st30{fill:url(#SVGID_24_);}
	.st31{fill:url(#SVGID_25_);}
	.st32{fill:url(#SVGID_26_);}
	.st33{clip-path:url(#SVGID_28_);}
	.st34{fill:#7D97F4;}
	.st35{fill:url(#SVGID_29_);}
	.st36{fill:url(#SVGID_30_);}
	.st37{fill:url(#SVGID_31_);}
	.st38{fill:url(#SVGID_32_);}
	.st39{fill:url(#SVGID_33_);}
	.st40{fill:url(#SVGID_34_);}
	.st41{fill:url(#SVGID_35_);}
	.st42{fill:url(#SVGID_36_);}
	.st43{fill:url(#SVGID_37_);}
	.st44{fill:url(#SVGID_38_);}
	.st45{fill:url(#SVGID_39_);}
	.st46{fill:url(#SVGID_40_);}
	.st47{fill:url(#SVGID_41_);}
	.st48{opacity:0.29;}
	.st49{fill:url(#SVGID_42_);}
	.st50{fill:url(#SVGID_43_);}
	.st51{fill:url(#SVGID_44_);}
	.st52{fill:url(#SVGID_45_);}
	.st53{fill:url(#SVGID_46_);}
	.st54{fill:url(#SVGID_47_);}
	.st55{fill:url(#SVGID_48_);}
	.st56{fill:url(#SVGID_49_);}
	.st57{fill:url(#SVGID_50_);}
	.st58{fill:url(#SVGID_51_);}
	.st59{fill:url(#SVGID_52_);}
	.st60{fill:url(#SVGID_53_);}
	.st61{fill:url(#SVGID_54_);}
	.st62{fill:url(#SVGID_55_);}
	.st63{fill:url(#SVGID_56_);}
	.st64{fill:url(#SVGID_57_);}
	.st65{fill:url(#SVGID_58_);}
	.st66{fill:url(#SVGID_59_);}
	.st67{fill:url(#SVGID_60_);}
	.st68{fill:url(#SVGID_61_);}
	.st69{fill:url(#SVGID_62_);}
	.st70{fill:url(#SVGID_63_);}
	.st71{opacity:0.92;fill:#FFFFFF;enable-background:new    ;}
	.st72{fill:url(#SVGID_64_);}
	.st73{opacity:0.87;}
</style>
<g id="Background" class="st0">
	<rect class="st1" width="2475" height="1650"/>
</g>
<g id="Illustration">
	
		<linearGradient id="SVGID_1_" gradientUnits="userSpaceOnUse" x1="276.7911" y1="878.1106" x2="2308.9753" y2="878.1106" gradientTransform="matrix(1 0 0 -1 0 1650)">
		<stop  offset="0" style="stop-color:#DAE3FE"/>
		<stop  offset="1" style="stop-color:#E9EFFD"/>
	</linearGradient>
	<path class="st2" d="M2251.4,836.4c-35.2-36.5-76.9-72.1-87.8-121.6c-18.8-85.7,61.6-158.9,87.9-242.6
		c18.2-57.9,8.8-123.8-24.8-174.4s-90.9-84.6-151.3-90.2c-104-9.6-205.8,60.5-308.2,40.2c-82-16.3-146.8-87.9-230.1-95.6
		c-98-9-179.3,71.9-272.9,102.3C1152.4,291,1031,252.9,921,211.2s-225.8-88.4-341.8-68.4C450.1,165,341.8,277.5,324.6,407.4
		c-17.1,128.7,126.4,232,4.2,386.6c-38.2,48.3-63.6,115.5-46.7,174.7c16.4,57.5,86.2,93.9,86.7,153.7c0.4,47.2-44.1,84.8-47.7,131.9
		c-3.1,40.4,26,77.8,61.7,96.9s77.2,23.8,117.5,28.2l-11.9,12.8c203,18.2,407.2,14.2,611,10.1l964-19.3c33-0.7,66.9-1.5,97.6-13.5
		s58.4-37.7,63.1-70.4c8-55.6-50.2-103.9-44.8-159.9c6.9-71.4,107.5-99,126.6-168.2C2319.4,922.2,2286.7,872.9,2251.4,836.4z"/>
	<path class="st3" d="M2121.1,868.7c16.6,49.8,101.5,343.2-159.6,472.4c0,0-105.6-178.8,152-473.9c1.6-1.8,4.4-2,6.3-0.4
		C2120.4,867.2,2120.8,867.9,2121.1,868.7z"/>
	<path class="st4" d="M2105.7,918.8c-2.6,33.5-6.2,66.8-10.5,100s-9.3,66.4-15.4,99.5s-13.1,65.9-22,98.3
		c-4.4,16.2-9.3,32.3-14.9,48.3c-5.5,16-12,31.6-19.3,46.9c-1,2-3.5,2.8-5.5,1.8c-2-1-2.8-3.4-1.8-5.4l0,0l0,0
		c7.4-14.8,13.9-30.1,19.5-45.8c5.7-15.6,10.8-31.5,15.3-47.6c9.1-32.1,16.5-64.7,23-97.5s11.8-65.8,16.5-99s8.6-66.4,11.6-99.7l0,0
		c0.1-1,0.9-1.7,1.9-1.6C2105,917,2105.7,917.8,2105.7,918.8C2105.7,918.8,2105.7,918.8,2105.7,918.8z"/>
	<path class="st4" d="M2274.7,924.6c-0.1-2.8-2.4-4.9-5.1-4.9c-1.8,0-3.5,1.1-4.3,2.7c-22.6,44.7-85.7,160.1-158.3,213.6
		c-118,87.1-216.8,247-172.4,348.7C1934.7,1484.7,2284.2,1489.5,2274.7,924.6z"/>
	
		<linearGradient id="SVGID_2_" gradientUnits="userSpaceOnUse" x1="1966.8792" y1="437.8179" x2="2252.1841" y2="437.8179" gradientTransform="matrix(1 0 0 -1 0 1650)">
		<stop  offset="0" style="stop-color:#DAE3FE"/>
		<stop  offset="1" style="stop-color:#E9EFFD"/>
	</linearGradient>
	<path class="st5" d="M2252.1,990.4c-0.4,1.6-0.9,2.8-1.3,4.1l-1.4,3.9l-2.9,7.8c-2,5.2-4,10.3-6.1,15.5
		c-4.1,10.3-8.4,20.5-12.7,30.7c-8.8,20.4-18.1,40.5-27.7,60.5s-19.7,39.7-30.3,59.2s-21.4,38.8-32.9,57.8
		c-22.9,38.1-48.1,74.7-75.5,109.6c-14,17.3-28.4,34.2-43.8,50.2c-15.4,16-31.7,31.1-48.9,45.2c-0.4,0.4-1.1,0.3-1.4-0.1
		c0,0,0,0,0,0c-0.4-0.4-0.3-1.1,0.1-1.4c0,0,0,0,0,0c33.1-29.3,62.7-62.3,89.7-97.2c13.6-17.4,26.4-35.4,38.9-53.6
		s24.1-37,35.7-55.8c23-37.7,44-76.7,63.9-116.2c9.9-19.8,19.5-39.7,28.6-59.8c4.6-10.1,9.1-20.2,13.5-30.3l6.5-15.3l3.2-7.7
		l1.5-3.8c0.5-1.3,1-2.6,1.4-3.7l0.1-0.2c0.2-0.5,0.7-0.8,1.3-0.7C2252,989.3,2252.3,989.8,2252.1,990.4L2252.1,990.4L2252.1,990.4z
		"/>
	<path class="st3" d="M1930,1490c0,0,18.7-69.4,106.4-122.6c81.4-49.4,279-161.3,336.7-236c1.3-1.7,3.7-2,5.4-0.7
		c1.2,0.9,1.8,2.5,1.4,4c-10.3,43.7-44.8,151-146.9,240.9C2101.3,1491.4,1930,1490,1930,1490z"/>
	<path class="st4" d="M2328.4,1203c-3.5,9.3-7.9,18.3-13.1,26.8c-1.2,2.2-2.6,4.3-3.9,6.4l-4,6.3c-2.9,4-5.6,8.2-8.7,12.2
		c-12,15.9-25.5,30.8-40.1,44.3c-3.5,3.5-7.4,6.7-11.2,10s-7.5,6.6-11.5,9.6l-11.9,9.2c-1.9,1.6-4,2.9-6.1,4.4l-6.1,4.3l-6.1,4.3
		l-3.1,2.1l-3.2,2l-12.7,7.9c-2.1,1.3-4.2,2.7-6.4,3.9l-6.4,3.7l-12.9,7.4c-17.3,9.7-34.7,19.4-52.3,28.5
		c-8.8,4.6-17.6,9.1-26.4,13.7l-26.6,13.3c-17.7,8.9-35.5,17.5-52.9,26.8c-8.7,4.6-17.3,9.5-25.6,14.7c-8.3,5.3-16.2,11.1-23.6,17.6
		l0,0c-0.4,0.4-1.1,0.4-1.4,0c-0.4-0.4-0.4-1.1,0-1.4c7.1-7,14.8-13.4,23-19.1c8.2-5.6,16.6-11,25.3-16c4.3-2.5,8.6-5,13-7.4
		s8.7-4.8,13.1-7.1c8.7-4.8,17.5-9.3,26.3-14c17.5-9.2,35.1-18.4,52.5-27.8s34.7-18.9,51.9-28.7l12.9-7.4c4.3-2.5,8.6-4.9,12.7-7.5
		l12.6-7.7l3.1-1.9l3.1-2.1l6.1-4.2c16.3-10.9,31.9-22.9,46.7-35.9c3.6-3.3,7.4-6.5,10.9-9.9l10.5-10.3c3.4-3.5,6.7-7.2,10.1-10.8
		s6.4-7.4,9.7-11.1s6.1-7.7,9.2-11.6l4.3-6c1.5-2,2.9-4,4.2-6.1c5.7-8.1,10.7-16.6,14.9-25.6c0-0.1,0.1-0.1,0.2-0.1c0,0,0,0,0,0
		c0.1,0,0.1,0,0.1,0.1C2328.5,1202.9,2328.5,1203,2328.4,1203z"/>
	<path class="st4" d="M399.8,868.7c-16.6,49.8-101.5,343.2,159.5,472.3c0,0,105.6-178.8-152-473.9c-1.6-1.8-4.4-2-6.3-0.4
		C400.5,867.2,400.1,867.9,399.8,868.7z"/>
	
		<linearGradient id="SVGID_3_" gradientUnits="userSpaceOnUse" x1="415.2338" y1="534.4053" x2="505.1192" y2="534.4053" gradientTransform="matrix(1 0 0 -1 0 1650)">
		<stop  offset="0" style="stop-color:#DAE3FE"/>
		<stop  offset="1" style="stop-color:#E9EFFD"/>
	</linearGradient>
	<path class="st6" d="M418.7,918.5c3,33.3,7,66.6,11.6,99.7s10.1,66.2,16.5,99s13.8,65.4,23,97.5c4.5,16.1,9.6,31.9,15.3,47.6
		c5.6,15.6,12.1,30.9,19.5,45.8l0,0c1.1,2,0.4,4.5-1.6,5.6s-4.5,0.4-5.6-1.6c0-0.1-0.1-0.2-0.1-0.2l0,0
		c-7.4-15.2-13.8-30.9-19.4-46.9c-5.6-15.9-10.5-32-14.9-48.3c-8.8-32.4-15.9-65.3-22-98.3s-11.1-66.2-15.4-99.5s-7.9-66.6-10.5-100
		c-0.1-1,0.6-1.8,1.6-1.9S418.6,917.7,418.7,918.5L418.7,918.5L418.7,918.5z"/>
	<path class="st3" d="M246.2,924.6c0.1-2.8,2.4-4.9,5.2-4.8c1.8,0.1,3.4,1.1,4.3,2.7c22.7,44.7,85.7,160.1,158.2,213.6
		c118.1,87.1,216.8,247,172.4,348.7C586.2,1484.7,236.7,1489.5,246.2,924.6z"/>
	<path class="st4" d="M270.8,990c0.4,1.1,0.9,2.5,1.4,3.7l1.5,3.8l3.2,7.7l6.5,15.3c4.4,10.2,8.9,20.3,13.5,30.3
		c9.2,20.1,18.7,40.1,28.6,59.8c20,39.5,40.9,78.4,63.9,116.2c11.6,18.8,23.3,37.6,35.7,55.8s25.3,36.2,38.9,53.6
		c27,34.9,56.6,67.9,89.7,97.2c0.4,0.4,0.5,1,0.1,1.4c0,0,0,0,0,0c-0.3,0.4-1,0.5-1.4,0.1c0,0,0,0,0,0
		c-17.2-14.1-33.5-29.2-48.9-45.2c-15.4-16-29.8-33-43.8-50.2c-27.5-34.9-52.7-71.5-75.5-109.6c-11.5-19-22.4-38.3-33-57.8
		s-20.7-39.2-30.3-59.2s-18.9-40.1-27.7-60.5c-4.3-10.2-8.6-20.4-12.7-30.7c-2-5.2-4.1-10.3-6.1-15.5l-2.9-7.8l-1.4-3.9
		c-0.5-1.3-0.9-2.5-1.4-4.1c-0.2-0.5,0.1-1.1,0.7-1.3s1.1,0.1,1.3,0.7l0,0L270.8,990z"/>
	<path class="st4" d="M590.9,1490c0,0-18.7-69.4-106.4-122.6c-81.4-49.4-279-161.3-336.6-236c-1.3-1.7-3.7-2-5.4-0.7
		c-1.2,0.9-1.8,2.5-1.4,4c10.3,43.7,44.8,151,146.9,240.9C419.6,1491.4,590.9,1490,590.9,1490z"/>
	
		<linearGradient id="SVGID_4_" gradientUnits="userSpaceOnUse" x1="192.5016" y1="307.2514" x2="569.1622" y2="307.2514" gradientTransform="matrix(1 0 0 -1 0 1650)">
		<stop  offset="0" style="stop-color:#DAE3FE"/>
		<stop  offset="1" style="stop-color:#E9EFFD"/>
	</linearGradient>
	<path class="st7" d="M192.7,1202.9c4.3,8.9,9.3,17.5,14.9,25.6c1.3,2.1,2.8,4.1,4.2,6.1l4.3,6c3.1,3.8,6.1,7.8,9.2,11.6
		s6.3,7.6,9.7,11.1s6.7,7.2,10.1,10.8l10.5,10.3c3.6,3.3,7.3,6.6,10.9,9.9c14.8,13,30.4,25,46.7,35.9l6.1,4.2l3,2.1l3.1,1.9
		l12.6,7.7c4.2,2.6,8.5,5.1,12.7,7.5l12.8,7.4c17.2,9.7,34.6,19.3,52,28.7c17.4,9.4,35,18.6,52.5,27.8c8.8,4.6,17.5,9.2,26.3,14
		c4.4,2.3,8.7,4.7,13.1,7.1c4.4,2.4,8.7,4.8,13,7.4c8.6,5,17,10.3,25.3,16c8.2,5.7,15.9,12.1,23,19.1c0.4,0.4,0.4,1,0,1.4
		c-0.4,0.4-1,0.4-1.4,0l0,0l0,0c-7.4-6.5-15.3-12.3-23.6-17.6c-8.4-5.2-16.9-10.1-25.7-14.7c-17.4-9.3-35.2-17.9-52.9-26.8
		l-26.6-13.3c-8.8-4.5-17.7-9-26.4-13.7c-17.6-9.1-35-18.8-52.3-28.5l-13-7.5l-6.5-3.7c-2.1-1.2-4.3-2.6-6.4-3.9l-12.7-7.9l-3.2-2
		l-3.1-2.1l-6.1-4.3l-6.1-4.3c-2-1.4-4.1-2.8-6.1-4.4l-11.8-9.2c-4-3-7.7-6.4-11.5-9.6s-7.6-6.4-11.2-10
		c-14.7-13.5-28.1-28.4-40.1-44.3c-3-3.9-5.8-8.1-8.7-12.2l-4-6.3c-1.4-2.1-2.7-4.2-3.9-6.4c-5.2-8.5-9.6-17.5-13.1-26.8
		c0-0.1,0-0.1,0.1-0.2c0,0,0,0,0,0C192.7,1202.8,192.7,1202.8,192.7,1202.9C192.7,1202.9,192.7,1202.9,192.7,1202.9z"/>
	
		<linearGradient id="SVGID_5_" gradientUnits="userSpaceOnUse" x1="733.8719" y1="1120.6245" x2="676.6219" y2="891.6245" gradientTransform="matrix(1 0 0 -1 0 1650)">
		<stop  offset="0" style="stop-color:#FE7062"/>
		<stop  offset="1" style="stop-color:#FF928E"/>
	</linearGradient>
	<path class="st8" d="M892.2,569.3H611.5c-11.3,0-20.5-9.2-20.5-20.5V366c0-10.9,8.5-19.9,19.4-20.5l291.5-16.2
		c11.3-0.6,21,8,21.6,19.4c0,0.7,0,1.5,0,2.2l-10.8,199C912.1,560.8,903.1,569.3,892.2,569.3z"/>
	
		<linearGradient id="SVGID_6_" gradientUnits="userSpaceOnUse" x1="760.3538" y1="1421.5203" x2="754.3538" y2="1303.5203" gradientTransform="matrix(1 0 0 -1 0 1650)">
		<stop  offset="0" style="stop-color:#FE7062"/>
		<stop  offset="1" style="stop-color:#FF928E"/>
	</linearGradient>
	<path class="st9" d="M758.4,459l153.5-127.8c-3.1-1.5-6.6-2.2-10-2l-291.5,16.3c-4.8,0.3-9.4,2.2-12.9,5.6l114.8,106.8
		C724.7,469.5,745.2,470,758.4,459z"/>
	<path class="st10" d="M737.1,452.7c-7.9,0-15.4-2.9-21.3-8.1l-43.3-38.2c-1.3-1.1-1.4-3.1-0.3-4.3c1.1-1.3,3.1-1.4,4.3-0.3l0,0
		l43.3,38.2c9.1,8.1,22.6,8.8,32.5,1.6l22.4-16.1c1.4-1,3.3-0.7,4.3,0.7c1,1.4,0.7,3.3-0.7,4.3l0,0l-22.4,16.1
		C750.4,450.6,743.8,452.7,737.1,452.7z"/>
	<path class="st10" d="M658.4,392.9c-0.7,0-1.4-0.3-2-0.8l-5.9-5.2c-1.3-1.1-1.5-3-0.4-4.3c1.1-1.3,3-1.5,4.3-0.4
		c0.1,0,0.1,0.1,0.2,0.2l5.8,5.1c1.3,1.1,1.4,3.1,0.3,4.3C660.1,392.5,659.3,392.9,658.4,392.9L658.4,392.9z"/>
	
		<linearGradient id="SVGID_7_" gradientUnits="userSpaceOnUse" x1="1145.0909" y1="212.9363" x2="1486.761" y2="1237.9263" gradientTransform="matrix(1 0 0 -1 0 1650)">
		<stop  offset="0" style="stop-color:#09005D"/>
		<stop  offset="1" style="stop-color:#1A0F91"/>
	</linearGradient>
	<path class="st11" d="M2027.3,1474.2c0,14.7-12,26.7-26.8,26.7H553.9c-14.7,0-26.7-12-26.8-26.7l-12-831.3
		c0-14.7,17.3-43.4,49.1-41.2L1978,565.1c37.2-1,68.2,28.4,69.1,65.7c0,1.1,0,2.2,0,3.3L2027.3,1474.2z"/>
	
		<linearGradient id="SVGID_8_" gradientUnits="userSpaceOnUse" x1="1906.9862" y1="1305.3633" x2="22.3765" y2="-847.1768" gradientTransform="matrix(1 0 0 -1 0 1650)">
		<stop  offset="0" style="stop-color:#4042E2"/>
		<stop  offset="1" style="stop-color:#4F52FF"/>
	</linearGradient>
	<path class="st12" d="M2000.9,1448.6c0,14-11.3,25.3-25.3,25.3H588.8c-14,0-25.3-11.3-25.3-25.3l-11.4-754.7
		c1.3-45.4,41.2-61.7,65.3-60.8l1355-36.3c26.2-0.7,47.9,20,48.6,46.1c0,0.8,0,1.6,0,2.4L2000.9,1448.6z"/>
	<path class="st13" d="M578.5,1088.4c-1.1,0-2-0.8-2-1.9c0,0,0,0,0-0.1l-0.9-61.2c0-1.1,0.8-2,1.9-2.1c0,0,0,0,0.1,0l0,0
		c1.1,0,2,0.9,2,2l0,0l0.9,61.2C580.5,1087.4,579.6,1088.4,578.5,1088.4C578.5,1088.4,578.5,1088.4,578.5,1088.4L578.5,1088.4z"/>
	<path class="st3" d="M576.3,938.4c-1.1,0-2-0.9-2-2L570.8,702c0.1-15.7,4.9-28.2,14.3-37.2c17.2-16.5,44.1-15.6,45.2-15.6
		l432.7-11.6c1.1-0.1,2,0.8,2.1,1.9c0,0,0,0.1,0,0.1c0.1,1.1-0.8,2-1.9,2.1c0,0-0.1,0-0.1,0l-432.8,11.6c-1.2,0-26.4-0.8-42.4,14.5
		c-8.6,8.3-13,19.8-13.1,34.2l3.4,234.4c0,1.1-0.8,2-1.9,2.1C576.4,938.4,576.3,938.4,576.3,938.4L576.3,938.4z"/>
	<g class="st14">
		<path class="st3" d="M624.6,1406.7c1.5-62.4,0.9-614.7-2.7-662.4s70.7-56.7,184.8-62s1076.5-26.6,1101.3-28.7
			c55.7-4.5,67.2,78.7,61.7,259.5c-4.2,135.8-11.1,359.5-14.3,462.3c-1,30.6-26,54.9-56.6,55c-231.6,0.6-1119.3,3.2-1178.3,4.9
			C652.3,1437.5,624,1431.5,624.6,1406.7z"/>
	</g>
	
		<linearGradient id="SVGID_9_" gradientUnits="userSpaceOnUse" x1="1939.6888" y1="300.7046" x2="419.1889" y2="-69.1456" gradientTransform="matrix(1 0 0 -1 0 1650)">
		<stop  offset="0" style="stop-color:#09005D"/>
		<stop  offset="1" style="stop-color:#1A0F91"/>
	</linearGradient>
	<path class="st15" d="M446.6,1470.3h1690.5c4.1,0,7.5,3.4,7.5,7.5v58c0,4.1-3.4,7.5-7.5,7.5H446.6c-4.1,0-7.5-3.4-7.5-7.5v-58
		C439.1,1473.7,442.5,1470.3,446.6,1470.3z"/>
	
		<linearGradient id="SVGID_10_" gradientUnits="userSpaceOnUse" x1="1966.0084" y1="1280.3304" x2="1891.4185" y2="984.8405" gradientTransform="matrix(1 0 0 -1 0 1650)">
		<stop  offset="0" style="stop-color:#FE7062"/>
		<stop  offset="1" style="stop-color:#FF928E"/>
	</linearGradient>
	<path class="st16" d="M2119,422.1h-280.8c-11.3,0-20.5-8.4-20.5-18.8V236.1c0-10,8.5-18.2,19.4-18.7l291.6-14.9
		c12.2-0.6,22.3,8.6,21.6,19.8l-10.8,182.1C2138.9,414.3,2129.9,422.1,2119,422.1z"/>
	
		<linearGradient id="SVGID_11_" gradientUnits="userSpaceOnUse" x1="2255.2959" y1="1895.4285" x2="2135.2859" y2="1694.4084" gradientTransform="matrix(1 0 0 -1 0 1650)">
		<stop  offset="0" style="stop-color:#FE7062"/>
		<stop  offset="1" style="stop-color:#FF928E"/>
	</linearGradient>
	<path class="st17" d="M1985.2,321.2l153.5-116.9c-3.1-1.4-6.6-2-10-1.8l-291.6,14.9c-4.8,0.2-9.3,2-12.9,5.1l114.9,97.7
		C1951.5,330.8,1972,331.3,1985.2,321.2z"/>
	<path class="st10" d="M1963.8,315.4c-7.7,0-15.3-2.6-21.3-7.4l-43.3-35c-1.2-0.9-1.4-2.5-0.5-3.7c0.1-0.1,0.2-0.2,0.3-0.3
		c1.2-1.2,3-1.3,4.3-0.3l43.3,35c9.4,7.4,22.5,8,32.5,1.5l22.4-14.7c1.4-0.9,3.2-0.6,4.3,0.6c0.9,1.1,0.7,2.8-0.4,3.7
		c-0.1,0.1-0.2,0.1-0.3,0.2l-22.4,14.8C1977.1,313.5,1970.5,315.4,1963.8,315.4z"/>
	<path class="st10" d="M1885.2,260.8c-0.7,0-1.4-0.2-2-0.7l-5.8-4.7c-1.2-0.9-1.4-2.5-0.5-3.7c0.1-0.1,0.2-0.2,0.3-0.3
		c1.2-1.2,3-1.3,4.3-0.2l5.8,4.7c1.2,0.9,1.4,2.5,0.5,3.7c-0.1,0.1-0.2,0.2-0.3,0.3C1886.9,260.4,1886,260.8,1885.2,260.8z"/>
	
		<linearGradient id="SVGID_12_" gradientUnits="userSpaceOnUse" x1="2132.9143" y1="1196.7789" x2="2081.4443" y2="992.8989" gradientTransform="matrix(1 0 0 -1 0 1650)">
		<stop  offset="0" style="stop-color:#FE7062"/>
		<stop  offset="1" style="stop-color:#FF928E"/>
	</linearGradient>
	<path class="st18" d="M2224.8,520.3h-181.2c-7.3,0-13.2-5.9-13.2-13.3c0,0,0,0,0,0V389c0-7,5.5-12.8,12.5-13.2l188.2-10.5
		c7.3-0.4,13.6,5.1,14,12.4c0,0.5,0,1,0,1.5l-7,128.5C2237.7,514.8,2231.9,520.3,2224.8,520.3z"/>
	
		<linearGradient id="SVGID_13_" gradientUnits="userSpaceOnUse" x1="2144.4265" y1="1414.4003" x2="2138.4265" y2="1316.4003" gradientTransform="matrix(1 0 0 -1 0 1650)">
		<stop  offset="0" style="stop-color:#FE7062"/>
		<stop  offset="1" style="stop-color:#FF928E"/>
	</linearGradient>
	<path class="st19" d="M2138.4,449.1l99.1-82.5c-2-1-4.2-1.4-6.4-1.3l-188.2,10.5c-3.1,0.2-6.1,1.4-8.3,3.6l74.1,68.9
		C2117.1,455.8,2129.7,456.1,2138.4,449.1z"/>
	<path class="st10" d="M2124.7,445c-5.1,0-10-1.9-13.8-5.2l-27.9-24.7c-0.8-0.8-0.7-2.1,0.1-2.8c0.7-0.7,1.8-0.7,2.6-0.2l27.9,24.7
		c5.9,5.2,14.6,5.7,21,1l14.5-10.4c0.8-0.8,2.1-0.8,2.8,0c0.8,0.8,0.8,2.1,0,2.8c-0.1,0.1-0.3,0.3-0.5,0.4l-14.5,10.4
		C2133.3,443.6,2129.1,445,2124.7,445z"/>
	<path class="st10" d="M2073.9,406.4c-0.5,0-1-0.2-1.3-0.5l-3.8-3.3c-0.8-0.8-0.7-2.1,0.1-2.8c0.7-0.7,1.8-0.7,2.6-0.2l3.8,3.3
		c0.8,0.8,0.8,2,0.1,2.8C2074.9,406.1,2074.4,406.4,2073.9,406.4L2073.9,406.4z"/>
	
		<linearGradient id="SVGID_14_" gradientUnits="userSpaceOnUse" x1="1825.0254" y1="983.1798" x2="1817.0254" y2="725.1798" gradientTransform="matrix(1 0 0 -1 0 1650)">
		<stop  offset="0" style="stop-color:#FE7062"/>
		<stop  offset="1" style="stop-color:#FF928E"/>
	</linearGradient>
	<path class="st20" d="M1965.3,708h-280.7c-11.3,0-20.5-9.2-20.5-20.5c0,0,0,0,0,0V504.7c0-10.9,8.5-19.9,19.4-20.5l291.6-16.3
		c11.3-0.6,21,8,21.6,19.4c0,0.7,0,1.5,0,2.2l-10.8,199.1C1985.2,699.5,1976.2,708,1965.3,708z"/>
	
		<linearGradient id="SVGID_15_" gradientUnits="userSpaceOnUse" x1="2135.0344" y1="1708.089" x2="1979.0144" y2="1435.059" gradientTransform="matrix(1 0 0 -1 0 1650)">
		<stop  offset="0" style="stop-color:#FE7062"/>
		<stop  offset="1" style="stop-color:#FF928E"/>
	</linearGradient>
	<path class="st21" d="M1831.4,597.7l153.5-127.8c-3.1-1.5-6.6-2.2-10-2l-291.6,16.3c-4.8,0.3-9.4,2.2-12.9,5.5l114.9,106.8
		C1797.8,608.2,1818.3,608.7,1831.4,597.7z"/>
	<path class="st10" d="M1810.1,591.4c-7.9,0-15.4-2.9-21.3-8.1l-43.3-38.3c-1.3-1.1-1.4-3.1-0.3-4.3c1.1-1.3,3.1-1.4,4.3-0.3
		l43.3,38.2c9.1,8.1,22.6,8.8,32.5,1.6l22.4-16.1c1.4-1,3.3-0.7,4.3,0.7c1,1.4,0.7,3.3-0.7,4.3l-22.4,16.1
		C1823.5,589.2,1816.9,591.4,1810.1,591.4z"/>
	<path class="st10" d="M1731.4,531.6c-0.7,0-1.5-0.3-2-0.8l-5.8-5.1c-1.3-1.1-1.4-3.1-0.3-4.3c1.1-1.3,3.1-1.4,4.3-0.3l0,0l5.8,5.1
		c1.3,1.1,1.4,3.1,0.3,4.3C1733.2,531.2,1732.4,531.6,1731.4,531.6L1731.4,531.6z"/>
	
		<linearGradient id="SVGID_16_" gradientUnits="userSpaceOnUse" x1="528.7107" y1="1373.4905" x2="520.7107" y2="1221.4905" gradientTransform="matrix(1 0 0 -1 0 1650)">
		<stop  offset="0" style="stop-color:#FE7062"/>
		<stop  offset="1" style="stop-color:#FF928E"/>
	</linearGradient>
	<path class="st22" d="M626.5,403.7H425.7c-8.1,0-14.7-6.6-14.7-14.7v0V258.3c0-7.8,6.1-14.2,13.9-14.6L633.5,232
		c8.1-0.5,15,5.7,15.5,13.8c0,0.5,0,1.1,0,1.6l-7.8,142.4C640.8,397.6,634.3,403.7,626.5,403.7z"/>
	
		<linearGradient id="SVGID_17_" gradientUnits="userSpaceOnUse" x1="756.9867" y1="1817.4862" x2="618.9767" y2="1571.4662" gradientTransform="matrix(1 0 0 -1 0 1650)">
		<stop  offset="0" style="stop-color:#FE7062"/>
		<stop  offset="1" style="stop-color:#FF928E"/>
	</linearGradient>
	<path class="st23" d="M530.8,324.8l109.8-91.4c-2.2-1.1-4.7-1.5-7.1-1.4l-208.6,11.6c-3.5,0.2-6.7,1.6-9.3,4l82.2,76.4
		C506.7,332.3,521.4,332.7,530.8,324.8z"/>
	<path class="st10" d="M515.5,320.3c-5.6,0-11.1-2.1-15.3-5.8l-31-27.3c-0.9-0.9-0.9-2.3,0-3.1c0.8-0.8,2-0.9,2.9-0.2l31,27.3
		c6.5,5.8,16.2,6.3,23.3,1.2l16-11.5c1-0.7,2.4-0.5,3.1,0.5s0.5,2.4-0.5,3.1l0,0l-16,11.5C525.1,318.8,520.4,320.3,515.5,320.3z"/>
	<path class="st10" d="M459.3,277.5c-0.5,0-1.1-0.2-1.5-0.5l-4.2-3.7c-0.9-0.8-1-2.2-0.2-3.1s2.2-1,3.1-0.2l4.2,3.7
		c0.9,0.8,1,2.2,0.2,3.1C460.5,277.3,459.9,277.5,459.3,277.5L459.3,277.5z"/>
	
		<linearGradient id="SVGID_18_" gradientUnits="userSpaceOnUse" x1="507.1199" y1="995.7195" x2="511.1199" y2="701.7195" gradientTransform="matrix(1 0 0 -1 0 1650)">
		<stop  offset="0" style="stop-color:#FE7062"/>
		<stop  offset="1" style="stop-color:#FF928E"/>
	</linearGradient>
	<path class="st24" d="M642.8,822.9H362c-11.3,0-20.5-9.2-20.5-20.5l0,0V619.5c0-10.9,8.5-19.9,19.4-20.5l291.6-16.3
		c11.3-0.6,21,8,21.6,19.3c0,0.8,0,1.5,0,2.3l-10.8,199C662.7,814.4,653.7,822.9,642.8,822.9z"/>
	
		<linearGradient id="SVGID_19_" gradientUnits="userSpaceOnUse" x1="649.6036" y1="1421.0428" x2="559.5936" y2="1193.0228" gradientTransform="matrix(1 0 0 -1 0 1650)">
		<stop  offset="0" style="stop-color:#FE7062"/>
		<stop  offset="1" style="stop-color:#FF928E"/>
	</linearGradient>
	<path class="st25" d="M509,712.6l153.5-127.8c-3.1-1.5-6.6-2.2-10-2l-291.6,16.3c-4.8,0.3-9.4,2.2-12.9,5.6l114.8,106.8
		C475.3,723,495.8,723.5,509,712.6z"/>
	<path class="st10" d="M487.6,706.2c-7.9,0-15.5-2.9-21.3-8.1L423,659.9c-1.3-1.1-1.5-3-0.4-4.3c1.1-1.3,3-1.5,4.3-0.4
		c0.1,0,0.1,0.1,0.2,0.2l43.3,38.2c9.1,8.1,22.6,8.8,32.5,1.6l22.4-16.2c1.4-1,3.3-0.7,4.3,0.7c1,1.4,0.7,3.3-0.7,4.3l-22.4,16.1
		C501,704.1,494.4,706.2,487.6,706.2z"/>
	<path class="st10" d="M409,646.5c-0.7,0-1.4-0.3-2-0.8l-5.8-5.2c-1.3-1.1-1.4-3.1-0.3-4.3s3.1-1.4,4.3-0.3l5.8,5.1
		c1.3,1.1,1.4,3,0.3,4.3C410.8,646.1,409.9,646.5,409,646.5L409,646.5z"/>
	
		<linearGradient id="SVGID_20_" gradientUnits="userSpaceOnUse" x1="298.9251" y1="1210.4799" x2="290.9251" y2="970.4798" gradientTransform="matrix(1 0 0 -1 0 1650)">
		<stop  offset="0" style="stop-color:#FE7062"/>
		<stop  offset="1" style="stop-color:#FF928E"/>
	</linearGradient>
	<path class="st26" d="M436.3,579.6H155.5c-11.3,0-20.5-9.2-20.5-20.5c0,0,0,0,0,0V376.2c0-10.9,8.5-19.9,19.4-20.5l291.6-16.3
		c11.3-0.6,21,8,21.6,19.4c0,0.8,0,1.5,0,2.3l-10.8,199C456.2,571,447.2,579.6,436.3,579.6z"/>
	
		<linearGradient id="SVGID_21_" gradientUnits="userSpaceOnUse" x1="415.7122" y1="1674.7893" x2="331.7023" y2="1404.7693" gradientTransform="matrix(1 0 0 -1 0 1650)">
		<stop  offset="0" style="stop-color:#FE7062"/>
		<stop  offset="1" style="stop-color:#FF928E"/>
	</linearGradient>
	<path class="st27" d="M302.4,469.3l153.5-127.8c-3.1-1.5-6.6-2.2-10-2l-291.5,16.3c-4.8,0.3-9.4,2.2-12.9,5.6l114.8,106.8
		C268.8,479.7,289.3,480.2,302.4,469.3z"/>
	<path class="st10" d="M281.1,462.9c-7.9,0-15.5-2.9-21.3-8.1l-43.3-38.2c-1.2-1.2-1.3-3.1-0.1-4.3c1.1-1.2,2.9-1.3,4.2-0.3
		l43.3,38.2c9.1,8.1,22.6,8.8,32.5,1.6l22.4-16.1c1.4-1,3.3-0.7,4.3,0.7c1,1.4,0.7,3.3-0.7,4.3L300,456.8
		C294.5,460.8,287.9,462.9,281.1,462.9z"/>
	<path class="st10" d="M202.4,403.2c-0.7,0-1.4-0.3-2-0.8l-5.8-5.1c-1.2-1.2-1.1-3.2,0.1-4.3c1.1-1,2.7-1.1,3.9-0.3l5.8,5.1
		c1.3,1.1,1.4,3,0.3,4.3C204.2,402.8,203.3,403.2,202.4,403.2L202.4,403.2z"/>
	
		<linearGradient id="SVGID_22_" gradientUnits="userSpaceOnUse" x1="2216.2019" y1="1041.3995" x2="2150.7219" y2="782.0095" gradientTransform="matrix(1 0 0 -1 0 1650)">
		<stop  offset="0" style="stop-color:#FE7062"/>
		<stop  offset="1" style="stop-color:#FF928E"/>
	</linearGradient>
	<path class="st28" d="M2318.6,751.3h-230.5c-9.3,0-16.9-7.5-16.9-16.8v0V584.3c0-8.9,7-16.3,15.9-16.8l239.4-13.3
		c9.3-0.5,17.2,6.6,17.8,15.9c0,0.6,0,1.2,0,1.9l-8.9,163.5C2335,744.3,2327.6,751.3,2318.6,751.3z"/>
	
		<linearGradient id="SVGID_23_" gradientUnits="userSpaceOnUse" x1="2337.0852" y1="1662.448" x2="2298.0852" y2="1491.428" gradientTransform="matrix(1 0 0 -1 0 1650)">
		<stop  offset="0" style="stop-color:#FE7062"/>
		<stop  offset="1" style="stop-color:#FF928E"/>
	</linearGradient>
	<path class="st29" d="M2208.8,660.7l126-105c-2.5-1.2-5.4-1.8-8.2-1.6l-239.4,13.3c-4,0.2-7.7,1.8-10.6,4.6l94.3,87.7
		C2181.1,669.3,2198,669.7,2208.8,660.7z"/>
	<path class="st10" d="M2191.2,655.5c-6.5,0-12.7-2.4-17.5-6.7l-35.5-31.4c-1-0.9-1.1-2.5-0.2-3.6s2.5-1.1,3.6-0.2l35.5,31.4
		c7.5,6.7,18.6,7.2,26.7,1.3l18.4-13.2c1.1-0.8,2.7-0.6,3.5,0.6c0.8,1.1,0.6,2.7-0.6,3.5l-18.4,13.2
		C2202.2,653.8,2196.8,655.5,2191.2,655.5z"/>
	<path class="st10" d="M2126.6,606.5c-0.6,0-1.2-0.2-1.7-0.6l-4.8-4.2c-1-1-1-2.6,0-3.6c0.9-0.9,2.3-1,3.3-0.2l4.8,4.2
		c1,0.9,1.1,2.5,0.2,3.6C2128.1,606.2,2127.4,606.5,2126.6,606.5L2126.6,606.5z"/>
	
		<linearGradient id="SVGID_24_" gradientUnits="userSpaceOnUse" x1="1711.8334" y1="1817.9269" x2="1063.8334" y2="669.9269" gradientTransform="matrix(1 0 0 -1 0 1650)">
		<stop  offset="0" style="stop-color:#E1473D"/>
		<stop  offset="1" style="stop-color:#E9605A"/>
	</linearGradient>
	<path class="st30" d="M1245.4,266.4l-487.4,403c9.8,4.7,20.6,6.9,31.5,6.3l923.5-48.1c15.3-0.8,29.8-7,41-17.4l-362.5-339.6
		C1352.1,233.6,1287.2,231.8,1245.4,266.4z"/>
	
		<linearGradient id="SVGID_25_" gradientUnits="userSpaceOnUse" x1="1287.6396" y1="1514.0107" x2="1267.6398" y2="980.0107" gradientTransform="matrix(1 0 0 -1 0 1650)">
		<stop  offset="0" style="stop-color:#FE7062"/>
		<stop  offset="1" style="stop-color:#FF928E"/>
	</linearGradient>
	<path class="st31" d="M1694.3,1357.4h-889c-35.9,0-65-29.1-65-65l0,0V713.5c0-34.5,26.9-63,61.4-64.9l923.3-51.5
		c35.8-2,66.5,25.5,68.5,61.3c0.1,2.4,0.1,4.8,0,7.1l-34.3,630.3C1757.3,1330.4,1728.9,1357.4,1694.3,1357.4z"/>
	
		<linearGradient id="SVGID_26_" gradientUnits="userSpaceOnUse" x1="1711.8113" y1="1817.938" x2="1063.8113" y2="669.938" gradientTransform="matrix(1 0 0 -1 0 1650)">
		<stop  offset="0" style="stop-color:#E1473D"/>
		<stop  offset="1" style="stop-color:#E9605A"/>
	</linearGradient>
	<path class="st32" d="M1270.6,1008.1l486-404.7c-9.8-4.7-20.7-6.8-31.5-6.2l-923.3,51.5c-15.3,0.8-29.8,7.1-40.9,17.6l363.7,338.3
		C1164,1041.2,1228.9,1042.8,1270.6,1008.1z"/>
	<g>
		<defs>
			<path id="SVGID_27_" d="M1270.6,1008.1L1741,616.3c4.5-3.8,5.2-10.6,1.4-15.1c-1.8-2.2-4.4-3.5-7.2-3.8
				c-3.3-0.3-6.7-308.5-10.1-308.3l-923.3,51.5c-11,0.6-21.2,312-30.1,317.4c-5,3.1-6.5,9.7-3.4,14.7c0.5,0.8,1.1,1.6,1.8,2.2
				l354.4,329.6C1164,1041.2,1228.9,1042.8,1270.6,1008.1z"/>
		</defs>
		<clipPath id="SVGID_28_">
			<use xlink:href="#SVGID_27_"  style="overflow:visible;"/>
		</clipPath>
		<g class="st33">
			<path class="st3" d="M1621.4,1114.4h-732V416.8c0-26.7,24.8-48.8,56.6-50.3l611.9-29.6c34.5-1.7,63.5,21.3,63.5,50.3
				L1621.4,1114.4z"/>
			<path class="st4" d="M1596.4,1114.4H914.5V464.5c0-24.9,23.1-45.4,52.7-46.9l570-27.6c32.1-1.5,59.2,19.9,59.2,46.9
				L1596.4,1114.4z"/>
		</g>
	</g>
	<path class="st34" d="M640.9,1537.4c-14.3,1.2-39.1,3.2-58.7,4.1c-11.8,0.5-18.5-0.6-22.4-2.2c0,0.4,0,0.8,0,1.2
		c0.1,2.1,1.8,3.7,3.8,3.8c25.6,1.5,51.3,1.5,76.9,0.1c1.6-0.1,2.8-1.4,2.7-3c0-0.5-0.2-0.9-0.4-1.3
		C642.2,1539.2,641.6,1538.3,640.9,1537.4z"/>
	
		<linearGradient id="SVGID_29_" gradientUnits="userSpaceOnUse" x1="2900.7051" y1="-69.4626" x2="2858.0452" y2="-309.4626" gradientTransform="matrix(1 0 0 -1 -2333 1650)">
		<stop  offset="0" style="stop-color:#4042E2"/>
		<stop  offset="1" style="stop-color:#4F52FF"/>
	</linearGradient>
	<path class="st35" d="M582.2,1541.5c19.6-0.9,44.4-2.9,58.7-4.1c-14.1-17.3-58.7-28.9-58.7-28.9h-12.6c-6.4,9-9.9,19.8-9.8,30.8
		C563.6,1540.9,570.4,1542.1,582.2,1541.5z"/>
	
		<linearGradient id="SVGID_30_" gradientUnits="userSpaceOnUse" x1="2900.45" y1="147.712" x2="2923.97" y2="147.712" gradientTransform="matrix(1 0 0 -1 -2333 1650)">
		<stop  offset="0" style="stop-color:#FF928E"/>
		<stop  offset="1" style="stop-color:#FEB3B1"/>
	</linearGradient>
	<path class="st36" d="M567.5,1488l1.2,23.3c0.1,2.5,2,4.6,4.5,5c3.2,0.5,6.4,0.2,9.5-0.8c2.2-0.7,3.8-2.6,4.2-4.8l4.1-22.7H567.5z"
		/>
	<path class="st34" d="M403.7,1541.4c-6.2-0.9-9-4.1-10.2-7.5v0.1c-0.9,3.6,1.2,7.4,5.4,9.2c4.8,1.9,9.9,2.7,15,2.4
		c4.7-0.2,8.9-2.1,11.3-5.2l0,0C420.6,1542.5,414,1542.8,403.7,1541.4z"/>
	
		<linearGradient id="SVGID_31_" gradientUnits="userSpaceOnUse" x1="2719.7898" y1="-37.2989" x2="2677.1299" y2="-277.2989" gradientTransform="matrix(1 0 0 -1 -2333 1650)">
		<stop  offset="0" style="stop-color:#4042E2"/>
		<stop  offset="1" style="stop-color:#4F52FF"/>
	</linearGradient>
	<path class="st37" d="M432.9,1487.8h-10.4c-15.8-0.3-25.8,33.1-29,46c1.2,3.4,4,6.7,10.2,7.5c10.4,1.4,16.9,1.2,21.6-1.1
		c8.6-11.3,12.8-27.8,14.8-37.4C441.6,1496.7,438.6,1490.4,432.9,1487.8z"/>
	
		<linearGradient id="SVGID_32_" gradientUnits="userSpaceOnUse" x1="2750.8887" y1="167.3448" x2="2778.9988" y2="167.3448" gradientTransform="matrix(1 0 0 -1 -2333 1650)">
		<stop  offset="0" style="stop-color:#FF928E"/>
		<stop  offset="1" style="stop-color:#FEB3B1"/>
	</linearGradient>
	<path class="st38" d="M423.9,1466.1l-5.8,23c-0.7,2.8,0.7,5.8,3.3,7.1c3.2,1.7,7.8,3.4,12,2.9c2-0.3,3.6-1.6,4.2-3.5l8.5-24.2
		L423.9,1466.1z"/>
	
		<linearGradient id="SVGID_33_" gradientUnits="userSpaceOnUse" x1="843.653" y1="485.5748" x2="687.6629" y2="397.0748" gradientTransform="matrix(1 0 0 -1 0 1650)">
		<stop  offset="0" style="stop-color:#09005D"/>
		<stop  offset="1" style="stop-color:#1A0F91"/>
	</linearGradient>
	<path class="st39" d="M417,1472.8c7.2,6.4,30.5,7.2,30.5,7.2c84.2-202,118.6-230.7,118.6-230.7c-12.2,76.3-2,245.1-2,245.1
		c13.9,6.1,31.8,0,31.8,0c1-107.9,15.5-215.2,43-319.5c-56.9-1.3-87.2-20.8-97-28.6C494.5,1222.7,417,1472.8,417,1472.8z"/>
	
		<linearGradient id="SVGID_34_" gradientUnits="userSpaceOnUse" x1="565.6165" y1="745.8187" x2="681.6165" y2="446.8186" gradientTransform="matrix(1 0 0 -1 0 1650)">
		<stop  offset="0" style="stop-color:#FE7062"/>
		<stop  offset="1" style="stop-color:#FF928E"/>
	</linearGradient>
	<path class="st40" d="M556.4,913.9c-10.8,53.7-6.9,149.8-4.4,193.7c0.7,12.3-7.9,29.4-14.8,41.1c-1,1.7-0.5,4,1.2,5
		c0.1,0,0.2,0.1,0.2,0.1c11.6,6,51.1,24.5,96.8,26.8c3.1,0.1,5.8-1.9,6.6-4.9c33.9-126.6,73.3-207.5,73.3-207.5
		C671.8,898.8,556.4,913.9,556.4,913.9z"/>
	
		<linearGradient id="SVGID_35_" gradientUnits="userSpaceOnUse" x1="2845.6438" y1="271.4731" x2="2859.114" y2="298.4232" gradientTransform="matrix(1 0 0 -1 -2333 1650)">
		<stop  offset="0" style="stop-color:#020039"/>
		<stop  offset="1" style="stop-color:#090056"/>
	</linearGradient>
	<path class="st41" d="M571.9,1244.5c-0.5,0-1-0.1-1.4-0.4c-1.3-0.8-1.7-2.4-0.9-3.7c8.4-12.5,19.9-22.5,33.4-29
		c1.3-0.6,3-0.1,3.6,1.3s0.1,3-1.3,3.6l0,0c-12.5,6.1-23.2,15.4-31.1,26.9C573.7,1244,572.8,1244.5,571.9,1244.5z"/>
	
		<linearGradient id="SVGID_36_" gradientUnits="userSpaceOnUse" x1="2716.5266" y1="30.0732" x2="2756.5266" y2="193.0732" gradientTransform="matrix(1 0 0 -1 -2333 1650)">
		<stop  offset="0" style="stop-color:#FF928E"/>
		<stop  offset="1" style="stop-color:#FEB3B1"/>
	</linearGradient>
	<path class="st42" d="M488.8,1068c3.5,25,13.7,52.3,34.1,81.3l7.8-6.3c0,0-9-36.4-3.9-77.7C514.2,1062.8,499.3,1065.4,488.8,1068z"
		/>
	
		<linearGradient id="SVGID_37_" gradientUnits="userSpaceOnUse" x1="498.9832" y1="719.9651" x2="614.9832" y2="420.9651" gradientTransform="matrix(1 0 0 -1 0 1650)">
		<stop  offset="0" style="stop-color:#FE7062"/>
		<stop  offset="1" style="stop-color:#FF928E"/>
	</linearGradient>
	<path class="st43" d="M568.4,980.2l-12-66.3c0,0-80.4,61.4-67.6,154.1c10.5-2.7,25.4-5.2,38-2.7
		C530.5,1035.5,541.5,1003.2,568.4,980.2z"/>
	
		<linearGradient id="SVGID_38_" gradientUnits="userSpaceOnUse" x1="647.8428" y1="777.7211" x2="763.8428" y2="478.7211" gradientTransform="matrix(1 0 0 -1 0 1650)">
		<stop  offset="0" style="stop-color:#FE7062"/>
		<stop  offset="1" style="stop-color:#FF928E"/>
	</linearGradient>
	<path class="st44" d="M715.3,968.2l-31,66.8c5,40.3,26.7,57.8,50,64.5c1.2-15,4.7-29.6,10.4-43.5
		C714.9,1025.2,715.3,968.2,715.3,968.2z"/>
	
		<linearGradient id="SVGID_39_" gradientUnits="userSpaceOnUse" x1="790.7513" y1="751.6399" x2="783.7513" y2="673.6399" gradientTransform="matrix(1 0 0 -1 0 1650)">
		<stop  offset="0" style="stop-color:#FF928E"/>
		<stop  offset="1" style="stop-color:#FEB3B1"/>
	</linearGradient>
	<path class="st45" d="M744.7,1056c-5.8,13.9-9.3,28.5-10.4,43.5c62.3,24.2,78.8-22.7,78.8-22.7l-11.5-2
		C775.6,1077.5,757.4,1069.1,744.7,1056z"/>
	
		<linearGradient id="SVGID_40_" gradientUnits="userSpaceOnUse" x1="686.3621" y1="778.593" x2="626.3621" y2="679.593" gradientTransform="matrix(1 0 0 -1 0 1650)">
		<stop  offset="0" style="stop-color:#FF928E"/>
		<stop  offset="1" style="stop-color:#FEB3B1"/>
	</linearGradient>
	<path class="st46" d="M686.7,885.8l-15,55c-1.6,5.7-7.5,9.1-13.2,7.5c-0.4-0.1-0.8-0.2-1.2-0.4c-7.4-2.9-14.6-6.2-21.6-9.9
		c-7-3.8-9.6-12.6-5.8-19.6c0.2-0.4,0.5-0.8,0.7-1.2l31.1-46.4L686.7,885.8z"/>
	
		<linearGradient id="SVGID_41_" gradientUnits="userSpaceOnUse" x1="2771.6567" y1="511.0557" x2="3184.4099" y2="511.0557" gradientTransform="matrix(1 0 0 -1 -2333 1650)">
		<stop  offset="0" style="stop-color:#09005D"/>
		<stop  offset="1" style="stop-color:#1A0F91"/>
	</linearGradient>
	<path class="st47" d="M841.7,1039.9L458,1179.6c-15.3,5.6-23.1,22.4-17.6,37.7c0.3,0.7,0.5,1.4,0.9,2.1l1.2,2.6
		c6.3,13.7,22.5,19.8,36.2,13.5c0,0,0.1,0,0.1-0.1l372.6-172.4L841.7,1039.9z"/>
	<g class="st48">
		<ellipse class="st3" cx="1018.1" cy="955.9" rx="189.4" ry="186"/>
	</g>
	
		<linearGradient id="SVGID_42_" gradientUnits="userSpaceOnUse" x1="1299.199" y1="1278.8956" x2="1125.1989" y2="916.8958" gradientTransform="matrix(1 0 0 -1 0 1650)">
		<stop  offset="0" style="stop-color:#09005D"/>
		<stop  offset="1" style="stop-color:#1A0F91"/>
	</linearGradient>
	<path class="st49" d="M1018.1,748.9c-116.4,0-210.8,92.7-210.8,207s94.4,207,210.8,207s210.8-92.7,210.8-207
		S1134.5,748.9,1018.1,748.9z M1018.1,1132.5c-99.3,0-179.8-79-179.8-176.6s80.5-176.6,179.8-176.6s179.8,79.1,179.8,176.6
		S1117.4,1132.5,1018.1,1132.5z"/>
	<path class="st3" d="M823.3,981.2c-0.5,0-0.9-0.4-1-0.9c-0.6-4.9-1.1-9.9-1.3-14.8c0-0.6,0.4-1,0.9-1.1c0,0,0,0,0.1,0
		c0.6,0,1,0.4,1.1,0.9c0,0,0,0.1,0,0.1c0.2,4.9,0.7,9.8,1.3,14.7c0.1,0.5-0.3,1.1-0.8,1.1c0,0,0,0,0,0L823.3,981.2z M824.8,923.3
		h-0.2c-0.5-0.1-0.9-0.6-0.8-1.1c0,0,0,0,0-0.1c2.4-13.3,6.2-26.3,11.3-38.8c30.3-73.6,102.2-121.1,183-121.1
		c37.4-0.1,74.1,10.4,105.9,30.3c0.5,0.3,0.6,0.9,0.3,1.4c-0.3,0.5-0.9,0.6-1.4,0.3c-31.4-19.7-67.8-30.1-104.9-30
		c-80,0-151.1,47-181.1,119.8c-5.1,12.4-8.9,25.3-11.2,38.4C825.7,922.9,825.3,923.3,824.8,923.3z"/>
	
		<linearGradient id="SVGID_43_" gradientUnits="userSpaceOnUse" x1="2764.605" y1="18.2738" x2="2804.605" y2="181.2738" gradientTransform="matrix(1 0 0 -1 -2333 1650)">
		<stop  offset="0" style="stop-color:#FF928E"/>
		<stop  offset="1" style="stop-color:#FEB3B1"/>
	</linearGradient>
	<path class="st50" d="M527.5,1141.9l36.3-3l15.7,14.5c0,0-3.7,5.1-15.3,2.2s-27.5-3.7-27.5-3.7s-16,7.2-16.2-6.3L527.5,1141.9z"/>
	
		<linearGradient id="SVGID_44_" gradientUnits="userSpaceOnUse" x1="879.6594" y1="723.3002" x2="856.9894" y2="667.9603" gradientTransform="matrix(1 0 0 -1 0 1650)">
		<stop  offset="0" style="stop-color:#FF928E"/>
		<stop  offset="1" style="stop-color:#FEB3B1"/>
	</linearGradient>
	<path class="st51" d="M808.5,1085.4c3.1,2.4,13.9-2.7,20.5-6.2c3.2-1.7,4.7-5.5,3.7-8.9c-1.6-5-4.2-11.4-7.5-12.2
		C819.8,1056.6,795.6,1075.3,808.5,1085.4z"/>
	<path class="st3" d="M465.5,1229.7c-0.1,0-0.2,0-0.3-0.1c-11.9-4.1-18.1-10.9-18.5-20.2s5.5-18,14.6-21.6l46.1-18
		c0.5-0.2,1.1,0.1,1.3,0.6c0.2,0.5-0.1,1.1-0.6,1.3l-46.1,18c-8.3,3.3-13.7,11.1-13.3,19.6s6.1,14.6,17.1,18.4
		c0.6,0.1,0.9,0.6,0.8,1.2C466.6,1229.4,466.1,1229.8,465.5,1229.7L465.5,1229.7z"/>
	<path class="st3" d="M522,1166.3c-0.6,0.1-1.1-0.3-1.2-0.8c-0.1-0.6,0.3-1.1,0.8-1.2l6-2.3c0.5-0.2,1.1,0.1,1.3,0.6
		c0.2,0.5-0.1,1.1-0.6,1.3l-6,2.3C522.3,1166.2,522.1,1166.3,522,1166.3z"/>
	
		<linearGradient id="SVGID_45_" gradientUnits="userSpaceOnUse" x1="655.7227" y1="844.8017" x2="669.0627" y2="796.1317" gradientTransform="matrix(1 0 0 -1 0 1650)">
		<stop  offset="0" style="stop-color:#FF928E"/>
		<stop  offset="1" style="stop-color:#FEB3B1"/>
	</linearGradient>
	<path class="st52" d="M690,831.7c0,0,12.4,28.5,13.2,43.4s4.1,24.6-13.2,27.7s-31.8-5.6-39.7-20.5c0,0-12.4-22.9-9.6-32.3
		S690,831.7,690,831.7z"/>
	
		<linearGradient id="SVGID_46_" gradientUnits="userSpaceOnUse" x1="642.7585" y1="836.0388" x2="706.9285" y2="753.4188" gradientTransform="matrix(1 0 0 -1 0 1650)">
		<stop  offset="0" style="stop-color:#09005D"/>
		<stop  offset="1" style="stop-color:#1A0F91"/>
	</linearGradient>
	<path class="st53" d="M656.1,871.6h2.2c0,0-9-18.5-1.1-21.7s39.2-9.6,46-20.8c6.5-10.7,0.7-24.6-8-28.4c-0.6-0.2-1.2,0-1.5,0.5
		l-0.7,1.4c-0.3,0.6-1,0.8-1.6,0.5c-0.3-0.1-0.5-0.4-0.6-0.7l0,0c-0.2-0.6-0.8-1-1.4-0.8c-0.3,0.1-0.5,0.2-0.7,0.5
		c-2.1,3.3-7.7,8.7-22.7,11.5c-21.3,3.9-35.4,12.6-35.8,27.3c0,0.6-0.5,1.2-1.1,1.2c-0.2,0-0.5-0.1-0.7-0.2c-1.6-1-4.1-1.4-7.5,1.4
		c-5.9,4.9-3.5,17.7,9.4,28.2c0.5,0.4,0.6,1.1,0.2,1.7c-0.1,0.1-0.1,0.2-0.2,0.2c-2.3,1.5-5.8,5.1,3.2,9.9
		c9.2,4.9,14.6,4.4,16.7,3.8c0.5-0.1,0.9-0.6,0.9-1.2l-0.8-13.1c0-0.6,0.4-1.2,1.1-1.2c0,0,0.1,0,0.1,0L656.1,871.6z"/>
	
		<linearGradient id="SVGID_47_" gradientUnits="userSpaceOnUse" x1="632.6342" y1="838.4711" x2="645.9642" y2="789.8112" gradientTransform="matrix(1 0 0 -1 0 1650)">
		<stop  offset="0" style="stop-color:#FF928E"/>
		<stop  offset="1" style="stop-color:#FEB3B1"/>
	</linearGradient>
	<path class="st54" d="M656.7,874.3c0,0-4.7-18.2-12.9-13.1s4.2,20.4,10.8,21.1L656.7,874.3z"/>
	
		<linearGradient id="SVGID_48_" gradientUnits="userSpaceOnUse" x1="6819.75" y1="-1297.3201" x2="6747.75" y2="-1579.3201" gradientTransform="matrix(-1 0 0 -1 9429.4004 1650)">
		<stop  offset="0" style="stop-color:#4042E2"/>
		<stop  offset="1" style="stop-color:#4F52FF"/>
	</linearGradient>
	<path class="st55" d="M2268.7,1507.3c0,0,5.8,9.2,7.3,34.9c0.1,2.3-1.6,4.3-4,4.4c-0.1,0-0.1,0-0.2,0h-45.6c-1.5,0-2.7-1.2-2.7-2.7
		c0-0.3,0-0.6,0.1-0.8c2.7-7.9,10.8-27.2,28.8-38.2L2268.7,1507.3z"/>
	
		<linearGradient id="SVGID_49_" gradientUnits="userSpaceOnUse" x1="7158.7197" y1="148.612" x2="7179.9902" y2="148.612" gradientTransform="matrix(-1 0 0 -1 9429.4004 1650)">
		<stop  offset="0" style="stop-color:#FF928E"/>
		<stop  offset="1" style="stop-color:#FEB3B1"/>
	</linearGradient>
	<path class="st56" d="M2270.7,1489.8l-2.6,21.6c-0.2,1.9-1.7,3.4-3.6,3.6c-3.2,0.4-6.4,0.4-9.6-0.1c-3.2-0.6-5.5-3.4-5.5-6.6v-20.9
		L2270.7,1489.8z"/>
	
		<linearGradient id="SVGID_50_" gradientUnits="userSpaceOnUse" x1="6937.9165" y1="-1327.4891" x2="6865.9165" y2="-1609.4891" gradientTransform="matrix(-1 0 0 -1 9429.4004 1650)">
		<stop  offset="0" style="stop-color:#4042E2"/>
		<stop  offset="1" style="stop-color:#4F52FF"/>
	</linearGradient>
	<path class="st57" d="M2155.9,1504.9c5.6,9.8,8.6,20.9,8.5,32.2c-0.1,4.4-3.7,7.9-8.1,7.9h-70.8c-1.9,0-3.4-1.5-3.4-3.4
		c0-1.1,0.5-2.1,1.4-2.8c13.4-9.4,39.7-27,58.8-33.9H2155.9z"/>
	
		<linearGradient id="SVGID_51_" gradientUnits="userSpaceOnUse" x1="7266.21" y1="158.0676" x2="7287.3716" y2="158.0676" gradientTransform="matrix(-1 0 0 -1 9429.4004 1650)">
		<stop  offset="0" style="stop-color:#FF928E"/>
		<stop  offset="1" style="stop-color:#FEB3B1"/>
	</linearGradient>
	<path class="st58" d="M2163.2,1481.6l-5.5,26.7c-0.6,3-3.5,4.9-6.5,4.3c0,0,0,0,0,0c-2.2-0.5-4.3-1.4-6.2-2.6
		c-2.2-1.4-3.3-3.9-2.8-6.4l5.7-32.4L2163.2,1481.6z"/>
	
		<linearGradient id="SVGID_52_" gradientUnits="userSpaceOnUse" x1="2404.8018" y1="458.6713" x2="2302.8118" y2="384.6713" gradientTransform="matrix(1 0 0 -1 0 1650)">
		<stop  offset="0" style="stop-color:#09005D"/>
		<stop  offset="1" style="stop-color:#1A0F91"/>
	</linearGradient>
	<path class="st59" d="M2260.6,1110.3c0,0,19.1,16.9,22.7,37.1s-10.2,350-10.2,350s-19.1,3.2-29-2.8c0,0-11.7-214-20.6-263.4
		c0,0-46.6,221.7-59.5,261.7c0,0-18.4,2.2-24.4-1.3c0,0,12.2-287.3,27.6-338.4L2260.6,1110.3z"/>
	
		<linearGradient id="SVGID_53_" gradientUnits="userSpaceOnUse" x1="2222.5618" y1="449.0253" x2="2251.3064" y2="449.0253" gradientTransform="matrix(1 0 0 -1 0 1650)">
		<stop  offset="0" style="stop-color:#020039"/>
		<stop  offset="1" style="stop-color:#090056"/>
	</linearGradient>
	<path class="st60" d="M2224.1,1223.7c-0.1,0-0.3,0-0.4,0c-0.8-0.2-1.3-1.1-1.1-1.9l8.1-31.2c0.1-0.4,0.3-0.7,0.6-0.9l17.6-11.3
		c0.7-0.5,1.7-0.2,2.1,0.5c0.5,0.7,0.2,1.7-0.5,2.1l0,0l-17,10.9l-8,30.6C2225.4,1223.3,2224.8,1223.7,2224.1,1223.7z"/>
	
		<linearGradient id="SVGID_54_" gradientUnits="userSpaceOnUse" x1="2089.5842" y1="839.0399" x2="2087.5842" y2="765.0399" gradientTransform="matrix(1 0 0 -1 0 1650)">
		<stop  offset="0" style="stop-color:#E1473D"/>
		<stop  offset="1" style="stop-color:#E9605A"/>
	</linearGradient>
	<path class="st61" d="M2071.9,919.7c80.5-6.7,101.6,10,101.6,10l-38.7,61.1c0,0-79.1-1.6-135.8-45.3c9.2-10.1,16.8-21.5,22.7-33.9
		C2037.5,918.4,2054.7,921.1,2071.9,919.7z"/>
	
		<linearGradient id="SVGID_55_" gradientUnits="userSpaceOnUse" x1="7407.7798" y1="777.6697" x2="7486.418" y2="777.6697" gradientTransform="matrix(-1 0 0 -1 9429.4004 1650)">
		<stop  offset="0" style="stop-color:#FF928E"/>
		<stop  offset="1" style="stop-color:#FEB3B1"/>
	</linearGradient>
	<path class="st62" d="M1945.8,801.6c0-1.4,1.2-2.4,2.5-2.4c0.9,0,1.8,0.6,2.2,1.4l10.3,21.9c2,4.2,2.6,9,1.8,13.6l-3.6,12.8
		c-1.1,6.2,0.5,12.6,4.5,17.5c9.4,11.8,29.5,33.3,58.2,45.2c-5.9,12.4-13.5,23.8-22.7,33.9c-20.8-16-38.6-37.7-48.3-67.1
		c-4.7-1.4-7.8-5.8-7.6-10.7L1945.8,801.6z"/>
	
		<linearGradient id="SVGID_56_" gradientUnits="userSpaceOnUse" x1="2160.3342" y1="648.9023" x2="1995.3142" y2="342.8723" gradientTransform="matrix(1 0 0 -1 0 1650)">
		<stop  offset="0" style="stop-color:#FE7062"/>
		<stop  offset="1" style="stop-color:#FF928E"/>
	</linearGradient>
	<path class="st63" d="M2045.3,955.2c28.3-30.5,82.3-44.3,113.6-50c13.7-2.5,27.2,5.1,32.1,18.2c14.1,37.8,52.3,136.2,59.7,153.1
		c6.1,13.9,12.4,27.4,16.5,35.9c2.4,5,0.3,11.1-4.7,13.5c-26.3,12.7-73.6,27-92.8,32.6c-3.5,1-7.1-1-8.2-4.5
		c-0.2-0.6-0.3-1.2-0.3-1.9c0-3.7-1-7.4-2.9-10.6l-72.7-121.1c-45.3,50.2-84.9,54.8-115.4,43.8c5-15.5,8.4-31.4,10.1-47.6
		C2025.3,1009,2045.3,955.2,2045.3,955.2z"/>
	
		<linearGradient id="SVGID_57_" gradientUnits="userSpaceOnUse" x1="7585.8394" y1="760.4805" x2="7415.9297" y2="549.0905" gradientTransform="matrix(-1 0 0 -1 9429.4004 1650)">
		<stop  offset="0" style="stop-color:#FF928E"/>
		<stop  offset="1" style="stop-color:#FEB3B1"/>
	</linearGradient>
	<path class="st64" d="M1905.9,1008.3l8.1-10.8c26.3,18.1,48.3,22.3,66.3,19.3c-1.7,16.2-5,32.1-10.1,47.6
		C1930.1,1049.8,1905.9,1008.3,1905.9,1008.3z"/>
	
		<linearGradient id="SVGID_58_" gradientUnits="userSpaceOnUse" x1="7618.0762" y1="734.577" x2="7448.1563" y2="523.1869" gradientTransform="matrix(-1 0 0 -1 9429.4004 1650)">
		<stop  offset="0" style="stop-color:#FF928E"/>
		<stop  offset="1" style="stop-color:#FEB3B1"/>
	</linearGradient>
	<path class="st65" d="M1911.7,1008.5l-45.8,1.8l-42.1-23.5c6-3.8,40.2,4,40.2,4s35.8-5.4,45.4-5.4c8,0,6.9,11.5,6.3,15.5
		c-0.1,0.8-0.2,1.3-0.2,1.3L1911.7,1008.5z"/>
	
		<linearGradient id="SVGID_59_" gradientUnits="userSpaceOnUse" x1="7394.7007" y1="888.2343" x2="7230.1309" y2="585.8643" gradientTransform="matrix(-1 0 0 -1 9429.4004 1650)">
		<stop  offset="0" style="stop-color:#FF928E"/>
		<stop  offset="1" style="stop-color:#FEB3B1"/>
	</linearGradient>
	<path class="st66" d="M2115.9,849.1l24.1,58.9c0,0-27.7,19.2-50.1,17.4l-12-53L2115.9,849.1z"/>
	
		<linearGradient id="SVGID_60_" gradientUnits="userSpaceOnUse" x1="6036.311" y1="-5274.936" x2="5963.5811" y2="-5371.1563" gradientTransform="matrix(-0.82 -0.58 0.58 -0.82 10095.9795 -2.61)">
		<stop  offset="0" style="stop-color:#FF928E"/>
		<stop  offset="1" style="stop-color:#FEB3B1"/>
	</linearGradient>
	<path class="st67" d="M2075.2,808.9c-0.6,0.8-17.5,61.9-17.5,61.9l35.1,8.9l24.6-55.5C2117.4,824.2,2084.4,795.8,2075.2,808.9z"/>
	
		<linearGradient id="SVGID_61_" gradientUnits="userSpaceOnUse" x1="2208.8875" y1="861.4412" x2="2131.8875" y2="830.4412" gradientTransform="matrix(1 0 0 -1 0 1650)">
		<stop  offset="0" style="stop-color:#09005D"/>
		<stop  offset="1" style="stop-color:#1A0F91"/>
	</linearGradient>
	<path class="st68" d="M2104.2,832.6l-10.7,30.3c-0.1,0.4-0.3,0.7-0.6,1.1c-1.4,2.1-7,8.8-13.5,2.7c-5.9-5.5-11.4-10.4-16.5-11.3
		c-2.3-0.4-4.5,1-5.1,3.2c-1.5,5.5-4.8,18.1-5.9,29.5c-0.2,2.3,1.4,4.4,3.6,4.8c6.9,1.3,21.4,3.7,33.5,2.8c1.6-0.1,3.1-1.1,3.8-2.6
		c3.3-7.3,13.6-29.5,17.4-35.2c3.6-5.4,12.3-5.2,16-4.9c1.2,0.1,2.4-0.3,3.3-1.1c3.2-2.8,9.3-10,0.7-18.6c-1.8-1.8-1.8-4.6,0-6.3
		c0,0,0.1-0.1,0.1-0.1c3.7-3.5,7.6-9.6,1.5-17.3s-14.5-6.5-19.6-4.7c-2,0.7-4.3-0.1-5.4-2c-0.7-1.3-2.2-2-3.6-1.7
		c-2.4,0.2-4.5-1.7-4.7-4.1c0-0.1,0-0.3,0-0.4c0.1-5-1.7-11.3-10.3-14c-15.3-4.8-24.9,10-25.8,21.1s16,15.3,25.9,14.5
		c7.6-0.6,13.2,6.9,15.4,10.5C2104.5,829.9,2104.7,831.3,2104.2,832.6z"/>
	
		<linearGradient id="SVGID_62_" gradientUnits="userSpaceOnUse" x1="5932.3672" y1="-5347.8325" x2="5990.707" y2="-5287.9824" gradientTransform="matrix(-0.82 -0.58 0.58 -0.82 10095.9795 -2.61)">
		<stop  offset="0" style="stop-color:#FF928E"/>
		<stop  offset="1" style="stop-color:#FEB3B1"/>
	</linearGradient>
	<path class="st69" d="M2106.3,868.8c0,0,2.5-19.2,10.5-20.1s15.8,5.6,7.8,16.4C2114.7,878.5,2106.3,868.8,2106.3,868.8z"/>
	
		<linearGradient id="SVGID_63_" gradientUnits="userSpaceOnUse" x1="1700.9188" y1="997.3777" x2="1603.6289" y2="732.0477" gradientTransform="matrix(1 0 0 -1 0 1650)">
		<stop  offset="0" style="stop-color:#E1473D"/>
		<stop  offset="1" style="stop-color:#E9605A"/>
	</linearGradient>
	<path class="st70" d="M1282.9,840.8l86-69.2c8.4-6.7,18.8-10.3,29.5-10.3h502.4c25.5,0,46.2,20,46.2,44.8v138.4
		c0,24.7-20.7,44.8-46.2,44.8h-502.4c-10.7,0-21.1-3.6-29.5-10.3l-86-69.2c-19-15-22.3-42.6-7.3-61.6
		C1277.8,845.4,1280.2,842.9,1282.9,840.8z"/>
	<path class="st71" d="M1774.5,800.5h74.3c19.5,0,35.3,15.3,35.3,34.2v72c0,18.9-15.8,34.2-35.3,34.2h-74.3
		c-19.5,0-35.3-15.3-35.3-34.2v-72C1739.1,815.9,1754.9,800.5,1774.5,800.5z"/>
	
		<linearGradient id="SVGID_64_" gradientUnits="userSpaceOnUse" x1="1884.0828" y1="917.6683" x2="1753.2328" y2="700.9383" gradientTransform="matrix(1 0 0 -1 0 1650)">
		<stop  offset="0" style="stop-color:#E1473D"/>
		<stop  offset="1" style="stop-color:#E9605A"/>
	</linearGradient>
	<polygon class="st72" points="1771.2,852.8 1810.1,921.3 1852,820.2 1806.3,873.5 	"/>
	<g class="st73">
		<path class="st13" d="M1457.9,845l-8.1,2.2c-0.2,0.1-0.4,0.1-0.7,0.1h-3.3c-1,0-1.9-0.6-2.3-1.5c-0.6-1.3-1.2-2.6-1.9-3.8
			c-1-1.7-2.1-3.3-3.4-4.7c-1.1-1.2-2.4-2.2-3.8-2.9c-1.6-0.7-3.2-1.2-4.9-1.4c-0.2,0-0.5,0-0.8,0c-1.5,0.2-3.1,0.6-4.5,1.1
			c-1.6,0.5-3.1,1.2-4.5,2c-1.6,0.9-2.9,2.1-3.8,3.7c-0.8,1.6-1.2,3.3-1.2,5.1c0,1.8,0.4,3.5,1.3,5.1c0.9,1.6,2.3,2.9,3.8,3.8
			c1.8,1,3.7,2,5.7,3s4.1,1.9,6.4,2.7c0.2,0.1,0.4,0.2,0.6,0.2c0.2,0.1,0.4,0.1,0.6,0.1c0.2,0.1,0.4,0.2,0.6,0.2s0.4,0.2,0.6,0.2
			l1.3,0.5c0.4,0.2,0.8,0.3,1.1,0.5c2.7,1,5.3,2.2,7.9,3.5c2.5,1.3,4.9,2.8,7.2,4.4c2.2,1.5,4,3.6,5.2,6c1.2,2.7,1.8,5.7,1.7,8.6
			c0.1,3-0.6,6-2,8.7c-1.4,2.6-3.5,4.9-5.9,6.6c-2.6,1.8-5.6,3.1-8.7,4c-3.3,0.9-6.7,1.3-10.2,1.3h-5.4c-3.9,0-7.7-0.4-11.5-1.3
			c-3.1-0.7-6-2.2-8.5-4.2c-2.4-1.9-4.5-4.2-6.3-6.8c-1.3-2-2.4-4-3.2-6.2c-0.5-1.3,0.1-2.8,1.5-3.3c0.1,0,0.2-0.1,0.3-0.1l6-1.4
			c0.2,0,0.4-0.1,0.6-0.1h3.2c1.1,0,2,0.7,2.4,1.7c0.6,1.7,1.4,3.2,2.4,4.7c1.3,1.9,2.8,3.7,4.4,5.3c1.5,1.3,3.3,2.4,5.1,3.1
			c1.9,0.8,3.9,1.3,5.9,1.5c0.2,0,0.4,0,0.6,0c3.5-0.3,6.8-1.6,9.5-3.7c1.5-1.2,2.8-2.7,3.6-4.5c0.8-1.8,1.2-3.8,1.2-5.8
			c0.2-4.1-2-7.8-5.6-9.7c-1.9-1.1-3.9-2.1-6-3s-4.3-1.8-6.7-2.7c-0.2-0.1-0.3-0.1-0.5-0.2c-0.2,0-0.3-0.1-0.5-0.2
			c-0.1,0-0.2,0-0.3,0l-0.5-0.2c-0.1-0.1-0.2-0.1-0.3-0.2c-0.2,0-0.3-0.1-0.5-0.2c-0.1,0-0.2,0-0.3,0c-0.1,0-0.3-0.1-0.5-0.2
			c-2.7-0.9-5.3-2-7.9-3.2c-2.5-1.2-4.9-2.5-7.2-4c-2.2-1.4-3.9-3.4-5-5.8c-1.2-2.6-1.8-5.4-1.7-8.3c0-2.8,0.6-5.6,1.9-8.1
			c1.4-2.5,3.3-4.7,5.7-6.4c2.6-1.8,5.4-3.2,8.4-4.1c3.1-0.9,6.3-1.4,9.5-1.4l5.4-0.1c3.3,0,6.7,0.5,9.9,1.5
			c2.8,0.9,5.3,2.4,7.5,4.4c2,1.9,3.8,4,5.4,6.3c1.5,2.4,2.8,4.9,3.9,7.5L1457.9,845z"/>
		<path class="st13" d="M1493,826.7c0.2,0,0.4,0,0.6,0.1c0.4,0.1,0.9,0.1,1.3,0.2h3.5c0.3,0.1,0.5,0.1,0.8,0.1h0.8
			c0.7,0,1.5,0,2.2,0s1.6,0.1,2.3,0.2l2.2,0.2l2.2,0.2c1.5,0.2,3,0.5,4.4,0.9c1.4,0.4,2.9,0.8,4.2,1.4c1.8,0.7,3.5,1.7,5.1,2.9
			c1.5,1.2,2.9,2.5,4,4.1c1.2,1.5,2.1,3.2,2.8,5c0.6,1.7,0.9,3.4,0.9,5.2c0,2.1-0.3,4.2-1,6.2c-0.7,2.1-1.7,4-3,5.8
			c-1.3,1.9-2.9,3.5-4.8,4.8c-1.9,1.4-4.1,2.4-6.4,3c-1,0.3-2,0.6-3,0.8c-1,0.2-2.1,0.4-3.2,0.5c-1.1,0.2-2.1,0.3-3.2,0.4
			c-1,0.1-2,0.2-3,0.2c-0.6,0.1-1.3,0.1-1.9,0.1h-2l-5.2-0.1h-0.3c-0.6,0.1-1.2,0.1-1.7,0.1h-1.9h-1.4c-1.4,0-2.6,1.1-2.6,2.5
			c0,0,0,0,0,0.1v28.9c0,1.4-1.2,2.6-2.6,2.6h-9.6c-1.4,0-2.6-1.2-2.6-2.6c0,0,0,0,0,0v-71c0-1.4,1.1-2.6,2.6-2.6L1493,826.7
			L1493,826.7z M1485.9,859.2c0,1.4,1.1,2.6,2.6,2.6h5.6v0.1c2.6-0.1,5.2-0.3,7.7-0.8c2.4-0.4,4.7-1.1,7-2c2.1-0.7,3.8-2.1,5-4
			c1.2-2.1,1.8-4.5,1.7-6.8c0.1-2.6-0.5-5.2-1.8-7.5c-1.2-2-3.1-3.4-5.2-4.2c-2.4-0.9-4.8-1.5-7.3-1.9c-2.7-0.5-5.4-0.7-8.1-0.8
			h-4.6c-1.4-0.1-2.6,1.1-2.7,2.5c0,0,0,0.1,0,0.1L1485.9,859.2z"/>
		<path class="st13" d="M1602.6,899.5c0.5,1.3-0.3,2.8-1.6,3.3c-0.3,0.1-0.6,0.1-0.8,0.1h-9.6c-1.1,0-2.1-0.7-2.4-1.8l-7-20.8
			c-0.4-1-1.3-1.8-2.4-1.8h-19.9c-1.1,0-2.1,0.7-2.5,1.8l-6.6,20.7c-0.3,1.1-1.3,1.8-2.4,1.8h-9.6c-1.4,0-2.6-1.2-2.6-2.6
			c0-0.3,0-0.5,0.1-0.8l23.6-71c0.4-1.1,1.3-1.8,2.4-1.8h15.1c1.1,0,2.1,0.7,2.4,1.8L1602.6,899.5z M1566.1,848.7l-5.8,19.5
			c-0.4,1.4,0.4,2.8,1.7,3.2c0.2,0.1,0.5,0.1,0.7,0.1h12c1.4,0,2.6-1.2,2.6-2.6c0-0.3,0-0.5-0.1-0.8l-6.2-19.5
			c-0.4-1.4-1.9-2.1-3.2-1.7C1567,847.3,1566.3,847.9,1566.1,848.7L1566.1,848.7z"/>
		<path class="st13" d="M1686.9,900.3c0,1.4-1.1,2.6-2.6,2.6c0,0,0,0,0,0h-9.6c-1.4,0-2.6-1.2-2.6-2.6v-33c-0.1-1.4-1.3-2.5-2.7-2.5
			c-1,0-2,0.7-2.3,1.7l-11.1,34.6c-0.3,1.1-1.3,1.8-2.4,1.8h-9c-1.1,0-2.1-0.7-2.4-1.8l-11.5-35.2c-0.5-1.3-2-2-3.3-1.5
			c-1,0.4-1.7,1.3-1.7,2.3v33.6c0,1.4-1.1,2.6-2.6,2.6c0,0,0,0,0,0h-9.6c-1.4,0-2.6-1.2-2.6-2.6v-71c0-1.4,1.2-2.6,2.6-2.6h16.5
			c1.1,0,2.1,0.7,2.4,1.8l14.7,45.5c0.4,1.2,0.7,2.4,0.9,3.5s0.5,2.2,0.8,3.3c0-0.2,0-0.3,0.1-0.5c0.1-0.2,0.1-0.3,0.2-0.5
			c0.1-0.1,0.1-0.3,0.2-0.5c0-0.1,0.1-0.3,0.1-0.5c0.1-0.4,0.2-0.8,0.3-1.1s0.2-0.7,0.3-1c0-0.4,0-0.7,0.1-1.1
			c0.1-0.3,0.2-0.7,0.3-1l14.6-46.2c0.3-1.1,1.3-1.8,2.5-1.8h16.9c1.4,0,2.6,1.2,2.6,2.6V900.3z"/>
	</g>
</g>
</svg>
